0
SECTION
2
HEADER
9
$ACADVER
1
AC1009
9
$LUNITS
70
2
9
$LUPREC
70
2
9
$MEASUREMENT
70
1
9
$EXTMIN
10
0
20
0
30
0
9
$EXTMAX
10
594
20
420
30
0
0
ENDSEC
0
SECTION
2
TABLES
0
TABLE
2
LTYPE
70
1
0
LTYPE
2
CONTINUOUS
70
0
3
Continuous
72
65
73
0
40
0
0
ENDTAB
0
TABLE
2
LAYER
70
18
0
LAYER
2
0
70
0
62
7
6
CONTINUOUS
0
LAYER
2
ARCH-WALLS
70
0
62
8
6
CONTINUOUS
0
LAYER
2
ARCH-DOORS
70
0
62
8
6
CONTINUOUS
0
LAYER
2
ARCH-TEXT
70
0
62
8
6
CONTINUOUS
0
LAYER
2
ARCH-FURNITURE
70
0
62
8
6
CONTINUOUS
0
LAYER
2
ELEC-LIGHT
70
0
62
2
6
CONTINUOUS
0
LAYER
2
ELEC-EMERGENCY
70
0
62
3
6
CONTINUOUS
0
LAYER
2
ELEC-SWITCH
70
0
62
6
6
CONTINUOUS
0
LAYER
2
ELEC-POWER
70
0
62
4
6
CONTINUOUS
0
LAYER
2
ELEC-DEDICATED
70
0
62
1
6
CONTINUOUS
0
LAYER
2
ELEC-DB
70
0
62
1
6
CONTINUOUS
0
LAYER
2
ELEC-CABLE
70
0
62
5
6
CONTINUOUS
0
LAYER
2
ELEC-SLD
70
0
62
7
6
CONTINUOUS
0
LAYER
2
ELEC-SYMBOLS
70
0
62
7
6
CONTINUOUS
0
LAYER
2
ELEC-TEXT
70
0
62
7
6
CONTINUOUS
0
LAYER
2
ELEC-LIGHT-TEXT
70
0
62
2
6
CONTINUOUS
0
LAYER
2
ELEC-DIMENSIONS
70
0
62
8
6
CONTINUOUS
0
LAYER
2
SHEET
70
0
62
7
6
CONTINUOUS
0
ENDTAB
0
TABLE
2
STYLE
70
1
0
STYLE
2
STANDARD
70
0
40
0
41
1
50
0
71
0
42
2.5
3
standard
4

0
ENDTAB
0
ENDSEC
0
SECTION
2
BLOCKS
0
BLOCK
8
0
2
LP
70
0
10
0
20
0
30
0
3
LP
1

0
LINE
8
0
10
-3.5
20
1.5
30
0
11
3.5
21
1.5
31
0
0
LINE
8
0
10
3.5
20
1.5
30
0
11
3.5
21
-1.5
31
0
0
LINE
8
0
10
3.5
20
-1.5
30
0
11
-3.5
21
-1.5
31
0
0
LINE
8
0
10
-3.5
20
-1.5
30
0
11
-3.5
21
1.5
31
0
0
LINE
8
0
10
-3.5
20
1.5
30
0
11
3.5
21
-1.5
31
0
0
ENDBLK
8
0
0
BLOCK
8
0
2
LB
70
0
10
0
20
0
30
0
3
LB
1

0
LINE
8
0
10
-4.0
20
0.8000000000000114
30
0
11
4.0
21
0.8000000000000114
31
0
0
LINE
8
0
10
4.0
20
0.8000000000000114
30
0
11
4.0
21
-0.8000000000000114
31
0
0
LINE
8
0
10
4.0
20
-0.8000000000000114
30
0
11
-4.0
21
-0.8000000000000114
31
0
0
LINE
8
0
10
-4.0
20
-0.8000000000000114
30
0
11
-4.0
21
0.8000000000000114
31
0
0
LINE
8
0
10
-4.0
20
0.8000000000000114
30
0
11
4.0
21
-0.8000000000000114
31
0
0
ENDBLK
8
0
0
BLOCK
8
0
2
EM
70
0
10
0
20
0
30
0
3
EM
1

0
CIRCLE
8
0
10
0
20
0
30
0
40
2
0
LINE
8
0
10
-1.5
20
1.5
30
0
11
1.5
21
-1.5
31
0
0
LINE
8
0
10
-1.5
20
-1.5
30
0
11
1.5
21
1.5
31
0
0
ENDBLK
8
0
0
BLOCK
8
0
2
EX
70
0
10
0
20
0
30
0
3
EX
1

0
LINE
8
0
10
-4
20
2
30
0
11
4
21
2
31
0
0
LINE
8
0
10
4
20
2
30
0
11
4
21
-2
31
0
0
LINE
8
0
10
4
20
-2
30
0
11
-4
21
-2
31
0
0
LINE
8
0
10
-4
20
-2
30
0
11
-4
21
2
31
0
0
TEXT
8
0
10
-3.1
20
-0.8000000000000114
30
0
40
1.7
1
EXIT
7
STANDARD
41
0.85
0
ENDBLK
8
0
0
BLOCK
8
0
2
SW1
70
0
10
0
20
0
30
0
3
SW1
1

0
CIRCLE
8
0
10
0
20
0
30
0
40
1.3
0
LINE
8
0
10
0
20
1.3000000000000114
30
0
11
2.5
21
3.5
31
0
0
ENDBLK
8
0
0
BLOCK
8
0
2
SW2
70
0
10
0
20
0
30
0
3
SW2
1

0
CIRCLE
8
0
10
0
20
0
30
0
40
1.3
0
LINE
8
0
10
0
20
1.3000000000000114
30
0
11
2.5
21
3.5
31
0
0
LINE
8
0
10
1
20
0.8000000000000114
30
0
11
3.5
21
3
31
0
0
ENDBLK
8
0
0
BLOCK
8
0
2
GPO1
70
0
10
0
20
0
30
0
3
GPO1
1

0
CIRCLE
8
0
10
0
20
0
30
0
40
1.8
0
LINE
8
0
10
-2.5
20
2.5
30
0
11
2.5
21
2.5
31
0
0
LINE
8
0
10
-0.6
20
1
30
0
11
-0.6
21
-1
31
0
0
ENDBLK
8
0
0
BLOCK
8
0
2
GPO2
70
0
10
0
20
0
30
0
3
GPO2
1

0
CIRCLE
8
0
10
0
20
0
30
0
40
1.8
0
LINE
8
0
10
-2.5
20
2.5
30
0
11
2.5
21
2.5
31
0
0
LINE
8
0
10
-0.6
20
1
30
0
11
-0.6
21
-1
31
0
0
LINE
8
0
10
0.6
20
1
30
0
11
0.6
21
-1
31
0
0
ENDBLK
8
0
0
BLOCK
8
0
2
DED
70
0
10
0
20
0
30
0
3
DED
1

0
CIRCLE
8
0
10
0
20
0
30
0
40
1.8
0
LINE
8
0
10
-2.5
20
2.5
30
0
11
2.5
21
2.5
31
0
0
LINE
8
0
10
-0.6
20
1
30
0
11
-0.6
21
-1
31
0
0
LINE
8
0
10
0.6
20
1
30
0
11
0.6
21
-1
31
0
0
LINE
8
0
10
-3
20
3.5
30
0
11
3
21
3.5
31
0
0
LINE
8
0
10
3
20
3.5
30
0
11
3
21
-2.5
31
0
0
LINE
8
0
10
3
20
-2.5
30
0
11
-3
21
-2.5
31
0
0
LINE
8
0
10
-3
20
-2.5
30
0
11
-3
21
3.5
31
0
0
ENDBLK
8
0
0
BLOCK
8
0
2
DB
70
0
10
0
20
0
30
0
3
DB
1

0
LINE
8
0
10
-4
20
3
30
0
11
4
21
3
31
0
0
LINE
8
0
10
4
20
3
30
0
11
4
21
-3
31
0
0
LINE
8
0
10
4
20
-3
30
0
11
-4
21
-3
31
0
0
LINE
8
0
10
-4
20
-3
30
0
11
-4
21
3
31
0
0
LINE
8
0
10
-4
20
3
30
0
11
4
21
-3
31
0
0
ENDBLK
8
0
0
BLOCK
8
0
2
MSB
70
0
10
0
20
0
30
0
3
MSB
1

0
LINE
8
0
10
-4
20
3
30
0
11
4
21
3
31
0
0
LINE
8
0
10
4
20
3
30
0
11
4
21
-3
31
0
0
LINE
8
0
10
4
20
-3
30
0
11
-4
21
-3
31
0
0
LINE
8
0
10
-4
20
-3
30
0
11
-4
21
3
31
0
0
LINE
8
0
10
-4
20
3
30
0
11
4
21
-3
31
0
0
LINE
8
0
10
-5
20
4
30
0
11
5
21
4
31
0
0
LINE
8
0
10
5
20
4
30
0
11
5
21
-4
31
0
0
LINE
8
0
10
5
20
-4
30
0
11
-5
21
-4
31
0
0
LINE
8
0
10
-5
20
-4
30
0
11
-5
21
4
31
0
0
ENDBLK
8
0
0
BLOCK
8
0
2
LOAD3
70
0
10
0
20
0
30
0
3
LOAD3
1

0
LINE
8
0
10
-4
20
3
30
0
11
4
21
3
31
0
0
LINE
8
0
10
4
20
3
30
0
11
4
21
-3
31
0
0
LINE
8
0
10
4
20
-3
30
0
11
-4
21
-3
31
0
0
LINE
8
0
10
-4
20
-3
30
0
11
-4
21
3
31
0
0
TEXT
8
0
10
-2.8
20
-1
30
0
40
2
1
3~
7
STANDARD
41
0.85
0
ENDBLK
8
0
0
BLOCK
8
0
2
LOAD1
70
0
10
0
20
0
30
0
3
LOAD1
1

0
LINE
8
0
10
-4
20
3
30
0
11
4
21
3
31
0
0
LINE
8
0
10
4
20
3
30
0
11
4
21
-3
31
0
0
LINE
8
0
10
4
20
-3
30
0
11
-4
21
-3
31
0
0
LINE
8
0
10
-4
20
-3
30
0
11
-4
21
3
31
0
0
TEXT
8
0
10
-2.8
20
-1
30
0
40
2
1
1~
7
STANDARD
41
0.85
0
ENDBLK
8
0
0
BLOCK
8
0
2
JUNC
70
0
10
0
20
0
30
0
3
JUNC
1

0
CIRCLE
8
0
10
0
20
0
30
0
40
0.7
0
ENDBLK
8
0
0
BLOCK
8
0
2
ROUTE
70
0
10
0
20
0
30
0
3
ROUTE
1

0
LINE
8
0
10
-6.0
20
0.0
30
0
11
-4.0
21
0.0
31
0
0
LINE
8
0
10
-2.0
20
0.0
30
0
11
0.0
21
0.0
31
0
0
LINE
8
0
10
2.0
20
0.0
30
0
11
4.0
21
0.0
31
0
0
ENDBLK
8
0
0
ENDSEC
0
SECTION
2
ENTITIES
0
INSERT
8
ELEC-LIGHT
2
LP
10
32
20
348
30
0
41
1
42
1
43
1
0
TEXT
8
ELEC-TEXT
10
46
20
347
30
0
40
3
1
LP
7
STANDARD
41
0.85
0
TEXT
8
ELEC-TEXT
10
69
20
347
30
0
40
2.8
1
LED panel, 36 W / 4500 lm
7
STANDARD
41
0.85
0
INSERT
8
ELEC-LIGHT
2
LB
10
32
20
331
30
0
41
1
42
1
43
1
0
TEXT
8
ELEC-TEXT
10
46
20
330
30
0
40
3
1
LB
7
STANDARD
41
0.85
0
TEXT
8
ELEC-TEXT
10
69
20
330
30
0
40
2.8
1
LED batten, 24 W / 2800 lm
7
STANDARD
41
0.85
0
INSERT
8
ELEC-EMERGENCY
2
EM
10
32
20
314
30
0
41
1
42
1
43
1
0
TEXT
8
ELEC-TEXT
10
46
20
313
30
0
40
3
1
EM
7
STANDARD
41
0.85
0
TEXT
8
ELEC-TEXT
10
69
20
313
30
0
40
2.8
1
Self-contained emergency luminaire
7
STANDARD
41
0.85
0
INSERT
8
ELEC-EMERGENCY
2
EX
10
32
20
297
30
0
41
1
42
1
43
1
0
TEXT
8
ELEC-TEXT
10
46
20
296
30
0
40
3
1
EX
7
STANDARD
41
0.85
0
TEXT
8
ELEC-TEXT
10
69
20
296
30
0
40
2.8
1
Maintained exit sign, arrow annotated
7
STANDARD
41
0.85
0
INSERT
8
ELEC-SWITCH
2
SW1
10
32
20
280
30
0
41
1
42
1
43
1
0
TEXT
8
ELEC-TEXT
10
46
20
279
30
0
40
3
1
SW1
7
STANDARD
41
0.85
0
TEXT
8
ELEC-TEXT
10
69
20
279
30
0
40
2.8
1
Single switch / local control point
7
STANDARD
41
0.85
0
INSERT
8
ELEC-SWITCH
2
SW2
10
32
20
263
30
0
41
1
42
1
43
1
0
TEXT
8
ELEC-TEXT
10
46
20
262
30
0
40
3
1
SW2
7
STANDARD
41
0.85
0
TEXT
8
ELEC-TEXT
10
69
20
262
30
0
40
2.8
1
Two-gang switch / scene control
7
STANDARD
41
0.85
0
INSERT
8
ELEC-POWER
2
GPO1
10
32
20
246
30
0
41
1
42
1
43
1
0
TEXT
8
ELEC-TEXT
10
46
20
245
30
0
40
3
1
GPO1
7
STANDARD
41
0.85
0
TEXT
8
ELEC-TEXT
10
69
20
245
30
0
40
2.8
1
Single socket outlet
7
STANDARD
41
0.85
0
INSERT
8
ELEC-POWER
2
GPO2
10
32
20
229
30
0
41
1
42
1
43
1
0
TEXT
8
ELEC-TEXT
10
46
20
228
30
0
40
3
1
GPO2
7
STANDARD
41
0.85
0
TEXT
8
ELEC-TEXT
10
69
20
228
30
0
40
2.8
1
Double general-purpose outlet
7
STANDARD
41
0.85
0
INSERT
8
ELEC-DEDICATED
2
DED
10
32
20
212
30
0
41
1
42
1
43
1
0
TEXT
8
ELEC-TEXT
10
46
20
211
30
0
40
3
1
DED
7
STANDARD
41
0.85
0
TEXT
8
ELEC-TEXT
10
69
20
211
30
0
40
2.8
1
Dedicated appliance connection
7
STANDARD
41
0.85
0
INSERT
8
ELEC-DB
2
DB
10
32
20
195
30
0
41
1
42
1
43
1
0
TEXT
8
ELEC-TEXT
10
46
20
194
30
0
40
3
1
DB
7
STANDARD
41
0.85
0
TEXT
8
ELEC-TEXT
10
69
20
194
30
0
40
2.8
1
Floor distribution board
7
STANDARD
41
0.85
0
INSERT
8
ELEC-DB
2
MSB
10
32
20
178
30
0
41
1
42
1
43
1
0
TEXT
8
ELEC-TEXT
10
46
20
177
30
0
40
3
1
MSB
7
STANDARD
41
0.85
0
TEXT
8
ELEC-TEXT
10
69
20
177
30
0
40
2.8
1
Main switchboard
7
STANDARD
41
0.85
0
INSERT
8
ELEC-DEDICATED
2
LOAD3
10
32
20
161
30
0
41
1
42
1
43
1
0
TEXT
8
ELEC-TEXT
10
46
20
160
30
0
40
3
1
LOAD3
7
STANDARD
41
0.85
0
TEXT
8
ELEC-TEXT
10
69
20
160
30
0
40
2.8
1
Three-phase equipment
7
STANDARD
41
0.85
0
INSERT
8
ELEC-DEDICATED
2
LOAD1
10
32
20
144
30
0
41
1
42
1
43
1
0
TEXT
8
ELEC-TEXT
10
46
20
143
30
0
40
3
1
LOAD1
7
STANDARD
41
0.85
0
TEXT
8
ELEC-TEXT
10
69
20
143
30
0
40
2.8
1
Single-phase equipment
7
STANDARD
41
0.85
0
INSERT
8
ELEC-CABLE
2
JUNC
10
32
20
127
30
0
41
1
42
1
43
1
0
TEXT
8
ELEC-TEXT
10
46
20
126
30
0
40
3
1
JUNC
7
STANDARD
41
0.85
0
TEXT
8
ELEC-TEXT
10
69
20
126
30
0
40
2.8
1
Junction / branch point
7
STANDARD
41
0.85
0
INSERT
8
ELEC-CABLE
2
ROUTE
10
32
20
110
30
0
41
1
42
1
43
1
0
TEXT
8
ELEC-TEXT
10
46
20
109
30
0
40
3
1
ROUTE
7
STANDARD
41
0.85
0
TEXT
8
ELEC-TEXT
10
69
20
109
30
0
40
2.8
1
Grouped cable route
7
STANDARD
41
0.85
0
TEXT
8
ELEC-TEXT
10
302
20
350
30
0
40
4
1
GENERAL NOTES
7
STANDARD
41
0.85
0
TEXT
8
ELEC-TEXT
10
302
20
338
30
0
40
2.7
1
01  Concept only. No claim of statutory or standards compliance.
7
STANDARD
41
0.85
0
TEXT
8
ELEC-TEXT
10
302
20
330
30
0
40
2.7
1
02  Verify applicable NCC edition, jurisdiction and distributor requirements.
7
STANDARD
41
0.85
0
TEXT
8
ELEC-TEXT
10
302
20
322
30
0
40
2.7
1
03  Review AS/NZS 3000, AS/NZS 3008.1.1, AS/NZS 2293.1,
7
STANDARD
41
0.85
0
TEXT
8
ELEC-TEXT
10
302
20
314
30
0
40
2.7
1
     AS/NZS 1680 series and AS/NZS 61439 as applicable.
7
STANDARD
41
0.85
0
TEXT
8
ELEC-TEXT
10
302
20
306
30
0
40
2.7
1
04  Circuit IDs are unique: GF-L01 / FF-P01 / GF-AC01.
7
STANDARD
41
0.85
0
TEXT
8
ELEC-TEXT
10
302
20
298
30
0
40
2.7
1
05  Equipment AC-GF-01 is served by circuit GF-AC01.
7
STANDARD
41
0.85
0
TEXT
8
ELEC-TEXT
10
302
20
290
30
0
40
2.7
1
06  Nxxx, SOxxx and Exxx take the floor prefix shown on the sheet.
7
STANDARD
41
0.85
0
TEXT
8
ELEC-TEXT
10
302
20
282
30
0
40
2.7
1
07  DB-GF and DB-FF are parallel radial feeders from MSB.
7
STANDARD
41
0.85
0
TEXT
8
ELEC-TEXT
10
302
20
274
30
0
40
2.7
1
08  Separate neutral and PE downstream of the main MEN point.
7
STANDARD
41
0.85
0
TEXT
8
ELEC-TEXT
10
302
20
266
30
0
40
2.7
1
09  RCD type and compatibility depend on actual equipment.
7
STANDARD
41
0.85
0
TEXT
8
ELEC-TEXT
10
302
20
258
30
0
40
2.7
1
10  Lighting target: 400 lx office tasks; ancillary targets are assumed.
7
STANDARD
41
0.85
0
TEXT
8
ELEC-TEXT
10
302
20
250
30
0
40
2.7
1
11  Emergency layout requires photometric / egress verification.
7
STANDARD
41
0.85
0
TEXT
8
ELEC-TEXT
10
302
20
242
30
0
40
2.7
1
12  Maintain unswitched supply sensing to local emergency fittings.
7
STANDARD
41
0.85
0
TEXT
8
ELEC-TEXT
10
302
20
234
30
0
40
2.7
1
13  No power-factor correction, harmonic or fault study completed.
7
STANDARD
41
0.85
0
TEXT
8
ELEC-TEXT
10
302
20
226
30
0
40
2.7
1
14  Paper-space geometry: plans drawn at stated scale in model space.
7
STANDARD
41
0.85
0
TEXT
8
ELEC-TEXT
10
302
20
218
30
0
40
2.7
1
     Multiply measured plan lengths by 75 or 125 for real mm.
7
STANDARD
41
0.85
0
TEXT
8
ELEC-TEXT
10
302
20
210
30
0
40
2.7
1
15  Symbols are project conventions; not claimed as standard symbols.
7
STANDARD
41
0.85
0
TEXT
8
ELEC-TEXT
10
302
20
191
30
0
40
4
1
CAD LAYERS
7
STANDARD
41
0.85
0
TEXT
8
ELEC-TEXT
10
302
20
179
30
0
40
2.6
1
ARCH-WALLS
7
STANDARD
41
0.85
0
TEXT
8
ELEC-TEXT
10
302
20
173
30
0
40
2.6
1
ARCH-DOORS
7
STANDARD
41
0.85
0
TEXT
8
ELEC-TEXT
10
302
20
167
30
0
40
2.6
1
ARCH-TEXT
7
STANDARD
41
0.85
0
TEXT
8
ELEC-TEXT
10
302
20
161
30
0
40
2.6
1
ARCH-FURNITURE
7
STANDARD
41
0.85
0
TEXT
8
ELEC-TEXT
10
302
20
155
30
0
40
2.6
1
ELEC-LIGHT
7
STANDARD
41
0.85
0
TEXT
8
ELEC-TEXT
10
302
20
149
30
0
40
2.6
1
ELEC-EMERGENCY
7
STANDARD
41
0.85
0
TEXT
8
ELEC-TEXT
10
302
20
143
30
0
40
2.6
1
ELEC-SWITCH
7
STANDARD
41
0.85
0
TEXT
8
ELEC-TEXT
10
302
20
137
30
0
40
2.6
1
ELEC-POWER
7
STANDARD
41
0.85
0
TEXT
8
ELEC-TEXT
10
302
20
131
30
0
40
2.6
1
ELEC-DEDICATED
7
STANDARD
41
0.85
0
TEXT
8
ELEC-TEXT
10
302
20
125
30
0
40
2.6
1
ELEC-DB
7
STANDARD
41
0.85
0
TEXT
8
ELEC-TEXT
10
302
20
119
30
0
40
2.6
1
ELEC-CABLE
7
STANDARD
41
0.85
0
TEXT
8
ELEC-TEXT
10
302
20
113
30
0
40
2.6
1
ELEC-SLD
7
STANDARD
41
0.85
0
TEXT
8
ELEC-TEXT
10
302
20
107
30
0
40
2.6
1
ELEC-SYMBOLS
7
STANDARD
41
0.85
0
TEXT
8
ELEC-TEXT
10
302
20
101
30
0
40
2.6
1
ELEC-TEXT
7
STANDARD
41
0.85
0
TEXT
8
ELEC-TEXT
10
302
20
95
30
0
40
2.6
1
ELEC-LIGHT-TEXT
7
STANDARD
41
0.85
0
TEXT
8
ELEC-TEXT
10
302
20
89
30
0
40
2.6
1
ELEC-DIMENSIONS
7
STANDARD
41
0.85
0
TEXT
8
ELEC-TEXT
10
302
20
83
30
0
40
2.6
1
SHEET
7
STANDARD
41
0.85
0
LINE
8
SHEET
10
10
20
410
30
0
11
584
21
410
31
0
0
LINE
8
SHEET
10
584
20
410
30
0
11
584
21
10
31
0
0
LINE
8
SHEET
10
584
20
10
30
0
11
10
21
10
31
0
0
LINE
8
SHEET
10
10
20
10
30
0
11
10
21
410
31
0
0
LINE
8
SHEET
10
10
20
372
30
0
11
584
21
372
31
0
0
TEXT
8
ELEC-TEXT
10
20
20
394
30
0
40
6
1
NORTHBANK OFFICE
7
STANDARD
41
0.85
0
TEXT
8
ELEC-TEXT
10
20
20
381
30
0
40
4
1
SYMBOLS AND GENERAL NOTES
7
STANDARD
41
0.85
0
TEXT
8
ELEC-TEXT
10
456
20
395
30
0
40
3
1
ELECTRICAL PORTFOLIO
7
STANDARD
41
0.85
0
TEXT
8
ELEC-TEXT
10
456
20
386
30
0
40
2.8
1
CONCEPT DESIGN  /  REV A
7
STANDARD
41
0.85
0
TEXT
8
ELEC-TEXT
10
456
20
378
30
0
40
2.5
1
NOT FOR CONSTRUCTION
7
STANDARD
41
0.85
0
LINE
8
SHEET
10
10
20
38
30
0
11
584
21
38
31
0
0
LINE
8
SHEET
10
345
20
38
30
0
11
345
21
10
31
0
0
LINE
8
SHEET
10
480
20
38
30
0
11
480
21
10
31
0
0
TEXT
8
ELEC-TEXT
10
18
20
29
30
0
40
3.1
1
Two-Storey Commercial Office Electrical Design
7
STANDARD
41
0.85
0
TEXT
8
ELEC-TEXT
10
18
20
22
30
0
40
2.7
1
Designed by: Electrical Engineering Portfolio Project
7
STANDARD
41
0.85
0
TEXT
8
ELEC-TEXT
10
18
20
15
30
0
40
2.3
1
Educational exercise; not for construction, certification or regulatory approval.
7
STANDARD
41
0.85
0
TEXT
8
ELEC-TEXT
10
353
20
29
30
0
40
2.5
1
E-002  |  Symbols and general notes
7
STANDARD
41
0.85
0
TEXT
8
ELEC-TEXT
10
353
20
21
30
0
40
2.5
1
Scale: NTS at A2  |  Units: mm
7
STANDARD
41
0.85
0
TEXT
8
ELEC-TEXT
10
488
20
29
30
0
40
3
1
REV A
7
STANDARD
41
0.85
0
TEXT
8
ELEC-TEXT
10
488
20
21
30
0
40
2.7
1
2026-09-29
7
STANDARD
41
0.85
0
TEXT
8
ELEC-TEXT
10
488
20
14
30
0
40
2.3
1
Sheet size: 594 x 420 mm
7
STANDARD
41
0.85
0
ENDSEC
0
EOF
