0
SECTION
2
HEADER
9
$ACADVER
1
AC1009
9
$LUNITS
70
2
9
$LUPREC
70
2
9
$MEASUREMENT
70
1
9
$EXTMIN
10
0
20
0
30
0
9
$EXTMAX
10
594
20
420
30
0
0
ENDSEC
0
SECTION
2
TABLES
0
TABLE
2
LTYPE
70
1
0
LTYPE
2
CONTINUOUS
70
0
3
Continuous
72
65
73
0
40
0
0
ENDTAB
0
TABLE
2
LAYER
70
18
0
LAYER
2
0
70
0
62
7
6
CONTINUOUS
0
LAYER
2
ARCH-WALLS
70
0
62
8
6
CONTINUOUS
0
LAYER
2
ARCH-DOORS
70
0
62
8
6
CONTINUOUS
0
LAYER
2
ARCH-TEXT
70
0
62
8
6
CONTINUOUS
0
LAYER
2
ARCH-FURNITURE
70
0
62
8
6
CONTINUOUS
0
LAYER
2
ELEC-LIGHT
70
0
62
2
6
CONTINUOUS
0
LAYER
2
ELEC-EMERGENCY
70
0
62
3
6
CONTINUOUS
0
LAYER
2
ELEC-SWITCH
70
0
62
6
6
CONTINUOUS
0
LAYER
2
ELEC-POWER
70
0
62
4
6
CONTINUOUS
0
LAYER
2
ELEC-DEDICATED
70
0
62
1
6
CONTINUOUS
0
LAYER
2
ELEC-DB
70
0
62
1
6
CONTINUOUS
0
LAYER
2
ELEC-CABLE
70
0
62
5
6
CONTINUOUS
0
LAYER
2
ELEC-SLD
70
0
62
7
6
CONTINUOUS
0
LAYER
2
ELEC-SYMBOLS
70
0
62
7
6
CONTINUOUS
0
LAYER
2
ELEC-TEXT
70
0
62
7
6
CONTINUOUS
0
LAYER
2
ELEC-LIGHT-TEXT
70
0
62
2
6
CONTINUOUS
0
LAYER
2
ELEC-DIMENSIONS
70
0
62
8
6
CONTINUOUS
0
LAYER
2
SHEET
70
0
62
7
6
CONTINUOUS
0
ENDTAB
0
TABLE
2
STYLE
70
1
0
STYLE
2
STANDARD
70
0
40
0
41
1
50
0
71
0
42
2.5
3
standard
4

0
ENDTAB
0
ENDSEC
0
SECTION
2
BLOCKS
0
BLOCK
8
0
2
DB
70
0
10
0
20
0
30
0
3
DB
1

0
LINE
8
0
10
-4
20
3
30
0
11
4
21
3
31
0
0
LINE
8
0
10
4
20
3
30
0
11
4
21
-3
31
0
0
LINE
8
0
10
4
20
-3
30
0
11
-4
21
-3
31
0
0
LINE
8
0
10
-4
20
-3
30
0
11
-4
21
3
31
0
0
LINE
8
0
10
-4
20
3
30
0
11
4
21
-3
31
0
0
ENDBLK
8
0
0
BLOCK
8
0
2
LP
70
0
10
0
20
0
30
0
3
LP
1

0
LINE
8
0
10
-3.5
20
1.5
30
0
11
3.5
21
1.5
31
0
0
LINE
8
0
10
3.5
20
1.5
30
0
11
3.5
21
-1.5
31
0
0
LINE
8
0
10
3.5
20
-1.5
30
0
11
-3.5
21
-1.5
31
0
0
LINE
8
0
10
-3.5
20
-1.5
30
0
11
-3.5
21
1.5
31
0
0
LINE
8
0
10
-3.5
20
1.5
30
0
11
3.5
21
-1.5
31
0
0
ENDBLK
8
0
0
BLOCK
8
0
2
LB
70
0
10
0
20
0
30
0
3
LB
1

0
LINE
8
0
10
-4.0
20
0.8000000000000114
30
0
11
4.0
21
0.8000000000000114
31
0
0
LINE
8
0
10
4.0
20
0.8000000000000114
30
0
11
4.0
21
-0.8000000000000114
31
0
0
LINE
8
0
10
4.0
20
-0.8000000000000114
30
0
11
-4.0
21
-0.8000000000000114
31
0
0
LINE
8
0
10
-4.0
20
-0.8000000000000114
30
0
11
-4.0
21
0.8000000000000114
31
0
0
LINE
8
0
10
-4.0
20
0.8000000000000114
30
0
11
4.0
21
-0.8000000000000114
31
0
0
ENDBLK
8
0
0
BLOCK
8
0
2
SW2
70
0
10
0
20
0
30
0
3
SW2
1

0
CIRCLE
8
0
10
0
20
0
30
0
40
1.3
0
LINE
8
0
10
0
20
1.3000000000000114
30
0
11
2.5
21
3.5
31
0
0
LINE
8
0
10
1
20
0.8000000000000114
30
0
11
3.5
21
3
31
0
0
ENDBLK
8
0
0
BLOCK
8
0
2
SW1
70
0
10
0
20
0
30
0
3
SW1
1

0
CIRCLE
8
0
10
0
20
0
30
0
40
1.3
0
LINE
8
0
10
0
20
1.3000000000000114
30
0
11
2.5
21
3.5
31
0
0
ENDBLK
8
0
0
ENDSEC
0
SECTION
2
ENTITIES
0
LINE
8
ARCH-WALLS
10
25.0
20
130.0
30
0
11
25.0
21
316.6666666666667
31
0
0
LINE
8
ARCH-WALLS
10
425.0
20
130.0
30
0
11
425.0
21
316.6666666666667
31
0
0
LINE
8
ARCH-WALLS
10
25.0
20
316.6666666666667
30
0
11
425.0
21
316.6666666666667
31
0
0
LINE
8
ARCH-WALLS
10
25.0
20
130.0
30
0
11
425.0
21
130.0
31
0
0
LINE
8
ARCH-WALLS
10
25.0
20
236.66666666666669
30
0
11
39.0
21
236.66666666666669
31
0
0
LINE
8
ARCH-WALLS
10
51.0
20
236.66666666666669
30
0
11
65.0
21
236.66666666666669
31
0
0
LINE
8
ARCH-DOORS
10
39.0
20
236.66666666666669
30
0
11
39.0
21
248.66666666666669
31
0
0
LINE
8
ARCH-DOORS
10
51.0
20
236.66666666666669
30
0
11
50.85226008714166
21
238.54388024714945
31
0
0
LINE
8
ARCH-DOORS
10
50.85226008714166
20
238.54388024714945
30
0
11
50.412678195541844
21
240.37487059916603
31
0
0
LINE
8
ARCH-DOORS
10
50.412678195541844
20
240.37487059916603
30
0
11
49.69207829026041
21
242.11455266354122
31
0
0
LINE
8
ARCH-DOORS
10
49.69207829026041
20
242.11455266354122
30
0
11
48.70820393249937
21
243.72008969417635
31
0
0
LINE
8
ARCH-DOORS
10
48.70820393249937
20
243.72008969417635
30
0
11
47.48528137423857
21
245.15194804090527
31
0
0
LINE
8
ARCH-DOORS
10
47.48528137423857
20
245.15194804090527
30
0
11
46.05342302750968
21
246.37487059916606
31
0
0
LINE
8
ARCH-DOORS
10
46.05342302750968
20
246.37487059916606
30
0
11
44.44788599687456
21
247.35874495692707
31
0
0
LINE
8
ARCH-DOORS
10
44.44788599687456
20
247.35874495692707
30
0
11
42.70820393249937
21
248.07934486220853
31
0
0
LINE
8
ARCH-DOORS
10
42.70820393249937
20
248.07934486220853
30
0
11
40.877213580482774
21
248.51892675380833
31
0
0
LINE
8
ARCH-DOORS
10
40.877213580482774
20
248.51892675380833
30
0
11
39.0
21
248.66666666666669
31
0
0
LINE
8
ARCH-WALLS
10
65.0
20
236.66666666666669
30
0
11
72.33333333333334
21
236.66666666666669
31
0
0
LINE
8
ARCH-WALLS
10
84.33333333333334
20
236.66666666666669
30
0
11
91.66666666666667
21
236.66666666666669
31
0
0
LINE
8
ARCH-DOORS
10
72.33333333333334
20
236.66666666666669
30
0
11
72.33333333333334
21
248.66666666666669
31
0
0
LINE
8
ARCH-DOORS
10
84.33333333333334
20
236.66666666666669
30
0
11
84.18559342047499
21
238.54388024714945
31
0
0
LINE
8
ARCH-DOORS
10
84.18559342047499
20
238.54388024714945
30
0
11
83.74601152887517
21
240.37487059916603
31
0
0
LINE
8
ARCH-DOORS
10
83.74601152887517
20
240.37487059916603
30
0
11
83.02541162359375
21
242.11455266354122
31
0
0
LINE
8
ARCH-DOORS
10
83.02541162359375
20
242.11455266354122
30
0
11
82.04153726583272
21
243.72008969417635
31
0
0
LINE
8
ARCH-DOORS
10
82.04153726583272
20
243.72008969417635
30
0
11
80.8186147075719
21
245.15194804090527
31
0
0
LINE
8
ARCH-DOORS
10
80.8186147075719
20
245.15194804090527
30
0
11
79.38675636084301
21
246.37487059916606
31
0
0
LINE
8
ARCH-DOORS
10
79.38675636084301
20
246.37487059916606
30
0
11
77.7812193302079
21
247.35874495692707
31
0
0
LINE
8
ARCH-DOORS
10
77.7812193302079
20
247.35874495692707
30
0
11
76.0415372658327
21
248.07934486220853
31
0
0
LINE
8
ARCH-DOORS
10
76.0415372658327
20
248.07934486220853
30
0
11
74.2105469138161
21
248.51892675380833
31
0
0
LINE
8
ARCH-DOORS
10
74.2105469138161
20
248.51892675380833
30
0
11
72.33333333333334
21
248.66666666666669
31
0
0
LINE
8
ARCH-WALLS
10
65.0
20
236.66666666666669
30
0
11
65.0
21
316.6666666666667
31
0
0
LINE
8
ARCH-WALLS
10
91.66666666666667
20
236.66666666666669
30
0
11
105.66666666666667
21
236.66666666666669
31
0
0
LINE
8
ARCH-WALLS
10
117.66666666666667
20
236.66666666666669
30
0
11
131.66666666666669
21
236.66666666666669
31
0
0
LINE
8
ARCH-DOORS
10
105.66666666666667
20
236.66666666666669
30
0
11
105.66666666666667
21
248.66666666666669
31
0
0
LINE
8
ARCH-DOORS
10
117.66666666666667
20
236.66666666666669
30
0
11
117.51892675380832
21
238.54388024714945
31
0
0
LINE
8
ARCH-DOORS
10
117.51892675380832
20
238.54388024714945
30
0
11
117.0793448622085
21
240.37487059916603
31
0
0
LINE
8
ARCH-DOORS
10
117.0793448622085
20
240.37487059916603
30
0
11
116.35874495692708
21
242.11455266354122
31
0
0
LINE
8
ARCH-DOORS
10
116.35874495692708
20
242.11455266354122
30
0
11
115.37487059916604
21
243.72008969417635
31
0
0
LINE
8
ARCH-DOORS
10
115.37487059916604
20
243.72008969417635
30
0
11
114.15194804090524
21
245.15194804090527
31
0
0
LINE
8
ARCH-DOORS
10
114.15194804090524
20
245.15194804090527
30
0
11
112.72008969417634
21
246.37487059916606
31
0
0
LINE
8
ARCH-DOORS
10
112.72008969417634
20
246.37487059916606
30
0
11
111.11455266354123
21
247.35874495692707
31
0
0
LINE
8
ARCH-DOORS
10
111.11455266354123
20
247.35874495692707
30
0
11
109.37487059916604
21
248.07934486220853
31
0
0
LINE
8
ARCH-DOORS
10
109.37487059916604
20
248.07934486220853
30
0
11
107.54388024714945
21
248.51892675380833
31
0
0
LINE
8
ARCH-DOORS
10
107.54388024714945
20
248.51892675380833
30
0
11
105.66666666666667
21
248.66666666666669
31
0
0
LINE
8
ARCH-WALLS
10
91.66666666666667
20
236.66666666666669
30
0
11
91.66666666666667
21
316.6666666666667
31
0
0
LINE
8
ARCH-WALLS
10
131.66666666666669
20
236.66666666666669
30
0
11
145.66666666666669
21
236.66666666666669
31
0
0
LINE
8
ARCH-WALLS
10
157.66666666666669
20
236.66666666666669
30
0
11
171.66666666666669
21
236.66666666666669
31
0
0
LINE
8
ARCH-DOORS
10
145.66666666666669
20
236.66666666666669
30
0
11
145.66666666666669
21
248.66666666666669
31
0
0
LINE
8
ARCH-DOORS
10
157.66666666666669
20
236.66666666666669
30
0
11
157.51892675380833
21
238.54388024714945
31
0
0
LINE
8
ARCH-DOORS
10
157.51892675380833
20
238.54388024714945
30
0
11
157.07934486220853
21
240.37487059916603
31
0
0
LINE
8
ARCH-DOORS
10
157.07934486220853
20
240.37487059916603
30
0
11
156.3587449569271
21
242.11455266354122
31
0
0
LINE
8
ARCH-DOORS
10
156.3587449569271
20
242.11455266354122
30
0
11
155.37487059916606
21
243.72008969417635
31
0
0
LINE
8
ARCH-DOORS
10
155.37487059916606
20
243.72008969417635
30
0
11
154.15194804090527
21
245.15194804090527
31
0
0
LINE
8
ARCH-DOORS
10
154.15194804090527
20
245.15194804090527
30
0
11
152.72008969417635
21
246.37487059916606
31
0
0
LINE
8
ARCH-DOORS
10
152.72008969417635
20
246.37487059916606
30
0
11
151.11455266354125
21
247.35874495692707
31
0
0
LINE
8
ARCH-DOORS
10
151.11455266354125
20
247.35874495692707
30
0
11
149.37487059916606
21
248.07934486220853
31
0
0
LINE
8
ARCH-DOORS
10
149.37487059916606
20
248.07934486220853
30
0
11
147.54388024714945
21
248.51892675380833
31
0
0
LINE
8
ARCH-DOORS
10
147.54388024714945
20
248.51892675380833
30
0
11
145.66666666666669
21
248.66666666666669
31
0
0
LINE
8
ARCH-WALLS
10
131.66666666666669
20
236.66666666666669
30
0
11
131.66666666666669
21
316.6666666666667
31
0
0
LINE
8
ARCH-WALLS
10
171.66666666666669
20
236.66666666666669
30
0
11
205.66666666666669
21
236.66666666666669
31
0
0
LINE
8
ARCH-WALLS
10
217.66666666666669
20
236.66666666666669
30
0
11
251.66666666666669
21
236.66666666666669
31
0
0
LINE
8
ARCH-DOORS
10
205.66666666666669
20
236.66666666666669
30
0
11
205.66666666666669
21
248.66666666666669
31
0
0
LINE
8
ARCH-DOORS
10
217.66666666666669
20
236.66666666666669
30
0
11
217.51892675380833
21
238.54388024714945
31
0
0
LINE
8
ARCH-DOORS
10
217.51892675380833
20
238.54388024714945
30
0
11
217.07934486220853
21
240.37487059916603
31
0
0
LINE
8
ARCH-DOORS
10
217.07934486220853
20
240.37487059916603
30
0
11
216.3587449569271
21
242.11455266354122
31
0
0
LINE
8
ARCH-DOORS
10
216.3587449569271
20
242.11455266354122
30
0
11
215.37487059916606
21
243.72008969417635
31
0
0
LINE
8
ARCH-DOORS
10
215.37487059916606
20
243.72008969417635
30
0
11
214.15194804090527
21
245.15194804090527
31
0
0
LINE
8
ARCH-DOORS
10
214.15194804090527
20
245.15194804090527
30
0
11
212.72008969417638
21
246.37487059916606
31
0
0
LINE
8
ARCH-DOORS
10
212.72008969417638
20
246.37487059916606
30
0
11
211.11455266354125
21
247.35874495692707
31
0
0
LINE
8
ARCH-DOORS
10
211.11455266354125
20
247.35874495692707
30
0
11
209.37487059916603
21
248.07934486220853
31
0
0
LINE
8
ARCH-DOORS
10
209.37487059916603
20
248.07934486220853
30
0
11
207.54388024714945
21
248.51892675380833
31
0
0
LINE
8
ARCH-DOORS
10
207.54388024714945
20
248.51892675380833
30
0
11
205.66666666666669
21
248.66666666666669
31
0
0
LINE
8
ARCH-WALLS
10
171.66666666666669
20
236.66666666666669
30
0
11
171.66666666666669
21
316.6666666666667
31
0
0
LINE
8
ARCH-WALLS
10
251.66666666666669
20
236.66666666666669
30
0
11
272.33333333333337
21
236.66666666666669
31
0
0
LINE
8
ARCH-WALLS
10
284.3333333333333
20
236.66666666666669
30
0
11
305.0
21
236.66666666666669
31
0
0
LINE
8
ARCH-DOORS
10
272.33333333333337
20
236.66666666666669
30
0
11
272.33333333333337
21
248.66666666666669
31
0
0
LINE
8
ARCH-DOORS
10
284.3333333333333
20
236.66666666666669
30
0
11
284.185593420475
21
238.54388024714945
31
0
0
LINE
8
ARCH-DOORS
10
284.185593420475
20
238.54388024714945
30
0
11
283.74601152887516
21
240.37487059916603
31
0
0
LINE
8
ARCH-DOORS
10
283.74601152887516
20
240.37487059916603
30
0
11
283.02541162359375
21
242.11455266354122
31
0
0
LINE
8
ARCH-DOORS
10
283.02541162359375
20
242.11455266354122
30
0
11
282.04153726583274
21
243.72008969417635
31
0
0
LINE
8
ARCH-DOORS
10
282.04153726583274
20
243.72008969417635
30
0
11
280.8186147075719
21
245.15194804090527
31
0
0
LINE
8
ARCH-DOORS
10
280.8186147075719
20
245.15194804090527
30
0
11
279.38675636084304
21
246.37487059916606
31
0
0
LINE
8
ARCH-DOORS
10
279.38675636084304
20
246.37487059916606
30
0
11
277.78121933020793
21
247.35874495692707
31
0
0
LINE
8
ARCH-DOORS
10
277.78121933020793
20
247.35874495692707
30
0
11
276.04153726583274
21
248.07934486220853
31
0
0
LINE
8
ARCH-DOORS
10
276.04153726583274
20
248.07934486220853
30
0
11
274.21054691381613
21
248.51892675380833
31
0
0
LINE
8
ARCH-DOORS
10
274.21054691381613
20
248.51892675380833
30
0
11
272.33333333333337
21
248.66666666666669
31
0
0
LINE
8
ARCH-WALLS
10
251.66666666666669
20
236.66666666666669
30
0
11
251.66666666666669
21
316.6666666666667
31
0
0
LINE
8
ARCH-WALLS
10
305.0
20
236.66666666666669
30
0
11
319.0
21
236.66666666666669
31
0
0
LINE
8
ARCH-WALLS
10
331.0
20
236.66666666666669
30
0
11
345.0
21
236.66666666666669
31
0
0
LINE
8
ARCH-DOORS
10
319.0
20
236.66666666666669
30
0
11
319.0
21
248.66666666666669
31
0
0
LINE
8
ARCH-DOORS
10
331.0
20
236.66666666666669
30
0
11
330.8522600871417
21
238.54388024714945
31
0
0
LINE
8
ARCH-DOORS
10
330.8522600871417
20
238.54388024714945
30
0
11
330.41267819554184
21
240.37487059916603
31
0
0
LINE
8
ARCH-DOORS
10
330.41267819554184
20
240.37487059916603
30
0
11
329.69207829026044
21
242.11455266354122
31
0
0
LINE
8
ARCH-DOORS
10
329.69207829026044
20
242.11455266354122
30
0
11
328.7082039324994
21
243.72008969417635
31
0
0
LINE
8
ARCH-DOORS
10
328.7082039324994
20
243.72008969417635
30
0
11
327.4852813742386
21
245.15194804090527
31
0
0
LINE
8
ARCH-DOORS
10
327.4852813742386
20
245.15194804090527
30
0
11
326.0534230275097
21
246.37487059916606
31
0
0
LINE
8
ARCH-DOORS
10
326.0534230275097
20
246.37487059916606
30
0
11
324.44788599687456
21
247.35874495692707
31
0
0
LINE
8
ARCH-DOORS
10
324.44788599687456
20
247.35874495692707
30
0
11
322.70820393249943
21
248.07934486220853
31
0
0
LINE
8
ARCH-DOORS
10
322.70820393249943
20
248.07934486220853
30
0
11
320.8772135804828
21
248.51892675380833
31
0
0
LINE
8
ARCH-DOORS
10
320.8772135804828
20
248.51892675380833
30
0
11
319.0
21
248.66666666666669
31
0
0
LINE
8
ARCH-WALLS
10
305.0
20
236.66666666666669
30
0
11
305.0
21
316.6666666666667
31
0
0
LINE
8
ARCH-WALLS
10
345.0
20
236.66666666666669
30
0
11
359.0
21
236.66666666666669
31
0
0
LINE
8
ARCH-WALLS
10
371.0
20
236.66666666666669
30
0
11
385.0
21
236.66666666666669
31
0
0
LINE
8
ARCH-DOORS
10
359.0
20
236.66666666666669
30
0
11
359.0
21
248.66666666666669
31
0
0
LINE
8
ARCH-DOORS
10
371.0
20
236.66666666666669
30
0
11
370.8522600871417
21
238.54388024714945
31
0
0
LINE
8
ARCH-DOORS
10
370.8522600871417
20
238.54388024714945
30
0
11
370.41267819554184
21
240.37487059916603
31
0
0
LINE
8
ARCH-DOORS
10
370.41267819554184
20
240.37487059916603
30
0
11
369.69207829026044
21
242.11455266354122
31
0
0
LINE
8
ARCH-DOORS
10
369.69207829026044
20
242.11455266354122
30
0
11
368.7082039324994
21
243.72008969417635
31
0
0
LINE
8
ARCH-DOORS
10
368.7082039324994
20
243.72008969417635
30
0
11
367.4852813742386
21
245.15194804090527
31
0
0
LINE
8
ARCH-DOORS
10
367.4852813742386
20
245.15194804090527
30
0
11
366.0534230275097
21
246.37487059916606
31
0
0
LINE
8
ARCH-DOORS
10
366.0534230275097
20
246.37487059916606
30
0
11
364.44788599687456
21
247.35874495692707
31
0
0
LINE
8
ARCH-DOORS
10
364.44788599687456
20
247.35874495692707
30
0
11
362.70820393249943
21
248.07934486220853
31
0
0
LINE
8
ARCH-DOORS
10
362.70820393249943
20
248.07934486220853
30
0
11
360.8772135804828
21
248.51892675380833
31
0
0
LINE
8
ARCH-DOORS
10
360.8772135804828
20
248.51892675380833
30
0
11
359.0
21
248.66666666666669
31
0
0
LINE
8
ARCH-WALLS
10
345.0
20
236.66666666666669
30
0
11
345.0
21
316.6666666666667
31
0
0
LINE
8
ARCH-WALLS
10
385.0
20
236.66666666666669
30
0
11
399.0
21
236.66666666666669
31
0
0
LINE
8
ARCH-WALLS
10
411.0
20
236.66666666666669
30
0
11
425.0
21
236.66666666666669
31
0
0
LINE
8
ARCH-DOORS
10
399.0
20
236.66666666666669
30
0
11
399.0
21
248.66666666666669
31
0
0
LINE
8
ARCH-DOORS
10
411.0
20
236.66666666666669
30
0
11
410.8522600871417
21
238.54388024714945
31
0
0
LINE
8
ARCH-DOORS
10
410.8522600871417
20
238.54388024714945
30
0
11
410.41267819554184
21
240.37487059916603
31
0
0
LINE
8
ARCH-DOORS
10
410.41267819554184
20
240.37487059916603
30
0
11
409.69207829026044
21
242.11455266354122
31
0
0
LINE
8
ARCH-DOORS
10
409.69207829026044
20
242.11455266354122
30
0
11
408.7082039324994
21
243.72008969417635
31
0
0
LINE
8
ARCH-DOORS
10
408.7082039324994
20
243.72008969417635
30
0
11
407.4852813742386
21
245.15194804090527
31
0
0
LINE
8
ARCH-DOORS
10
407.4852813742386
20
245.15194804090527
30
0
11
406.0534230275097
21
246.37487059916606
31
0
0
LINE
8
ARCH-DOORS
10
406.0534230275097
20
246.37487059916606
30
0
11
404.44788599687456
21
247.35874495692707
31
0
0
LINE
8
ARCH-DOORS
10
404.44788599687456
20
247.35874495692707
30
0
11
402.70820393249943
21
248.07934486220853
31
0
0
LINE
8
ARCH-DOORS
10
402.70820393249943
20
248.07934486220853
30
0
11
400.8772135804828
21
248.51892675380833
31
0
0
LINE
8
ARCH-DOORS
10
400.8772135804828
20
248.51892675380833
30
0
11
399.0
21
248.66666666666669
31
0
0
LINE
8
ARCH-WALLS
10
385.0
20
236.66666666666669
30
0
11
385.0
21
316.6666666666667
31
0
0
LINE
8
ARCH-WALLS
10
25.0
20
210.0
30
0
11
45.66666666666667
21
210.0
31
0
0
LINE
8
ARCH-DOORS
10
45.66666666666667
20
210.0
30
0
11
45.66666666666667
21
198.0
31
0
0
LINE
8
ARCH-DOORS
10
57.66666666666667
20
210.0
30
0
11
57.51892675380833
21
208.12278641951724
31
0
0
LINE
8
ARCH-DOORS
10
57.51892675380833
20
208.12278641951724
30
0
11
57.079344862208515
21
206.29179606750063
31
0
0
LINE
8
ARCH-DOORS
10
57.079344862208515
20
206.29179606750063
30
0
11
56.35874495692708
21
204.55211400312544
31
0
0
LINE
8
ARCH-DOORS
10
56.35874495692708
20
204.55211400312544
30
0
11
55.37487059916604
21
202.94657697249033
31
0
0
LINE
8
ARCH-DOORS
10
55.37487059916604
20
202.94657697249033
30
0
11
54.15194804090524
21
201.51471862576142
31
0
0
LINE
8
ARCH-DOORS
10
54.15194804090524
20
201.51471862576142
30
0
11
52.72008969417635
21
200.29179606750063
31
0
0
LINE
8
ARCH-DOORS
10
52.72008969417635
20
200.29179606750063
30
0
11
51.11455266354123
21
199.3079217097396
31
0
0
LINE
8
ARCH-DOORS
10
51.11455266354123
20
199.3079217097396
30
0
11
49.37487059916604
21
198.58732180445816
31
0
0
LINE
8
ARCH-DOORS
10
49.37487059916604
20
198.58732180445816
30
0
11
47.54388024714944
21
198.14773991285836
31
0
0
LINE
8
ARCH-DOORS
10
47.54388024714944
20
198.14773991285836
30
0
11
45.66666666666667
21
198.0
31
0
0
LINE
8
ARCH-WALLS
10
57.66666666666667
20
210.0
30
0
11
119.66666666666667
21
210.0
31
0
0
LINE
8
ARCH-DOORS
10
119.66666666666667
20
210.0
30
0
11
119.66666666666667
21
186.0
31
0
0
LINE
8
ARCH-DOORS
10
143.66666666666669
20
210.0
30
0
11
143.37118684094997
21
206.24557283903448
31
0
0
LINE
8
ARCH-DOORS
10
143.37118684094997
20
206.24557283903448
30
0
11
142.49202305775037
21
202.58359213500125
31
0
0
LINE
8
ARCH-DOORS
10
142.49202305775037
20
202.58359213500125
30
0
11
141.0508232471875
21
199.10422800625088
31
0
0
LINE
8
ARCH-DOORS
10
141.0508232471875
20
199.10422800625088
30
0
11
139.08307453166543
21
195.89315394498064
31
0
0
LINE
8
ARCH-DOORS
10
139.08307453166543
20
195.89315394498064
30
0
11
136.63722941514382
21
193.02943725152284
31
0
0
LINE
8
ARCH-DOORS
10
136.63722941514382
20
193.02943725152284
30
0
11
133.77351272168602
21
190.58359213500125
31
0
0
LINE
8
ARCH-DOORS
10
133.77351272168602
20
190.58359213500125
30
0
11
130.5624386604158
21
188.61584341947918
31
0
0
LINE
8
ARCH-DOORS
10
130.5624386604158
20
188.61584341947918
30
0
11
127.0830745316654
21
187.1746436089163
31
0
0
LINE
8
ARCH-DOORS
10
127.0830745316654
20
187.1746436089163
30
0
11
123.4210938276322
21
186.29547982571668
31
0
0
LINE
8
ARCH-DOORS
10
123.4210938276322
20
186.29547982571668
30
0
11
119.66666666666667
21
186.0
31
0
0
LINE
8
ARCH-WALLS
10
143.66666666666669
20
210.0
30
0
11
319.6666666666667
21
210.0
31
0
0
LINE
8
ARCH-DOORS
10
319.6666666666667
20
210.0
30
0
11
319.6666666666667
21
186.00000000000006
31
0
0
LINE
8
ARCH-DOORS
10
343.6666666666667
20
210.0
30
0
11
343.37118684095
21
206.24557283903448
31
0
0
LINE
8
ARCH-DOORS
10
343.37118684095
20
206.24557283903448
30
0
11
342.4920230577504
21
202.58359213500125
31
0
0
LINE
8
ARCH-DOORS
10
342.4920230577504
20
202.58359213500125
30
0
11
341.05082324718745
21
199.1042280062509
31
0
0
LINE
8
ARCH-DOORS
10
341.05082324718745
20
199.1042280062509
30
0
11
339.0830745316654
21
195.89315394498067
31
0
0
LINE
8
ARCH-DOORS
10
339.0830745316654
20
195.89315394498067
30
0
11
336.6372294151438
21
193.0294372515229
31
0
0
LINE
8
ARCH-DOORS
10
336.6372294151438
20
193.0294372515229
30
0
11
333.773512721686
21
190.58359213500128
31
0
0
LINE
8
ARCH-DOORS
10
333.773512721686
20
190.58359213500128
30
0
11
330.5624386604158
21
188.6158434194792
31
0
0
LINE
8
ARCH-DOORS
10
330.5624386604158
20
188.6158434194792
30
0
11
327.08307453166543
21
187.17464360891637
31
0
0
LINE
8
ARCH-DOORS
10
327.08307453166543
20
187.17464360891637
30
0
11
323.4210938276322
21
186.2954798257167
31
0
0
LINE
8
ARCH-DOORS
10
323.4210938276322
20
186.2954798257167
30
0
11
319.6666666666667
21
186.00000000000006
31
0
0
LINE
8
ARCH-WALLS
10
343.6666666666667
20
210.0
30
0
11
392.33333333333337
21
210.0
31
0
0
LINE
8
ARCH-DOORS
10
392.33333333333337
20
210.0
30
0
11
392.33333333333337
21
198.00000000000003
31
0
0
LINE
8
ARCH-DOORS
10
404.3333333333333
20
210.0
30
0
11
404.18559342047496
21
208.12278641951724
31
0
0
LINE
8
ARCH-DOORS
10
404.18559342047496
20
208.12278641951724
30
0
11
403.74601152887516
21
206.29179606750063
31
0
0
LINE
8
ARCH-DOORS
10
403.74601152887516
20
206.29179606750063
30
0
11
403.02541162359375
21
204.55211400312544
31
0
0
LINE
8
ARCH-DOORS
10
403.02541162359375
20
204.55211400312544
30
0
11
402.04153726583274
21
202.94657697249033
31
0
0
LINE
8
ARCH-DOORS
10
402.04153726583274
20
202.94657697249033
30
0
11
400.8186147075719
21
201.51471862576145
31
0
0
LINE
8
ARCH-DOORS
10
400.8186147075719
20
201.51471862576145
30
0
11
399.38675636084304
21
200.29179606750066
31
0
0
LINE
8
ARCH-DOORS
10
399.38675636084304
20
200.29179606750066
30
0
11
397.78121933020793
21
199.30792170973962
31
0
0
LINE
8
ARCH-DOORS
10
397.78121933020793
20
199.30792170973962
30
0
11
396.04153726583274
21
198.58732180445818
31
0
0
LINE
8
ARCH-DOORS
10
396.04153726583274
20
198.58732180445818
30
0
11
394.21054691381613
21
198.14773991285836
31
0
0
LINE
8
ARCH-DOORS
10
394.21054691381613
20
198.14773991285836
30
0
11
392.33333333333337
21
198.00000000000003
31
0
0
LINE
8
ARCH-WALLS
10
404.3333333333333
20
210.0
30
0
11
425.0
21
210.0
31
0
0
LINE
8
ARCH-WALLS
10
78.33333333333334
20
130.0
30
0
11
78.33333333333334
21
210.0
31
0
0
LINE
8
ARCH-WALLS
10
371.6666666666667
20
130.0
30
0
11
371.6666666666667
21
210.0
31
0
0
LINE
8
ARCH-FURNITURE
10
31.666666666666668
20
143.33333333333331
30
0
11
71.66666666666667
21
143.33333333333331
31
0
0
LINE
8
ARCH-FURNITURE
10
31.666666666666668
20
147.60000000000002
30
0
11
71.66666666666667
21
147.60000000000002
31
0
0
LINE
8
ARCH-FURNITURE
10
31.666666666666668
20
151.86666666666667
30
0
11
71.66666666666667
21
151.86666666666667
31
0
0
LINE
8
ARCH-FURNITURE
10
31.666666666666668
20
156.13333333333333
30
0
11
71.66666666666667
21
156.13333333333333
31
0
0
LINE
8
ARCH-FURNITURE
10
31.666666666666668
20
160.39999999999998
30
0
11
71.66666666666667
21
160.39999999999998
31
0
0
LINE
8
ARCH-FURNITURE
10
31.666666666666668
20
164.66666666666669
30
0
11
71.66666666666667
21
164.66666666666669
31
0
0
LINE
8
ARCH-FURNITURE
10
31.666666666666668
20
168.93333333333334
30
0
11
71.66666666666667
21
168.93333333333334
31
0
0
LINE
8
ARCH-FURNITURE
10
31.666666666666668
20
173.2
30
0
11
71.66666666666667
21
173.2
31
0
0
LINE
8
ARCH-FURNITURE
10
31.666666666666668
20
177.46666666666667
30
0
11
71.66666666666667
21
177.46666666666667
31
0
0
LINE
8
ARCH-FURNITURE
10
31.666666666666668
20
181.73333333333335
30
0
11
71.66666666666667
21
181.73333333333335
31
0
0
LINE
8
ARCH-FURNITURE
10
31.666666666666668
20
186.0
30
0
11
71.66666666666667
21
186.0
31
0
0
LINE
8
ARCH-FURNITURE
10
31.666666666666668
20
190.26666666666665
30
0
11
71.66666666666667
21
190.26666666666665
31
0
0
LINE
8
ARCH-DOORS
10
51.66666666666667
20
143.33333333333331
30
0
11
51.66666666666667
21
194.0
31
0
0
LINE
8
ARCH-DOORS
10
51.66666666666667
20
194.0
30
0
11
52.62551774387508
21
192.24483487621924
31
0
0
LINE
8
ARCH-DOORS
10
51.66666666666667
20
194.0
30
0
11
50.707815589458264
21
192.24483487621924
31
0
0
TEXT
8
ARCH-TEXT
10
31.666666666666668
20
136.66666666666669
30
0
40
2
1
DOWN
7
STANDARD
41
0.85
0
LINE
8
ARCH-FURNITURE
10
378.33333333333337
20
143.33333333333331
30
0
11
418.33333333333337
21
143.33333333333331
31
0
0
LINE
8
ARCH-FURNITURE
10
378.33333333333337
20
147.60000000000002
30
0
11
418.33333333333337
21
147.60000000000002
31
0
0
LINE
8
ARCH-FURNITURE
10
378.33333333333337
20
151.86666666666667
30
0
11
418.33333333333337
21
151.86666666666667
31
0
0
LINE
8
ARCH-FURNITURE
10
378.33333333333337
20
156.13333333333333
30
0
11
418.33333333333337
21
156.13333333333333
31
0
0
LINE
8
ARCH-FURNITURE
10
378.33333333333337
20
160.39999999999998
30
0
11
418.33333333333337
21
160.39999999999998
31
0
0
LINE
8
ARCH-FURNITURE
10
378.33333333333337
20
164.66666666666669
30
0
11
418.33333333333337
21
164.66666666666669
31
0
0
LINE
8
ARCH-FURNITURE
10
378.33333333333337
20
168.93333333333334
30
0
11
418.33333333333337
21
168.93333333333334
31
0
0
LINE
8
ARCH-FURNITURE
10
378.33333333333337
20
173.2
30
0
11
418.33333333333337
21
173.2
31
0
0
LINE
8
ARCH-FURNITURE
10
378.33333333333337
20
177.46666666666667
30
0
11
418.33333333333337
21
177.46666666666667
31
0
0
LINE
8
ARCH-FURNITURE
10
378.33333333333337
20
181.73333333333335
30
0
11
418.33333333333337
21
181.73333333333335
31
0
0
LINE
8
ARCH-FURNITURE
10
378.33333333333337
20
186.0
30
0
11
418.33333333333337
21
186.0
31
0
0
LINE
8
ARCH-FURNITURE
10
378.33333333333337
20
190.26666666666665
30
0
11
418.33333333333337
21
190.26666666666665
31
0
0
LINE
8
ARCH-DOORS
10
398.33333333333337
20
143.33333333333331
30
0
11
398.33333333333337
21
194.0
31
0
0
LINE
8
ARCH-DOORS
10
398.33333333333337
20
194.0
30
0
11
399.2921844105418
21
192.24483487621924
31
0
0
LINE
8
ARCH-DOORS
10
398.33333333333337
20
194.0
30
0
11
397.37448225612496
21
192.24483487621924
31
0
0
TEXT
8
ARCH-TEXT
10
378.33333333333337
20
136.66666666666669
30
0
40
2
1
DOWN
7
STANDARD
41
0.85
0
TEXT
8
ARCH-TEXT
10
27.4
20
312.66666666666663
30
0
40
2.1
1
PRT
7
STANDARD
41
0.85
0
TEXT
8
ARCH-TEXT
10
27.4
20
308.26666666666665
30
0
40
1.8
1
18 m2
7
STANDARD
41
0.85
0
TEXT
8
ARCH-TEXT
10
67.4
20
312.66666666666663
30
0
40
2.1
1
STO
7
STANDARD
41
0.85
0
TEXT
8
ARCH-TEXT
10
67.4
20
308.26666666666665
30
0
40
1.8
1
12 m2
7
STANDARD
41
0.85
0
TEXT
8
ARCH-TEXT
10
94.06666666666666
20
312.66666666666663
30
0
40
2.1
1
ACC
7
STANDARD
41
0.85
0
TEXT
8
ARCH-TEXT
10
94.06666666666666
20
308.26666666666665
30
0
40
1.8
1
18 m2
7
STANDARD
41
0.85
0
TEXT
8
ARCH-TEXT
10
134.06666666666666
20
312.66666666666663
30
0
40
2.1
1
WC
7
STANDARD
41
0.85
0
TEXT
8
ARCH-TEXT
10
134.06666666666666
20
308.26666666666665
30
0
40
1.8
1
18 m2
7
STANDARD
41
0.85
0
TEXT
8
ARCH-TEXT
10
174.06666666666666
20
312.66666666666663
30
0
40
2.1
1
CONF
7
STANDARD
41
0.85
0
TEXT
8
ARCH-TEXT
10
174.06666666666666
20
308.26666666666665
30
0
40
1.8
1
36 m2
7
STANDARD
41
0.85
0
TEXT
8
ARCH-TEXT
10
254.06666666666666
20
312.66666666666663
30
0
40
2.1
1
MT1
7
STANDARD
41
0.85
0
TEXT
8
ARCH-TEXT
10
254.06666666666666
20
308.26666666666665
30
0
40
1.8
1
24 m2
7
STANDARD
41
0.85
0
TEXT
8
ARCH-TEXT
10
307.40000000000003
20
312.66666666666663
30
0
40
2.1
1
MGR1
7
STANDARD
41
0.85
0
TEXT
8
ARCH-TEXT
10
307.40000000000003
20
308.26666666666665
30
0
40
1.8
1
18 m2
7
STANDARD
41
0.85
0
TEXT
8
ARCH-TEXT
10
347.40000000000003
20
312.66666666666663
30
0
40
2.1
1
MGR2
7
STANDARD
41
0.85
0
TEXT
8
ARCH-TEXT
10
347.40000000000003
20
308.26666666666665
30
0
40
1.8
1
18 m2
7
STANDARD
41
0.85
0
TEXT
8
ARCH-TEXT
10
387.40000000000003
20
312.66666666666663
30
0
40
2.1
1
KIT
7
STANDARD
41
0.85
0
TEXT
8
ARCH-TEXT
10
387.40000000000003
20
308.26666666666665
30
0
40
1.8
1
18 m2
7
STANDARD
41
0.85
0
TEXT
8
ARCH-TEXT
10
27.4
20
206.0
30
0
40
2.1
1
ST1
7
STANDARD
41
0.85
0
TEXT
8
ARCH-TEXT
10
27.4
20
201.60000000000002
30
0
40
1.8
1
24 m2
7
STANDARD
41
0.85
0
TEXT
8
ARCH-TEXT
10
80.73333333333333
20
206.0
30
0
40
2.1
1
OPEN
7
STANDARD
41
0.85
0
TEXT
8
ARCH-TEXT
10
80.73333333333333
20
201.60000000000002
30
0
40
1.8
1
132 m2
7
STANDARD
41
0.85
0
TEXT
8
ARCH-TEXT
10
374.06666666666666
20
206.0
30
0
40
2.1
1
ST2
7
STANDARD
41
0.85
0
TEXT
8
ARCH-TEXT
10
374.06666666666666
20
201.60000000000002
30
0
40
1.8
1
24 m2
7
STANDARD
41
0.85
0
TEXT
8
ARCH-TEXT
10
29.0
20
234.0
30
0
40
2.1
1
CORRIDOR - 2.0 m wide
7
STANDARD
41
0.85
0
LINE
8
ELEC-DIMENSIONS
10
25.0
20
340.6666666666667
30
0
11
425.0
21
340.6666666666667
31
0
0
TEXT
8
ELEC-DIMENSIONS
10
217.0
20
342.6666666666667
30
0
40
2.6
1
30 000
7
STANDARD
41
0.85
0
LINE
8
ELEC-DIMENSIONS
10
25.0
20
319.33333333333337
30
0
11
25.0
21
344.6666666666667
31
0
0
LINE
8
ELEC-DIMENSIONS
10
425.0
20
319.33333333333337
30
0
11
425.0
21
344.6666666666667
31
0
0
TEXT
8
ELEC-TEXT
10
23
20
121
30
0
40
3
1
FF  /  420 m2  /  1:75 at A2
7
STANDARD
41
0.85
0
INSERT
8
ELEC-DB
2
DB
10
30.333333333333336
20
225.33333333333334
30
0
41
1
42
1
43
1
0
TEXT
8
ELEC-DB
10
35.66666666666667
20
220.0
30
0
40
2.4
1
DB-FF
7
STANDARD
41
0.85
0
INSERT
8
ELEC-LIGHT
2
LP
10
91.66666666666667
20
143.33333333333331
30
0
41
1
42
1
43
1
0
TEXT
8
ELEC-LIGHT-TEXT
10
86.33333333333333
20
139.46666666666664
30
0
40
1.95
1
N001/L01
7
STANDARD
41
0.85
0
INSERT
8
ELEC-LIGHT
2
LP
10
118.33333333333334
20
143.33333333333331
30
0
41
1
42
1
43
1
0
TEXT
8
ELEC-LIGHT-TEXT
10
113.0
20
139.46666666666664
30
0
40
1.95
1
N002/L01
7
STANDARD
41
0.85
0
INSERT
8
ELEC-LIGHT
2
LP
10
145.0
20
143.33333333333331
30
0
41
1
42
1
43
1
0
TEXT
8
ELEC-LIGHT-TEXT
10
139.66666666666669
20
139.46666666666664
30
0
40
1.95
1
N003/L01
7
STANDARD
41
0.85
0
INSERT
8
ELEC-LIGHT
2
LP
10
171.66666666666669
20
143.33333333333331
30
0
41
1
42
1
43
1
0
TEXT
8
ELEC-LIGHT-TEXT
10
166.33333333333334
20
139.46666666666664
30
0
40
1.95
1
N004/L01
7
STANDARD
41
0.85
0
INSERT
8
ELEC-LIGHT
2
LP
10
198.33333333333334
20
143.33333333333331
30
0
41
1
42
1
43
1
0
TEXT
8
ELEC-LIGHT-TEXT
10
193.0
20
139.46666666666664
30
0
40
1.95
1
N005/L01
7
STANDARD
41
0.85
0
INSERT
8
ELEC-LIGHT
2
LP
10
225.0
20
143.33333333333331
30
0
41
1
42
1
43
1
0
TEXT
8
ELEC-LIGHT-TEXT
10
219.66666666666666
20
139.46666666666664
30
0
40
1.95
1
N006/L02
7
STANDARD
41
0.85
0
INSERT
8
ELEC-LIGHT
2
LP
10
251.66666666666669
20
143.33333333333331
30
0
41
1
42
1
43
1
0
TEXT
8
ELEC-LIGHT-TEXT
10
246.33333333333337
20
139.46666666666664
30
0
40
1.95
1
N007/L02
7
STANDARD
41
0.85
0
INSERT
8
ELEC-LIGHT
2
LP
10
278.33333333333337
20
143.33333333333331
30
0
41
1
42
1
43
1
0
TEXT
8
ELEC-LIGHT-TEXT
10
273.0
20
139.46666666666664
30
0
40
1.95
1
N008/L02
7
STANDARD
41
0.85
0
INSERT
8
ELEC-LIGHT
2
LP
10
305.0
20
143.33333333333331
30
0
41
1
42
1
43
1
0
TEXT
8
ELEC-LIGHT-TEXT
10
299.6666666666667
20
139.46666666666664
30
0
40
1.95
1
N009/L02
7
STANDARD
41
0.85
0
INSERT
8
ELEC-LIGHT
2
LP
10
331.6666666666667
20
143.33333333333331
30
0
41
1
42
1
43
1
0
TEXT
8
ELEC-LIGHT-TEXT
10
326.33333333333337
20
139.46666666666664
30
0
40
1.95
1
N010/L02
7
STANDARD
41
0.85
0
INSERT
8
ELEC-LIGHT
2
LP
10
358.33333333333337
20
143.33333333333331
30
0
41
1
42
1
43
1
0
TEXT
8
ELEC-LIGHT-TEXT
10
353.00000000000006
20
139.46666666666664
30
0
40
1.95
1
N011/L02
7
STANDARD
41
0.85
0
INSERT
8
ELEC-LIGHT
2
LP
10
91.66666666666667
20
170.0
30
0
41
1
42
1
43
1
0
TEXT
8
ELEC-LIGHT-TEXT
10
86.33333333333333
20
166.13333333333333
30
0
40
1.95
1
N012/L01
7
STANDARD
41
0.85
0
INSERT
8
ELEC-LIGHT
2
LP
10
118.33333333333334
20
170.0
30
0
41
1
42
1
43
1
0
TEXT
8
ELEC-LIGHT-TEXT
10
113.0
20
166.13333333333333
30
0
40
1.95
1
N013/L01
7
STANDARD
41
0.85
0
INSERT
8
ELEC-LIGHT
2
LP
10
145.0
20
170.0
30
0
41
1
42
1
43
1
0
TEXT
8
ELEC-LIGHT-TEXT
10
139.66666666666669
20
166.13333333333333
30
0
40
1.95
1
N014/L01
7
STANDARD
41
0.85
0
INSERT
8
ELEC-LIGHT
2
LP
10
171.66666666666669
20
170.0
30
0
41
1
42
1
43
1
0
TEXT
8
ELEC-LIGHT-TEXT
10
166.33333333333334
20
166.13333333333333
30
0
40
1.95
1
N015/L01
7
STANDARD
41
0.85
0
INSERT
8
ELEC-LIGHT
2
LP
10
198.33333333333334
20
170.0
30
0
41
1
42
1
43
1
0
TEXT
8
ELEC-LIGHT-TEXT
10
193.0
20
166.13333333333333
30
0
40
1.95
1
N016/L01
7
STANDARD
41
0.85
0
INSERT
8
ELEC-LIGHT
2
LP
10
225.0
20
170.0
30
0
41
1
42
1
43
1
0
TEXT
8
ELEC-LIGHT-TEXT
10
219.66666666666666
20
166.13333333333333
30
0
40
1.95
1
N017/L02
7
STANDARD
41
0.85
0
INSERT
8
ELEC-LIGHT
2
LP
10
251.66666666666669
20
170.0
30
0
41
1
42
1
43
1
0
TEXT
8
ELEC-LIGHT-TEXT
10
246.33333333333337
20
166.13333333333333
30
0
40
1.95
1
N018/L02
7
STANDARD
41
0.85
0
INSERT
8
ELEC-LIGHT
2
LP
10
278.33333333333337
20
170.0
30
0
41
1
42
1
43
1
0
TEXT
8
ELEC-LIGHT-TEXT
10
273.0
20
166.13333333333333
30
0
40
1.95
1
N019/L02
7
STANDARD
41
0.85
0
INSERT
8
ELEC-LIGHT
2
LP
10
305.0
20
170.0
30
0
41
1
42
1
43
1
0
TEXT
8
ELEC-LIGHT-TEXT
10
299.6666666666667
20
166.13333333333333
30
0
40
1.95
1
N020/L02
7
STANDARD
41
0.85
0
INSERT
8
ELEC-LIGHT
2
LP
10
331.6666666666667
20
170.0
30
0
41
1
42
1
43
1
0
TEXT
8
ELEC-LIGHT-TEXT
10
326.33333333333337
20
166.13333333333333
30
0
40
1.95
1
N021/L02
7
STANDARD
41
0.85
0
INSERT
8
ELEC-LIGHT
2
LP
10
358.33333333333337
20
170.0
30
0
41
1
42
1
43
1
0
TEXT
8
ELEC-LIGHT-TEXT
10
353.00000000000006
20
166.13333333333333
30
0
40
1.95
1
N022/L02
7
STANDARD
41
0.85
0
INSERT
8
ELEC-LIGHT
2
LP
10
91.66666666666667
20
196.66666666666669
30
0
41
1
42
1
43
1
0
TEXT
8
ELEC-LIGHT-TEXT
10
86.33333333333333
20
192.8
30
0
40
1.95
1
N023/L01
7
STANDARD
41
0.85
0
INSERT
8
ELEC-LIGHT
2
LP
10
118.33333333333334
20
196.66666666666669
30
0
41
1
42
1
43
1
0
TEXT
8
ELEC-LIGHT-TEXT
10
113.0
20
192.8
30
0
40
1.95
1
N024/L01
7
STANDARD
41
0.85
0
INSERT
8
ELEC-LIGHT
2
LP
10
145.0
20
196.66666666666669
30
0
41
1
42
1
43
1
0
TEXT
8
ELEC-LIGHT-TEXT
10
139.66666666666669
20
192.8
30
0
40
1.95
1
N025/L01
7
STANDARD
41
0.85
0
INSERT
8
ELEC-LIGHT
2
LP
10
171.66666666666669
20
196.66666666666669
30
0
41
1
42
1
43
1
0
TEXT
8
ELEC-LIGHT-TEXT
10
166.33333333333334
20
192.8
30
0
40
1.95
1
N026/L01
7
STANDARD
41
0.85
0
INSERT
8
ELEC-LIGHT
2
LP
10
198.33333333333334
20
196.66666666666669
30
0
41
1
42
1
43
1
0
TEXT
8
ELEC-LIGHT-TEXT
10
193.0
20
192.8
30
0
40
1.95
1
N027/L01
7
STANDARD
41
0.85
0
INSERT
8
ELEC-LIGHT
2
LP
10
225.0
20
196.66666666666669
30
0
41
1
42
1
43
1
0
TEXT
8
ELEC-LIGHT-TEXT
10
219.66666666666666
20
192.8
30
0
40
1.95
1
N028/L02
7
STANDARD
41
0.85
0
INSERT
8
ELEC-LIGHT
2
LP
10
251.66666666666669
20
196.66666666666669
30
0
41
1
42
1
43
1
0
TEXT
8
ELEC-LIGHT-TEXT
10
246.33333333333337
20
192.8
30
0
40
1.95
1
N029/L02
7
STANDARD
41
0.85
0
INSERT
8
ELEC-LIGHT
2
LP
10
278.33333333333337
20
196.66666666666669
30
0
41
1
42
1
43
1
0
TEXT
8
ELEC-LIGHT-TEXT
10
273.0
20
192.8
30
0
40
1.95
1
N030/L02
7
STANDARD
41
0.85
0
INSERT
8
ELEC-LIGHT
2
LP
10
305.0
20
196.66666666666669
30
0
41
1
42
1
43
1
0
TEXT
8
ELEC-LIGHT-TEXT
10
299.6666666666667
20
192.8
30
0
40
1.95
1
N031/L02
7
STANDARD
41
0.85
0
INSERT
8
ELEC-LIGHT
2
LP
10
331.6666666666667
20
196.66666666666669
30
0
41
1
42
1
43
1
0
TEXT
8
ELEC-LIGHT-TEXT
10
326.33333333333337
20
192.8
30
0
40
1.95
1
N032/L02
7
STANDARD
41
0.85
0
INSERT
8
ELEC-LIGHT
2
LP
10
358.33333333333337
20
196.66666666666669
30
0
41
1
42
1
43
1
0
TEXT
8
ELEC-LIGHT-TEXT
10
353.00000000000006
20
192.8
30
0
40
1.95
1
N033/L02
7
STANDARD
41
0.85
0
INSERT
8
ELEC-LIGHT
2
LP
10
185.0
20
250.0
30
0
41
1
42
1
43
1
0
TEXT
8
ELEC-LIGHT-TEXT
10
179.66666666666666
20
246.13333333333335
30
0
40
1.95
1
N034/L03
7
STANDARD
41
0.85
0
INSERT
8
ELEC-LIGHT
2
LP
10
211.66666666666669
20
250.0
30
0
41
1
42
1
43
1
0
TEXT
8
ELEC-LIGHT-TEXT
10
206.33333333333334
20
246.13333333333335
30
0
40
1.95
1
N035/L03
7
STANDARD
41
0.85
0
INSERT
8
ELEC-LIGHT
2
LP
10
238.33333333333334
20
250.0
30
0
41
1
42
1
43
1
0
TEXT
8
ELEC-LIGHT-TEXT
10
233.0
20
246.13333333333335
30
0
40
1.95
1
N036/L03
7
STANDARD
41
0.85
0
INSERT
8
ELEC-LIGHT
2
LP
10
185.0
20
276.6666666666667
30
0
41
1
42
1
43
1
0
TEXT
8
ELEC-LIGHT-TEXT
10
179.66666666666666
20
272.8
30
0
40
1.95
1
N037/L03
7
STANDARD
41
0.85
0
INSERT
8
ELEC-LIGHT
2
LP
10
211.66666666666669
20
276.6666666666667
30
0
41
1
42
1
43
1
0
TEXT
8
ELEC-LIGHT-TEXT
10
206.33333333333334
20
272.8
30
0
40
1.95
1
N038/L03
7
STANDARD
41
0.85
0
INSERT
8
ELEC-LIGHT
2
LP
10
238.33333333333334
20
276.6666666666667
30
0
41
1
42
1
43
1
0
TEXT
8
ELEC-LIGHT-TEXT
10
233.0
20
272.8
30
0
40
1.95
1
N039/L03
7
STANDARD
41
0.85
0
INSERT
8
ELEC-LIGHT
2
LP
10
185.0
20
303.33333333333337
30
0
41
1
42
1
43
1
0
TEXT
8
ELEC-LIGHT-TEXT
10
179.66666666666666
20
299.4666666666667
30
0
40
1.95
1
N040/L03
7
STANDARD
41
0.85
0
INSERT
8
ELEC-LIGHT
2
LP
10
211.66666666666669
20
303.33333333333337
30
0
41
1
42
1
43
1
0
TEXT
8
ELEC-LIGHT-TEXT
10
206.33333333333334
20
299.4666666666667
30
0
40
1.95
1
N041/L03
7
STANDARD
41
0.85
0
INSERT
8
ELEC-LIGHT
2
LP
10
238.33333333333334
20
303.33333333333337
30
0
41
1
42
1
43
1
0
TEXT
8
ELEC-LIGHT-TEXT
10
233.0
20
299.4666666666667
30
0
40
1.95
1
N042/L03
7
STANDARD
41
0.85
0
INSERT
8
ELEC-LIGHT
2
LP
10
265.0
20
250.0
30
0
41
1
42
1
43
1
0
TEXT
8
ELEC-LIGHT-TEXT
10
259.6666666666667
20
246.13333333333335
30
0
40
1.95
1
N043/L03
7
STANDARD
41
0.85
0
INSERT
8
ELEC-LIGHT
2
LP
10
291.6666666666667
20
250.0
30
0
41
1
42
1
43
1
0
TEXT
8
ELEC-LIGHT-TEXT
10
286.33333333333337
20
246.13333333333335
30
0
40
1.95
1
N044/L03
7
STANDARD
41
0.85
0
INSERT
8
ELEC-LIGHT
2
LP
10
265.0
20
276.6666666666667
30
0
41
1
42
1
43
1
0
TEXT
8
ELEC-LIGHT-TEXT
10
259.6666666666667
20
272.8
30
0
40
1.95
1
N045/L03
7
STANDARD
41
0.85
0
INSERT
8
ELEC-LIGHT
2
LP
10
291.6666666666667
20
276.6666666666667
30
0
41
1
42
1
43
1
0
TEXT
8
ELEC-LIGHT-TEXT
10
286.33333333333337
20
272.8
30
0
40
1.95
1
N046/L03
7
STANDARD
41
0.85
0
INSERT
8
ELEC-LIGHT
2
LP
10
265.0
20
303.33333333333337
30
0
41
1
42
1
43
1
0
TEXT
8
ELEC-LIGHT-TEXT
10
259.6666666666667
20
299.4666666666667
30
0
40
1.95
1
N047/L03
7
STANDARD
41
0.85
0
INSERT
8
ELEC-LIGHT
2
LP
10
291.6666666666667
20
303.33333333333337
30
0
41
1
42
1
43
1
0
TEXT
8
ELEC-LIGHT-TEXT
10
286.33333333333337
20
299.4666666666667
30
0
40
1.95
1
N048/L03
7
STANDARD
41
0.85
0
INSERT
8
ELEC-LIGHT
2
LP
10
315.0
20
256.6666666666667
30
0
41
1
42
1
43
1
0
TEXT
8
ELEC-LIGHT-TEXT
10
309.6666666666667
20
252.8
30
0
40
1.95
1
N049/L04
7
STANDARD
41
0.85
0
INSERT
8
ELEC-LIGHT
2
LP
10
335.0
20
256.6666666666667
30
0
41
1
42
1
43
1
0
TEXT
8
ELEC-LIGHT-TEXT
10
329.6666666666667
20
252.8
30
0
40
1.95
1
N050/L04
7
STANDARD
41
0.85
0
INSERT
8
ELEC-LIGHT
2
LP
10
315.0
20
296.6666666666667
30
0
41
1
42
1
43
1
0
TEXT
8
ELEC-LIGHT-TEXT
10
309.6666666666667
20
292.8
30
0
40
1.95
1
N051/L04
7
STANDARD
41
0.85
0
INSERT
8
ELEC-LIGHT
2
LP
10
335.0
20
296.6666666666667
30
0
41
1
42
1
43
1
0
TEXT
8
ELEC-LIGHT-TEXT
10
329.6666666666667
20
292.8
30
0
40
1.95
1
N052/L04
7
STANDARD
41
0.85
0
INSERT
8
ELEC-LIGHT
2
LP
10
355.0
20
256.6666666666667
30
0
41
1
42
1
43
1
0
TEXT
8
ELEC-LIGHT-TEXT
10
349.6666666666667
20
252.8
30
0
40
1.95
1
N053/L04
7
STANDARD
41
0.85
0
INSERT
8
ELEC-LIGHT
2
LP
10
375.0
20
256.6666666666667
30
0
41
1
42
1
43
1
0
TEXT
8
ELEC-LIGHT-TEXT
10
369.6666666666667
20
252.8
30
0
40
1.95
1
N054/L04
7
STANDARD
41
0.85
0
INSERT
8
ELEC-LIGHT
2
LP
10
355.0
20
296.6666666666667
30
0
41
1
42
1
43
1
0
TEXT
8
ELEC-LIGHT-TEXT
10
349.6666666666667
20
292.8
30
0
40
1.95
1
N055/L04
7
STANDARD
41
0.85
0
INSERT
8
ELEC-LIGHT
2
LP
10
375.0
20
296.6666666666667
30
0
41
1
42
1
43
1
0
TEXT
8
ELEC-LIGHT-TEXT
10
369.6666666666667
20
292.8
30
0
40
1.95
1
N056/L04
7
STANDARD
41
0.85
0
INSERT
8
ELEC-LIGHT
2
LP
10
405.0
20
250.0
30
0
41
1
42
1
43
1
0
TEXT
8
ELEC-LIGHT-TEXT
10
399.6666666666667
20
246.13333333333335
30
0
40
1.95
1
N057/L05
7
STANDARD
41
0.85
0
INSERT
8
ELEC-LIGHT
2
LP
10
405.0
20
276.6666666666667
30
0
41
1
42
1
43
1
0
TEXT
8
ELEC-LIGHT-TEXT
10
399.6666666666667
20
272.8
30
0
40
1.95
1
N058/L05
7
STANDARD
41
0.85
0
INSERT
8
ELEC-LIGHT
2
LP
10
405.0
20
303.33333333333337
30
0
41
1
42
1
43
1
0
TEXT
8
ELEC-LIGHT-TEXT
10
399.6666666666667
20
299.4666666666667
30
0
40
1.95
1
N059/L05
7
STANDARD
41
0.85
0
INSERT
8
ELEC-LIGHT
2
LB
10
151.66666666666669
20
250.0
30
0
41
1
42
1
43
1
0
TEXT
8
ELEC-LIGHT-TEXT
10
146.33333333333331
20
246.13333333333335
30
0
40
1.95
1
N060/L05
7
STANDARD
41
0.85
0
INSERT
8
ELEC-LIGHT
2
LB
10
151.66666666666669
20
276.6666666666667
30
0
41
1
42
1
43
1
0
TEXT
8
ELEC-LIGHT-TEXT
10
146.33333333333331
20
272.8
30
0
40
1.95
1
N061/L05
7
STANDARD
41
0.85
0
INSERT
8
ELEC-LIGHT
2
LB
10
151.66666666666669
20
303.33333333333337
30
0
41
1
42
1
43
1
0
TEXT
8
ELEC-LIGHT-TEXT
10
146.33333333333331
20
299.4666666666667
30
0
40
1.95
1
N062/L05
7
STANDARD
41
0.85
0
INSERT
8
ELEC-LIGHT
2
LB
10
111.66666666666667
20
250.0
30
0
41
1
42
1
43
1
0
TEXT
8
ELEC-LIGHT-TEXT
10
106.33333333333333
20
246.13333333333335
30
0
40
1.95
1
N063/L05
7
STANDARD
41
0.85
0
INSERT
8
ELEC-LIGHT
2
LB
10
111.66666666666667
20
276.6666666666667
30
0
41
1
42
1
43
1
0
TEXT
8
ELEC-LIGHT-TEXT
10
106.33333333333333
20
272.8
30
0
40
1.95
1
N064/L05
7
STANDARD
41
0.85
0
INSERT
8
ELEC-LIGHT
2
LB
10
111.66666666666667
20
303.33333333333337
30
0
41
1
42
1
43
1
0
TEXT
8
ELEC-LIGHT-TEXT
10
106.33333333333333
20
299.4666666666667
30
0
40
1.95
1
N065/L05
7
STANDARD
41
0.85
0
INSERT
8
ELEC-LIGHT
2
LP
10
45.0
20
250.0
30
0
41
1
42
1
43
1
0
TEXT
8
ELEC-LIGHT-TEXT
10
39.66666666666667
20
246.13333333333335
30
0
40
1.95
1
N066/L06
7
STANDARD
41
0.85
0
INSERT
8
ELEC-LIGHT
2
LP
10
45.0
20
276.6666666666667
30
0
41
1
42
1
43
1
0
TEXT
8
ELEC-LIGHT-TEXT
10
39.66666666666667
20
272.8
30
0
40
1.95
1
N067/L06
7
STANDARD
41
0.85
0
INSERT
8
ELEC-LIGHT
2
LP
10
45.0
20
303.33333333333337
30
0
41
1
42
1
43
1
0
TEXT
8
ELEC-LIGHT-TEXT
10
39.66666666666667
20
299.4666666666667
30
0
40
1.95
1
N068/L06
7
STANDARD
41
0.85
0
INSERT
8
ELEC-LIGHT
2
LB
10
78.33333333333334
20
256.6666666666667
30
0
41
1
42
1
43
1
0
TEXT
8
ELEC-LIGHT-TEXT
10
73.0
20
252.8
30
0
40
1.95
1
N069/L06
7
STANDARD
41
0.85
0
INSERT
8
ELEC-LIGHT
2
LB
10
78.33333333333334
20
296.6666666666667
30
0
41
1
42
1
43
1
0
TEXT
8
ELEC-LIGHT-TEXT
10
73.0
20
292.8
30
0
40
1.95
1
N070/L06
7
STANDARD
41
0.85
0
INSERT
8
ELEC-LIGHT
2
LB
10
45.0
20
223.33333333333334
30
0
41
1
42
1
43
1
0
TEXT
8
ELEC-LIGHT-TEXT
10
39.66666666666667
20
219.46666666666667
30
0
40
1.95
1
N071/L07
7
STANDARD
41
0.85
0
INSERT
8
ELEC-LIGHT
2
LB
10
85.0
20
223.33333333333334
30
0
41
1
42
1
43
1
0
TEXT
8
ELEC-LIGHT-TEXT
10
79.66666666666666
20
219.46666666666667
30
0
40
1.95
1
N072/L07
7
STANDARD
41
0.85
0
INSERT
8
ELEC-LIGHT
2
LB
10
125.0
20
223.33333333333334
30
0
41
1
42
1
43
1
0
TEXT
8
ELEC-LIGHT-TEXT
10
119.66666666666667
20
219.46666666666667
30
0
40
1.95
1
N073/L07
7
STANDARD
41
0.85
0
INSERT
8
ELEC-LIGHT
2
LB
10
165.0
20
223.33333333333334
30
0
41
1
42
1
43
1
0
TEXT
8
ELEC-LIGHT-TEXT
10
159.66666666666666
20
219.46666666666667
30
0
40
1.95
1
N074/L07
7
STANDARD
41
0.85
0
INSERT
8
ELEC-LIGHT
2
LB
10
205.0
20
223.33333333333334
30
0
41
1
42
1
43
1
0
TEXT
8
ELEC-LIGHT-TEXT
10
199.66666666666666
20
219.46666666666667
30
0
40
1.95
1
N075/L07
7
STANDARD
41
0.85
0
INSERT
8
ELEC-LIGHT
2
LB
10
245.0
20
223.33333333333334
30
0
41
1
42
1
43
1
0
TEXT
8
ELEC-LIGHT-TEXT
10
239.66666666666669
20
219.46666666666667
30
0
40
1.95
1
N076/L07
7
STANDARD
41
0.85
0
INSERT
8
ELEC-LIGHT
2
LB
10
285.0
20
223.33333333333334
30
0
41
1
42
1
43
1
0
TEXT
8
ELEC-LIGHT-TEXT
10
279.6666666666667
20
219.46666666666667
30
0
40
1.95
1
N077/L07
7
STANDARD
41
0.85
0
INSERT
8
ELEC-LIGHT
2
LB
10
325.0
20
223.33333333333334
30
0
41
1
42
1
43
1
0
TEXT
8
ELEC-LIGHT-TEXT
10
319.6666666666667
20
219.46666666666667
30
0
40
1.95
1
N078/L07
7
STANDARD
41
0.85
0
INSERT
8
ELEC-LIGHT
2
LB
10
365.0
20
223.33333333333334
30
0
41
1
42
1
43
1
0
TEXT
8
ELEC-LIGHT-TEXT
10
359.6666666666667
20
219.46666666666667
30
0
40
1.95
1
N079/L07
7
STANDARD
41
0.85
0
INSERT
8
ELEC-LIGHT
2
LB
10
405.0
20
223.33333333333334
30
0
41
1
42
1
43
1
0
TEXT
8
ELEC-LIGHT-TEXT
10
399.6666666666667
20
219.46666666666667
30
0
40
1.95
1
N080/L07
7
STANDARD
41
0.85
0
INSERT
8
ELEC-LIGHT
2
LB
10
51.66666666666667
20
143.33333333333331
30
0
41
1
42
1
43
1
0
TEXT
8
ELEC-LIGHT-TEXT
10
46.333333333333336
20
139.46666666666664
30
0
40
1.95
1
N081/L08
7
STANDARD
41
0.85
0
INSERT
8
ELEC-LIGHT
2
LB
10
51.66666666666667
20
170.0
30
0
41
1
42
1
43
1
0
TEXT
8
ELEC-LIGHT-TEXT
10
46.333333333333336
20
166.13333333333333
30
0
40
1.95
1
N082/L08
7
STANDARD
41
0.85
0
INSERT
8
ELEC-LIGHT
2
LB
10
51.66666666666667
20
196.66666666666669
30
0
41
1
42
1
43
1
0
TEXT
8
ELEC-LIGHT-TEXT
10
46.333333333333336
20
192.8
30
0
40
1.95
1
N083/L08
7
STANDARD
41
0.85
0
INSERT
8
ELEC-LIGHT
2
LB
10
398.33333333333337
20
143.33333333333331
30
0
41
1
42
1
43
1
0
TEXT
8
ELEC-LIGHT-TEXT
10
393.00000000000006
20
139.46666666666664
30
0
40
1.95
1
N084/L08
7
STANDARD
41
0.85
0
INSERT
8
ELEC-LIGHT
2
LB
10
398.33333333333337
20
170.0
30
0
41
1
42
1
43
1
0
TEXT
8
ELEC-LIGHT-TEXT
10
393.00000000000006
20
166.13333333333333
30
0
40
1.95
1
N085/L08
7
STANDARD
41
0.85
0
INSERT
8
ELEC-LIGHT
2
LB
10
398.33333333333337
20
196.66666666666669
30
0
41
1
42
1
43
1
0
TEXT
8
ELEC-LIGHT-TEXT
10
393.00000000000006
20
192.8
30
0
40
1.95
1
N086/L08
7
STANDARD
41
0.85
0
INSERT
8
ELEC-SWITCH
2
SW2
10
83.0
20
205.33333333333334
30
0
41
1
42
1
43
1
0
TEXT
8
ELEC-LIGHT-TEXT
10
85.0
20
203.33333333333334
30
0
40
2
1
L01
7
STANDARD
41
0.85
0
INSERT
8
ELEC-SWITCH
2
SW2
10
366.33333333333337
20
205.33333333333334
30
0
41
1
42
1
43
1
0
TEXT
8
ELEC-LIGHT-TEXT
10
368.33333333333337
20
203.33333333333334
30
0
40
2
1
L02
7
STANDARD
41
0.85
0
INSERT
8
ELEC-SWITCH
2
SW1
10
176.33333333333334
20
240.66666666666669
30
0
41
1
42
1
43
1
0
TEXT
8
ELEC-LIGHT-TEXT
10
178.33333333333334
20
238.66666666666669
30
0
40
2
1
L03
7
STANDARD
41
0.85
0
INSERT
8
ELEC-SWITCH
2
SW1
10
256.33333333333337
20
240.66666666666669
30
0
41
1
42
1
43
1
0
TEXT
8
ELEC-LIGHT-TEXT
10
258.33333333333337
20
238.66666666666669
30
0
40
2
1
L03
7
STANDARD
41
0.85
0
INSERT
8
ELEC-SWITCH
2
SW1
10
309.6666666666667
20
240.66666666666669
30
0
41
1
42
1
43
1
0
TEXT
8
ELEC-LIGHT-TEXT
10
311.6666666666667
20
238.66666666666669
30
0
40
2
1
L04
7
STANDARD
41
0.85
0
INSERT
8
ELEC-SWITCH
2
SW1
10
349.6666666666667
20
240.66666666666669
30
0
41
1
42
1
43
1
0
TEXT
8
ELEC-LIGHT-TEXT
10
351.6666666666667
20
238.66666666666669
30
0
40
2
1
L04
7
STANDARD
41
0.85
0
INSERT
8
ELEC-SWITCH
2
SW1
10
389.6666666666667
20
240.66666666666669
30
0
41
1
42
1
43
1
0
TEXT
8
ELEC-LIGHT-TEXT
10
391.6666666666667
20
238.66666666666669
30
0
40
2
1
L05
7
STANDARD
41
0.85
0
INSERT
8
ELEC-SWITCH
2
SW1
10
136.33333333333331
20
240.66666666666669
30
0
41
1
42
1
43
1
0
TEXT
8
ELEC-LIGHT-TEXT
10
138.33333333333334
20
238.66666666666669
30
0
40
2
1
L05
7
STANDARD
41
0.85
0
INSERT
8
ELEC-SWITCH
2
SW1
10
96.33333333333333
20
240.66666666666669
30
0
41
1
42
1
43
1
0
TEXT
8
ELEC-LIGHT-TEXT
10
98.33333333333334
20
238.66666666666669
30
0
40
2
1
L05
7
STANDARD
41
0.85
0
INSERT
8
ELEC-SWITCH
2
SW1
10
29.666666666666668
20
240.66666666666669
30
0
41
1
42
1
43
1
0
TEXT
8
ELEC-LIGHT-TEXT
10
31.666666666666668
20
238.66666666666669
30
0
40
2
1
L06
7
STANDARD
41
0.85
0
INSERT
8
ELEC-SWITCH
2
SW1
10
69.66666666666667
20
240.66666666666669
30
0
41
1
42
1
43
1
0
TEXT
8
ELEC-LIGHT-TEXT
10
71.66666666666667
20
238.66666666666669
30
0
40
2
1
L06
7
STANDARD
41
0.85
0
INSERT
8
ELEC-SWITCH
2
SW1
10
38.333333333333336
20
214.0
30
0
41
1
42
1
43
1
0
TEXT
8
ELEC-LIGHT-TEXT
10
40.33333333333333
20
212.0
30
0
40
2
1
L07
7
STANDARD
41
0.85
0
INSERT
8
ELEC-SWITCH
2
SW1
10
31.666666666666668
20
204.66666666666669
30
0
41
1
42
1
43
1
0
TEXT
8
ELEC-LIGHT-TEXT
10
33.66666666666667
20
202.66666666666666
30
0
40
2
1
L08
7
STANDARD
41
0.85
0
INSERT
8
ELEC-SWITCH
2
SW1
10
378.33333333333337
20
204.66666666666669
30
0
41
1
42
1
43
1
0
TEXT
8
ELEC-LIGHT-TEXT
10
380.3333333333333
20
202.66666666666666
30
0
40
2
1
L08
7
STANDARD
41
0.85
0
LINE
8
ELEC-SWITCH
10
83.0
20
205.33333333333334
30
0
11
83.27083333333333
21
203.39583333333334
31
0
0
LINE
8
ELEC-SWITCH
10
83.54166666666667
20
201.45833333333334
30
0
11
83.8125
21
199.52083333333334
31
0
0
LINE
8
ELEC-SWITCH
10
84.08333333333333
20
197.58333333333334
30
0
11
84.35416666666667
21
195.64583333333334
31
0
0
LINE
8
ELEC-SWITCH
10
84.625
20
193.70833333333334
30
0
11
84.89583333333333
21
191.77083333333334
31
0
0
LINE
8
ELEC-SWITCH
10
85.16666666666667
20
189.83333333333334
30
0
11
85.4375
21
187.89583333333334
31
0
0
LINE
8
ELEC-SWITCH
10
85.70833333333333
20
185.95833333333334
30
0
11
85.97916666666667
21
184.02083333333334
31
0
0
LINE
8
ELEC-SWITCH
10
86.25
20
182.08333333333334
30
0
11
86.52083333333333
21
180.14583333333334
31
0
0
LINE
8
ELEC-SWITCH
10
86.79166666666667
20
178.20833333333331
30
0
11
87.0625
21
176.27083333333331
31
0
0
LINE
8
ELEC-SWITCH
10
87.33333333333334
20
174.33333333333331
30
0
11
87.60416666666667
21
172.39583333333331
31
0
0
LINE
8
ELEC-SWITCH
10
87.875
20
170.45833333333331
30
0
11
88.14583333333334
21
168.52083333333331
31
0
0
LINE
8
ELEC-SWITCH
10
88.41666666666667
20
166.58333333333331
30
0
11
88.6875
21
164.64583333333331
31
0
0
LINE
8
ELEC-SWITCH
10
88.95833333333334
20
162.70833333333331
30
0
11
89.22916666666667
21
160.77083333333331
31
0
0
LINE
8
ELEC-SWITCH
10
89.5
20
158.83333333333331
30
0
11
89.77083333333334
21
156.89583333333331
31
0
0
LINE
8
ELEC-SWITCH
10
90.04166666666667
20
154.95833333333331
30
0
11
90.3125
21
153.02083333333331
31
0
0
LINE
8
ELEC-SWITCH
10
90.58333333333334
20
151.08333333333331
30
0
11
90.85416666666667
21
149.14583333333331
31
0
0
LINE
8
ELEC-SWITCH
10
91.125
20
147.20833333333331
30
0
11
91.39583333333334
21
145.27083333333331
31
0
0
LINE
8
ELEC-SWITCH
10
366.33333333333337
20
205.33333333333334
30
0
11
364.52136752136755
21
204.53846153846155
31
0
0
LINE
8
ELEC-SWITCH
10
362.70940170940173
20
203.74358974358975
30
0
11
360.8974358974359
21
202.94871794871796
31
0
0
LINE
8
ELEC-SWITCH
10
359.08547008547015
20
202.15384615384616
30
0
11
357.27350427350433
21
201.35897435897436
31
0
0
LINE
8
ELEC-SWITCH
10
355.4615384615385
20
200.56410256410257
30
0
11
353.6495726495727
21
199.76923076923077
31
0
0
LINE
8
ELEC-SWITCH
10
351.83760683760687
20
198.97435897435898
30
0
11
350.02564102564105
21
198.17948717948718
31
0
0
LINE
8
ELEC-SWITCH
10
348.21367521367523
20
197.3846153846154
30
0
11
346.4017094017094
21
196.5897435897436
31
0
0
LINE
8
ELEC-SWITCH
10
344.58974358974365
20
195.7948717948718
30
0
11
342.7777777777778
21
195.0
31
0
0
LINE
8
ELEC-SWITCH
10
340.965811965812
20
194.2051282051282
30
0
11
339.1538461538462
21
193.4102564102564
31
0
0
LINE
8
ELEC-SWITCH
10
337.34188034188037
20
192.6153846153846
30
0
11
335.52991452991455
21
191.82051282051282
31
0
0
LINE
8
ELEC-SWITCH
10
333.71794871794873
20
191.02564102564102
30
0
11
331.9059829059829
21
190.23076923076923
31
0
0
LINE
8
ELEC-SWITCH
10
330.09401709401715
20
189.43589743589743
30
0
11
328.2820512820513
21
188.64102564102564
31
0
0
LINE
8
ELEC-SWITCH
10
326.4700854700855
20
187.84615384615384
30
0
11
324.6581196581197
21
187.05128205128204
31
0
0
LINE
8
ELEC-SWITCH
10
322.84615384615387
20
186.25641025641025
30
0
11
321.03418803418805
21
185.46153846153845
31
0
0
LINE
8
ELEC-SWITCH
10
319.22222222222223
20
184.66666666666666
30
0
11
317.41025641025647
21
183.87179487179486
31
0
0
LINE
8
ELEC-SWITCH
10
315.59829059829065
20
183.07692307692307
30
0
11
313.7863247863248
21
182.28205128205127
31
0
0
LINE
8
ELEC-SWITCH
10
311.974358974359
20
181.48717948717947
30
0
11
310.1623931623932
21
180.69230769230768
31
0
0
LINE
8
ELEC-SWITCH
10
308.35042735042737
20
179.89743589743588
30
0
11
306.53846153846155
21
179.1025641025641
31
0
0
LINE
8
ELEC-SWITCH
10
304.7264957264957
20
178.30769230769232
30
0
11
302.9145299145299
21
177.5128205128205
31
0
0
LINE
8
ELEC-SWITCH
10
301.1025641025641
20
176.71794871794873
30
0
11
299.2905982905983
21
175.9230769230769
31
0
0
LINE
8
ELEC-SWITCH
10
297.4786324786325
20
175.12820512820514
30
0
11
295.6666666666667
21
174.33333333333334
31
0
0
LINE
8
ELEC-SWITCH
10
293.85470085470087
20
173.53846153846155
30
0
11
292.04273504273505
21
172.74358974358972
31
0
0
LINE
8
ELEC-SWITCH
10
290.2307692307692
20
171.94871794871796
30
0
11
288.41880341880346
21
171.15384615384613
31
0
0
LINE
8
ELEC-SWITCH
10
286.60683760683764
20
170.35897435897436
30
0
11
284.7948717948718
21
169.56410256410254
31
0
0
LINE
8
ELEC-SWITCH
10
282.982905982906
20
168.76923076923077
30
0
11
281.1709401709402
21
167.97435897435895
31
0
0
LINE
8
ELEC-SWITCH
10
279.35897435897436
20
167.17948717948718
30
0
11
277.54700854700855
21
166.3846153846154
31
0
0
LINE
8
ELEC-SWITCH
10
275.7350427350427
20
165.5897435897436
30
0
11
273.9230769230769
21
164.7948717948718
31
0
0
LINE
8
ELEC-SWITCH
10
272.1111111111111
20
164.0
30
0
11
270.2991452991453
21
163.20512820512818
31
0
0
LINE
8
ELEC-SWITCH
10
268.4871794871795
20
162.4102564102564
30
0
11
266.6752136752137
21
161.61538461538458
31
0
0
LINE
8
ELEC-SWITCH
10
264.86324786324786
20
160.82051282051282
30
0
11
263.0512820512821
21
160.025641025641
31
0
0
LINE
8
ELEC-SWITCH
10
261.2393162393163
20
159.23076923076923
30
0
11
259.42735042735046
21
158.4358974358974
31
0
0
LINE
8
ELEC-SWITCH
10
257.61538461538464
20
157.64102564102564
30
0
11
255.80341880341882
21
156.8461538461538
31
0
0
LINE
8
ELEC-SWITCH
10
253.991452991453
20
156.05128205128204
30
0
11
252.17948717948718
21
155.25641025641022
31
0
0
LINE
8
ELEC-SWITCH
10
250.36752136752136
20
154.46153846153845
30
0
11
248.55555555555554
21
153.66666666666663
31
0
0
LINE
8
ELEC-SWITCH
10
246.74358974358975
20
152.87179487179486
30
0
11
244.93162393162393
21
152.0769230769231
31
0
0
LINE
8
ELEC-SWITCH
10
243.1196581196581
20
151.28205128205127
30
0
11
241.30769230769232
21
150.48717948717945
31
0
0
LINE
8
ELEC-SWITCH
10
239.4957264957265
20
149.69230769230768
30
0
11
237.68376068376068
21
148.8974358974359
31
0
0
LINE
8
ELEC-SWITCH
10
235.87179487179486
20
148.1025641025641
30
0
11
234.05982905982907
21
147.30769230769226
31
0
0
LINE
8
ELEC-SWITCH
10
232.24786324786325
20
146.5128205128205
30
0
11
230.43589743589743
21
145.71794871794873
31
0
0
LINE
8
ELEC-SWITCH
10
228.62393162393164
20
144.9230769230769
30
0
11
226.81196581196582
21
144.12820512820514
31
0
0
LINE
8
ELEC-SWITCH
10
176.33333333333334
20
240.66666666666669
30
0
11
177.57142857142858
21
242.00000000000003
31
0
0
LINE
8
ELEC-SWITCH
10
178.80952380952382
20
243.33333333333334
30
0
11
180.04761904761907
21
244.66666666666669
31
0
0
LINE
8
ELEC-SWITCH
10
181.28571428571428
20
246.0
30
0
11
182.52380952380952
21
247.33333333333334
31
0
0
LINE
8
ELEC-SWITCH
10
183.76190476190476
20
248.66666666666666
30
0
11
185.0
21
250.0
31
0
0
LINE
8
ELEC-SWITCH
10
256.33333333333337
20
240.66666666666669
30
0
11
257.5714285714286
21
242.00000000000003
31
0
0
LINE
8
ELEC-SWITCH
10
258.80952380952385
20
243.33333333333334
30
0
11
260.0476190476191
21
244.66666666666669
31
0
0
LINE
8
ELEC-SWITCH
10
261.2857142857143
20
246.0
30
0
11
262.5238095238095
21
247.33333333333334
31
0
0
LINE
8
ELEC-SWITCH
10
263.76190476190476
20
248.66666666666666
30
0
11
265.0
21
250.0
31
0
0
LINE
8
ELEC-SWITCH
10
309.6666666666667
20
240.66666666666669
30
0
11
310.2592592592593
21
242.44444444444446
31
0
0
LINE
8
ELEC-SWITCH
10
310.85185185185185
20
244.22222222222223
30
0
11
311.44444444444446
21
246.00000000000003
31
0
0
LINE
8
ELEC-SWITCH
10
312.03703703703707
20
247.7777777777778
30
0
11
312.6296296296296
21
249.55555555555557
31
0
0
LINE
8
ELEC-SWITCH
10
313.22222222222223
20
251.33333333333334
30
0
11
313.81481481481484
21
253.11111111111114
31
0
0
LINE
8
ELEC-SWITCH
10
314.4074074074074
20
254.8888888888889
30
0
11
315.0
21
256.6666666666667
31
0
0
LINE
8
ELEC-SWITCH
10
349.6666666666667
20
240.66666666666669
30
0
11
350.2592592592593
21
242.44444444444446
31
0
0
LINE
8
ELEC-SWITCH
10
350.85185185185185
20
244.22222222222223
30
0
11
351.44444444444446
21
246.00000000000003
31
0
0
LINE
8
ELEC-SWITCH
10
352.03703703703707
20
247.7777777777778
30
0
11
352.6296296296296
21
249.55555555555557
31
0
0
LINE
8
ELEC-SWITCH
10
353.22222222222223
20
251.33333333333334
30
0
11
353.81481481481484
21
253.11111111111114
31
0
0
LINE
8
ELEC-SWITCH
10
354.4074074074074
20
254.8888888888889
30
0
11
355.0
21
256.6666666666667
31
0
0
LINE
8
ELEC-SWITCH
10
389.6666666666667
20
240.66666666666669
30
0
11
391.3703703703704
21
241.70370370370372
31
0
0
LINE
8
ELEC-SWITCH
10
393.0740740740741
20
242.74074074074076
30
0
11
394.77777777777777
21
243.7777777777778
31
0
0
LINE
8
ELEC-SWITCH
10
396.48148148148147
20
244.81481481481484
30
0
11
398.1851851851852
21
245.85185185185185
31
0
0
LINE
8
ELEC-SWITCH
10
399.8888888888889
20
246.88888888888889
30
0
11
401.5925925925926
21
247.92592592592592
31
0
0
LINE
8
ELEC-SWITCH
10
403.2962962962963
20
248.96296296296296
30
0
11
405.0
21
250.0
31
0
0
LINE
8
ELEC-SWITCH
10
136.33333333333331
20
240.66666666666669
30
0
11
138.037037037037
21
241.70370370370372
31
0
0
LINE
8
ELEC-SWITCH
10
139.74074074074073
20
242.74074074074076
30
0
11
141.44444444444443
21
243.7777777777778
31
0
0
LINE
8
ELEC-SWITCH
10
143.14814814814815
20
244.81481481481484
30
0
11
144.85185185185185
21
245.85185185185185
31
0
0
LINE
8
ELEC-SWITCH
10
146.55555555555557
20
246.88888888888889
30
0
11
148.25925925925927
21
247.92592592592592
31
0
0
LINE
8
ELEC-SWITCH
10
149.962962962963
20
248.96296296296296
30
0
11
151.66666666666669
21
250.0
31
0
0
LINE
8
ELEC-SWITCH
10
96.33333333333333
20
240.66666666666669
30
0
11
98.03703703703704
21
241.70370370370372
31
0
0
LINE
8
ELEC-SWITCH
10
99.74074074074073
20
242.74074074074076
30
0
11
101.44444444444444
21
243.7777777777778
31
0
0
LINE
8
ELEC-SWITCH
10
103.14814814814815
20
244.81481481481484
30
0
11
104.85185185185185
21
245.85185185185185
31
0
0
LINE
8
ELEC-SWITCH
10
106.55555555555556
20
246.88888888888889
30
0
11
108.25925925925927
21
247.92592592592592
31
0
0
LINE
8
ELEC-SWITCH
10
109.96296296296296
20
248.96296296296296
30
0
11
111.66666666666667
21
250.0
31
0
0
LINE
8
ELEC-SWITCH
10
29.666666666666668
20
240.66666666666669
30
0
11
31.37037037037037
21
241.70370370370372
31
0
0
LINE
8
ELEC-SWITCH
10
33.074074074074076
20
242.74074074074076
30
0
11
34.77777777777778
21
243.7777777777778
31
0
0
LINE
8
ELEC-SWITCH
10
36.48148148148148
20
244.81481481481484
30
0
11
38.18518518518518
21
245.85185185185185
31
0
0
LINE
8
ELEC-SWITCH
10
39.888888888888886
20
246.88888888888889
30
0
11
41.592592592592595
21
247.92592592592592
31
0
0
LINE
8
ELEC-SWITCH
10
43.2962962962963
20
248.96296296296296
30
0
11
45.0
21
250.0
31
0
0
LINE
8
ELEC-SWITCH
10
69.66666666666667
20
240.66666666666669
30
0
11
70.53333333333333
21
242.26666666666668
31
0
0
LINE
8
ELEC-SWITCH
10
71.4
20
243.86666666666667
30
0
11
72.26666666666668
21
245.4666666666667
31
0
0
LINE
8
ELEC-SWITCH
10
73.13333333333334
20
247.0666666666667
30
0
11
74.0
21
248.66666666666669
31
0
0
LINE
8
ELEC-SWITCH
10
74.86666666666667
20
250.26666666666668
30
0
11
75.73333333333335
21
251.86666666666667
31
0
0
LINE
8
ELEC-SWITCH
10
76.60000000000001
20
253.4666666666667
30
0
11
77.46666666666667
21
255.0666666666667
31
0
0
LINE
8
ELEC-SWITCH
10
38.333333333333336
20
214.0
30
0
11
39.44444444444444
21
215.55555555555554
31
0
0
LINE
8
ELEC-SWITCH
10
40.55555555555556
20
217.11111111111111
30
0
11
41.66666666666667
21
218.66666666666669
31
0
0
LINE
8
ELEC-SWITCH
10
42.77777777777778
20
220.22222222222223
30
0
11
43.888888888888886
21
221.77777777777777
31
0
0
LINE
8
ELEC-SWITCH
10
31.666666666666668
20
204.66666666666669
30
0
11
32.27272727272727
21
202.80808080808083
31
0
0
LINE
8
ELEC-SWITCH
10
32.87878787878788
20
200.94949494949498
30
0
11
33.484848484848484
21
199.0909090909091
31
0
0
LINE
8
ELEC-SWITCH
10
34.09090909090909
20
197.23232323232324
30
0
11
34.696969696969695
21
195.37373737373738
31
0
0
LINE
8
ELEC-SWITCH
10
35.303030303030305
20
193.51515151515153
30
0
11
35.909090909090914
21
191.65656565656568
31
0
0
LINE
8
ELEC-SWITCH
10
36.515151515151516
20
189.79797979797982
30
0
11
37.121212121212125
21
187.93939393939394
31
0
0
LINE
8
ELEC-SWITCH
10
37.72727272727273
20
186.08080808080808
30
0
11
38.333333333333336
21
184.22222222222223
31
0
0
LINE
8
ELEC-SWITCH
10
38.939393939393945
20
182.36363636363637
30
0
11
39.54545454545455
21
180.50505050505052
31
0
0
LINE
8
ELEC-SWITCH
10
40.151515151515156
20
178.64646464646466
30
0
11
40.757575757575765
21
176.78787878787878
31
0
0
LINE
8
ELEC-SWITCH
10
41.36363636363637
20
174.92929292929293
30
0
11
41.96969696969697
21
173.07070707070707
31
0
0
LINE
8
ELEC-SWITCH
10
42.57575757575758
20
171.21212121212122
30
0
11
43.18181818181819
21
169.35353535353536
31
0
0
LINE
8
ELEC-SWITCH
10
43.78787878787879
20
167.49494949494948
30
0
11
44.3939393939394
21
165.63636363636363
31
0
0
LINE
8
ELEC-SWITCH
10
45.0
20
163.77777777777777
30
0
11
45.60606060606061
21
161.91919191919192
31
0
0
LINE
8
ELEC-SWITCH
10
46.21212121212122
20
160.06060606060606
30
0
11
46.81818181818183
21
158.2020202020202
31
0
0
LINE
8
ELEC-SWITCH
10
47.42424242424243
20
156.34343434343435
30
0
11
48.03030303030303
21
154.4848484848485
31
0
0
LINE
8
ELEC-SWITCH
10
48.63636363636364
20
152.6262626262626
30
0
11
49.24242424242425
21
150.76767676767673
31
0
0
LINE
8
ELEC-SWITCH
10
49.84848484848486
20
148.90909090909088
30
0
11
50.45454545454546
21
147.05050505050502
31
0
0
LINE
8
ELEC-SWITCH
10
51.06060606060606
20
145.19191919191917
30
0
11
51.66666666666667
21
143.33333333333331
31
0
0
LINE
8
ELEC-SWITCH
10
378.33333333333337
20
204.66666666666669
30
0
11
378.939393939394
21
202.80808080808083
31
0
0
LINE
8
ELEC-SWITCH
10
379.54545454545456
20
200.94949494949498
30
0
11
380.1515151515152
21
199.0909090909091
31
0
0
LINE
8
ELEC-SWITCH
10
380.7575757575758
20
197.23232323232324
30
0
11
381.3636363636364
21
195.37373737373738
31
0
0
LINE
8
ELEC-SWITCH
10
381.969696969697
20
193.51515151515153
30
0
11
382.5757575757576
21
191.65656565656568
31
0
0
LINE
8
ELEC-SWITCH
10
383.18181818181824
20
189.79797979797982
30
0
11
383.7878787878788
21
187.93939393939394
31
0
0
LINE
8
ELEC-SWITCH
10
384.39393939393943
20
186.08080808080808
30
0
11
385.00000000000006
21
184.22222222222223
31
0
0
LINE
8
ELEC-SWITCH
10
385.6060606060606
20
182.36363636363637
30
0
11
386.21212121212125
21
180.50505050505052
31
0
0
LINE
8
ELEC-SWITCH
10
386.81818181818187
20
178.64646464646466
30
0
11
387.42424242424244
21
176.78787878787878
31
0
0
LINE
8
ELEC-SWITCH
10
388.03030303030306
20
174.92929292929293
30
0
11
388.6363636363637
21
173.07070707070707
31
0
0
LINE
8
ELEC-SWITCH
10
389.2424242424243
20
171.21212121212122
30
0
11
389.8484848484849
21
169.35353535353536
31
0
0
LINE
8
ELEC-SWITCH
10
390.4545454545455
20
167.49494949494948
30
0
11
391.0606060606061
21
165.63636363636363
31
0
0
LINE
8
ELEC-SWITCH
10
391.6666666666667
20
163.77777777777777
30
0
11
392.2727272727273
21
161.91919191919192
31
0
0
LINE
8
ELEC-SWITCH
10
392.87878787878793
20
160.06060606060606
30
0
11
393.4848484848485
21
158.2020202020202
31
0
0
LINE
8
ELEC-SWITCH
10
394.0909090909091
20
156.34343434343435
30
0
11
394.69696969696975
21
154.4848484848485
31
0
0
LINE
8
ELEC-SWITCH
10
395.30303030303037
20
152.6262626262626
30
0
11
395.90909090909093
21
150.76767676767673
31
0
0
LINE
8
ELEC-SWITCH
10
396.51515151515156
20
148.90909090909088
30
0
11
397.1212121212122
21
147.05050505050502
31
0
0
LINE
8
ELEC-SWITCH
10
397.72727272727275
20
145.19191919191917
30
0
11
398.33333333333337
21
143.33333333333331
31
0
0
TEXT
8
ELEC-TEXT
10
457
20
255
30
0
40
3.1
1
LIGHTING CIRCUITS
7
STANDARD
41
0.85
0
TEXT
8
ELEC-TEXT
10
457
20
245
30
0
40
2.7
1
FF-L01  546 W
7
STANDARD
41
0.85
0
TEXT
8
ELEC-TEXT
10
457
20
239
30
0
40
2.25
1
Open office west
7
STANDARD
41
0.85
0
TEXT
8
ELEC-TEXT
10
457
20
231
30
0
40
2.7
1
FF-L02  654 W
7
STANDARD
41
0.85
0
TEXT
8
ELEC-TEXT
10
457
20
225
30
0
40
2.25
1
Open office east
7
STANDARD
41
0.85
0
TEXT
8
ELEC-TEXT
10
457
20
217
30
0
40
2.7
1
FF-L03  543 W
7
STANDARD
41
0.85
0
TEXT
8
ELEC-TEXT
10
457
20
211
30
0
40
2.25
1
Conference / meeting
7
STANDARD
41
0.85
0
TEXT
8
ELEC-TEXT
10
457
20
203
30
0
40
2.7
1
FF-L04  288 W
7
STANDARD
41
0.85
0
TEXT
8
ELEC-TEXT
10
457
20
197
30
0
40
2.25
1
Manager offices
7
STANDARD
41
0.85
0
TEXT
8
ELEC-TEXT
10
457
20
189
30
0
40
2.7
1
FF-L05  252 W
7
STANDARD
41
0.85
0
TEXT
8
ELEC-TEXT
10
457
20
183
30
0
40
2.25
1
Kitchen / toilets
7
STANDARD
41
0.85
0
TEXT
8
ELEC-TEXT
10
457
20
175
30
0
40
2.7
1
FF-L06  156 W
7
STANDARD
41
0.85
0
TEXT
8
ELEC-TEXT
10
457
20
169
30
0
40
2.25
1
Service rooms
7
STANDARD
41
0.85
0
TEXT
8
ELEC-TEXT
10
457
20
161
30
0
40
2.7
1
FF-L07  264 W
7
STANDARD
41
0.85
0
TEXT
8
ELEC-TEXT
10
457
20
155
30
0
40
2.25
1
Corridor
7
STANDARD
41
0.85
0
TEXT
8
ELEC-TEXT
10
457
20
147
30
0
40
2.7
1
FF-L08  162 W
7
STANDARD
41
0.85
0
TEXT
8
ELEC-TEXT
10
457
20
141
30
0
40
2.25
1
Both stairs
7
STANDARD
41
0.85
0
LINE
8
SHEET
10
448
20
360
30
0
11
448
21
55
31
0
0
TEXT
8
ELEC-TEXT
10
457
20
352
30
0
40
3.3
1
DRAWING NOTES
7
STANDARD
41
0.85
0
TEXT
8
ELEC-TEXT
10
457
20
342.0
30
0
40
2.6
1
LP: 36 W / 4500 lm LED panel.
7
STANDARD
41
0.85
0
TEXT
8
ELEC-TEXT
10
457
20
336.5
30
0
40
2.6
1
LB: 24 W / 2800 lm LED batten.
7
STANDARD
41
0.85
0
TEXT
8
ELEC-TEXT
10
457
20
331.0
30
0
40
2.6
1
Fixture tag Nxxx takes floor
7
STANDARD
41
0.85
0
TEXT
8
ELEC-TEXT
10
457
20
325.5
30
0
40
2.6
1
prefix FF (example FF-N001).
7
STANDARD
41
0.85
0
TEXT
8
ELEC-TEXT
10
457
20
320.0
30
0
40
2.6
1
Switch labels show circuit.
7
STANDARD
41
0.85
0
TEXT
8
ELEC-TEXT
10
457
20
314.5
30
0
40
2.6
1
See fixture register for mapping.
7
STANDARD
41
0.85
0
TEXT
8
ELEC-TEXT
10
457
20
309.0
30
0
40
2.6
1
Dashed lines: control intent.
7
STANDARD
41
0.85
0
TEXT
8
ELEC-TEXT
10
457
20
303.5
30
0
40
2.6
1
Switching never interrupts
7
STANDARD
41
0.85
0
TEXT
8
ELEC-TEXT
10
457
20
298.0
30
0
40
2.6
1
emergency charge/sense feeds.
7
STANDARD
41
0.85
0
TEXT
8
ELEC-TEXT
10
457
20
292.5
30
0
40
2.6
1
Two-way / sensor control at stairs.
7
STANDARD
41
0.85
0
TEXT
8
ELEC-TEXT
10
457
20
287.0
30
0
40
2.6
1
Emergency devices on E-301.
7
STANDARD
41
0.85
0
TEXT
8
ELEC-TEXT
10
457
20
281.5
30
0
40
2.6
1
Grid is preliminary; see lumen
7
STANDARD
41
0.85
0
TEXT
8
ELEC-TEXT
10
457
20
276.0
30
0
40
2.6
1
method in engineering report.
7
STANDARD
41
0.85
0
TEXT
8
ELEC-TEXT
10
457
20
116
30
0
40
2.6
1
All circuits: 10 A RCBO
7
STANDARD
41
0.85
0
TEXT
8
ELEC-TEXT
10
457
20
110
30
0
40
2.4
1
1.5 mm2 Cu + PE (provisional)
7
STANDARD
41
0.85
0
TEXT
8
ELEC-TEXT
10
25
20
101
30
0
40
3
1
ROOM KEY
7
STANDARD
41
0.85
0
TEXT
8
ELEC-TEXT
10
25
20
93
30
0
40
2.45
1
PRT  Print / copy
7
STANDARD
41
0.85
0
TEXT
8
ELEC-TEXT
10
164
20
93
30
0
40
2.45
1
STO  Storage
7
STANDARD
41
0.85
0
TEXT
8
ELEC-TEXT
10
303
20
93
30
0
40
2.45
1
ACC  Accessible WC
7
STANDARD
41
0.85
0
TEXT
8
ELEC-TEXT
10
25
20
87
30
0
40
2.45
1
WC  Toilets
7
STANDARD
41
0.85
0
TEXT
8
ELEC-TEXT
10
164
20
87
30
0
40
2.45
1
CONF  Conference
7
STANDARD
41
0.85
0
TEXT
8
ELEC-TEXT
10
303
20
87
30
0
40
2.45
1
MT1  Small meeting
7
STANDARD
41
0.85
0
TEXT
8
ELEC-TEXT
10
25
20
81
30
0
40
2.45
1
MGR1  Manager 1
7
STANDARD
41
0.85
0
TEXT
8
ELEC-TEXT
10
164
20
81
30
0
40
2.45
1
MGR2  Manager 2
7
STANDARD
41
0.85
0
TEXT
8
ELEC-TEXT
10
303
20
81
30
0
40
2.45
1
KIT  Kitchen / break
7
STANDARD
41
0.85
0
TEXT
8
ELEC-TEXT
10
25
20
75
30
0
40
2.45
1
ST1  Stair 1
7
STANDARD
41
0.85
0
TEXT
8
ELEC-TEXT
10
164
20
75
30
0
40
2.45
1
OPEN  Open office
7
STANDARD
41
0.85
0
TEXT
8
ELEC-TEXT
10
303
20
75
30
0
40
2.45
1
ST2  Stair 2
7
STANDARD
41
0.85
0
LINE
8
SHEET
10
10
20
410
30
0
11
584
21
410
31
0
0
LINE
8
SHEET
10
584
20
410
30
0
11
584
21
10
31
0
0
LINE
8
SHEET
10
584
20
10
30
0
11
10
21
10
31
0
0
LINE
8
SHEET
10
10
20
10
30
0
11
10
21
410
31
0
0
LINE
8
SHEET
10
10
20
372
30
0
11
584
21
372
31
0
0
TEXT
8
ELEC-TEXT
10
20
20
394
30
0
40
6
1
NORTHBANK OFFICE
7
STANDARD
41
0.85
0
TEXT
8
ELEC-TEXT
10
20
20
381
30
0
40
4
1
FIRST FLOOR LIGHTING
7
STANDARD
41
0.85
0
TEXT
8
ELEC-TEXT
10
456
20
395
30
0
40
3
1
ELECTRICAL PORTFOLIO
7
STANDARD
41
0.85
0
TEXT
8
ELEC-TEXT
10
456
20
386
30
0
40
2.8
1
CONCEPT DESIGN  /  REV A
7
STANDARD
41
0.85
0
TEXT
8
ELEC-TEXT
10
456
20
378
30
0
40
2.5
1
NOT FOR CONSTRUCTION
7
STANDARD
41
0.85
0
LINE
8
SHEET
10
10
20
38
30
0
11
584
21
38
31
0
0
LINE
8
SHEET
10
345
20
38
30
0
11
345
21
10
31
0
0
LINE
8
SHEET
10
480
20
38
30
0
11
480
21
10
31
0
0
TEXT
8
ELEC-TEXT
10
18
20
29
30
0
40
3.1
1
Two-Storey Commercial Office Electrical Design
7
STANDARD
41
0.85
0
TEXT
8
ELEC-TEXT
10
18
20
22
30
0
40
2.7
1
Designed by: Electrical Engineering Portfolio Project
7
STANDARD
41
0.85
0
TEXT
8
ELEC-TEXT
10
18
20
15
30
0
40
2.3
1
Educational exercise; not for construction, certification or regulatory approval.
7
STANDARD
41
0.85
0
TEXT
8
ELEC-TEXT
10
353
20
29
30
0
40
2.5
1
E-102  |  First floor lighting
7
STANDARD
41
0.85
0
TEXT
8
ELEC-TEXT
10
353
20
21
30
0
40
2.5
1
Scale: 1:75 at A2  |  Units: mm
7
STANDARD
41
0.85
0
TEXT
8
ELEC-TEXT
10
488
20
29
30
0
40
3
1
REV A
7
STANDARD
41
0.85
0
TEXT
8
ELEC-TEXT
10
488
20
21
30
0
40
2.7
1
2026-09-29
7
STANDARD
41
0.85
0
TEXT
8
ELEC-TEXT
10
488
20
14
30
0
40
2.3
1
Sheet size: 594 x 420 mm
7
STANDARD
41
0.85
0
ENDSEC
0
EOF
