0
SECTION
2
HEADER
9
$ACADVER
1
AC1009
9
$LUNITS
70
2
9
$LUPREC
70
2
9
$MEASUREMENT
70
1
9
$EXTMIN
10
0
20
0
30
0
9
$EXTMAX
10
594
20
420
30
0
0
ENDSEC
0
SECTION
2
TABLES
0
TABLE
2
LTYPE
70
1
0
LTYPE
2
CONTINUOUS
70
0
3
Continuous
72
65
73
0
40
0
0
ENDTAB
0
TABLE
2
LAYER
70
18
0
LAYER
2
0
70
0
62
7
6
CONTINUOUS
0
LAYER
2
ARCH-WALLS
70
0
62
8
6
CONTINUOUS
0
LAYER
2
ARCH-DOORS
70
0
62
8
6
CONTINUOUS
0
LAYER
2
ARCH-TEXT
70
0
62
8
6
CONTINUOUS
0
LAYER
2
ARCH-FURNITURE
70
0
62
8
6
CONTINUOUS
0
LAYER
2
ELEC-LIGHT
70
0
62
2
6
CONTINUOUS
0
LAYER
2
ELEC-EMERGENCY
70
0
62
3
6
CONTINUOUS
0
LAYER
2
ELEC-SWITCH
70
0
62
6
6
CONTINUOUS
0
LAYER
2
ELEC-POWER
70
0
62
4
6
CONTINUOUS
0
LAYER
2
ELEC-DEDICATED
70
0
62
1
6
CONTINUOUS
0
LAYER
2
ELEC-DB
70
0
62
1
6
CONTINUOUS
0
LAYER
2
ELEC-CABLE
70
0
62
5
6
CONTINUOUS
0
LAYER
2
ELEC-SLD
70
0
62
7
6
CONTINUOUS
0
LAYER
2
ELEC-SYMBOLS
70
0
62
7
6
CONTINUOUS
0
LAYER
2
ELEC-TEXT
70
0
62
7
6
CONTINUOUS
0
LAYER
2
ELEC-LIGHT-TEXT
70
0
62
2
6
CONTINUOUS
0
LAYER
2
ELEC-DIMENSIONS
70
0
62
8
6
CONTINUOUS
0
LAYER
2
SHEET
70
0
62
7
6
CONTINUOUS
0
ENDTAB
0
TABLE
2
STYLE
70
1
0
STYLE
2
STANDARD
70
0
40
0
41
1
50
0
71
0
42
2.5
3
standard
4

0
ENDTAB
0
ENDSEC
0
SECTION
2
BLOCKS
0
BLOCK
8
0
2
DB
70
0
10
0
20
0
30
0
3
DB
1

0
LINE
8
0
10
-4
20
3
30
0
11
4
21
3
31
0
0
LINE
8
0
10
4
20
3
30
0
11
4
21
-3
31
0
0
LINE
8
0
10
4
20
-3
30
0
11
-4
21
-3
31
0
0
LINE
8
0
10
-4
20
-3
30
0
11
-4
21
3
31
0
0
LINE
8
0
10
-4
20
3
30
0
11
4
21
-3
31
0
0
ENDBLK
8
0
0
BLOCK
8
0
2
MSB
70
0
10
0
20
0
30
0
3
MSB
1

0
LINE
8
0
10
-4
20
3
30
0
11
4
21
3
31
0
0
LINE
8
0
10
4
20
3
30
0
11
4
21
-3
31
0
0
LINE
8
0
10
4
20
-3
30
0
11
-4
21
-3
31
0
0
LINE
8
0
10
-4
20
-3
30
0
11
-4
21
3
31
0
0
LINE
8
0
10
-4
20
3
30
0
11
4
21
-3
31
0
0
LINE
8
0
10
-5
20
4
30
0
11
5
21
4
31
0
0
LINE
8
0
10
5
20
4
30
0
11
5
21
-4
31
0
0
LINE
8
0
10
5
20
-4
30
0
11
-5
21
-4
31
0
0
LINE
8
0
10
-5
20
-4
30
0
11
-5
21
4
31
0
0
ENDBLK
8
0
0
BLOCK
8
0
2
LP
70
0
10
0
20
0
30
0
3
LP
1

0
LINE
8
0
10
-3.5
20
1.5
30
0
11
3.5
21
1.5
31
0
0
LINE
8
0
10
3.5
20
1.5
30
0
11
3.5
21
-1.5
31
0
0
LINE
8
0
10
3.5
20
-1.5
30
0
11
-3.5
21
-1.5
31
0
0
LINE
8
0
10
-3.5
20
-1.5
30
0
11
-3.5
21
1.5
31
0
0
LINE
8
0
10
-3.5
20
1.5
30
0
11
3.5
21
-1.5
31
0
0
ENDBLK
8
0
0
BLOCK
8
0
2
LB
70
0
10
0
20
0
30
0
3
LB
1

0
LINE
8
0
10
-4.0
20
0.8000000000000114
30
0
11
4.0
21
0.8000000000000114
31
0
0
LINE
8
0
10
4.0
20
0.8000000000000114
30
0
11
4.0
21
-0.8000000000000114
31
0
0
LINE
8
0
10
4.0
20
-0.8000000000000114
30
0
11
-4.0
21
-0.8000000000000114
31
0
0
LINE
8
0
10
-4.0
20
-0.8000000000000114
30
0
11
-4.0
21
0.8000000000000114
31
0
0
LINE
8
0
10
-4.0
20
0.8000000000000114
30
0
11
4.0
21
-0.8000000000000114
31
0
0
ENDBLK
8
0
0
BLOCK
8
0
2
SW2
70
0
10
0
20
0
30
0
3
SW2
1

0
CIRCLE
8
0
10
0
20
0
30
0
40
1.3
0
LINE
8
0
10
0
20
1.3000000000000114
30
0
11
2.5
21
3.5
31
0
0
LINE
8
0
10
1
20
0.8000000000000114
30
0
11
3.5
21
3
31
0
0
ENDBLK
8
0
0
BLOCK
8
0
2
SW1
70
0
10
0
20
0
30
0
3
SW1
1

0
CIRCLE
8
0
10
0
20
0
30
0
40
1.3
0
LINE
8
0
10
0
20
1.3000000000000114
30
0
11
2.5
21
3.5
31
0
0
ENDBLK
8
0
0
ENDSEC
0
SECTION
2
ENTITIES
0
LINE
8
ARCH-WALLS
10
25.0
20
130.0
30
0
11
25.0
21
316.6666666666667
31
0
0
LINE
8
ARCH-WALLS
10
425.0
20
130.0
30
0
11
425.0
21
316.6666666666667
31
0
0
LINE
8
ARCH-WALLS
10
25.0
20
316.6666666666667
30
0
11
425.0
21
316.6666666666667
31
0
0
LINE
8
ARCH-WALLS
10
25.0
20
130.0
30
0
11
45.0
21
130.0
31
0
0
LINE
8
ARCH-DOORS
10
45.0
20
130.0
30
0
11
45.0
21
116.66666666666669
31
0
0
LINE
8
ARCH-DOORS
10
58.333333333333336
20
130.0
30
0
11
58.169177874601836
21
127.91420713279695
31
0
0
LINE
8
ARCH-DOORS
10
58.169177874601836
20
127.91420713279695
30
0
11
57.68075355060205
21
125.87977340833402
31
0
0
LINE
8
ARCH-DOORS
10
57.68075355060205
20
125.87977340833402
30
0
11
56.88008698917824
21
123.94679333680602
31
0
0
LINE
8
ARCH-DOORS
10
56.88008698917824
20
123.94679333680602
30
0
11
55.78689325833263
21
122.16286330276705
31
0
0
LINE
8
ARCH-DOORS
10
55.78689325833263
20
122.16286330276705
30
0
11
54.428090415820634
21
120.57190958417937
31
0
0
LINE
8
ARCH-DOORS
10
54.428090415820634
20
120.57190958417937
30
0
11
52.83713669723298
21
119.21310674166739
31
0
0
LINE
8
ARCH-DOORS
10
52.83713669723298
20
119.21310674166739
30
0
11
51.05320666319396
21
118.11991301082173
31
0
0
LINE
8
ARCH-DOORS
10
51.05320666319396
20
118.11991301082173
30
0
11
49.12022659166597
21
117.31924644939795
31
0
0
LINE
8
ARCH-DOORS
10
49.12022659166597
20
117.31924644939795
30
0
11
47.08579286720308
21
116.83082212539819
31
0
0
LINE
8
ARCH-DOORS
10
47.08579286720308
20
116.83082212539819
30
0
11
45.0
21
116.66666666666669
31
0
0
LINE
8
ARCH-WALLS
10
58.333333333333336
20
130.0
30
0
11
110.33333333333334
21
130.0
31
0
0
LINE
8
ARCH-DOORS
10
110.33333333333334
20
130.0
30
0
11
110.33333333333334
21
114.0
31
0
0
LINE
8
ARCH-DOORS
10
126.33333333333333
20
130.0
30
0
11
126.13634678285554
21
127.4970485593563
31
0
0
LINE
8
ARCH-DOORS
10
126.13634678285554
20
127.4970485593563
30
0
11
125.55023759405579
21
125.05572809000085
31
0
0
LINE
8
ARCH-DOORS
10
125.55023759405579
20
125.05572809000085
30
0
11
124.58943772034722
21
122.73615200416725
31
0
0
LINE
8
ARCH-DOORS
10
124.58943772034722
20
122.73615200416725
30
0
11
123.27760524333249
21
120.59543596332043
31
0
0
LINE
8
ARCH-DOORS
10
123.27760524333249
20
120.59543596332043
30
0
11
121.6470418323181
21
118.68629150101526
31
0
0
LINE
8
ARCH-DOORS
10
121.6470418323181
20
118.68629150101526
30
0
11
119.7378973700129
21
117.05572809000085
31
0
0
LINE
8
ARCH-DOORS
10
119.7378973700129
20
117.05572809000085
30
0
11
117.59718132916609
21
115.74389561298614
31
0
0
LINE
8
ARCH-DOORS
10
117.59718132916609
20
115.74389561298614
30
0
11
115.2776052433325
21
114.78309573927754
31
0
0
LINE
8
ARCH-DOORS
10
115.2776052433325
20
114.78309573927754
30
0
11
112.83628477397704
21
114.19698655047779
31
0
0
LINE
8
ARCH-DOORS
10
112.83628477397704
20
114.19698655047779
30
0
11
110.33333333333334
21
114.0
31
0
0
LINE
8
ARCH-WALLS
10
126.33333333333333
20
130.0
30
0
11
391.6666666666667
21
130.0
31
0
0
LINE
8
ARCH-DOORS
10
391.6666666666667
20
130.0
30
0
11
391.6666666666667
21
116.66666666666669
31
0
0
LINE
8
ARCH-DOORS
10
405.0
20
130.0
30
0
11
404.8358445412685
21
127.91420713279695
31
0
0
LINE
8
ARCH-DOORS
10
404.8358445412685
20
127.91420713279695
30
0
11
404.34742021726873
21
125.87977340833402
31
0
0
LINE
8
ARCH-DOORS
10
404.34742021726873
20
125.87977340833402
30
0
11
403.5467536558449
21
123.94679333680602
31
0
0
LINE
8
ARCH-DOORS
10
403.5467536558449
20
123.94679333680602
30
0
11
402.4535599249993
21
122.16286330276705
31
0
0
LINE
8
ARCH-DOORS
10
402.4535599249993
20
122.16286330276705
30
0
11
401.0947570824873
21
120.57190958417937
31
0
0
LINE
8
ARCH-DOORS
10
401.0947570824873
20
120.57190958417937
30
0
11
399.50380336389964
21
119.21310674166739
31
0
0
LINE
8
ARCH-DOORS
10
399.50380336389964
20
119.21310674166739
30
0
11
397.71987332986066
21
118.11991301082173
31
0
0
LINE
8
ARCH-DOORS
10
397.71987332986066
20
118.11991301082173
30
0
11
395.7868932583326
21
117.31924644939795
31
0
0
LINE
8
ARCH-DOORS
10
395.7868932583326
20
117.31924644939795
30
0
11
393.75245953386974
21
116.83082212539819
31
0
0
LINE
8
ARCH-DOORS
10
393.75245953386974
20
116.83082212539819
30
0
11
391.6666666666667
21
116.66666666666669
31
0
0
LINE
8
ARCH-WALLS
10
405.0
20
130.0
30
0
11
425.0
21
130.0
31
0
0
LINE
8
ARCH-WALLS
10
25.0
20
236.66666666666669
30
0
11
39.0
21
236.66666666666669
31
0
0
LINE
8
ARCH-WALLS
10
51.0
20
236.66666666666669
30
0
11
65.0
21
236.66666666666669
31
0
0
LINE
8
ARCH-DOORS
10
39.0
20
236.66666666666669
30
0
11
39.0
21
248.66666666666669
31
0
0
LINE
8
ARCH-DOORS
10
51.0
20
236.66666666666669
30
0
11
50.85226008714166
21
238.54388024714945
31
0
0
LINE
8
ARCH-DOORS
10
50.85226008714166
20
238.54388024714945
30
0
11
50.412678195541844
21
240.37487059916603
31
0
0
LINE
8
ARCH-DOORS
10
50.412678195541844
20
240.37487059916603
30
0
11
49.69207829026041
21
242.11455266354122
31
0
0
LINE
8
ARCH-DOORS
10
49.69207829026041
20
242.11455266354122
30
0
11
48.70820393249937
21
243.72008969417635
31
0
0
LINE
8
ARCH-DOORS
10
48.70820393249937
20
243.72008969417635
30
0
11
47.48528137423857
21
245.15194804090527
31
0
0
LINE
8
ARCH-DOORS
10
47.48528137423857
20
245.15194804090527
30
0
11
46.05342302750968
21
246.37487059916606
31
0
0
LINE
8
ARCH-DOORS
10
46.05342302750968
20
246.37487059916606
30
0
11
44.44788599687456
21
247.35874495692707
31
0
0
LINE
8
ARCH-DOORS
10
44.44788599687456
20
247.35874495692707
30
0
11
42.70820393249937
21
248.07934486220853
31
0
0
LINE
8
ARCH-DOORS
10
42.70820393249937
20
248.07934486220853
30
0
11
40.877213580482774
21
248.51892675380833
31
0
0
LINE
8
ARCH-DOORS
10
40.877213580482774
20
248.51892675380833
30
0
11
39.0
21
248.66666666666669
31
0
0
LINE
8
ARCH-WALLS
10
65.0
20
236.66666666666669
30
0
11
79.0
21
236.66666666666669
31
0
0
LINE
8
ARCH-WALLS
10
91.0
20
236.66666666666669
30
0
11
105.0
21
236.66666666666669
31
0
0
LINE
8
ARCH-DOORS
10
79.0
20
236.66666666666669
30
0
11
79.0
21
248.66666666666669
31
0
0
LINE
8
ARCH-DOORS
10
91.0
20
236.66666666666669
30
0
11
90.85226008714164
21
238.54388024714945
31
0
0
LINE
8
ARCH-DOORS
10
90.85226008714164
20
238.54388024714945
30
0
11
90.41267819554184
21
240.37487059916603
31
0
0
LINE
8
ARCH-DOORS
10
90.41267819554184
20
240.37487059916603
30
0
11
89.69207829026041
21
242.11455266354122
31
0
0
LINE
8
ARCH-DOORS
10
89.69207829026041
20
242.11455266354122
30
0
11
88.70820393249937
21
243.72008969417635
31
0
0
LINE
8
ARCH-DOORS
10
88.70820393249937
20
243.72008969417635
30
0
11
87.48528137423857
21
245.15194804090527
31
0
0
LINE
8
ARCH-DOORS
10
87.48528137423857
20
245.15194804090527
30
0
11
86.05342302750967
21
246.37487059916606
31
0
0
LINE
8
ARCH-DOORS
10
86.05342302750967
20
246.37487059916606
30
0
11
84.44788599687456
21
247.35874495692707
31
0
0
LINE
8
ARCH-DOORS
10
84.44788599687456
20
247.35874495692707
30
0
11
82.70820393249937
21
248.07934486220853
31
0
0
LINE
8
ARCH-DOORS
10
82.70820393249937
20
248.07934486220853
30
0
11
80.87721358048277
21
248.51892675380833
31
0
0
LINE
8
ARCH-DOORS
10
80.87721358048277
20
248.51892675380833
30
0
11
79.0
21
248.66666666666669
31
0
0
LINE
8
ARCH-WALLS
10
65.0
20
236.66666666666669
30
0
11
65.0
21
316.6666666666667
31
0
0
LINE
8
ARCH-WALLS
10
105.0
20
236.66666666666669
30
0
11
112.33333333333333
21
236.66666666666669
31
0
0
LINE
8
ARCH-WALLS
10
124.33333333333334
20
236.66666666666669
30
0
11
131.66666666666669
21
236.66666666666669
31
0
0
LINE
8
ARCH-DOORS
10
112.33333333333333
20
236.66666666666669
30
0
11
112.33333333333333
21
248.66666666666669
31
0
0
LINE
8
ARCH-DOORS
10
124.33333333333334
20
236.66666666666669
30
0
11
124.18559342047499
21
238.54388024714945
31
0
0
LINE
8
ARCH-DOORS
10
124.18559342047499
20
238.54388024714945
30
0
11
123.74601152887517
21
240.37487059916603
31
0
0
LINE
8
ARCH-DOORS
10
123.74601152887517
20
240.37487059916603
30
0
11
123.02541162359374
21
242.11455266354122
31
0
0
LINE
8
ARCH-DOORS
10
123.02541162359374
20
242.11455266354122
30
0
11
122.0415372658327
21
243.72008969417635
31
0
0
LINE
8
ARCH-DOORS
10
122.0415372658327
20
243.72008969417635
30
0
11
120.8186147075719
21
245.15194804090527
31
0
0
LINE
8
ARCH-DOORS
10
120.8186147075719
20
245.15194804090527
30
0
11
119.38675636084301
21
246.37487059916606
31
0
0
LINE
8
ARCH-DOORS
10
119.38675636084301
20
246.37487059916606
30
0
11
117.7812193302079
21
247.35874495692707
31
0
0
LINE
8
ARCH-DOORS
10
117.7812193302079
20
247.35874495692707
30
0
11
116.0415372658327
21
248.07934486220853
31
0
0
LINE
8
ARCH-DOORS
10
116.0415372658327
20
248.07934486220853
30
0
11
114.21054691381612
21
248.51892675380833
31
0
0
LINE
8
ARCH-DOORS
10
114.21054691381612
20
248.51892675380833
30
0
11
112.33333333333333
21
248.66666666666669
31
0
0
LINE
8
ARCH-WALLS
10
105.0
20
236.66666666666669
30
0
11
105.0
21
316.6666666666667
31
0
0
LINE
8
ARCH-WALLS
10
131.66666666666669
20
236.66666666666669
30
0
11
139.0
21
236.66666666666669
31
0
0
LINE
8
ARCH-WALLS
10
151.0
20
236.66666666666669
30
0
11
158.33333333333334
21
236.66666666666669
31
0
0
LINE
8
ARCH-DOORS
10
139.0
20
236.66666666666669
30
0
11
139.0
21
248.66666666666669
31
0
0
LINE
8
ARCH-DOORS
10
151.0
20
236.66666666666669
30
0
11
150.85226008714164
21
238.54388024714945
31
0
0
LINE
8
ARCH-DOORS
10
150.85226008714164
20
238.54388024714945
30
0
11
150.41267819554184
21
240.37487059916603
31
0
0
LINE
8
ARCH-DOORS
10
150.41267819554184
20
240.37487059916603
30
0
11
149.69207829026044
21
242.11455266354122
31
0
0
LINE
8
ARCH-DOORS
10
149.69207829026044
20
242.11455266354122
30
0
11
148.70820393249937
21
243.72008969417635
31
0
0
LINE
8
ARCH-DOORS
10
148.70820393249937
20
243.72008969417635
30
0
11
147.48528137423858
21
245.15194804090527
31
0
0
LINE
8
ARCH-DOORS
10
147.48528137423858
20
245.15194804090527
30
0
11
146.0534230275097
21
246.37487059916606
31
0
0
LINE
8
ARCH-DOORS
10
146.0534230275097
20
246.37487059916606
30
0
11
144.44788599687456
21
247.35874495692707
31
0
0
LINE
8
ARCH-DOORS
10
144.44788599687456
20
247.35874495692707
30
0
11
142.70820393249937
21
248.07934486220853
31
0
0
LINE
8
ARCH-DOORS
10
142.70820393249937
20
248.07934486220853
30
0
11
140.87721358048276
21
248.51892675380833
31
0
0
LINE
8
ARCH-DOORS
10
140.87721358048276
20
248.51892675380833
30
0
11
139.0
21
248.66666666666669
31
0
0
LINE
8
ARCH-WALLS
10
131.66666666666669
20
236.66666666666669
30
0
11
131.66666666666669
21
316.6666666666667
31
0
0
LINE
8
ARCH-WALLS
10
158.33333333333334
20
236.66666666666669
30
0
11
179.00000000000003
21
236.66666666666669
31
0
0
LINE
8
ARCH-WALLS
10
191.00000000000003
20
236.66666666666669
30
0
11
211.66666666666669
21
236.66666666666669
31
0
0
LINE
8
ARCH-DOORS
10
179.00000000000003
20
236.66666666666669
30
0
11
179.00000000000003
21
248.66666666666669
31
0
0
LINE
8
ARCH-DOORS
10
191.00000000000003
20
236.66666666666669
30
0
11
190.85226008714167
21
238.54388024714945
31
0
0
LINE
8
ARCH-DOORS
10
190.85226008714167
20
238.54388024714945
30
0
11
190.41267819554187
21
240.37487059916603
31
0
0
LINE
8
ARCH-DOORS
10
190.41267819554187
20
240.37487059916603
30
0
11
189.69207829026044
21
242.11455266354122
31
0
0
LINE
8
ARCH-DOORS
10
189.69207829026044
20
242.11455266354122
30
0
11
188.7082039324994
21
243.72008969417635
31
0
0
LINE
8
ARCH-DOORS
10
188.7082039324994
20
243.72008969417635
30
0
11
187.48528137423858
21
245.15194804090527
31
0
0
LINE
8
ARCH-DOORS
10
187.48528137423858
20
245.15194804090527
30
0
11
186.0534230275097
21
246.37487059916606
31
0
0
LINE
8
ARCH-DOORS
10
186.0534230275097
20
246.37487059916606
30
0
11
184.44788599687456
21
247.35874495692707
31
0
0
LINE
8
ARCH-DOORS
10
184.44788599687456
20
247.35874495692707
30
0
11
182.70820393249937
21
248.07934486220853
31
0
0
LINE
8
ARCH-DOORS
10
182.70820393249937
20
248.07934486220853
30
0
11
180.8772135804828
21
248.51892675380833
31
0
0
LINE
8
ARCH-DOORS
10
180.8772135804828
20
248.51892675380833
30
0
11
179.00000000000003
21
248.66666666666669
31
0
0
LINE
8
ARCH-WALLS
10
158.33333333333334
20
236.66666666666669
30
0
11
158.33333333333334
21
316.6666666666667
31
0
0
LINE
8
ARCH-WALLS
10
211.66666666666669
20
236.66666666666669
30
0
11
232.33333333333334
21
236.66666666666669
31
0
0
LINE
8
ARCH-WALLS
10
244.33333333333334
20
236.66666666666669
30
0
11
265.0
21
236.66666666666669
31
0
0
LINE
8
ARCH-DOORS
10
232.33333333333334
20
236.66666666666669
30
0
11
232.33333333333334
21
248.66666666666669
31
0
0
LINE
8
ARCH-DOORS
10
244.33333333333334
20
236.66666666666669
30
0
11
244.18559342047502
21
238.54388024714945
31
0
0
LINE
8
ARCH-DOORS
10
244.18559342047502
20
238.54388024714945
30
0
11
243.7460115288752
21
240.37487059916603
31
0
0
LINE
8
ARCH-DOORS
10
243.7460115288752
20
240.37487059916603
30
0
11
243.02541162359375
21
242.11455266354122
31
0
0
LINE
8
ARCH-DOORS
10
243.02541162359375
20
242.11455266354122
30
0
11
242.04153726583272
21
243.72008969417635
31
0
0
LINE
8
ARCH-DOORS
10
242.04153726583272
20
243.72008969417635
30
0
11
240.8186147075719
21
245.15194804090527
31
0
0
LINE
8
ARCH-DOORS
10
240.8186147075719
20
245.15194804090527
30
0
11
239.38675636084304
21
246.37487059916606
31
0
0
LINE
8
ARCH-DOORS
10
239.38675636084304
20
246.37487059916606
30
0
11
237.7812193302079
21
247.35874495692707
31
0
0
LINE
8
ARCH-DOORS
10
237.7812193302079
20
247.35874495692707
30
0
11
236.04153726583272
21
248.07934486220853
31
0
0
LINE
8
ARCH-DOORS
10
236.04153726583272
20
248.07934486220853
30
0
11
234.2105469138161
21
248.51892675380833
31
0
0
LINE
8
ARCH-DOORS
10
234.2105469138161
20
248.51892675380833
30
0
11
232.33333333333334
21
248.66666666666669
31
0
0
LINE
8
ARCH-WALLS
10
211.66666666666669
20
236.66666666666669
30
0
11
211.66666666666669
21
316.6666666666667
31
0
0
LINE
8
ARCH-WALLS
10
265.0
20
236.66666666666669
30
0
11
299.0
21
236.66666666666669
31
0
0
LINE
8
ARCH-WALLS
10
311.0
20
236.66666666666669
30
0
11
345.0
21
236.66666666666669
31
0
0
LINE
8
ARCH-DOORS
10
299.0
20
236.66666666666669
30
0
11
299.0
21
248.66666666666669
31
0
0
LINE
8
ARCH-DOORS
10
311.0
20
236.66666666666669
30
0
11
310.8522600871417
21
238.54388024714945
31
0
0
LINE
8
ARCH-DOORS
10
310.8522600871417
20
238.54388024714945
30
0
11
310.41267819554184
21
240.37487059916603
31
0
0
LINE
8
ARCH-DOORS
10
310.41267819554184
20
240.37487059916603
30
0
11
309.69207829026044
21
242.11455266354122
31
0
0
LINE
8
ARCH-DOORS
10
309.69207829026044
20
242.11455266354122
30
0
11
308.7082039324994
21
243.72008969417635
31
0
0
LINE
8
ARCH-DOORS
10
308.7082039324994
20
243.72008969417635
30
0
11
307.4852813742386
21
245.15194804090527
31
0
0
LINE
8
ARCH-DOORS
10
307.4852813742386
20
245.15194804090527
30
0
11
306.0534230275097
21
246.37487059916606
31
0
0
LINE
8
ARCH-DOORS
10
306.0534230275097
20
246.37487059916606
30
0
11
304.44788599687456
21
247.35874495692707
31
0
0
LINE
8
ARCH-DOORS
10
304.44788599687456
20
247.35874495692707
30
0
11
302.70820393249943
21
248.07934486220853
31
0
0
LINE
8
ARCH-DOORS
10
302.70820393249943
20
248.07934486220853
30
0
11
300.8772135804828
21
248.51892675380833
31
0
0
LINE
8
ARCH-DOORS
10
300.8772135804828
20
248.51892675380833
30
0
11
299.0
21
248.66666666666669
31
0
0
LINE
8
ARCH-WALLS
10
265.0
20
236.66666666666669
30
0
11
265.0
21
316.6666666666667
31
0
0
LINE
8
ARCH-WALLS
10
345.0
20
236.66666666666669
30
0
11
359.0
21
236.66666666666669
31
0
0
LINE
8
ARCH-WALLS
10
371.0
20
236.66666666666669
30
0
11
385.0
21
236.66666666666669
31
0
0
LINE
8
ARCH-DOORS
10
359.0
20
236.66666666666669
30
0
11
359.0
21
248.66666666666669
31
0
0
LINE
8
ARCH-DOORS
10
371.0
20
236.66666666666669
30
0
11
370.8522600871417
21
238.54388024714945
31
0
0
LINE
8
ARCH-DOORS
10
370.8522600871417
20
238.54388024714945
30
0
11
370.41267819554184
21
240.37487059916603
31
0
0
LINE
8
ARCH-DOORS
10
370.41267819554184
20
240.37487059916603
30
0
11
369.69207829026044
21
242.11455266354122
31
0
0
LINE
8
ARCH-DOORS
10
369.69207829026044
20
242.11455266354122
30
0
11
368.7082039324994
21
243.72008969417635
31
0
0
LINE
8
ARCH-DOORS
10
368.7082039324994
20
243.72008969417635
30
0
11
367.4852813742386
21
245.15194804090527
31
0
0
LINE
8
ARCH-DOORS
10
367.4852813742386
20
245.15194804090527
30
0
11
366.0534230275097
21
246.37487059916606
31
0
0
LINE
8
ARCH-DOORS
10
366.0534230275097
20
246.37487059916606
30
0
11
364.44788599687456
21
247.35874495692707
31
0
0
LINE
8
ARCH-DOORS
10
364.44788599687456
20
247.35874495692707
30
0
11
362.70820393249943
21
248.07934486220853
31
0
0
LINE
8
ARCH-DOORS
10
362.70820393249943
20
248.07934486220853
30
0
11
360.8772135804828
21
248.51892675380833
31
0
0
LINE
8
ARCH-DOORS
10
360.8772135804828
20
248.51892675380833
30
0
11
359.0
21
248.66666666666669
31
0
0
LINE
8
ARCH-WALLS
10
345.0
20
236.66666666666669
30
0
11
345.0
21
316.6666666666667
31
0
0
LINE
8
ARCH-WALLS
10
385.0
20
236.66666666666669
30
0
11
399.0
21
236.66666666666669
31
0
0
LINE
8
ARCH-WALLS
10
411.0
20
236.66666666666669
30
0
11
425.0
21
236.66666666666669
31
0
0
LINE
8
ARCH-DOORS
10
399.0
20
236.66666666666669
30
0
11
399.0
21
248.66666666666669
31
0
0
LINE
8
ARCH-DOORS
10
411.0
20
236.66666666666669
30
0
11
410.8522600871417
21
238.54388024714945
31
0
0
LINE
8
ARCH-DOORS
10
410.8522600871417
20
238.54388024714945
30
0
11
410.41267819554184
21
240.37487059916603
31
0
0
LINE
8
ARCH-DOORS
10
410.41267819554184
20
240.37487059916603
30
0
11
409.69207829026044
21
242.11455266354122
31
0
0
LINE
8
ARCH-DOORS
10
409.69207829026044
20
242.11455266354122
30
0
11
408.7082039324994
21
243.72008969417635
31
0
0
LINE
8
ARCH-DOORS
10
408.7082039324994
20
243.72008969417635
30
0
11
407.4852813742386
21
245.15194804090527
31
0
0
LINE
8
ARCH-DOORS
10
407.4852813742386
20
245.15194804090527
30
0
11
406.0534230275097
21
246.37487059916606
31
0
0
LINE
8
ARCH-DOORS
10
406.0534230275097
20
246.37487059916606
30
0
11
404.44788599687456
21
247.35874495692707
31
0
0
LINE
8
ARCH-DOORS
10
404.44788599687456
20
247.35874495692707
30
0
11
402.70820393249943
21
248.07934486220853
31
0
0
LINE
8
ARCH-DOORS
10
402.70820393249943
20
248.07934486220853
30
0
11
400.8772135804828
21
248.51892675380833
31
0
0
LINE
8
ARCH-DOORS
10
400.8772135804828
20
248.51892675380833
30
0
11
399.0
21
248.66666666666669
31
0
0
LINE
8
ARCH-WALLS
10
385.0
20
236.66666666666669
30
0
11
385.0
21
316.6666666666667
31
0
0
LINE
8
ARCH-WALLS
10
25.0
20
210.0
30
0
11
45.66666666666667
21
210.0
31
0
0
LINE
8
ARCH-DOORS
10
45.66666666666667
20
210.0
30
0
11
45.66666666666667
21
198.0
31
0
0
LINE
8
ARCH-DOORS
10
57.66666666666667
20
210.0
30
0
11
57.51892675380833
21
208.12278641951724
31
0
0
LINE
8
ARCH-DOORS
10
57.51892675380833
20
208.12278641951724
30
0
11
57.079344862208515
21
206.29179606750063
31
0
0
LINE
8
ARCH-DOORS
10
57.079344862208515
20
206.29179606750063
30
0
11
56.35874495692708
21
204.55211400312544
31
0
0
LINE
8
ARCH-DOORS
10
56.35874495692708
20
204.55211400312544
30
0
11
55.37487059916604
21
202.94657697249033
31
0
0
LINE
8
ARCH-DOORS
10
55.37487059916604
20
202.94657697249033
30
0
11
54.15194804090524
21
201.51471862576142
31
0
0
LINE
8
ARCH-DOORS
10
54.15194804090524
20
201.51471862576142
30
0
11
52.72008969417635
21
200.29179606750063
31
0
0
LINE
8
ARCH-DOORS
10
52.72008969417635
20
200.29179606750063
30
0
11
51.11455266354123
21
199.3079217097396
31
0
0
LINE
8
ARCH-DOORS
10
51.11455266354123
20
199.3079217097396
30
0
11
49.37487059916604
21
198.58732180445816
31
0
0
LINE
8
ARCH-DOORS
10
49.37487059916604
20
198.58732180445816
30
0
11
47.54388024714944
21
198.14773991285836
31
0
0
LINE
8
ARCH-DOORS
10
47.54388024714944
20
198.14773991285836
30
0
11
45.66666666666667
21
198.0
31
0
0
LINE
8
ARCH-WALLS
10
57.66666666666667
20
210.0
30
0
11
112.33333333333333
21
210.0
31
0
0
LINE
8
ARCH-DOORS
10
112.33333333333333
20
210.0
30
0
11
112.33333333333333
21
198.0
31
0
0
LINE
8
ARCH-DOORS
10
124.33333333333334
20
210.0
30
0
11
124.185593420475
21
208.12278641951724
31
0
0
LINE
8
ARCH-DOORS
10
124.185593420475
20
208.12278641951724
30
0
11
123.74601152887519
21
206.29179606750063
31
0
0
LINE
8
ARCH-DOORS
10
123.74601152887519
20
206.29179606750063
30
0
11
123.02541162359375
21
204.55211400312544
31
0
0
LINE
8
ARCH-DOORS
10
123.02541162359375
20
204.55211400312544
30
0
11
122.0415372658327
21
202.94657697249033
31
0
0
LINE
8
ARCH-DOORS
10
122.0415372658327
20
202.94657697249033
30
0
11
120.81861470757191
21
201.51471862576142
31
0
0
LINE
8
ARCH-DOORS
10
120.81861470757191
20
201.51471862576142
30
0
11
119.38675636084302
21
200.29179606750063
31
0
0
LINE
8
ARCH-DOORS
10
119.38675636084302
20
200.29179606750063
30
0
11
117.7812193302079
21
199.3079217097396
31
0
0
LINE
8
ARCH-DOORS
10
117.7812193302079
20
199.3079217097396
30
0
11
116.0415372658327
21
198.58732180445816
31
0
0
LINE
8
ARCH-DOORS
10
116.0415372658327
20
198.58732180445816
30
0
11
114.21054691381612
21
198.14773991285836
31
0
0
LINE
8
ARCH-DOORS
10
114.21054691381612
20
198.14773991285836
30
0
11
112.33333333333333
21
198.0
31
0
0
LINE
8
ARCH-WALLS
10
124.33333333333334
20
210.0
30
0
11
173.0
21
210.0
31
0
0
LINE
8
ARCH-DOORS
10
173.0
20
210.0
30
0
11
173.0
21
186.0
31
0
0
LINE
8
ARCH-DOORS
10
197.0
20
210.0
30
0
11
196.70452017428332
21
206.24557283903448
31
0
0
LINE
8
ARCH-DOORS
10
196.70452017428332
20
206.24557283903448
30
0
11
195.8253563910837
21
202.58359213500125
31
0
0
LINE
8
ARCH-DOORS
10
195.8253563910837
20
202.58359213500125
30
0
11
194.38415658052085
21
199.10422800625088
31
0
0
LINE
8
ARCH-DOORS
10
194.38415658052085
20
199.10422800625088
30
0
11
192.41640786499875
21
195.89315394498064
31
0
0
LINE
8
ARCH-DOORS
10
192.41640786499875
20
195.89315394498064
30
0
11
189.97056274847716
21
193.02943725152284
31
0
0
LINE
8
ARCH-DOORS
10
189.97056274847716
20
193.02943725152284
30
0
11
187.10684605501936
21
190.58359213500125
31
0
0
LINE
8
ARCH-DOORS
10
187.10684605501936
20
190.58359213500125
30
0
11
183.89577199374912
21
188.61584341947918
31
0
0
LINE
8
ARCH-DOORS
10
183.89577199374912
20
188.61584341947918
30
0
11
180.41640786499875
21
187.1746436089163
31
0
0
LINE
8
ARCH-DOORS
10
180.41640786499875
20
187.1746436089163
30
0
11
176.75442716096555
21
186.29547982571668
31
0
0
LINE
8
ARCH-DOORS
10
176.75442716096555
20
186.29547982571668
30
0
11
173.0
21
186.0
31
0
0
LINE
8
ARCH-WALLS
10
197.0
20
210.0
30
0
11
392.33333333333337
21
210.0
31
0
0
LINE
8
ARCH-DOORS
10
392.33333333333337
20
210.0
30
0
11
392.33333333333337
21
198.00000000000003
31
0
0
LINE
8
ARCH-DOORS
10
404.3333333333333
20
210.0
30
0
11
404.18559342047496
21
208.12278641951724
31
0
0
LINE
8
ARCH-DOORS
10
404.18559342047496
20
208.12278641951724
30
0
11
403.74601152887516
21
206.29179606750063
31
0
0
LINE
8
ARCH-DOORS
10
403.74601152887516
20
206.29179606750063
30
0
11
403.02541162359375
21
204.55211400312544
31
0
0
LINE
8
ARCH-DOORS
10
403.02541162359375
20
204.55211400312544
30
0
11
402.04153726583274
21
202.94657697249033
31
0
0
LINE
8
ARCH-DOORS
10
402.04153726583274
20
202.94657697249033
30
0
11
400.8186147075719
21
201.51471862576145
31
0
0
LINE
8
ARCH-DOORS
10
400.8186147075719
20
201.51471862576145
30
0
11
399.38675636084304
21
200.29179606750066
31
0
0
LINE
8
ARCH-DOORS
10
399.38675636084304
20
200.29179606750066
30
0
11
397.78121933020793
21
199.30792170973962
31
0
0
LINE
8
ARCH-DOORS
10
397.78121933020793
20
199.30792170973962
30
0
11
396.04153726583274
21
198.58732180445818
31
0
0
LINE
8
ARCH-DOORS
10
396.04153726583274
20
198.58732180445818
30
0
11
394.21054691381613
21
198.14773991285836
31
0
0
LINE
8
ARCH-DOORS
10
394.21054691381613
20
198.14773991285836
30
0
11
392.33333333333337
21
198.00000000000003
31
0
0
LINE
8
ARCH-WALLS
10
404.3333333333333
20
210.0
30
0
11
425.0
21
210.0
31
0
0
LINE
8
ARCH-WALLS
10
78.33333333333334
20
130.0
30
0
11
78.33333333333334
21
210.0
31
0
0
LINE
8
ARCH-WALLS
10
371.6666666666667
20
130.0
30
0
11
371.6666666666667
21
210.0
31
0
0
LINE
8
ARCH-WALLS
10
158.33333333333334
20
130.0
30
0
11
158.33333333333334
21
210.0
31
0
0
LINE
8
ARCH-FURNITURE
10
31.666666666666668
20
143.33333333333331
30
0
11
71.66666666666667
21
143.33333333333331
31
0
0
LINE
8
ARCH-FURNITURE
10
31.666666666666668
20
147.60000000000002
30
0
11
71.66666666666667
21
147.60000000000002
31
0
0
LINE
8
ARCH-FURNITURE
10
31.666666666666668
20
151.86666666666667
30
0
11
71.66666666666667
21
151.86666666666667
31
0
0
LINE
8
ARCH-FURNITURE
10
31.666666666666668
20
156.13333333333333
30
0
11
71.66666666666667
21
156.13333333333333
31
0
0
LINE
8
ARCH-FURNITURE
10
31.666666666666668
20
160.39999999999998
30
0
11
71.66666666666667
21
160.39999999999998
31
0
0
LINE
8
ARCH-FURNITURE
10
31.666666666666668
20
164.66666666666669
30
0
11
71.66666666666667
21
164.66666666666669
31
0
0
LINE
8
ARCH-FURNITURE
10
31.666666666666668
20
168.93333333333334
30
0
11
71.66666666666667
21
168.93333333333334
31
0
0
LINE
8
ARCH-FURNITURE
10
31.666666666666668
20
173.2
30
0
11
71.66666666666667
21
173.2
31
0
0
LINE
8
ARCH-FURNITURE
10
31.666666666666668
20
177.46666666666667
30
0
11
71.66666666666667
21
177.46666666666667
31
0
0
LINE
8
ARCH-FURNITURE
10
31.666666666666668
20
181.73333333333335
30
0
11
71.66666666666667
21
181.73333333333335
31
0
0
LINE
8
ARCH-FURNITURE
10
31.666666666666668
20
186.0
30
0
11
71.66666666666667
21
186.0
31
0
0
LINE
8
ARCH-FURNITURE
10
31.666666666666668
20
190.26666666666665
30
0
11
71.66666666666667
21
190.26666666666665
31
0
0
LINE
8
ARCH-DOORS
10
51.66666666666667
20
143.33333333333331
30
0
11
51.66666666666667
21
194.0
31
0
0
LINE
8
ARCH-DOORS
10
51.66666666666667
20
194.0
30
0
11
52.62551774387508
21
192.24483487621924
31
0
0
LINE
8
ARCH-DOORS
10
51.66666666666667
20
194.0
30
0
11
50.707815589458264
21
192.24483487621924
31
0
0
TEXT
8
ARCH-TEXT
10
31.666666666666668
20
136.66666666666669
30
0
40
2
1
UP
7
STANDARD
41
0.85
0
LINE
8
ARCH-FURNITURE
10
378.33333333333337
20
143.33333333333331
30
0
11
418.33333333333337
21
143.33333333333331
31
0
0
LINE
8
ARCH-FURNITURE
10
378.33333333333337
20
147.60000000000002
30
0
11
418.33333333333337
21
147.60000000000002
31
0
0
LINE
8
ARCH-FURNITURE
10
378.33333333333337
20
151.86666666666667
30
0
11
418.33333333333337
21
151.86666666666667
31
0
0
LINE
8
ARCH-FURNITURE
10
378.33333333333337
20
156.13333333333333
30
0
11
418.33333333333337
21
156.13333333333333
31
0
0
LINE
8
ARCH-FURNITURE
10
378.33333333333337
20
160.39999999999998
30
0
11
418.33333333333337
21
160.39999999999998
31
0
0
LINE
8
ARCH-FURNITURE
10
378.33333333333337
20
164.66666666666669
30
0
11
418.33333333333337
21
164.66666666666669
31
0
0
LINE
8
ARCH-FURNITURE
10
378.33333333333337
20
168.93333333333334
30
0
11
418.33333333333337
21
168.93333333333334
31
0
0
LINE
8
ARCH-FURNITURE
10
378.33333333333337
20
173.2
30
0
11
418.33333333333337
21
173.2
31
0
0
LINE
8
ARCH-FURNITURE
10
378.33333333333337
20
177.46666666666667
30
0
11
418.33333333333337
21
177.46666666666667
31
0
0
LINE
8
ARCH-FURNITURE
10
378.33333333333337
20
181.73333333333335
30
0
11
418.33333333333337
21
181.73333333333335
31
0
0
LINE
8
ARCH-FURNITURE
10
378.33333333333337
20
186.0
30
0
11
418.33333333333337
21
186.0
31
0
0
LINE
8
ARCH-FURNITURE
10
378.33333333333337
20
190.26666666666665
30
0
11
418.33333333333337
21
190.26666666666665
31
0
0
LINE
8
ARCH-DOORS
10
398.33333333333337
20
143.33333333333331
30
0
11
398.33333333333337
21
194.0
31
0
0
LINE
8
ARCH-DOORS
10
398.33333333333337
20
194.0
30
0
11
399.2921844105418
21
192.24483487621924
31
0
0
LINE
8
ARCH-DOORS
10
398.33333333333337
20
194.0
30
0
11
397.37448225612496
21
192.24483487621924
31
0
0
TEXT
8
ARCH-TEXT
10
378.33333333333337
20
136.66666666666669
30
0
40
2
1
UP
7
STANDARD
41
0.85
0
TEXT
8
ARCH-TEXT
10
27.4
20
312.66666666666663
30
0
40
2.1
1
ELEC
7
STANDARD
41
0.85
0
TEXT
8
ARCH-TEXT
10
27.4
20
308.26666666666665
30
0
40
1.8
1
18 m2
7
STANDARD
41
0.85
0
TEXT
8
ARCH-TEXT
10
67.4
20
312.66666666666663
30
0
40
2.1
1
COM
7
STANDARD
41
0.85
0
TEXT
8
ARCH-TEXT
10
67.4
20
308.26666666666665
30
0
40
1.8
1
18 m2
7
STANDARD
41
0.85
0
TEXT
8
ARCH-TEXT
10
107.4
20
312.66666666666663
30
0
40
2.1
1
STO
7
STANDARD
41
0.85
0
TEXT
8
ARCH-TEXT
10
107.4
20
308.26666666666665
30
0
40
1.8
1
12 m2
7
STANDARD
41
0.85
0
TEXT
8
ARCH-TEXT
10
134.06666666666666
20
312.66666666666663
30
0
40
2.1
1
ACC
7
STANDARD
41
0.85
0
TEXT
8
ARCH-TEXT
10
134.06666666666666
20
308.26666666666665
30
0
40
1.8
1
12 m2
7
STANDARD
41
0.85
0
TEXT
8
ARCH-TEXT
10
160.73333333333335
20
312.66666666666663
30
0
40
2.1
1
MT1
7
STANDARD
41
0.85
0
TEXT
8
ARCH-TEXT
10
160.73333333333335
20
308.26666666666665
30
0
40
1.8
1
24 m2
7
STANDARD
41
0.85
0
TEXT
8
ARCH-TEXT
10
214.06666666666666
20
312.66666666666663
30
0
40
2.1
1
MT2
7
STANDARD
41
0.85
0
TEXT
8
ARCH-TEXT
10
214.06666666666666
20
308.26666666666665
30
0
40
1.8
1
24 m2
7
STANDARD
41
0.85
0
TEXT
8
ARCH-TEXT
10
267.4
20
312.66666666666663
30
0
40
2.1
1
KIT
7
STANDARD
41
0.85
0
TEXT
8
ARCH-TEXT
10
267.4
20
308.26666666666665
30
0
40
1.8
1
36 m2
7
STANDARD
41
0.85
0
TEXT
8
ARCH-TEXT
10
347.40000000000003
20
312.66666666666663
30
0
40
2.1
1
M WC
7
STANDARD
41
0.85
0
TEXT
8
ARCH-TEXT
10
347.40000000000003
20
308.26666666666665
30
0
40
1.8
1
18 m2
7
STANDARD
41
0.85
0
TEXT
8
ARCH-TEXT
10
387.40000000000003
20
312.66666666666663
30
0
40
2.1
1
F WC
7
STANDARD
41
0.85
0
TEXT
8
ARCH-TEXT
10
387.40000000000003
20
308.26666666666665
30
0
40
1.8
1
18 m2
7
STANDARD
41
0.85
0
TEXT
8
ARCH-TEXT
10
27.4
20
206.0
30
0
40
2.1
1
ST1
7
STANDARD
41
0.85
0
TEXT
8
ARCH-TEXT
10
27.4
20
201.60000000000002
30
0
40
1.8
1
24 m2
7
STANDARD
41
0.85
0
TEXT
8
ARCH-TEXT
10
80.73333333333333
20
166.0
30
0
40
2.1
1
REC
7
STANDARD
41
0.85
0
TEXT
8
ARCH-TEXT
10
80.73333333333333
20
161.60000000000002
30
0
40
1.8
1
18 m2
7
STANDARD
41
0.85
0
TEXT
8
ARCH-TEXT
10
80.73333333333333
20
206.0
30
0
40
2.1
1
WAIT
7
STANDARD
41
0.85
0
TEXT
8
ARCH-TEXT
10
80.73333333333333
20
201.60000000000002
30
0
40
1.8
1
18 m2
7
STANDARD
41
0.85
0
TEXT
8
ARCH-TEXT
10
160.73333333333335
20
206.0
30
0
40
2.1
1
OPEN
7
STANDARD
41
0.85
0
TEXT
8
ARCH-TEXT
10
160.73333333333335
20
201.60000000000002
30
0
40
1.8
1
96 m2
7
STANDARD
41
0.85
0
TEXT
8
ARCH-TEXT
10
374.06666666666666
20
206.0
30
0
40
2.1
1
ST2
7
STANDARD
41
0.85
0
TEXT
8
ARCH-TEXT
10
374.06666666666666
20
201.60000000000002
30
0
40
1.8
1
24 m2
7
STANDARD
41
0.85
0
TEXT
8
ARCH-TEXT
10
29.0
20
234.0
30
0
40
2.1
1
CORRIDOR - 2.0 m wide
7
STANDARD
41
0.85
0
LINE
8
ELEC-DIMENSIONS
10
25.0
20
340.6666666666667
30
0
11
425.0
21
340.6666666666667
31
0
0
TEXT
8
ELEC-DIMENSIONS
10
217.0
20
342.6666666666667
30
0
40
2.6
1
30 000
7
STANDARD
41
0.85
0
LINE
8
ELEC-DIMENSIONS
10
25.0
20
319.33333333333337
30
0
11
25.0
21
344.6666666666667
31
0
0
LINE
8
ELEC-DIMENSIONS
10
425.0
20
319.33333333333337
30
0
11
425.0
21
344.6666666666667
31
0
0
TEXT
8
ELEC-TEXT
10
23
20
121
30
0
40
3
1
GF  /  420 m2  /  1:75 at A2
7
STANDARD
41
0.85
0
INSERT
8
ELEC-DB
2
DB
10
31.0
20
259.33333333333337
30
0
41
1
42
1
43
1
0
TEXT
8
ELEC-DB
10
36.333333333333336
20
254.0
30
0
40
2.4
1
DB-GF
7
STANDARD
41
0.85
0
INSERT
8
ELEC-DB
2
MSB
10
38.333333333333336
20
290.0
30
0
41
1
42
1
43
1
0
TEXT
8
ELEC-DB
10
43.66666666666667
20
284.66666666666663
30
0
40
2.4
1
MSB
7
STANDARD
41
0.85
0
INSERT
8
ELEC-LIGHT
2
LP
10
171.66666666666669
20
143.33333333333331
30
0
41
1
42
1
43
1
0
TEXT
8
ELEC-LIGHT-TEXT
10
166.33333333333334
20
139.46666666666664
30
0
40
1.95
1
N001/L01
7
STANDARD
41
0.85
0
INSERT
8
ELEC-LIGHT
2
LP
10
198.33333333333334
20
143.33333333333331
30
0
41
1
42
1
43
1
0
TEXT
8
ELEC-LIGHT-TEXT
10
193.0
20
139.46666666666664
30
0
40
1.95
1
N002/L01
7
STANDARD
41
0.85
0
INSERT
8
ELEC-LIGHT
2
LP
10
225.0
20
143.33333333333331
30
0
41
1
42
1
43
1
0
TEXT
8
ELEC-LIGHT-TEXT
10
219.66666666666666
20
139.46666666666664
30
0
40
1.95
1
N003/L01
7
STANDARD
41
0.85
0
INSERT
8
ELEC-LIGHT
2
LP
10
251.66666666666669
20
143.33333333333331
30
0
41
1
42
1
43
1
0
TEXT
8
ELEC-LIGHT-TEXT
10
246.33333333333337
20
139.46666666666664
30
0
40
1.95
1
N004/L01
7
STANDARD
41
0.85
0
INSERT
8
ELEC-LIGHT
2
LP
10
278.33333333333337
20
143.33333333333331
30
0
41
1
42
1
43
1
0
TEXT
8
ELEC-LIGHT-TEXT
10
273.0
20
139.46666666666664
30
0
40
1.95
1
N005/L02
7
STANDARD
41
0.85
0
INSERT
8
ELEC-LIGHT
2
LP
10
305.0
20
143.33333333333331
30
0
41
1
42
1
43
1
0
TEXT
8
ELEC-LIGHT-TEXT
10
299.6666666666667
20
139.46666666666664
30
0
40
1.95
1
N006/L02
7
STANDARD
41
0.85
0
INSERT
8
ELEC-LIGHT
2
LP
10
331.6666666666667
20
143.33333333333331
30
0
41
1
42
1
43
1
0
TEXT
8
ELEC-LIGHT-TEXT
10
326.33333333333337
20
139.46666666666664
30
0
40
1.95
1
N007/L02
7
STANDARD
41
0.85
0
INSERT
8
ELEC-LIGHT
2
LP
10
358.33333333333337
20
143.33333333333331
30
0
41
1
42
1
43
1
0
TEXT
8
ELEC-LIGHT-TEXT
10
353.00000000000006
20
139.46666666666664
30
0
40
1.95
1
N008/L02
7
STANDARD
41
0.85
0
INSERT
8
ELEC-LIGHT
2
LP
10
171.66666666666669
20
170.0
30
0
41
1
42
1
43
1
0
TEXT
8
ELEC-LIGHT-TEXT
10
166.33333333333334
20
166.13333333333333
30
0
40
1.95
1
N009/L01
7
STANDARD
41
0.85
0
INSERT
8
ELEC-LIGHT
2
LP
10
198.33333333333334
20
170.0
30
0
41
1
42
1
43
1
0
TEXT
8
ELEC-LIGHT-TEXT
10
193.0
20
166.13333333333333
30
0
40
1.95
1
N010/L01
7
STANDARD
41
0.85
0
INSERT
8
ELEC-LIGHT
2
LP
10
225.0
20
170.0
30
0
41
1
42
1
43
1
0
TEXT
8
ELEC-LIGHT-TEXT
10
219.66666666666666
20
166.13333333333333
30
0
40
1.95
1
N011/L01
7
STANDARD
41
0.85
0
INSERT
8
ELEC-LIGHT
2
LP
10
251.66666666666669
20
170.0
30
0
41
1
42
1
43
1
0
TEXT
8
ELEC-LIGHT-TEXT
10
246.33333333333337
20
166.13333333333333
30
0
40
1.95
1
N012/L01
7
STANDARD
41
0.85
0
INSERT
8
ELEC-LIGHT
2
LP
10
278.33333333333337
20
170.0
30
0
41
1
42
1
43
1
0
TEXT
8
ELEC-LIGHT-TEXT
10
273.0
20
166.13333333333333
30
0
40
1.95
1
N013/L02
7
STANDARD
41
0.85
0
INSERT
8
ELEC-LIGHT
2
LP
10
305.0
20
170.0
30
0
41
1
42
1
43
1
0
TEXT
8
ELEC-LIGHT-TEXT
10
299.6666666666667
20
166.13333333333333
30
0
40
1.95
1
N014/L02
7
STANDARD
41
0.85
0
INSERT
8
ELEC-LIGHT
2
LP
10
331.6666666666667
20
170.0
30
0
41
1
42
1
43
1
0
TEXT
8
ELEC-LIGHT-TEXT
10
326.33333333333337
20
166.13333333333333
30
0
40
1.95
1
N015/L02
7
STANDARD
41
0.85
0
INSERT
8
ELEC-LIGHT
2
LP
10
358.33333333333337
20
170.0
30
0
41
1
42
1
43
1
0
TEXT
8
ELEC-LIGHT-TEXT
10
353.00000000000006
20
166.13333333333333
30
0
40
1.95
1
N016/L02
7
STANDARD
41
0.85
0
INSERT
8
ELEC-LIGHT
2
LP
10
171.66666666666669
20
196.66666666666669
30
0
41
1
42
1
43
1
0
TEXT
8
ELEC-LIGHT-TEXT
10
166.33333333333334
20
192.8
30
0
40
1.95
1
N017/L01
7
STANDARD
41
0.85
0
INSERT
8
ELEC-LIGHT
2
LP
10
198.33333333333334
20
196.66666666666669
30
0
41
1
42
1
43
1
0
TEXT
8
ELEC-LIGHT-TEXT
10
193.0
20
192.8
30
0
40
1.95
1
N018/L01
7
STANDARD
41
0.85
0
INSERT
8
ELEC-LIGHT
2
LP
10
225.0
20
196.66666666666669
30
0
41
1
42
1
43
1
0
TEXT
8
ELEC-LIGHT-TEXT
10
219.66666666666666
20
192.8
30
0
40
1.95
1
N019/L01
7
STANDARD
41
0.85
0
INSERT
8
ELEC-LIGHT
2
LP
10
251.66666666666669
20
196.66666666666669
30
0
41
1
42
1
43
1
0
TEXT
8
ELEC-LIGHT-TEXT
10
246.33333333333337
20
192.8
30
0
40
1.95
1
N020/L01
7
STANDARD
41
0.85
0
INSERT
8
ELEC-LIGHT
2
LP
10
278.33333333333337
20
196.66666666666669
30
0
41
1
42
1
43
1
0
TEXT
8
ELEC-LIGHT-TEXT
10
273.0
20
192.8
30
0
40
1.95
1
N021/L02
7
STANDARD
41
0.85
0
INSERT
8
ELEC-LIGHT
2
LP
10
305.0
20
196.66666666666669
30
0
41
1
42
1
43
1
0
TEXT
8
ELEC-LIGHT-TEXT
10
299.6666666666667
20
192.8
30
0
40
1.95
1
N022/L02
7
STANDARD
41
0.85
0
INSERT
8
ELEC-LIGHT
2
LP
10
331.6666666666667
20
196.66666666666669
30
0
41
1
42
1
43
1
0
TEXT
8
ELEC-LIGHT-TEXT
10
326.33333333333337
20
192.8
30
0
40
1.95
1
N023/L02
7
STANDARD
41
0.85
0
INSERT
8
ELEC-LIGHT
2
LP
10
358.33333333333337
20
196.66666666666669
30
0
41
1
42
1
43
1
0
TEXT
8
ELEC-LIGHT-TEXT
10
353.00000000000006
20
192.8
30
0
40
1.95
1
N024/L02
7
STANDARD
41
0.85
0
INSERT
8
ELEC-LIGHT
2
LP
10
98.33333333333334
20
140.0
30
0
41
1
42
1
43
1
0
TEXT
8
ELEC-LIGHT-TEXT
10
93.0
20
136.13333333333333
30
0
40
1.95
1
N025/L03
7
STANDARD
41
0.85
0
INSERT
8
ELEC-LIGHT
2
LP
10
138.33333333333334
20
140.0
30
0
41
1
42
1
43
1
0
TEXT
8
ELEC-LIGHT-TEXT
10
133.0
20
136.13333333333333
30
0
40
1.95
1
N026/L03
7
STANDARD
41
0.85
0
INSERT
8
ELEC-LIGHT
2
LP
10
98.33333333333334
20
160.0
30
0
41
1
42
1
43
1
0
TEXT
8
ELEC-LIGHT-TEXT
10
93.0
20
156.13333333333333
30
0
40
1.95
1
N027/L03
7
STANDARD
41
0.85
0
INSERT
8
ELEC-LIGHT
2
LP
10
138.33333333333334
20
160.0
30
0
41
1
42
1
43
1
0
TEXT
8
ELEC-LIGHT-TEXT
10
133.0
20
156.13333333333333
30
0
40
1.95
1
N028/L03
7
STANDARD
41
0.85
0
INSERT
8
ELEC-LIGHT
2
LP
10
98.33333333333334
20
180.0
30
0
41
1
42
1
43
1
0
TEXT
8
ELEC-LIGHT-TEXT
10
93.0
20
176.13333333333333
30
0
40
1.95
1
N029/L03
7
STANDARD
41
0.85
0
INSERT
8
ELEC-LIGHT
2
LP
10
138.33333333333334
20
180.0
30
0
41
1
42
1
43
1
0
TEXT
8
ELEC-LIGHT-TEXT
10
133.0
20
176.13333333333333
30
0
40
1.95
1
N030/L03
7
STANDARD
41
0.85
0
INSERT
8
ELEC-LIGHT
2
LP
10
98.33333333333334
20
200.0
30
0
41
1
42
1
43
1
0
TEXT
8
ELEC-LIGHT-TEXT
10
93.0
20
196.13333333333333
30
0
40
1.95
1
N031/L03
7
STANDARD
41
0.85
0
INSERT
8
ELEC-LIGHT
2
LP
10
138.33333333333334
20
200.0
30
0
41
1
42
1
43
1
0
TEXT
8
ELEC-LIGHT-TEXT
10
133.0
20
196.13333333333333
30
0
40
1.95
1
N032/L03
7
STANDARD
41
0.85
0
INSERT
8
ELEC-LIGHT
2
LP
10
171.66666666666669
20
250.0
30
0
41
1
42
1
43
1
0
TEXT
8
ELEC-LIGHT-TEXT
10
166.33333333333334
20
246.13333333333335
30
0
40
1.95
1
N033/L04
7
STANDARD
41
0.85
0
INSERT
8
ELEC-LIGHT
2
LP
10
198.33333333333334
20
250.0
30
0
41
1
42
1
43
1
0
TEXT
8
ELEC-LIGHT-TEXT
10
193.0
20
246.13333333333335
30
0
40
1.95
1
N034/L04
7
STANDARD
41
0.85
0
INSERT
8
ELEC-LIGHT
2
LP
10
171.66666666666669
20
276.6666666666667
30
0
41
1
42
1
43
1
0
TEXT
8
ELEC-LIGHT-TEXT
10
166.33333333333334
20
272.8
30
0
40
1.95
1
N035/L04
7
STANDARD
41
0.85
0
INSERT
8
ELEC-LIGHT
2
LP
10
198.33333333333334
20
276.6666666666667
30
0
41
1
42
1
43
1
0
TEXT
8
ELEC-LIGHT-TEXT
10
193.0
20
272.8
30
0
40
1.95
1
N036/L04
7
STANDARD
41
0.85
0
INSERT
8
ELEC-LIGHT
2
LP
10
171.66666666666669
20
303.33333333333337
30
0
41
1
42
1
43
1
0
TEXT
8
ELEC-LIGHT-TEXT
10
166.33333333333334
20
299.4666666666667
30
0
40
1.95
1
N037/L04
7
STANDARD
41
0.85
0
INSERT
8
ELEC-LIGHT
2
LP
10
198.33333333333334
20
303.33333333333337
30
0
41
1
42
1
43
1
0
TEXT
8
ELEC-LIGHT-TEXT
10
193.0
20
299.4666666666667
30
0
40
1.95
1
N038/L04
7
STANDARD
41
0.85
0
INSERT
8
ELEC-LIGHT
2
LP
10
225.0
20
250.0
30
0
41
1
42
1
43
1
0
TEXT
8
ELEC-LIGHT-TEXT
10
219.66666666666666
20
246.13333333333335
30
0
40
1.95
1
N039/L04
7
STANDARD
41
0.85
0
INSERT
8
ELEC-LIGHT
2
LP
10
251.66666666666669
20
250.0
30
0
41
1
42
1
43
1
0
TEXT
8
ELEC-LIGHT-TEXT
10
246.33333333333337
20
246.13333333333335
30
0
40
1.95
1
N040/L04
7
STANDARD
41
0.85
0
INSERT
8
ELEC-LIGHT
2
LP
10
225.0
20
276.6666666666667
30
0
41
1
42
1
43
1
0
TEXT
8
ELEC-LIGHT-TEXT
10
219.66666666666666
20
272.8
30
0
40
1.95
1
N041/L04
7
STANDARD
41
0.85
0
INSERT
8
ELEC-LIGHT
2
LP
10
251.66666666666669
20
276.6666666666667
30
0
41
1
42
1
43
1
0
TEXT
8
ELEC-LIGHT-TEXT
10
246.33333333333337
20
272.8
30
0
40
1.95
1
N042/L04
7
STANDARD
41
0.85
0
INSERT
8
ELEC-LIGHT
2
LP
10
225.0
20
303.33333333333337
30
0
41
1
42
1
43
1
0
TEXT
8
ELEC-LIGHT-TEXT
10
219.66666666666666
20
299.4666666666667
30
0
40
1.95
1
N043/L04
7
STANDARD
41
0.85
0
INSERT
8
ELEC-LIGHT
2
LP
10
251.66666666666669
20
303.33333333333337
30
0
41
1
42
1
43
1
0
TEXT
8
ELEC-LIGHT-TEXT
10
246.33333333333337
20
299.4666666666667
30
0
40
1.95
1
N044/L04
7
STANDARD
41
0.85
0
INSERT
8
ELEC-LIGHT
2
LP
10
278.33333333333337
20
250.0
30
0
41
1
42
1
43
1
0
TEXT
8
ELEC-LIGHT-TEXT
10
273.0
20
246.13333333333335
30
0
40
1.95
1
N045/L05
7
STANDARD
41
0.85
0
INSERT
8
ELEC-LIGHT
2
LP
10
305.0
20
250.0
30
0
41
1
42
1
43
1
0
TEXT
8
ELEC-LIGHT-TEXT
10
299.6666666666667
20
246.13333333333335
30
0
40
1.95
1
N046/L05
7
STANDARD
41
0.85
0
INSERT
8
ELEC-LIGHT
2
LP
10
331.6666666666667
20
250.0
30
0
41
1
42
1
43
1
0
TEXT
8
ELEC-LIGHT-TEXT
10
326.33333333333337
20
246.13333333333335
30
0
40
1.95
1
N047/L05
7
STANDARD
41
0.85
0
INSERT
8
ELEC-LIGHT
2
LP
10
278.33333333333337
20
276.6666666666667
30
0
41
1
42
1
43
1
0
TEXT
8
ELEC-LIGHT-TEXT
10
273.0
20
272.8
30
0
40
1.95
1
N048/L05
7
STANDARD
41
0.85
0
INSERT
8
ELEC-LIGHT
2
LP
10
305.0
20
276.6666666666667
30
0
41
1
42
1
43
1
0
TEXT
8
ELEC-LIGHT-TEXT
10
299.6666666666667
20
272.8
30
0
40
1.95
1
N049/L05
7
STANDARD
41
0.85
0
INSERT
8
ELEC-LIGHT
2
LP
10
331.6666666666667
20
276.6666666666667
30
0
41
1
42
1
43
1
0
TEXT
8
ELEC-LIGHT-TEXT
10
326.33333333333337
20
272.8
30
0
40
1.95
1
N050/L05
7
STANDARD
41
0.85
0
INSERT
8
ELEC-LIGHT
2
LP
10
278.33333333333337
20
303.33333333333337
30
0
41
1
42
1
43
1
0
TEXT
8
ELEC-LIGHT-TEXT
10
273.0
20
299.4666666666667
30
0
40
1.95
1
N051/L05
7
STANDARD
41
0.85
0
INSERT
8
ELEC-LIGHT
2
LP
10
305.0
20
303.33333333333337
30
0
41
1
42
1
43
1
0
TEXT
8
ELEC-LIGHT-TEXT
10
299.6666666666667
20
299.4666666666667
30
0
40
1.95
1
N052/L05
7
STANDARD
41
0.85
0
INSERT
8
ELEC-LIGHT
2
LP
10
331.6666666666667
20
303.33333333333337
30
0
41
1
42
1
43
1
0
TEXT
8
ELEC-LIGHT-TEXT
10
326.33333333333337
20
299.4666666666667
30
0
40
1.95
1
N053/L05
7
STANDARD
41
0.85
0
INSERT
8
ELEC-LIGHT
2
LB
10
365.0
20
250.0
30
0
41
1
42
1
43
1
0
TEXT
8
ELEC-LIGHT-TEXT
10
359.6666666666667
20
246.13333333333335
30
0
40
1.95
1
N054/L05
7
STANDARD
41
0.85
0
INSERT
8
ELEC-LIGHT
2
LB
10
365.0
20
276.6666666666667
30
0
41
1
42
1
43
1
0
TEXT
8
ELEC-LIGHT-TEXT
10
359.6666666666667
20
272.8
30
0
40
1.95
1
N055/L05
7
STANDARD
41
0.85
0
INSERT
8
ELEC-LIGHT
2
LB
10
365.0
20
303.33333333333337
30
0
41
1
42
1
43
1
0
TEXT
8
ELEC-LIGHT-TEXT
10
359.6666666666667
20
299.4666666666667
30
0
40
1.95
1
N056/L05
7
STANDARD
41
0.85
0
INSERT
8
ELEC-LIGHT
2
LB
10
405.0
20
250.0
30
0
41
1
42
1
43
1
0
TEXT
8
ELEC-LIGHT-TEXT
10
399.6666666666667
20
246.13333333333335
30
0
40
1.95
1
N057/L05
7
STANDARD
41
0.85
0
INSERT
8
ELEC-LIGHT
2
LB
10
405.0
20
276.6666666666667
30
0
41
1
42
1
43
1
0
TEXT
8
ELEC-LIGHT-TEXT
10
399.6666666666667
20
272.8
30
0
40
1.95
1
N058/L05
7
STANDARD
41
0.85
0
INSERT
8
ELEC-LIGHT
2
LB
10
405.0
20
303.33333333333337
30
0
41
1
42
1
43
1
0
TEXT
8
ELEC-LIGHT-TEXT
10
399.6666666666667
20
299.4666666666667
30
0
40
1.95
1
N059/L05
7
STANDARD
41
0.85
0
INSERT
8
ELEC-LIGHT
2
LB
10
145.0
20
256.6666666666667
30
0
41
1
42
1
43
1
0
TEXT
8
ELEC-LIGHT-TEXT
10
139.66666666666669
20
252.8
30
0
40
1.95
1
N060/L05
7
STANDARD
41
0.85
0
INSERT
8
ELEC-LIGHT
2
LB
10
145.0
20
296.6666666666667
30
0
41
1
42
1
43
1
0
TEXT
8
ELEC-LIGHT-TEXT
10
139.66666666666669
20
292.8
30
0
40
1.95
1
N061/L05
7
STANDARD
41
0.85
0
INSERT
8
ELEC-LIGHT
2
LB
10
45.0
20
250.0
30
0
41
1
42
1
43
1
0
TEXT
8
ELEC-LIGHT-TEXT
10
39.66666666666667
20
246.13333333333335
30
0
40
1.95
1
N062/L06
7
STANDARD
41
0.85
0
INSERT
8
ELEC-LIGHT
2
LB
10
45.0
20
276.6666666666667
30
0
41
1
42
1
43
1
0
TEXT
8
ELEC-LIGHT-TEXT
10
39.66666666666667
20
272.8
30
0
40
1.95
1
N063/L06
7
STANDARD
41
0.85
0
INSERT
8
ELEC-LIGHT
2
LB
10
45.0
20
303.33333333333337
30
0
41
1
42
1
43
1
0
TEXT
8
ELEC-LIGHT-TEXT
10
39.66666666666667
20
299.4666666666667
30
0
40
1.95
1
N064/L06
7
STANDARD
41
0.85
0
INSERT
8
ELEC-LIGHT
2
LB
10
85.0
20
250.0
30
0
41
1
42
1
43
1
0
TEXT
8
ELEC-LIGHT-TEXT
10
79.66666666666666
20
246.13333333333335
30
0
40
1.95
1
N065/L06
7
STANDARD
41
0.85
0
INSERT
8
ELEC-LIGHT
2
LB
10
85.0
20
276.6666666666667
30
0
41
1
42
1
43
1
0
TEXT
8
ELEC-LIGHT-TEXT
10
79.66666666666666
20
272.8
30
0
40
1.95
1
N066/L06
7
STANDARD
41
0.85
0
INSERT
8
ELEC-LIGHT
2
LB
10
85.0
20
303.33333333333337
30
0
41
1
42
1
43
1
0
TEXT
8
ELEC-LIGHT-TEXT
10
79.66666666666666
20
299.4666666666667
30
0
40
1.95
1
N067/L06
7
STANDARD
41
0.85
0
INSERT
8
ELEC-LIGHT
2
LB
10
118.33333333333334
20
256.6666666666667
30
0
41
1
42
1
43
1
0
TEXT
8
ELEC-LIGHT-TEXT
10
113.0
20
252.8
30
0
40
1.95
1
N068/L06
7
STANDARD
41
0.85
0
INSERT
8
ELEC-LIGHT
2
LB
10
118.33333333333334
20
296.6666666666667
30
0
41
1
42
1
43
1
0
TEXT
8
ELEC-LIGHT-TEXT
10
113.0
20
292.8
30
0
40
1.95
1
N069/L06
7
STANDARD
41
0.85
0
INSERT
8
ELEC-LIGHT
2
LB
10
45.0
20
223.33333333333334
30
0
41
1
42
1
43
1
0
TEXT
8
ELEC-LIGHT-TEXT
10
39.66666666666667
20
219.46666666666667
30
0
40
1.95
1
N070/L07
7
STANDARD
41
0.85
0
INSERT
8
ELEC-LIGHT
2
LB
10
85.0
20
223.33333333333334
30
0
41
1
42
1
43
1
0
TEXT
8
ELEC-LIGHT-TEXT
10
79.66666666666666
20
219.46666666666667
30
0
40
1.95
1
N071/L07
7
STANDARD
41
0.85
0
INSERT
8
ELEC-LIGHT
2
LB
10
125.0
20
223.33333333333334
30
0
41
1
42
1
43
1
0
TEXT
8
ELEC-LIGHT-TEXT
10
119.66666666666667
20
219.46666666666667
30
0
40
1.95
1
N072/L07
7
STANDARD
41
0.85
0
INSERT
8
ELEC-LIGHT
2
LB
10
165.0
20
223.33333333333334
30
0
41
1
42
1
43
1
0
TEXT
8
ELEC-LIGHT-TEXT
10
159.66666666666666
20
219.46666666666667
30
0
40
1.95
1
N073/L07
7
STANDARD
41
0.85
0
INSERT
8
ELEC-LIGHT
2
LB
10
205.0
20
223.33333333333334
30
0
41
1
42
1
43
1
0
TEXT
8
ELEC-LIGHT-TEXT
10
199.66666666666666
20
219.46666666666667
30
0
40
1.95
1
N074/L07
7
STANDARD
41
0.85
0
INSERT
8
ELEC-LIGHT
2
LB
10
245.0
20
223.33333333333334
30
0
41
1
42
1
43
1
0
TEXT
8
ELEC-LIGHT-TEXT
10
239.66666666666669
20
219.46666666666667
30
0
40
1.95
1
N075/L07
7
STANDARD
41
0.85
0
INSERT
8
ELEC-LIGHT
2
LB
10
285.0
20
223.33333333333334
30
0
41
1
42
1
43
1
0
TEXT
8
ELEC-LIGHT-TEXT
10
279.6666666666667
20
219.46666666666667
30
0
40
1.95
1
N076/L07
7
STANDARD
41
0.85
0
INSERT
8
ELEC-LIGHT
2
LB
10
325.0
20
223.33333333333334
30
0
41
1
42
1
43
1
0
TEXT
8
ELEC-LIGHT-TEXT
10
319.6666666666667
20
219.46666666666667
30
0
40
1.95
1
N077/L07
7
STANDARD
41
0.85
0
INSERT
8
ELEC-LIGHT
2
LB
10
365.0
20
223.33333333333334
30
0
41
1
42
1
43
1
0
TEXT
8
ELEC-LIGHT-TEXT
10
359.6666666666667
20
219.46666666666667
30
0
40
1.95
1
N078/L07
7
STANDARD
41
0.85
0
INSERT
8
ELEC-LIGHT
2
LB
10
405.0
20
223.33333333333334
30
0
41
1
42
1
43
1
0
TEXT
8
ELEC-LIGHT-TEXT
10
399.6666666666667
20
219.46666666666667
30
0
40
1.95
1
N079/L07
7
STANDARD
41
0.85
0
INSERT
8
ELEC-LIGHT
2
LB
10
51.66666666666667
20
143.33333333333331
30
0
41
1
42
1
43
1
0
TEXT
8
ELEC-LIGHT-TEXT
10
46.333333333333336
20
139.46666666666664
30
0
40
1.95
1
N080/L08
7
STANDARD
41
0.85
0
INSERT
8
ELEC-LIGHT
2
LB
10
51.66666666666667
20
170.0
30
0
41
1
42
1
43
1
0
TEXT
8
ELEC-LIGHT-TEXT
10
46.333333333333336
20
166.13333333333333
30
0
40
1.95
1
N081/L08
7
STANDARD
41
0.85
0
INSERT
8
ELEC-LIGHT
2
LB
10
51.66666666666667
20
196.66666666666669
30
0
41
1
42
1
43
1
0
TEXT
8
ELEC-LIGHT-TEXT
10
46.333333333333336
20
192.8
30
0
40
1.95
1
N082/L08
7
STANDARD
41
0.85
0
INSERT
8
ELEC-LIGHT
2
LB
10
398.33333333333337
20
143.33333333333331
30
0
41
1
42
1
43
1
0
TEXT
8
ELEC-LIGHT-TEXT
10
393.00000000000006
20
139.46666666666664
30
0
40
1.95
1
N083/L08
7
STANDARD
41
0.85
0
INSERT
8
ELEC-LIGHT
2
LB
10
398.33333333333337
20
170.0
30
0
41
1
42
1
43
1
0
TEXT
8
ELEC-LIGHT-TEXT
10
393.00000000000006
20
166.13333333333333
30
0
40
1.95
1
N084/L08
7
STANDARD
41
0.85
0
INSERT
8
ELEC-LIGHT
2
LB
10
398.33333333333337
20
196.66666666666669
30
0
41
1
42
1
43
1
0
TEXT
8
ELEC-LIGHT-TEXT
10
393.00000000000006
20
192.8
30
0
40
1.95
1
N085/L08
7
STANDARD
41
0.85
0
INSERT
8
ELEC-SWITCH
2
SW2
10
163.0
20
205.33333333333334
30
0
41
1
42
1
43
1
0
TEXT
8
ELEC-LIGHT-TEXT
10
165.0
20
203.33333333333334
30
0
40
2
1
L01
7
STANDARD
41
0.85
0
INSERT
8
ELEC-SWITCH
2
SW2
10
366.33333333333337
20
205.33333333333334
30
0
41
1
42
1
43
1
0
TEXT
8
ELEC-LIGHT-TEXT
10
368.33333333333337
20
203.33333333333334
30
0
40
2
1
L02
7
STANDARD
41
0.85
0
INSERT
8
ELEC-SWITCH
2
SW1
10
83.0
20
205.33333333333334
30
0
41
1
42
1
43
1
0
TEXT
8
ELEC-LIGHT-TEXT
10
85.0
20
203.33333333333334
30
0
40
2
1
L03
7
STANDARD
41
0.85
0
INSERT
8
ELEC-SWITCH
2
SW1
10
83.0
20
205.33333333333334
30
0
41
1
42
1
43
1
0
TEXT
8
ELEC-LIGHT-TEXT
10
85.0
20
203.33333333333334
30
0
40
2
1
L03
7
STANDARD
41
0.85
0
INSERT
8
ELEC-SWITCH
2
SW1
10
163.0
20
240.66666666666669
30
0
41
1
42
1
43
1
0
TEXT
8
ELEC-LIGHT-TEXT
10
165.0
20
238.66666666666669
30
0
40
2
1
L04
7
STANDARD
41
0.85
0
INSERT
8
ELEC-SWITCH
2
SW1
10
216.33333333333334
20
240.66666666666669
30
0
41
1
42
1
43
1
0
TEXT
8
ELEC-LIGHT-TEXT
10
218.33333333333334
20
238.66666666666669
30
0
40
2
1
L04
7
STANDARD
41
0.85
0
INSERT
8
ELEC-SWITCH
2
SW1
10
269.6666666666667
20
240.66666666666669
30
0
41
1
42
1
43
1
0
TEXT
8
ELEC-LIGHT-TEXT
10
271.6666666666667
20
238.66666666666669
30
0
40
2
1
L05
7
STANDARD
41
0.85
0
INSERT
8
ELEC-SWITCH
2
SW1
10
349.6666666666667
20
240.66666666666669
30
0
41
1
42
1
43
1
0
TEXT
8
ELEC-LIGHT-TEXT
10
351.6666666666667
20
238.66666666666669
30
0
40
2
1
L05
7
STANDARD
41
0.85
0
INSERT
8
ELEC-SWITCH
2
SW1
10
389.6666666666667
20
240.66666666666669
30
0
41
1
42
1
43
1
0
TEXT
8
ELEC-LIGHT-TEXT
10
391.6666666666667
20
238.66666666666669
30
0
40
2
1
L05
7
STANDARD
41
0.85
0
INSERT
8
ELEC-SWITCH
2
SW1
10
136.33333333333331
20
240.66666666666669
30
0
41
1
42
1
43
1
0
TEXT
8
ELEC-LIGHT-TEXT
10
138.33333333333334
20
238.66666666666669
30
0
40
2
1
L05
7
STANDARD
41
0.85
0
INSERT
8
ELEC-SWITCH
2
SW1
10
29.666666666666668
20
240.66666666666669
30
0
41
1
42
1
43
1
0
TEXT
8
ELEC-LIGHT-TEXT
10
31.666666666666668
20
238.66666666666669
30
0
40
2
1
L06
7
STANDARD
41
0.85
0
INSERT
8
ELEC-SWITCH
2
SW1
10
69.66666666666667
20
240.66666666666669
30
0
41
1
42
1
43
1
0
TEXT
8
ELEC-LIGHT-TEXT
10
71.66666666666667
20
238.66666666666669
30
0
40
2
1
L06
7
STANDARD
41
0.85
0
INSERT
8
ELEC-SWITCH
2
SW1
10
109.66666666666667
20
240.66666666666669
30
0
41
1
42
1
43
1
0
TEXT
8
ELEC-LIGHT-TEXT
10
111.66666666666667
20
238.66666666666669
30
0
40
2
1
L06
7
STANDARD
41
0.85
0
INSERT
8
ELEC-SWITCH
2
SW1
10
38.333333333333336
20
214.0
30
0
41
1
42
1
43
1
0
TEXT
8
ELEC-LIGHT-TEXT
10
40.33333333333333
20
212.0
30
0
40
2
1
L07
7
STANDARD
41
0.85
0
INSERT
8
ELEC-SWITCH
2
SW1
10
31.666666666666668
20
204.66666666666669
30
0
41
1
42
1
43
1
0
TEXT
8
ELEC-LIGHT-TEXT
10
33.66666666666667
20
202.66666666666666
30
0
40
2
1
L08
7
STANDARD
41
0.85
0
INSERT
8
ELEC-SWITCH
2
SW1
10
378.33333333333337
20
204.66666666666669
30
0
41
1
42
1
43
1
0
TEXT
8
ELEC-LIGHT-TEXT
10
380.3333333333333
20
202.66666666666666
30
0
40
2
1
L08
7
STANDARD
41
0.85
0
LINE
8
ELEC-SWITCH
10
163.0
20
205.33333333333334
30
0
11
163.27083333333334
21
203.39583333333334
31
0
0
LINE
8
ELEC-SWITCH
10
163.54166666666666
20
201.45833333333334
30
0
11
163.8125
21
199.52083333333334
31
0
0
LINE
8
ELEC-SWITCH
10
164.08333333333334
20
197.58333333333334
30
0
11
164.35416666666666
21
195.64583333333334
31
0
0
LINE
8
ELEC-SWITCH
10
164.625
20
193.70833333333334
30
0
11
164.89583333333334
21
191.77083333333334
31
0
0
LINE
8
ELEC-SWITCH
10
165.16666666666669
20
189.83333333333334
30
0
11
165.4375
21
187.89583333333334
31
0
0
LINE
8
ELEC-SWITCH
10
165.70833333333334
20
185.95833333333334
30
0
11
165.97916666666669
21
184.02083333333334
31
0
0
LINE
8
ELEC-SWITCH
10
166.25
20
182.08333333333334
30
0
11
166.52083333333334
21
180.14583333333334
31
0
0
LINE
8
ELEC-SWITCH
10
166.79166666666669
20
178.20833333333331
30
0
11
167.0625
21
176.27083333333331
31
0
0
LINE
8
ELEC-SWITCH
10
167.33333333333334
20
174.33333333333331
30
0
11
167.60416666666669
21
172.39583333333331
31
0
0
LINE
8
ELEC-SWITCH
10
167.875
20
170.45833333333331
30
0
11
168.14583333333334
21
168.52083333333331
31
0
0
LINE
8
ELEC-SWITCH
10
168.41666666666669
20
166.58333333333331
30
0
11
168.6875
21
164.64583333333331
31
0
0
LINE
8
ELEC-SWITCH
10
168.95833333333334
20
162.70833333333331
30
0
11
169.22916666666669
21
160.77083333333331
31
0
0
LINE
8
ELEC-SWITCH
10
169.5
20
158.83333333333331
30
0
11
169.77083333333334
21
156.89583333333331
31
0
0
LINE
8
ELEC-SWITCH
10
170.04166666666669
20
154.95833333333331
30
0
11
170.31250000000003
21
153.02083333333331
31
0
0
LINE
8
ELEC-SWITCH
10
170.58333333333334
20
151.08333333333331
30
0
11
170.85416666666669
21
149.14583333333331
31
0
0
LINE
8
ELEC-SWITCH
10
171.12500000000003
20
147.20833333333331
30
0
11
171.39583333333334
21
145.27083333333331
31
0
0
LINE
8
ELEC-SWITCH
10
366.33333333333337
20
205.33333333333334
30
0
11
364.70370370370375
21
204.1851851851852
31
0
0
LINE
8
ELEC-SWITCH
10
363.07407407407413
20
203.03703703703704
30
0
11
361.44444444444446
21
201.88888888888889
31
0
0
LINE
8
ELEC-SWITCH
10
359.81481481481484
20
200.74074074074076
30
0
11
358.1851851851852
21
199.5925925925926
31
0
0
LINE
8
ELEC-SWITCH
10
356.5555555555556
20
198.44444444444446
30
0
11
354.925925925926
21
197.2962962962963
31
0
0
LINE
8
ELEC-SWITCH
10
353.29629629629636
20
196.14814814814815
30
0
11
351.6666666666667
21
195.0
31
0
0
LINE
8
ELEC-SWITCH
10
350.03703703703707
20
193.85185185185185
30
0
11
348.40740740740745
21
192.7037037037037
31
0
0
LINE
8
ELEC-SWITCH
10
346.7777777777778
20
191.55555555555557
30
0
11
345.1481481481482
21
190.40740740740742
31
0
0
LINE
8
ELEC-SWITCH
10
343.51851851851853
20
189.25925925925927
30
0
11
341.8888888888889
21
188.11111111111111
31
0
0
LINE
8
ELEC-SWITCH
10
340.2592592592593
20
186.96296296296296
30
0
11
338.6296296296297
21
185.8148148148148
31
0
0
LINE
8
ELEC-SWITCH
10
337.00000000000006
20
184.66666666666666
30
0
11
335.37037037037044
21
183.51851851851853
31
0
0
LINE
8
ELEC-SWITCH
10
333.74074074074076
20
182.37037037037038
30
0
11
332.11111111111114
21
181.22222222222223
31
0
0
LINE
8
ELEC-SWITCH
10
330.4814814814815
20
180.07407407407408
30
0
11
328.8518518518519
21
178.92592592592592
31
0
0
LINE
8
ELEC-SWITCH
10
327.2222222222223
20
177.77777777777777
30
0
11
325.5925925925926
21
176.62962962962962
31
0
0
LINE
8
ELEC-SWITCH
10
323.962962962963
20
175.48148148148147
30
0
11
322.33333333333337
21
174.33333333333331
31
0
0
LINE
8
ELEC-SWITCH
10
320.70370370370375
20
173.18518518518516
30
0
11
319.07407407407413
21
172.03703703703704
31
0
0
LINE
8
ELEC-SWITCH
10
317.44444444444446
20
170.88888888888889
30
0
11
315.81481481481484
21
169.74074074074073
31
0
0
LINE
8
ELEC-SWITCH
10
314.1851851851852
20
168.59259259259258
30
0
11
312.5555555555556
21
167.44444444444443
31
0
0
LINE
8
ELEC-SWITCH
10
310.925925925926
20
166.2962962962963
30
0
11
309.2962962962963
21
165.14814814814815
31
0
0
LINE
8
ELEC-SWITCH
10
307.6666666666667
20
164.0
30
0
11
306.03703703703707
21
162.85185185185185
31
0
0
LINE
8
ELEC-SWITCH
10
304.40740740740745
20
161.7037037037037
30
0
11
302.7777777777778
21
160.55555555555554
31
0
0
LINE
8
ELEC-SWITCH
10
301.14814814814815
20
159.4074074074074
30
0
11
299.5185185185186
21
158.25925925925924
31
0
0
LINE
8
ELEC-SWITCH
10
297.8888888888889
20
157.1111111111111
30
0
11
296.2592592592593
21
155.96296296296293
31
0
0
LINE
8
ELEC-SWITCH
10
294.6296296296297
20
154.81481481481478
30
0
11
293.00000000000006
21
153.66666666666663
31
0
0
LINE
8
ELEC-SWITCH
10
291.37037037037044
20
152.51851851851848
30
0
11
289.74074074074076
21
151.37037037037032
31
0
0
LINE
8
ELEC-SWITCH
10
288.11111111111114
20
150.22222222222223
30
0
11
286.4814814814815
21
149.07407407407408
31
0
0
LINE
8
ELEC-SWITCH
10
284.8518518518519
20
147.92592592592592
30
0
11
283.2222222222223
21
146.77777777777777
31
0
0
LINE
8
ELEC-SWITCH
10
281.5925925925926
20
145.62962962962962
30
0
11
279.962962962963
21
144.48148148148147
31
0
0
LINE
8
ELEC-SWITCH
10
83.0
20
205.33333333333334
30
0
11
83.45098039215686
21
203.41176470588238
31
0
0
LINE
8
ELEC-SWITCH
10
83.90196078431373
20
201.49019607843138
30
0
11
84.3529411764706
21
199.5686274509804
31
0
0
LINE
8
ELEC-SWITCH
10
84.80392156862746
20
197.64705882352942
30
0
11
85.25490196078431
21
195.72549019607845
31
0
0
LINE
8
ELEC-SWITCH
10
85.70588235294117
20
193.80392156862746
30
0
11
86.15686274509804
21
191.88235294117646
31
0
0
LINE
8
ELEC-SWITCH
10
86.6078431372549
20
189.9607843137255
30
0
11
87.05882352941177
21
188.03921568627453
31
0
0
LINE
8
ELEC-SWITCH
10
87.50980392156863
20
186.11764705882354
30
0
11
87.9607843137255
21
184.19607843137254
31
0
0
LINE
8
ELEC-SWITCH
10
88.41176470588236
20
182.27450980392157
30
0
11
88.86274509803923
21
180.3529411764706
31
0
0
LINE
8
ELEC-SWITCH
10
89.31372549019608
20
178.4313725490196
30
0
11
89.76470588235294
21
176.50980392156862
31
0
0
LINE
8
ELEC-SWITCH
10
90.2156862745098
20
174.58823529411765
30
0
11
90.66666666666667
21
172.66666666666669
31
0
0
LINE
8
ELEC-SWITCH
10
91.11764705882354
20
170.7450980392157
30
0
11
91.5686274509804
21
168.8235294117647
31
0
0
LINE
8
ELEC-SWITCH
10
92.01960784313727
20
166.90196078431373
30
0
11
92.47058823529413
21
164.98039215686276
31
0
0
LINE
8
ELEC-SWITCH
10
92.92156862745098
20
163.05882352941177
30
0
11
93.37254901960785
21
161.13725490196077
31
0
0
LINE
8
ELEC-SWITCH
10
93.82352941176471
20
159.21568627450984
30
0
11
94.27450980392157
21
157.29411764705884
31
0
0
LINE
8
ELEC-SWITCH
10
94.72549019607844
20
155.37254901960785
30
0
11
95.1764705882353
21
153.45098039215685
31
0
0
LINE
8
ELEC-SWITCH
10
95.62745098039217
20
151.52941176470586
30
0
11
96.07843137254903
21
149.60784313725492
31
0
0
LINE
8
ELEC-SWITCH
10
96.52941176470588
20
147.68627450980392
30
0
11
96.98039215686275
21
145.76470588235293
31
0
0
LINE
8
ELEC-SWITCH
10
97.43137254901961
20
143.843137254902
30
0
11
97.88235294117648
21
141.921568627451
31
0
0
LINE
8
ELEC-SWITCH
10
83.0
20
205.33333333333334
30
0
11
84.02222222222223
21
203.64444444444445
31
0
0
LINE
8
ELEC-SWITCH
10
85.04444444444445
20
201.95555555555558
30
0
11
86.06666666666666
21
200.26666666666668
31
0
0
LINE
8
ELEC-SWITCH
10
87.08888888888889
20
198.57777777777778
30
0
11
88.11111111111111
21
196.88888888888889
31
0
0
LINE
8
ELEC-SWITCH
10
89.13333333333334
20
195.20000000000002
30
0
11
90.15555555555557
21
193.51111111111112
31
0
0
LINE
8
ELEC-SWITCH
10
91.17777777777778
20
191.82222222222222
30
0
11
92.2
21
190.13333333333333
31
0
0
LINE
8
ELEC-SWITCH
10
93.22222222222223
20
188.44444444444446
30
0
11
94.24444444444445
21
186.75555555555556
31
0
0
LINE
8
ELEC-SWITCH
10
95.26666666666668
20
185.06666666666666
30
0
11
96.28888888888889
21
183.37777777777777
31
0
0
LINE
8
ELEC-SWITCH
10
97.31111111111112
20
181.6888888888889
30
0
11
98.33333333333334
21
180.0
31
0
0
LINE
8
ELEC-SWITCH
10
163.0
20
240.66666666666669
30
0
11
164.23809523809524
21
242.00000000000003
31
0
0
LINE
8
ELEC-SWITCH
10
165.47619047619048
20
243.33333333333334
30
0
11
166.71428571428572
21
244.66666666666669
31
0
0
LINE
8
ELEC-SWITCH
10
167.95238095238096
20
246.0
30
0
11
169.1904761904762
21
247.33333333333334
31
0
0
LINE
8
ELEC-SWITCH
10
170.42857142857144
20
248.66666666666666
30
0
11
171.66666666666669
21
250.0
31
0
0
LINE
8
ELEC-SWITCH
10
216.33333333333334
20
240.66666666666669
30
0
11
217.57142857142858
21
242.00000000000003
31
0
0
LINE
8
ELEC-SWITCH
10
218.80952380952382
20
243.33333333333334
30
0
11
220.04761904761907
21
244.66666666666669
31
0
0
LINE
8
ELEC-SWITCH
10
221.28571428571428
20
246.0
30
0
11
222.52380952380952
21
247.33333333333334
31
0
0
LINE
8
ELEC-SWITCH
10
223.76190476190476
20
248.66666666666666
30
0
11
225.0
21
250.0
31
0
0
LINE
8
ELEC-SWITCH
10
269.6666666666667
20
240.66666666666669
30
0
11
270.9047619047619
21
242.00000000000003
31
0
0
LINE
8
ELEC-SWITCH
10
272.14285714285717
20
243.33333333333334
30
0
11
273.3809523809524
21
244.66666666666669
31
0
0
LINE
8
ELEC-SWITCH
10
274.61904761904765
20
246.0
30
0
11
275.8571428571429
21
247.33333333333334
31
0
0
LINE
8
ELEC-SWITCH
10
277.09523809523813
20
248.66666666666666
30
0
11
278.33333333333337
21
250.0
31
0
0
LINE
8
ELEC-SWITCH
10
349.6666666666667
20
240.66666666666669
30
0
11
351.3703703703704
21
241.70370370370372
31
0
0
LINE
8
ELEC-SWITCH
10
353.0740740740741
20
242.74074074074076
30
0
11
354.77777777777777
21
243.7777777777778
31
0
0
LINE
8
ELEC-SWITCH
10
356.48148148148147
20
244.81481481481484
30
0
11
358.1851851851852
21
245.85185185185185
31
0
0
LINE
8
ELEC-SWITCH
10
359.8888888888889
20
246.88888888888889
30
0
11
361.5925925925926
21
247.92592592592592
31
0
0
LINE
8
ELEC-SWITCH
10
363.2962962962963
20
248.96296296296296
30
0
11
365.0
21
250.0
31
0
0
LINE
8
ELEC-SWITCH
10
389.6666666666667
20
240.66666666666669
30
0
11
391.3703703703704
21
241.70370370370372
31
0
0
LINE
8
ELEC-SWITCH
10
393.0740740740741
20
242.74074074074076
30
0
11
394.77777777777777
21
243.7777777777778
31
0
0
LINE
8
ELEC-SWITCH
10
396.48148148148147
20
244.81481481481484
30
0
11
398.1851851851852
21
245.85185185185185
31
0
0
LINE
8
ELEC-SWITCH
10
399.8888888888889
20
246.88888888888889
30
0
11
401.5925925925926
21
247.92592592592592
31
0
0
LINE
8
ELEC-SWITCH
10
403.2962962962963
20
248.96296296296296
30
0
11
405.0
21
250.0
31
0
0
LINE
8
ELEC-SWITCH
10
136.33333333333331
20
240.66666666666669
30
0
11
137.2
21
242.26666666666668
31
0
0
LINE
8
ELEC-SWITCH
10
138.06666666666666
20
243.86666666666667
30
0
11
138.9333333333333
21
245.4666666666667
31
0
0
LINE
8
ELEC-SWITCH
10
139.79999999999998
20
247.0666666666667
30
0
11
140.66666666666666
21
248.66666666666669
31
0
0
LINE
8
ELEC-SWITCH
10
141.53333333333333
20
250.26666666666668
30
0
11
142.4
21
251.86666666666667
31
0
0
LINE
8
ELEC-SWITCH
10
143.26666666666665
20
253.4666666666667
30
0
11
144.13333333333333
21
255.0666666666667
31
0
0
LINE
8
ELEC-SWITCH
10
29.666666666666668
20
240.66666666666669
30
0
11
31.37037037037037
21
241.70370370370372
31
0
0
LINE
8
ELEC-SWITCH
10
33.074074074074076
20
242.74074074074076
30
0
11
34.77777777777778
21
243.7777777777778
31
0
0
LINE
8
ELEC-SWITCH
10
36.48148148148148
20
244.81481481481484
30
0
11
38.18518518518518
21
245.85185185185185
31
0
0
LINE
8
ELEC-SWITCH
10
39.888888888888886
20
246.88888888888889
30
0
11
41.592592592592595
21
247.92592592592592
31
0
0
LINE
8
ELEC-SWITCH
10
43.2962962962963
20
248.96296296296296
30
0
11
45.0
21
250.0
31
0
0
LINE
8
ELEC-SWITCH
10
69.66666666666667
20
240.66666666666669
30
0
11
71.37037037037038
21
241.70370370370372
31
0
0
LINE
8
ELEC-SWITCH
10
73.07407407407408
20
242.74074074074076
30
0
11
74.77777777777779
21
243.7777777777778
31
0
0
LINE
8
ELEC-SWITCH
10
76.48148148148148
20
244.81481481481484
30
0
11
78.18518518518519
21
245.85185185185185
31
0
0
LINE
8
ELEC-SWITCH
10
79.88888888888889
20
246.88888888888889
30
0
11
81.5925925925926
21
247.92592592592592
31
0
0
LINE
8
ELEC-SWITCH
10
83.2962962962963
20
248.96296296296296
30
0
11
85.0
21
250.0
31
0
0
LINE
8
ELEC-SWITCH
10
109.66666666666667
20
240.66666666666669
30
0
11
110.53333333333333
21
242.26666666666668
31
0
0
LINE
8
ELEC-SWITCH
10
111.4
20
243.86666666666667
30
0
11
112.26666666666668
21
245.4666666666667
31
0
0
LINE
8
ELEC-SWITCH
10
113.13333333333334
20
247.0666666666667
30
0
11
114.0
21
248.66666666666669
31
0
0
LINE
8
ELEC-SWITCH
10
114.86666666666667
20
250.26666666666668
30
0
11
115.73333333333335
21
251.86666666666667
31
0
0
LINE
8
ELEC-SWITCH
10
116.60000000000001
20
253.4666666666667
30
0
11
117.46666666666667
21
255.0666666666667
31
0
0
LINE
8
ELEC-SWITCH
10
38.333333333333336
20
214.0
30
0
11
39.44444444444444
21
215.55555555555554
31
0
0
LINE
8
ELEC-SWITCH
10
40.55555555555556
20
217.11111111111111
30
0
11
41.66666666666667
21
218.66666666666669
31
0
0
LINE
8
ELEC-SWITCH
10
42.77777777777778
20
220.22222222222223
30
0
11
43.888888888888886
21
221.77777777777777
31
0
0
LINE
8
ELEC-SWITCH
10
31.666666666666668
20
204.66666666666669
30
0
11
32.27272727272727
21
202.80808080808083
31
0
0
LINE
8
ELEC-SWITCH
10
32.87878787878788
20
200.94949494949498
30
0
11
33.484848484848484
21
199.0909090909091
31
0
0
LINE
8
ELEC-SWITCH
10
34.09090909090909
20
197.23232323232324
30
0
11
34.696969696969695
21
195.37373737373738
31
0
0
LINE
8
ELEC-SWITCH
10
35.303030303030305
20
193.51515151515153
30
0
11
35.909090909090914
21
191.65656565656568
31
0
0
LINE
8
ELEC-SWITCH
10
36.515151515151516
20
189.79797979797982
30
0
11
37.121212121212125
21
187.93939393939394
31
0
0
LINE
8
ELEC-SWITCH
10
37.72727272727273
20
186.08080808080808
30
0
11
38.333333333333336
21
184.22222222222223
31
0
0
LINE
8
ELEC-SWITCH
10
38.939393939393945
20
182.36363636363637
30
0
11
39.54545454545455
21
180.50505050505052
31
0
0
LINE
8
ELEC-SWITCH
10
40.151515151515156
20
178.64646464646466
30
0
11
40.757575757575765
21
176.78787878787878
31
0
0
LINE
8
ELEC-SWITCH
10
41.36363636363637
20
174.92929292929293
30
0
11
41.96969696969697
21
173.07070707070707
31
0
0
LINE
8
ELEC-SWITCH
10
42.57575757575758
20
171.21212121212122
30
0
11
43.18181818181819
21
169.35353535353536
31
0
0
LINE
8
ELEC-SWITCH
10
43.78787878787879
20
167.49494949494948
30
0
11
44.3939393939394
21
165.63636363636363
31
0
0
LINE
8
ELEC-SWITCH
10
45.0
20
163.77777777777777
30
0
11
45.60606060606061
21
161.91919191919192
31
0
0
LINE
8
ELEC-SWITCH
10
46.21212121212122
20
160.06060606060606
30
0
11
46.81818181818183
21
158.2020202020202
31
0
0
LINE
8
ELEC-SWITCH
10
47.42424242424243
20
156.34343434343435
30
0
11
48.03030303030303
21
154.4848484848485
31
0
0
LINE
8
ELEC-SWITCH
10
48.63636363636364
20
152.6262626262626
30
0
11
49.24242424242425
21
150.76767676767673
31
0
0
LINE
8
ELEC-SWITCH
10
49.84848484848486
20
148.90909090909088
30
0
11
50.45454545454546
21
147.05050505050502
31
0
0
LINE
8
ELEC-SWITCH
10
51.06060606060606
20
145.19191919191917
30
0
11
51.66666666666667
21
143.33333333333331
31
0
0
LINE
8
ELEC-SWITCH
10
378.33333333333337
20
204.66666666666669
30
0
11
378.939393939394
21
202.80808080808083
31
0
0
LINE
8
ELEC-SWITCH
10
379.54545454545456
20
200.94949494949498
30
0
11
380.1515151515152
21
199.0909090909091
31
0
0
LINE
8
ELEC-SWITCH
10
380.7575757575758
20
197.23232323232324
30
0
11
381.3636363636364
21
195.37373737373738
31
0
0
LINE
8
ELEC-SWITCH
10
381.969696969697
20
193.51515151515153
30
0
11
382.5757575757576
21
191.65656565656568
31
0
0
LINE
8
ELEC-SWITCH
10
383.18181818181824
20
189.79797979797982
30
0
11
383.7878787878788
21
187.93939393939394
31
0
0
LINE
8
ELEC-SWITCH
10
384.39393939393943
20
186.08080808080808
30
0
11
385.00000000000006
21
184.22222222222223
31
0
0
LINE
8
ELEC-SWITCH
10
385.6060606060606
20
182.36363636363637
30
0
11
386.21212121212125
21
180.50505050505052
31
0
0
LINE
8
ELEC-SWITCH
10
386.81818181818187
20
178.64646464646466
30
0
11
387.42424242424244
21
176.78787878787878
31
0
0
LINE
8
ELEC-SWITCH
10
388.03030303030306
20
174.92929292929293
30
0
11
388.6363636363637
21
173.07070707070707
31
0
0
LINE
8
ELEC-SWITCH
10
389.2424242424243
20
171.21212121212122
30
0
11
389.8484848484849
21
169.35353535353536
31
0
0
LINE
8
ELEC-SWITCH
10
390.4545454545455
20
167.49494949494948
30
0
11
391.0606060606061
21
165.63636363636363
31
0
0
LINE
8
ELEC-SWITCH
10
391.6666666666667
20
163.77777777777777
30
0
11
392.2727272727273
21
161.91919191919192
31
0
0
LINE
8
ELEC-SWITCH
10
392.87878787878793
20
160.06060606060606
30
0
11
393.4848484848485
21
158.2020202020202
31
0
0
LINE
8
ELEC-SWITCH
10
394.0909090909091
20
156.34343434343435
30
0
11
394.69696969696975
21
154.4848484848485
31
0
0
LINE
8
ELEC-SWITCH
10
395.30303030303037
20
152.6262626262626
30
0
11
395.90909090909093
21
150.76767676767673
31
0
0
LINE
8
ELEC-SWITCH
10
396.51515151515156
20
148.90909090909088
30
0
11
397.1212121212122
21
147.05050505050502
31
0
0
LINE
8
ELEC-SWITCH
10
397.72727272727275
20
145.19191919191917
30
0
11
398.33333333333337
21
143.33333333333331
31
0
0
TEXT
8
ELEC-TEXT
10
457
20
255
30
0
40
3.1
1
LIGHTING CIRCUITS
7
STANDARD
41
0.85
0
TEXT
8
ELEC-TEXT
10
457
20
245
30
0
40
2.7
1
GF-L01  435 W
7
STANDARD
41
0.85
0
TEXT
8
ELEC-TEXT
10
457
20
239
30
0
40
2.25
1
Open office west
7
STANDARD
41
0.85
0
TEXT
8
ELEC-TEXT
10
457
20
231
30
0
40
2.7
1
GF-L02  438 W
7
STANDARD
41
0.85
0
TEXT
8
ELEC-TEXT
10
457
20
225
30
0
40
2.25
1
Open office east
7
STANDARD
41
0.85
0
TEXT
8
ELEC-TEXT
10
457
20
217
30
0
40
2.7
1
GF-L03  294 W
7
STANDARD
41
0.85
0
TEXT
8
ELEC-TEXT
10
457
20
211
30
0
40
2.25
1
Reception / waiting
7
STANDARD
41
0.85
0
TEXT
8
ELEC-TEXT
10
457
20
203
30
0
40
2.7
1
GF-L04  432 W
7
STANDARD
41
0.85
0
TEXT
8
ELEC-TEXT
10
457
20
197
30
0
40
2.25
1
Meeting rooms
7
STANDARD
41
0.85
0
TEXT
8
ELEC-TEXT
10
457
20
189
30
0
40
2.7
1
GF-L05  516 W
7
STANDARD
41
0.85
0
TEXT
8
ELEC-TEXT
10
457
20
183
30
0
40
2.25
1
Kitchen / toilets
7
STANDARD
41
0.85
0
TEXT
8
ELEC-TEXT
10
457
20
175
30
0
40
2.7
1
GF-L06  192 W
7
STANDARD
41
0.85
0
TEXT
8
ELEC-TEXT
10
457
20
169
30
0
40
2.25
1
Service rooms
7
STANDARD
41
0.85
0
TEXT
8
ELEC-TEXT
10
457
20
161
30
0
40
2.7
1
GF-L07  264 W
7
STANDARD
41
0.85
0
TEXT
8
ELEC-TEXT
10
457
20
155
30
0
40
2.25
1
Corridor
7
STANDARD
41
0.85
0
TEXT
8
ELEC-TEXT
10
457
20
147
30
0
40
2.7
1
GF-L08  168 W
7
STANDARD
41
0.85
0
TEXT
8
ELEC-TEXT
10
457
20
141
30
0
40
2.25
1
Both stairs
7
STANDARD
41
0.85
0
LINE
8
SHEET
10
448
20
360
30
0
11
448
21
55
31
0
0
TEXT
8
ELEC-TEXT
10
457
20
352
30
0
40
3.3
1
DRAWING NOTES
7
STANDARD
41
0.85
0
TEXT
8
ELEC-TEXT
10
457
20
342.0
30
0
40
2.6
1
LP: 36 W / 4500 lm LED panel.
7
STANDARD
41
0.85
0
TEXT
8
ELEC-TEXT
10
457
20
336.5
30
0
40
2.6
1
LB: 24 W / 2800 lm LED batten.
7
STANDARD
41
0.85
0
TEXT
8
ELEC-TEXT
10
457
20
331.0
30
0
40
2.6
1
Fixture tag Nxxx takes floor
7
STANDARD
41
0.85
0
TEXT
8
ELEC-TEXT
10
457
20
325.5
30
0
40
2.6
1
prefix GF (example GF-N001).
7
STANDARD
41
0.85
0
TEXT
8
ELEC-TEXT
10
457
20
320.0
30
0
40
2.6
1
Switch labels show circuit.
7
STANDARD
41
0.85
0
TEXT
8
ELEC-TEXT
10
457
20
314.5
30
0
40
2.6
1
See fixture register for mapping.
7
STANDARD
41
0.85
0
TEXT
8
ELEC-TEXT
10
457
20
309.0
30
0
40
2.6
1
Dashed lines: control intent.
7
STANDARD
41
0.85
0
TEXT
8
ELEC-TEXT
10
457
20
303.5
30
0
40
2.6
1
Switching never interrupts
7
STANDARD
41
0.85
0
TEXT
8
ELEC-TEXT
10
457
20
298.0
30
0
40
2.6
1
emergency charge/sense feeds.
7
STANDARD
41
0.85
0
TEXT
8
ELEC-TEXT
10
457
20
292.5
30
0
40
2.6
1
Two-way / sensor control at stairs.
7
STANDARD
41
0.85
0
TEXT
8
ELEC-TEXT
10
457
20
287.0
30
0
40
2.6
1
Emergency devices on E-301.
7
STANDARD
41
0.85
0
TEXT
8
ELEC-TEXT
10
457
20
281.5
30
0
40
2.6
1
Grid is preliminary; see lumen
7
STANDARD
41
0.85
0
TEXT
8
ELEC-TEXT
10
457
20
276.0
30
0
40
2.6
1
method in engineering report.
7
STANDARD
41
0.85
0
TEXT
8
ELEC-TEXT
10
457
20
116
30
0
40
2.6
1
All circuits: 10 A RCBO
7
STANDARD
41
0.85
0
TEXT
8
ELEC-TEXT
10
457
20
110
30
0
40
2.4
1
1.5 mm2 Cu + PE (provisional)
7
STANDARD
41
0.85
0
TEXT
8
ELEC-TEXT
10
25
20
101
30
0
40
3
1
ROOM KEY
7
STANDARD
41
0.85
0
TEXT
8
ELEC-TEXT
10
25
20
93
30
0
40
2.45
1
ELEC  Electrical
7
STANDARD
41
0.85
0
TEXT
8
ELEC-TEXT
10
164
20
93
30
0
40
2.45
1
COM  Communications
7
STANDARD
41
0.85
0
TEXT
8
ELEC-TEXT
10
303
20
93
30
0
40
2.45
1
STO  Storage
7
STANDARD
41
0.85
0
TEXT
8
ELEC-TEXT
10
25
20
87
30
0
40
2.45
1
ACC  Accessible WC
7
STANDARD
41
0.85
0
TEXT
8
ELEC-TEXT
10
164
20
87
30
0
40
2.45
1
MT1  Meeting 1
7
STANDARD
41
0.85
0
TEXT
8
ELEC-TEXT
10
303
20
87
30
0
40
2.45
1
MT2  Meeting 2
7
STANDARD
41
0.85
0
TEXT
8
ELEC-TEXT
10
25
20
81
30
0
40
2.45
1
KIT  Kitchen / break
7
STANDARD
41
0.85
0
TEXT
8
ELEC-TEXT
10
164
20
81
30
0
40
2.45
1
M WC  Male WC
7
STANDARD
41
0.85
0
TEXT
8
ELEC-TEXT
10
303
20
81
30
0
40
2.45
1
F WC  Female WC
7
STANDARD
41
0.85
0
TEXT
8
ELEC-TEXT
10
25
20
75
30
0
40
2.45
1
ST1  Stair 1
7
STANDARD
41
0.85
0
TEXT
8
ELEC-TEXT
10
164
20
75
30
0
40
2.45
1
REC  Reception
7
STANDARD
41
0.85
0
TEXT
8
ELEC-TEXT
10
303
20
75
30
0
40
2.45
1
WAIT  Waiting
7
STANDARD
41
0.85
0
TEXT
8
ELEC-TEXT
10
25
20
69
30
0
40
2.45
1
OPEN  Open office
7
STANDARD
41
0.85
0
TEXT
8
ELEC-TEXT
10
164
20
69
30
0
40
2.45
1
ST2  Stair 2
7
STANDARD
41
0.85
0
LINE
8
SHEET
10
10
20
410
30
0
11
584
21
410
31
0
0
LINE
8
SHEET
10
584
20
410
30
0
11
584
21
10
31
0
0
LINE
8
SHEET
10
584
20
10
30
0
11
10
21
10
31
0
0
LINE
8
SHEET
10
10
20
10
30
0
11
10
21
410
31
0
0
LINE
8
SHEET
10
10
20
372
30
0
11
584
21
372
31
0
0
TEXT
8
ELEC-TEXT
10
20
20
394
30
0
40
6
1
NORTHBANK OFFICE
7
STANDARD
41
0.85
0
TEXT
8
ELEC-TEXT
10
20
20
381
30
0
40
4
1
GROUND FLOOR LIGHTING
7
STANDARD
41
0.85
0
TEXT
8
ELEC-TEXT
10
456
20
395
30
0
40
3
1
ELECTRICAL PORTFOLIO
7
STANDARD
41
0.85
0
TEXT
8
ELEC-TEXT
10
456
20
386
30
0
40
2.8
1
CONCEPT DESIGN  /  REV A
7
STANDARD
41
0.85
0
TEXT
8
ELEC-TEXT
10
456
20
378
30
0
40
2.5
1
NOT FOR CONSTRUCTION
7
STANDARD
41
0.85
0
LINE
8
SHEET
10
10
20
38
30
0
11
584
21
38
31
0
0
LINE
8
SHEET
10
345
20
38
30
0
11
345
21
10
31
0
0
LINE
8
SHEET
10
480
20
38
30
0
11
480
21
10
31
0
0
TEXT
8
ELEC-TEXT
10
18
20
29
30
0
40
3.1
1
Two-Storey Commercial Office Electrical Design
7
STANDARD
41
0.85
0
TEXT
8
ELEC-TEXT
10
18
20
22
30
0
40
2.7
1
Designed by: Electrical Engineering Portfolio Project
7
STANDARD
41
0.85
0
TEXT
8
ELEC-TEXT
10
18
20
15
30
0
40
2.3
1
Educational exercise; not for construction, certification or regulatory approval.
7
STANDARD
41
0.85
0
TEXT
8
ELEC-TEXT
10
353
20
29
30
0
40
2.5
1
E-101  |  Ground floor lighting
7
STANDARD
41
0.85
0
TEXT
8
ELEC-TEXT
10
353
20
21
30
0
40
2.5
1
Scale: 1:75 at A2  |  Units: mm
7
STANDARD
41
0.85
0
TEXT
8
ELEC-TEXT
10
488
20
29
30
0
40
3
1
REV A
7
STANDARD
41
0.85
0
TEXT
8
ELEC-TEXT
10
488
20
21
30
0
40
2.7
1
2026-09-29
7
STANDARD
41
0.85
0
TEXT
8
ELEC-TEXT
10
488
20
14
30
0
40
2.3
1
Sheet size: 594 x 420 mm
7
STANDARD
41
0.85
0
ENDSEC
0
EOF
