0
SECTION
2
HEADER
9
$ACADVER
1
AC1009
9
$LUNITS
70
2
9
$LUPREC
70
2
9
$MEASUREMENT
70
1
9
$EXTMIN
10
0
20
0
30
0
9
$EXTMAX
10
594
20
420
30
0
0
ENDSEC
0
SECTION
2
TABLES
0
TABLE
2
LTYPE
70
1
0
LTYPE
2
CONTINUOUS
70
0
3
Continuous
72
65
73
0
40
0
0
ENDTAB
0
TABLE
2
LAYER
70
18
0
LAYER
2
0
70
0
62
7
6
CONTINUOUS
0
LAYER
2
ARCH-WALLS
70
0
62
8
6
CONTINUOUS
0
LAYER
2
ARCH-DOORS
70
0
62
8
6
CONTINUOUS
0
LAYER
2
ARCH-TEXT
70
0
62
8
6
CONTINUOUS
0
LAYER
2
ARCH-FURNITURE
70
0
62
8
6
CONTINUOUS
0
LAYER
2
ELEC-LIGHT
70
0
62
2
6
CONTINUOUS
0
LAYER
2
ELEC-EMERGENCY
70
0
62
3
6
CONTINUOUS
0
LAYER
2
ELEC-SWITCH
70
0
62
6
6
CONTINUOUS
0
LAYER
2
ELEC-POWER
70
0
62
4
6
CONTINUOUS
0
LAYER
2
ELEC-DEDICATED
70
0
62
1
6
CONTINUOUS
0
LAYER
2
ELEC-DB
70
0
62
1
6
CONTINUOUS
0
LAYER
2
ELEC-CABLE
70
0
62
5
6
CONTINUOUS
0
LAYER
2
ELEC-SLD
70
0
62
7
6
CONTINUOUS
0
LAYER
2
ELEC-SYMBOLS
70
0
62
7
6
CONTINUOUS
0
LAYER
2
ELEC-TEXT
70
0
62
7
6
CONTINUOUS
0
LAYER
2
ELEC-LIGHT-TEXT
70
0
62
2
6
CONTINUOUS
0
LAYER
2
ELEC-DIMENSIONS
70
0
62
8
6
CONTINUOUS
0
LAYER
2
SHEET
70
0
62
7
6
CONTINUOUS
0
ENDTAB
0
TABLE
2
STYLE
70
1
0
STYLE
2
STANDARD
70
0
40
0
41
1
50
0
71
0
42
2.5
3
standard
4

0
ENDTAB
0
ENDSEC
0
SECTION
2
BLOCKS
0
BLOCK
8
0
2
DB
70
0
10
0
20
0
30
0
3
DB
1

0
LINE
8
0
10
-4
20
3
30
0
11
4
21
3
31
0
0
LINE
8
0
10
4
20
3
30
0
11
4
21
-3
31
0
0
LINE
8
0
10
4
20
-3
30
0
11
-4
21
-3
31
0
0
LINE
8
0
10
-4
20
-3
30
0
11
-4
21
3
31
0
0
LINE
8
0
10
-4
20
3
30
0
11
4
21
-3
31
0
0
ENDBLK
8
0
0
BLOCK
8
0
2
GPO2
70
0
10
0
20
0
30
0
3
GPO2
1

0
CIRCLE
8
0
10
0
20
0
30
0
40
1.8
0
LINE
8
0
10
-2.5
20
2.5
30
0
11
2.5
21
2.5
31
0
0
LINE
8
0
10
-0.6
20
1
30
0
11
-0.6
21
-1
31
0
0
LINE
8
0
10
0.6
20
1
30
0
11
0.6
21
-1
31
0
0
ENDBLK
8
0
0
BLOCK
8
0
2
DED
70
0
10
0
20
0
30
0
3
DED
1

0
CIRCLE
8
0
10
0
20
0
30
0
40
1.8
0
LINE
8
0
10
-2.5
20
2.5
30
0
11
2.5
21
2.5
31
0
0
LINE
8
0
10
-0.6
20
1
30
0
11
-0.6
21
-1
31
0
0
LINE
8
0
10
0.6
20
1
30
0
11
0.6
21
-1
31
0
0
LINE
8
0
10
-3
20
3.5
30
0
11
3
21
3.5
31
0
0
LINE
8
0
10
3
20
3.5
30
0
11
3
21
-2.5
31
0
0
LINE
8
0
10
3
20
-2.5
30
0
11
-3
21
-2.5
31
0
0
LINE
8
0
10
-3
20
-2.5
30
0
11
-3
21
3.5
31
0
0
ENDBLK
8
0
0
BLOCK
8
0
2
LOAD3
70
0
10
0
20
0
30
0
3
LOAD3
1

0
LINE
8
0
10
-4
20
3
30
0
11
4
21
3
31
0
0
LINE
8
0
10
4
20
3
30
0
11
4
21
-3
31
0
0
LINE
8
0
10
4
20
-3
30
0
11
-4
21
-3
31
0
0
LINE
8
0
10
-4
20
-3
30
0
11
-4
21
3
31
0
0
TEXT
8
0
10
-2.8
20
-1
30
0
40
2
1
3~
7
STANDARD
41
0.85
0
ENDBLK
8
0
0
ENDSEC
0
SECTION
2
ENTITIES
0
LINE
8
ARCH-WALLS
10
25.0
20
130.0
30
0
11
25.0
21
316.6666666666667
31
0
0
LINE
8
ARCH-WALLS
10
425.0
20
130.0
30
0
11
425.0
21
316.6666666666667
31
0
0
LINE
8
ARCH-WALLS
10
25.0
20
316.6666666666667
30
0
11
425.0
21
316.6666666666667
31
0
0
LINE
8
ARCH-WALLS
10
25.0
20
130.0
30
0
11
425.0
21
130.0
31
0
0
LINE
8
ARCH-WALLS
10
25.0
20
236.66666666666669
30
0
11
39.0
21
236.66666666666669
31
0
0
LINE
8
ARCH-WALLS
10
51.0
20
236.66666666666669
30
0
11
65.0
21
236.66666666666669
31
0
0
LINE
8
ARCH-DOORS
10
39.0
20
236.66666666666669
30
0
11
39.0
21
248.66666666666669
31
0
0
LINE
8
ARCH-DOORS
10
51.0
20
236.66666666666669
30
0
11
50.85226008714166
21
238.54388024714945
31
0
0
LINE
8
ARCH-DOORS
10
50.85226008714166
20
238.54388024714945
30
0
11
50.412678195541844
21
240.37487059916603
31
0
0
LINE
8
ARCH-DOORS
10
50.412678195541844
20
240.37487059916603
30
0
11
49.69207829026041
21
242.11455266354122
31
0
0
LINE
8
ARCH-DOORS
10
49.69207829026041
20
242.11455266354122
30
0
11
48.70820393249937
21
243.72008969417635
31
0
0
LINE
8
ARCH-DOORS
10
48.70820393249937
20
243.72008969417635
30
0
11
47.48528137423857
21
245.15194804090527
31
0
0
LINE
8
ARCH-DOORS
10
47.48528137423857
20
245.15194804090527
30
0
11
46.05342302750968
21
246.37487059916606
31
0
0
LINE
8
ARCH-DOORS
10
46.05342302750968
20
246.37487059916606
30
0
11
44.44788599687456
21
247.35874495692707
31
0
0
LINE
8
ARCH-DOORS
10
44.44788599687456
20
247.35874495692707
30
0
11
42.70820393249937
21
248.07934486220853
31
0
0
LINE
8
ARCH-DOORS
10
42.70820393249937
20
248.07934486220853
30
0
11
40.877213580482774
21
248.51892675380833
31
0
0
LINE
8
ARCH-DOORS
10
40.877213580482774
20
248.51892675380833
30
0
11
39.0
21
248.66666666666669
31
0
0
LINE
8
ARCH-WALLS
10
65.0
20
236.66666666666669
30
0
11
72.33333333333334
21
236.66666666666669
31
0
0
LINE
8
ARCH-WALLS
10
84.33333333333334
20
236.66666666666669
30
0
11
91.66666666666667
21
236.66666666666669
31
0
0
LINE
8
ARCH-DOORS
10
72.33333333333334
20
236.66666666666669
30
0
11
72.33333333333334
21
248.66666666666669
31
0
0
LINE
8
ARCH-DOORS
10
84.33333333333334
20
236.66666666666669
30
0
11
84.18559342047499
21
238.54388024714945
31
0
0
LINE
8
ARCH-DOORS
10
84.18559342047499
20
238.54388024714945
30
0
11
83.74601152887517
21
240.37487059916603
31
0
0
LINE
8
ARCH-DOORS
10
83.74601152887517
20
240.37487059916603
30
0
11
83.02541162359375
21
242.11455266354122
31
0
0
LINE
8
ARCH-DOORS
10
83.02541162359375
20
242.11455266354122
30
0
11
82.04153726583272
21
243.72008969417635
31
0
0
LINE
8
ARCH-DOORS
10
82.04153726583272
20
243.72008969417635
30
0
11
80.8186147075719
21
245.15194804090527
31
0
0
LINE
8
ARCH-DOORS
10
80.8186147075719
20
245.15194804090527
30
0
11
79.38675636084301
21
246.37487059916606
31
0
0
LINE
8
ARCH-DOORS
10
79.38675636084301
20
246.37487059916606
30
0
11
77.7812193302079
21
247.35874495692707
31
0
0
LINE
8
ARCH-DOORS
10
77.7812193302079
20
247.35874495692707
30
0
11
76.0415372658327
21
248.07934486220853
31
0
0
LINE
8
ARCH-DOORS
10
76.0415372658327
20
248.07934486220853
30
0
11
74.2105469138161
21
248.51892675380833
31
0
0
LINE
8
ARCH-DOORS
10
74.2105469138161
20
248.51892675380833
30
0
11
72.33333333333334
21
248.66666666666669
31
0
0
LINE
8
ARCH-WALLS
10
65.0
20
236.66666666666669
30
0
11
65.0
21
316.6666666666667
31
0
0
LINE
8
ARCH-WALLS
10
91.66666666666667
20
236.66666666666669
30
0
11
105.66666666666667
21
236.66666666666669
31
0
0
LINE
8
ARCH-WALLS
10
117.66666666666667
20
236.66666666666669
30
0
11
131.66666666666669
21
236.66666666666669
31
0
0
LINE
8
ARCH-DOORS
10
105.66666666666667
20
236.66666666666669
30
0
11
105.66666666666667
21
248.66666666666669
31
0
0
LINE
8
ARCH-DOORS
10
117.66666666666667
20
236.66666666666669
30
0
11
117.51892675380832
21
238.54388024714945
31
0
0
LINE
8
ARCH-DOORS
10
117.51892675380832
20
238.54388024714945
30
0
11
117.0793448622085
21
240.37487059916603
31
0
0
LINE
8
ARCH-DOORS
10
117.0793448622085
20
240.37487059916603
30
0
11
116.35874495692708
21
242.11455266354122
31
0
0
LINE
8
ARCH-DOORS
10
116.35874495692708
20
242.11455266354122
30
0
11
115.37487059916604
21
243.72008969417635
31
0
0
LINE
8
ARCH-DOORS
10
115.37487059916604
20
243.72008969417635
30
0
11
114.15194804090524
21
245.15194804090527
31
0
0
LINE
8
ARCH-DOORS
10
114.15194804090524
20
245.15194804090527
30
0
11
112.72008969417634
21
246.37487059916606
31
0
0
LINE
8
ARCH-DOORS
10
112.72008969417634
20
246.37487059916606
30
0
11
111.11455266354123
21
247.35874495692707
31
0
0
LINE
8
ARCH-DOORS
10
111.11455266354123
20
247.35874495692707
30
0
11
109.37487059916604
21
248.07934486220853
31
0
0
LINE
8
ARCH-DOORS
10
109.37487059916604
20
248.07934486220853
30
0
11
107.54388024714945
21
248.51892675380833
31
0
0
LINE
8
ARCH-DOORS
10
107.54388024714945
20
248.51892675380833
30
0
11
105.66666666666667
21
248.66666666666669
31
0
0
LINE
8
ARCH-WALLS
10
91.66666666666667
20
236.66666666666669
30
0
11
91.66666666666667
21
316.6666666666667
31
0
0
LINE
8
ARCH-WALLS
10
131.66666666666669
20
236.66666666666669
30
0
11
145.66666666666669
21
236.66666666666669
31
0
0
LINE
8
ARCH-WALLS
10
157.66666666666669
20
236.66666666666669
30
0
11
171.66666666666669
21
236.66666666666669
31
0
0
LINE
8
ARCH-DOORS
10
145.66666666666669
20
236.66666666666669
30
0
11
145.66666666666669
21
248.66666666666669
31
0
0
LINE
8
ARCH-DOORS
10
157.66666666666669
20
236.66666666666669
30
0
11
157.51892675380833
21
238.54388024714945
31
0
0
LINE
8
ARCH-DOORS
10
157.51892675380833
20
238.54388024714945
30
0
11
157.07934486220853
21
240.37487059916603
31
0
0
LINE
8
ARCH-DOORS
10
157.07934486220853
20
240.37487059916603
30
0
11
156.3587449569271
21
242.11455266354122
31
0
0
LINE
8
ARCH-DOORS
10
156.3587449569271
20
242.11455266354122
30
0
11
155.37487059916606
21
243.72008969417635
31
0
0
LINE
8
ARCH-DOORS
10
155.37487059916606
20
243.72008969417635
30
0
11
154.15194804090527
21
245.15194804090527
31
0
0
LINE
8
ARCH-DOORS
10
154.15194804090527
20
245.15194804090527
30
0
11
152.72008969417635
21
246.37487059916606
31
0
0
LINE
8
ARCH-DOORS
10
152.72008969417635
20
246.37487059916606
30
0
11
151.11455266354125
21
247.35874495692707
31
0
0
LINE
8
ARCH-DOORS
10
151.11455266354125
20
247.35874495692707
30
0
11
149.37487059916606
21
248.07934486220853
31
0
0
LINE
8
ARCH-DOORS
10
149.37487059916606
20
248.07934486220853
30
0
11
147.54388024714945
21
248.51892675380833
31
0
0
LINE
8
ARCH-DOORS
10
147.54388024714945
20
248.51892675380833
30
0
11
145.66666666666669
21
248.66666666666669
31
0
0
LINE
8
ARCH-WALLS
10
131.66666666666669
20
236.66666666666669
30
0
11
131.66666666666669
21
316.6666666666667
31
0
0
LINE
8
ARCH-WALLS
10
171.66666666666669
20
236.66666666666669
30
0
11
205.66666666666669
21
236.66666666666669
31
0
0
LINE
8
ARCH-WALLS
10
217.66666666666669
20
236.66666666666669
30
0
11
251.66666666666669
21
236.66666666666669
31
0
0
LINE
8
ARCH-DOORS
10
205.66666666666669
20
236.66666666666669
30
0
11
205.66666666666669
21
248.66666666666669
31
0
0
LINE
8
ARCH-DOORS
10
217.66666666666669
20
236.66666666666669
30
0
11
217.51892675380833
21
238.54388024714945
31
0
0
LINE
8
ARCH-DOORS
10
217.51892675380833
20
238.54388024714945
30
0
11
217.07934486220853
21
240.37487059916603
31
0
0
LINE
8
ARCH-DOORS
10
217.07934486220853
20
240.37487059916603
30
0
11
216.3587449569271
21
242.11455266354122
31
0
0
LINE
8
ARCH-DOORS
10
216.3587449569271
20
242.11455266354122
30
0
11
215.37487059916606
21
243.72008969417635
31
0
0
LINE
8
ARCH-DOORS
10
215.37487059916606
20
243.72008969417635
30
0
11
214.15194804090527
21
245.15194804090527
31
0
0
LINE
8
ARCH-DOORS
10
214.15194804090527
20
245.15194804090527
30
0
11
212.72008969417638
21
246.37487059916606
31
0
0
LINE
8
ARCH-DOORS
10
212.72008969417638
20
246.37487059916606
30
0
11
211.11455266354125
21
247.35874495692707
31
0
0
LINE
8
ARCH-DOORS
10
211.11455266354125
20
247.35874495692707
30
0
11
209.37487059916603
21
248.07934486220853
31
0
0
LINE
8
ARCH-DOORS
10
209.37487059916603
20
248.07934486220853
30
0
11
207.54388024714945
21
248.51892675380833
31
0
0
LINE
8
ARCH-DOORS
10
207.54388024714945
20
248.51892675380833
30
0
11
205.66666666666669
21
248.66666666666669
31
0
0
LINE
8
ARCH-WALLS
10
171.66666666666669
20
236.66666666666669
30
0
11
171.66666666666669
21
316.6666666666667
31
0
0
LINE
8
ARCH-WALLS
10
251.66666666666669
20
236.66666666666669
30
0
11
272.33333333333337
21
236.66666666666669
31
0
0
LINE
8
ARCH-WALLS
10
284.3333333333333
20
236.66666666666669
30
0
11
305.0
21
236.66666666666669
31
0
0
LINE
8
ARCH-DOORS
10
272.33333333333337
20
236.66666666666669
30
0
11
272.33333333333337
21
248.66666666666669
31
0
0
LINE
8
ARCH-DOORS
10
284.3333333333333
20
236.66666666666669
30
0
11
284.185593420475
21
238.54388024714945
31
0
0
LINE
8
ARCH-DOORS
10
284.185593420475
20
238.54388024714945
30
0
11
283.74601152887516
21
240.37487059916603
31
0
0
LINE
8
ARCH-DOORS
10
283.74601152887516
20
240.37487059916603
30
0
11
283.02541162359375
21
242.11455266354122
31
0
0
LINE
8
ARCH-DOORS
10
283.02541162359375
20
242.11455266354122
30
0
11
282.04153726583274
21
243.72008969417635
31
0
0
LINE
8
ARCH-DOORS
10
282.04153726583274
20
243.72008969417635
30
0
11
280.8186147075719
21
245.15194804090527
31
0
0
LINE
8
ARCH-DOORS
10
280.8186147075719
20
245.15194804090527
30
0
11
279.38675636084304
21
246.37487059916606
31
0
0
LINE
8
ARCH-DOORS
10
279.38675636084304
20
246.37487059916606
30
0
11
277.78121933020793
21
247.35874495692707
31
0
0
LINE
8
ARCH-DOORS
10
277.78121933020793
20
247.35874495692707
30
0
11
276.04153726583274
21
248.07934486220853
31
0
0
LINE
8
ARCH-DOORS
10
276.04153726583274
20
248.07934486220853
30
0
11
274.21054691381613
21
248.51892675380833
31
0
0
LINE
8
ARCH-DOORS
10
274.21054691381613
20
248.51892675380833
30
0
11
272.33333333333337
21
248.66666666666669
31
0
0
LINE
8
ARCH-WALLS
10
251.66666666666669
20
236.66666666666669
30
0
11
251.66666666666669
21
316.6666666666667
31
0
0
LINE
8
ARCH-WALLS
10
305.0
20
236.66666666666669
30
0
11
319.0
21
236.66666666666669
31
0
0
LINE
8
ARCH-WALLS
10
331.0
20
236.66666666666669
30
0
11
345.0
21
236.66666666666669
31
0
0
LINE
8
ARCH-DOORS
10
319.0
20
236.66666666666669
30
0
11
319.0
21
248.66666666666669
31
0
0
LINE
8
ARCH-DOORS
10
331.0
20
236.66666666666669
30
0
11
330.8522600871417
21
238.54388024714945
31
0
0
LINE
8
ARCH-DOORS
10
330.8522600871417
20
238.54388024714945
30
0
11
330.41267819554184
21
240.37487059916603
31
0
0
LINE
8
ARCH-DOORS
10
330.41267819554184
20
240.37487059916603
30
0
11
329.69207829026044
21
242.11455266354122
31
0
0
LINE
8
ARCH-DOORS
10
329.69207829026044
20
242.11455266354122
30
0
11
328.7082039324994
21
243.72008969417635
31
0
0
LINE
8
ARCH-DOORS
10
328.7082039324994
20
243.72008969417635
30
0
11
327.4852813742386
21
245.15194804090527
31
0
0
LINE
8
ARCH-DOORS
10
327.4852813742386
20
245.15194804090527
30
0
11
326.0534230275097
21
246.37487059916606
31
0
0
LINE
8
ARCH-DOORS
10
326.0534230275097
20
246.37487059916606
30
0
11
324.44788599687456
21
247.35874495692707
31
0
0
LINE
8
ARCH-DOORS
10
324.44788599687456
20
247.35874495692707
30
0
11
322.70820393249943
21
248.07934486220853
31
0
0
LINE
8
ARCH-DOORS
10
322.70820393249943
20
248.07934486220853
30
0
11
320.8772135804828
21
248.51892675380833
31
0
0
LINE
8
ARCH-DOORS
10
320.8772135804828
20
248.51892675380833
30
0
11
319.0
21
248.66666666666669
31
0
0
LINE
8
ARCH-WALLS
10
305.0
20
236.66666666666669
30
0
11
305.0
21
316.6666666666667
31
0
0
LINE
8
ARCH-WALLS
10
345.0
20
236.66666666666669
30
0
11
359.0
21
236.66666666666669
31
0
0
LINE
8
ARCH-WALLS
10
371.0
20
236.66666666666669
30
0
11
385.0
21
236.66666666666669
31
0
0
LINE
8
ARCH-DOORS
10
359.0
20
236.66666666666669
30
0
11
359.0
21
248.66666666666669
31
0
0
LINE
8
ARCH-DOORS
10
371.0
20
236.66666666666669
30
0
11
370.8522600871417
21
238.54388024714945
31
0
0
LINE
8
ARCH-DOORS
10
370.8522600871417
20
238.54388024714945
30
0
11
370.41267819554184
21
240.37487059916603
31
0
0
LINE
8
ARCH-DOORS
10
370.41267819554184
20
240.37487059916603
30
0
11
369.69207829026044
21
242.11455266354122
31
0
0
LINE
8
ARCH-DOORS
10
369.69207829026044
20
242.11455266354122
30
0
11
368.7082039324994
21
243.72008969417635
31
0
0
LINE
8
ARCH-DOORS
10
368.7082039324994
20
243.72008969417635
30
0
11
367.4852813742386
21
245.15194804090527
31
0
0
LINE
8
ARCH-DOORS
10
367.4852813742386
20
245.15194804090527
30
0
11
366.0534230275097
21
246.37487059916606
31
0
0
LINE
8
ARCH-DOORS
10
366.0534230275097
20
246.37487059916606
30
0
11
364.44788599687456
21
247.35874495692707
31
0
0
LINE
8
ARCH-DOORS
10
364.44788599687456
20
247.35874495692707
30
0
11
362.70820393249943
21
248.07934486220853
31
0
0
LINE
8
ARCH-DOORS
10
362.70820393249943
20
248.07934486220853
30
0
11
360.8772135804828
21
248.51892675380833
31
0
0
LINE
8
ARCH-DOORS
10
360.8772135804828
20
248.51892675380833
30
0
11
359.0
21
248.66666666666669
31
0
0
LINE
8
ARCH-WALLS
10
345.0
20
236.66666666666669
30
0
11
345.0
21
316.6666666666667
31
0
0
LINE
8
ARCH-WALLS
10
385.0
20
236.66666666666669
30
0
11
399.0
21
236.66666666666669
31
0
0
LINE
8
ARCH-WALLS
10
411.0
20
236.66666666666669
30
0
11
425.0
21
236.66666666666669
31
0
0
LINE
8
ARCH-DOORS
10
399.0
20
236.66666666666669
30
0
11
399.0
21
248.66666666666669
31
0
0
LINE
8
ARCH-DOORS
10
411.0
20
236.66666666666669
30
0
11
410.8522600871417
21
238.54388024714945
31
0
0
LINE
8
ARCH-DOORS
10
410.8522600871417
20
238.54388024714945
30
0
11
410.41267819554184
21
240.37487059916603
31
0
0
LINE
8
ARCH-DOORS
10
410.41267819554184
20
240.37487059916603
30
0
11
409.69207829026044
21
242.11455266354122
31
0
0
LINE
8
ARCH-DOORS
10
409.69207829026044
20
242.11455266354122
30
0
11
408.7082039324994
21
243.72008969417635
31
0
0
LINE
8
ARCH-DOORS
10
408.7082039324994
20
243.72008969417635
30
0
11
407.4852813742386
21
245.15194804090527
31
0
0
LINE
8
ARCH-DOORS
10
407.4852813742386
20
245.15194804090527
30
0
11
406.0534230275097
21
246.37487059916606
31
0
0
LINE
8
ARCH-DOORS
10
406.0534230275097
20
246.37487059916606
30
0
11
404.44788599687456
21
247.35874495692707
31
0
0
LINE
8
ARCH-DOORS
10
404.44788599687456
20
247.35874495692707
30
0
11
402.70820393249943
21
248.07934486220853
31
0
0
LINE
8
ARCH-DOORS
10
402.70820393249943
20
248.07934486220853
30
0
11
400.8772135804828
21
248.51892675380833
31
0
0
LINE
8
ARCH-DOORS
10
400.8772135804828
20
248.51892675380833
30
0
11
399.0
21
248.66666666666669
31
0
0
LINE
8
ARCH-WALLS
10
385.0
20
236.66666666666669
30
0
11
385.0
21
316.6666666666667
31
0
0
LINE
8
ARCH-WALLS
10
25.0
20
210.0
30
0
11
45.66666666666667
21
210.0
31
0
0
LINE
8
ARCH-DOORS
10
45.66666666666667
20
210.0
30
0
11
45.66666666666667
21
198.0
31
0
0
LINE
8
ARCH-DOORS
10
57.66666666666667
20
210.0
30
0
11
57.51892675380833
21
208.12278641951724
31
0
0
LINE
8
ARCH-DOORS
10
57.51892675380833
20
208.12278641951724
30
0
11
57.079344862208515
21
206.29179606750063
31
0
0
LINE
8
ARCH-DOORS
10
57.079344862208515
20
206.29179606750063
30
0
11
56.35874495692708
21
204.55211400312544
31
0
0
LINE
8
ARCH-DOORS
10
56.35874495692708
20
204.55211400312544
30
0
11
55.37487059916604
21
202.94657697249033
31
0
0
LINE
8
ARCH-DOORS
10
55.37487059916604
20
202.94657697249033
30
0
11
54.15194804090524
21
201.51471862576142
31
0
0
LINE
8
ARCH-DOORS
10
54.15194804090524
20
201.51471862576142
30
0
11
52.72008969417635
21
200.29179606750063
31
0
0
LINE
8
ARCH-DOORS
10
52.72008969417635
20
200.29179606750063
30
0
11
51.11455266354123
21
199.3079217097396
31
0
0
LINE
8
ARCH-DOORS
10
51.11455266354123
20
199.3079217097396
30
0
11
49.37487059916604
21
198.58732180445816
31
0
0
LINE
8
ARCH-DOORS
10
49.37487059916604
20
198.58732180445816
30
0
11
47.54388024714944
21
198.14773991285836
31
0
0
LINE
8
ARCH-DOORS
10
47.54388024714944
20
198.14773991285836
30
0
11
45.66666666666667
21
198.0
31
0
0
LINE
8
ARCH-WALLS
10
57.66666666666667
20
210.0
30
0
11
119.66666666666667
21
210.0
31
0
0
LINE
8
ARCH-DOORS
10
119.66666666666667
20
210.0
30
0
11
119.66666666666667
21
186.0
31
0
0
LINE
8
ARCH-DOORS
10
143.66666666666669
20
210.0
30
0
11
143.37118684094997
21
206.24557283903448
31
0
0
LINE
8
ARCH-DOORS
10
143.37118684094997
20
206.24557283903448
30
0
11
142.49202305775037
21
202.58359213500125
31
0
0
LINE
8
ARCH-DOORS
10
142.49202305775037
20
202.58359213500125
30
0
11
141.0508232471875
21
199.10422800625088
31
0
0
LINE
8
ARCH-DOORS
10
141.0508232471875
20
199.10422800625088
30
0
11
139.08307453166543
21
195.89315394498064
31
0
0
LINE
8
ARCH-DOORS
10
139.08307453166543
20
195.89315394498064
30
0
11
136.63722941514382
21
193.02943725152284
31
0
0
LINE
8
ARCH-DOORS
10
136.63722941514382
20
193.02943725152284
30
0
11
133.77351272168602
21
190.58359213500125
31
0
0
LINE
8
ARCH-DOORS
10
133.77351272168602
20
190.58359213500125
30
0
11
130.5624386604158
21
188.61584341947918
31
0
0
LINE
8
ARCH-DOORS
10
130.5624386604158
20
188.61584341947918
30
0
11
127.0830745316654
21
187.1746436089163
31
0
0
LINE
8
ARCH-DOORS
10
127.0830745316654
20
187.1746436089163
30
0
11
123.4210938276322
21
186.29547982571668
31
0
0
LINE
8
ARCH-DOORS
10
123.4210938276322
20
186.29547982571668
30
0
11
119.66666666666667
21
186.0
31
0
0
LINE
8
ARCH-WALLS
10
143.66666666666669
20
210.0
30
0
11
319.6666666666667
21
210.0
31
0
0
LINE
8
ARCH-DOORS
10
319.6666666666667
20
210.0
30
0
11
319.6666666666667
21
186.00000000000006
31
0
0
LINE
8
ARCH-DOORS
10
343.6666666666667
20
210.0
30
0
11
343.37118684095
21
206.24557283903448
31
0
0
LINE
8
ARCH-DOORS
10
343.37118684095
20
206.24557283903448
30
0
11
342.4920230577504
21
202.58359213500125
31
0
0
LINE
8
ARCH-DOORS
10
342.4920230577504
20
202.58359213500125
30
0
11
341.05082324718745
21
199.1042280062509
31
0
0
LINE
8
ARCH-DOORS
10
341.05082324718745
20
199.1042280062509
30
0
11
339.0830745316654
21
195.89315394498067
31
0
0
LINE
8
ARCH-DOORS
10
339.0830745316654
20
195.89315394498067
30
0
11
336.6372294151438
21
193.0294372515229
31
0
0
LINE
8
ARCH-DOORS
10
336.6372294151438
20
193.0294372515229
30
0
11
333.773512721686
21
190.58359213500128
31
0
0
LINE
8
ARCH-DOORS
10
333.773512721686
20
190.58359213500128
30
0
11
330.5624386604158
21
188.6158434194792
31
0
0
LINE
8
ARCH-DOORS
10
330.5624386604158
20
188.6158434194792
30
0
11
327.08307453166543
21
187.17464360891637
31
0
0
LINE
8
ARCH-DOORS
10
327.08307453166543
20
187.17464360891637
30
0
11
323.4210938276322
21
186.2954798257167
31
0
0
LINE
8
ARCH-DOORS
10
323.4210938276322
20
186.2954798257167
30
0
11
319.6666666666667
21
186.00000000000006
31
0
0
LINE
8
ARCH-WALLS
10
343.6666666666667
20
210.0
30
0
11
392.33333333333337
21
210.0
31
0
0
LINE
8
ARCH-DOORS
10
392.33333333333337
20
210.0
30
0
11
392.33333333333337
21
198.00000000000003
31
0
0
LINE
8
ARCH-DOORS
10
404.3333333333333
20
210.0
30
0
11
404.18559342047496
21
208.12278641951724
31
0
0
LINE
8
ARCH-DOORS
10
404.18559342047496
20
208.12278641951724
30
0
11
403.74601152887516
21
206.29179606750063
31
0
0
LINE
8
ARCH-DOORS
10
403.74601152887516
20
206.29179606750063
30
0
11
403.02541162359375
21
204.55211400312544
31
0
0
LINE
8
ARCH-DOORS
10
403.02541162359375
20
204.55211400312544
30
0
11
402.04153726583274
21
202.94657697249033
31
0
0
LINE
8
ARCH-DOORS
10
402.04153726583274
20
202.94657697249033
30
0
11
400.8186147075719
21
201.51471862576145
31
0
0
LINE
8
ARCH-DOORS
10
400.8186147075719
20
201.51471862576145
30
0
11
399.38675636084304
21
200.29179606750066
31
0
0
LINE
8
ARCH-DOORS
10
399.38675636084304
20
200.29179606750066
30
0
11
397.78121933020793
21
199.30792170973962
31
0
0
LINE
8
ARCH-DOORS
10
397.78121933020793
20
199.30792170973962
30
0
11
396.04153726583274
21
198.58732180445818
31
0
0
LINE
8
ARCH-DOORS
10
396.04153726583274
20
198.58732180445818
30
0
11
394.21054691381613
21
198.14773991285836
31
0
0
LINE
8
ARCH-DOORS
10
394.21054691381613
20
198.14773991285836
30
0
11
392.33333333333337
21
198.00000000000003
31
0
0
LINE
8
ARCH-WALLS
10
404.3333333333333
20
210.0
30
0
11
425.0
21
210.0
31
0
0
LINE
8
ARCH-WALLS
10
78.33333333333334
20
130.0
30
0
11
78.33333333333334
21
210.0
31
0
0
LINE
8
ARCH-WALLS
10
371.6666666666667
20
130.0
30
0
11
371.6666666666667
21
210.0
31
0
0
LINE
8
ARCH-FURNITURE
10
31.666666666666668
20
143.33333333333331
30
0
11
71.66666666666667
21
143.33333333333331
31
0
0
LINE
8
ARCH-FURNITURE
10
31.666666666666668
20
147.60000000000002
30
0
11
71.66666666666667
21
147.60000000000002
31
0
0
LINE
8
ARCH-FURNITURE
10
31.666666666666668
20
151.86666666666667
30
0
11
71.66666666666667
21
151.86666666666667
31
0
0
LINE
8
ARCH-FURNITURE
10
31.666666666666668
20
156.13333333333333
30
0
11
71.66666666666667
21
156.13333333333333
31
0
0
LINE
8
ARCH-FURNITURE
10
31.666666666666668
20
160.39999999999998
30
0
11
71.66666666666667
21
160.39999999999998
31
0
0
LINE
8
ARCH-FURNITURE
10
31.666666666666668
20
164.66666666666669
30
0
11
71.66666666666667
21
164.66666666666669
31
0
0
LINE
8
ARCH-FURNITURE
10
31.666666666666668
20
168.93333333333334
30
0
11
71.66666666666667
21
168.93333333333334
31
0
0
LINE
8
ARCH-FURNITURE
10
31.666666666666668
20
173.2
30
0
11
71.66666666666667
21
173.2
31
0
0
LINE
8
ARCH-FURNITURE
10
31.666666666666668
20
177.46666666666667
30
0
11
71.66666666666667
21
177.46666666666667
31
0
0
LINE
8
ARCH-FURNITURE
10
31.666666666666668
20
181.73333333333335
30
0
11
71.66666666666667
21
181.73333333333335
31
0
0
LINE
8
ARCH-FURNITURE
10
31.666666666666668
20
186.0
30
0
11
71.66666666666667
21
186.0
31
0
0
LINE
8
ARCH-FURNITURE
10
31.666666666666668
20
190.26666666666665
30
0
11
71.66666666666667
21
190.26666666666665
31
0
0
LINE
8
ARCH-DOORS
10
51.66666666666667
20
143.33333333333331
30
0
11
51.66666666666667
21
194.0
31
0
0
LINE
8
ARCH-DOORS
10
51.66666666666667
20
194.0
30
0
11
52.62551774387508
21
192.24483487621924
31
0
0
LINE
8
ARCH-DOORS
10
51.66666666666667
20
194.0
30
0
11
50.707815589458264
21
192.24483487621924
31
0
0
TEXT
8
ARCH-TEXT
10
31.666666666666668
20
136.66666666666669
30
0
40
2
1
DOWN
7
STANDARD
41
0.85
0
LINE
8
ARCH-FURNITURE
10
378.33333333333337
20
143.33333333333331
30
0
11
418.33333333333337
21
143.33333333333331
31
0
0
LINE
8
ARCH-FURNITURE
10
378.33333333333337
20
147.60000000000002
30
0
11
418.33333333333337
21
147.60000000000002
31
0
0
LINE
8
ARCH-FURNITURE
10
378.33333333333337
20
151.86666666666667
30
0
11
418.33333333333337
21
151.86666666666667
31
0
0
LINE
8
ARCH-FURNITURE
10
378.33333333333337
20
156.13333333333333
30
0
11
418.33333333333337
21
156.13333333333333
31
0
0
LINE
8
ARCH-FURNITURE
10
378.33333333333337
20
160.39999999999998
30
0
11
418.33333333333337
21
160.39999999999998
31
0
0
LINE
8
ARCH-FURNITURE
10
378.33333333333337
20
164.66666666666669
30
0
11
418.33333333333337
21
164.66666666666669
31
0
0
LINE
8
ARCH-FURNITURE
10
378.33333333333337
20
168.93333333333334
30
0
11
418.33333333333337
21
168.93333333333334
31
0
0
LINE
8
ARCH-FURNITURE
10
378.33333333333337
20
173.2
30
0
11
418.33333333333337
21
173.2
31
0
0
LINE
8
ARCH-FURNITURE
10
378.33333333333337
20
177.46666666666667
30
0
11
418.33333333333337
21
177.46666666666667
31
0
0
LINE
8
ARCH-FURNITURE
10
378.33333333333337
20
181.73333333333335
30
0
11
418.33333333333337
21
181.73333333333335
31
0
0
LINE
8
ARCH-FURNITURE
10
378.33333333333337
20
186.0
30
0
11
418.33333333333337
21
186.0
31
0
0
LINE
8
ARCH-FURNITURE
10
378.33333333333337
20
190.26666666666665
30
0
11
418.33333333333337
21
190.26666666666665
31
0
0
LINE
8
ARCH-DOORS
10
398.33333333333337
20
143.33333333333331
30
0
11
398.33333333333337
21
194.0
31
0
0
LINE
8
ARCH-DOORS
10
398.33333333333337
20
194.0
30
0
11
399.2921844105418
21
192.24483487621924
31
0
0
LINE
8
ARCH-DOORS
10
398.33333333333337
20
194.0
30
0
11
397.37448225612496
21
192.24483487621924
31
0
0
TEXT
8
ARCH-TEXT
10
378.33333333333337
20
136.66666666666669
30
0
40
2
1
DOWN
7
STANDARD
41
0.85
0
TEXT
8
ARCH-TEXT
10
27.4
20
312.66666666666663
30
0
40
2.1
1
PRT
7
STANDARD
41
0.85
0
TEXT
8
ARCH-TEXT
10
27.4
20
308.26666666666665
30
0
40
1.8
1
18 m2
7
STANDARD
41
0.85
0
TEXT
8
ARCH-TEXT
10
67.4
20
312.66666666666663
30
0
40
2.1
1
STO
7
STANDARD
41
0.85
0
TEXT
8
ARCH-TEXT
10
67.4
20
308.26666666666665
30
0
40
1.8
1
12 m2
7
STANDARD
41
0.85
0
TEXT
8
ARCH-TEXT
10
94.06666666666666
20
312.66666666666663
30
0
40
2.1
1
ACC
7
STANDARD
41
0.85
0
TEXT
8
ARCH-TEXT
10
94.06666666666666
20
308.26666666666665
30
0
40
1.8
1
18 m2
7
STANDARD
41
0.85
0
TEXT
8
ARCH-TEXT
10
134.06666666666666
20
312.66666666666663
30
0
40
2.1
1
WC
7
STANDARD
41
0.85
0
TEXT
8
ARCH-TEXT
10
134.06666666666666
20
308.26666666666665
30
0
40
1.8
1
18 m2
7
STANDARD
41
0.85
0
TEXT
8
ARCH-TEXT
10
174.06666666666666
20
312.66666666666663
30
0
40
2.1
1
CONF
7
STANDARD
41
0.85
0
TEXT
8
ARCH-TEXT
10
174.06666666666666
20
308.26666666666665
30
0
40
1.8
1
36 m2
7
STANDARD
41
0.85
0
TEXT
8
ARCH-TEXT
10
254.06666666666666
20
312.66666666666663
30
0
40
2.1
1
MT1
7
STANDARD
41
0.85
0
TEXT
8
ARCH-TEXT
10
254.06666666666666
20
308.26666666666665
30
0
40
1.8
1
24 m2
7
STANDARD
41
0.85
0
TEXT
8
ARCH-TEXT
10
307.40000000000003
20
312.66666666666663
30
0
40
2.1
1
MGR1
7
STANDARD
41
0.85
0
TEXT
8
ARCH-TEXT
10
307.40000000000003
20
308.26666666666665
30
0
40
1.8
1
18 m2
7
STANDARD
41
0.85
0
TEXT
8
ARCH-TEXT
10
347.40000000000003
20
312.66666666666663
30
0
40
2.1
1
MGR2
7
STANDARD
41
0.85
0
TEXT
8
ARCH-TEXT
10
347.40000000000003
20
308.26666666666665
30
0
40
1.8
1
18 m2
7
STANDARD
41
0.85
0
TEXT
8
ARCH-TEXT
10
387.40000000000003
20
312.66666666666663
30
0
40
2.1
1
KIT
7
STANDARD
41
0.85
0
TEXT
8
ARCH-TEXT
10
387.40000000000003
20
308.26666666666665
30
0
40
1.8
1
18 m2
7
STANDARD
41
0.85
0
TEXT
8
ARCH-TEXT
10
27.4
20
206.0
30
0
40
2.1
1
ST1
7
STANDARD
41
0.85
0
TEXT
8
ARCH-TEXT
10
27.4
20
201.60000000000002
30
0
40
1.8
1
24 m2
7
STANDARD
41
0.85
0
TEXT
8
ARCH-TEXT
10
80.73333333333333
20
206.0
30
0
40
2.1
1
OPEN
7
STANDARD
41
0.85
0
TEXT
8
ARCH-TEXT
10
80.73333333333333
20
201.60000000000002
30
0
40
1.8
1
132 m2
7
STANDARD
41
0.85
0
TEXT
8
ARCH-TEXT
10
374.06666666666666
20
206.0
30
0
40
2.1
1
ST2
7
STANDARD
41
0.85
0
TEXT
8
ARCH-TEXT
10
374.06666666666666
20
201.60000000000002
30
0
40
1.8
1
24 m2
7
STANDARD
41
0.85
0
TEXT
8
ARCH-TEXT
10
29.0
20
234.0
30
0
40
2.1
1
CORRIDOR - 2.0 m wide
7
STANDARD
41
0.85
0
LINE
8
ELEC-DIMENSIONS
10
25.0
20
340.6666666666667
30
0
11
425.0
21
340.6666666666667
31
0
0
TEXT
8
ELEC-DIMENSIONS
10
217.0
20
342.6666666666667
30
0
40
2.6
1
30 000
7
STANDARD
41
0.85
0
LINE
8
ELEC-DIMENSIONS
10
25.0
20
319.33333333333337
30
0
11
25.0
21
344.6666666666667
31
0
0
LINE
8
ELEC-DIMENSIONS
10
425.0
20
319.33333333333337
30
0
11
425.0
21
344.6666666666667
31
0
0
TEXT
8
ELEC-TEXT
10
23
20
121
30
0
40
3
1
FF  /  420 m2  /  1:75 at A2
7
STANDARD
41
0.85
0
INSERT
8
ELEC-DB
2
DB
10
30.333333333333336
20
225.33333333333334
30
0
41
1
42
1
43
1
0
TEXT
8
ELEC-DB
10
35.66666666666667
20
220.0
30
0
40
2.4
1
DB-FF
7
STANDARD
41
0.85
0
INSERT
8
ELEC-POWER
2
GPO2
10
105.0
20
152.66666666666669
30
0
41
1
42
1
43
1
0
TEXT
8
ELEC-POWER
10
107.66666666666667
20
149.33333333333331
30
0
40
2
1
P01
7
STANDARD
41
0.85
0
INSERT
8
ELEC-POWER
2
GPO2
10
131.66666666666669
20
152.66666666666669
30
0
41
1
42
1
43
1
0
TEXT
8
ELEC-POWER
10
134.33333333333331
20
149.33333333333331
30
0
40
2
1
P01
7
STANDARD
41
0.85
0
INSERT
8
ELEC-POWER
2
GPO2
10
158.33333333333334
20
152.66666666666669
30
0
41
1
42
1
43
1
0
TEXT
8
ELEC-POWER
10
161.0
20
149.33333333333331
30
0
40
2
1
P01
7
STANDARD
41
0.85
0
INSERT
8
ELEC-POWER
2
GPO2
10
105.0
20
187.33333333333334
30
0
41
1
42
1
43
1
0
TEXT
8
ELEC-POWER
10
107.66666666666667
20
184.0
30
0
40
2
1
P01
7
STANDARD
41
0.85
0
INSERT
8
ELEC-POWER
2
GPO2
10
131.66666666666669
20
187.33333333333334
30
0
41
1
42
1
43
1
0
TEXT
8
ELEC-POWER
10
134.33333333333331
20
184.0
30
0
40
2
1
P01
7
STANDARD
41
0.85
0
INSERT
8
ELEC-POWER
2
GPO2
10
158.33333333333334
20
187.33333333333334
30
0
41
1
42
1
43
1
0
TEXT
8
ELEC-POWER
10
161.0
20
184.0
30
0
40
2
1
P01
7
STANDARD
41
0.85
0
INSERT
8
ELEC-POWER
2
GPO2
10
238.33333333333334
20
152.66666666666669
30
0
41
1
42
1
43
1
0
TEXT
8
ELEC-POWER
10
241.0
20
149.33333333333331
30
0
40
2
1
P02
7
STANDARD
41
0.85
0
INSERT
8
ELEC-POWER
2
GPO2
10
265.0
20
152.66666666666669
30
0
41
1
42
1
43
1
0
TEXT
8
ELEC-POWER
10
267.66666666666663
20
149.33333333333331
30
0
40
2
1
P02
7
STANDARD
41
0.85
0
INSERT
8
ELEC-POWER
2
GPO2
10
291.6666666666667
20
152.66666666666669
30
0
41
1
42
1
43
1
0
TEXT
8
ELEC-POWER
10
294.3333333333333
20
149.33333333333331
30
0
40
2
1
P02
7
STANDARD
41
0.85
0
INSERT
8
ELEC-POWER
2
GPO2
10
238.33333333333334
20
187.33333333333334
30
0
41
1
42
1
43
1
0
TEXT
8
ELEC-POWER
10
241.0
20
184.0
30
0
40
2
1
P02
7
STANDARD
41
0.85
0
INSERT
8
ELEC-POWER
2
GPO2
10
265.0
20
187.33333333333334
30
0
41
1
42
1
43
1
0
TEXT
8
ELEC-POWER
10
267.66666666666663
20
184.0
30
0
40
2
1
P02
7
STANDARD
41
0.85
0
INSERT
8
ELEC-POWER
2
GPO2
10
291.6666666666667
20
187.33333333333334
30
0
41
1
42
1
43
1
0
TEXT
8
ELEC-POWER
10
294.3333333333333
20
184.0
30
0
40
2
1
P02
7
STANDARD
41
0.85
0
INSERT
8
ELEC-POWER
2
GPO2
10
305.0
20
152.66666666666669
30
0
41
1
42
1
43
1
0
TEXT
8
ELEC-POWER
10
307.6666666666667
20
149.33333333333331
30
0
40
2
1
P03
7
STANDARD
41
0.85
0
INSERT
8
ELEC-POWER
2
GPO2
10
331.6666666666667
20
152.66666666666669
30
0
41
1
42
1
43
1
0
TEXT
8
ELEC-POWER
10
334.3333333333333
20
149.33333333333331
30
0
40
2
1
P03
7
STANDARD
41
0.85
0
INSERT
8
ELEC-POWER
2
GPO2
10
358.33333333333337
20
152.66666666666669
30
0
41
1
42
1
43
1
0
TEXT
8
ELEC-POWER
10
361.0
20
149.33333333333331
30
0
40
2
1
P03
7
STANDARD
41
0.85
0
INSERT
8
ELEC-POWER
2
GPO2
10
305.0
20
187.33333333333334
30
0
41
1
42
1
43
1
0
TEXT
8
ELEC-POWER
10
307.6666666666667
20
184.0
30
0
40
2
1
P03
7
STANDARD
41
0.85
0
INSERT
8
ELEC-POWER
2
GPO2
10
331.6666666666667
20
187.33333333333334
30
0
41
1
42
1
43
1
0
TEXT
8
ELEC-POWER
10
334.3333333333333
20
184.0
30
0
40
2
1
P03
7
STANDARD
41
0.85
0
INSERT
8
ELEC-POWER
2
GPO2
10
358.33333333333337
20
187.33333333333334
30
0
41
1
42
1
43
1
0
TEXT
8
ELEC-POWER
10
361.0
20
184.0
30
0
40
2
1
P03
7
STANDARD
41
0.85
0
INSERT
8
ELEC-POWER
2
GPO2
10
185.0
20
244.66666666666669
30
0
41
1
42
1
43
1
0
TEXT
8
ELEC-POWER
10
187.66666666666666
20
241.33333333333331
30
0
40
2
1
P04
7
STANDARD
41
0.85
0
INSERT
8
ELEC-POWER
2
GPO2
10
238.33333333333334
20
308.6666666666667
30
0
41
1
42
1
43
1
0
TEXT
8
ELEC-POWER
10
241.0
20
305.33333333333337
30
0
40
2
1
P04
7
STANDARD
41
0.85
0
INSERT
8
ELEC-POWER
2
GPO2
10
265.0
20
244.66666666666669
30
0
41
1
42
1
43
1
0
TEXT
8
ELEC-POWER
10
267.66666666666663
20
241.33333333333331
30
0
40
2
1
P04
7
STANDARD
41
0.85
0
INSERT
8
ELEC-POWER
2
GPO2
10
291.6666666666667
20
308.6666666666667
30
0
41
1
42
1
43
1
0
TEXT
8
ELEC-POWER
10
294.3333333333333
20
305.33333333333337
30
0
40
2
1
P04
7
STANDARD
41
0.85
0
INSERT
8
ELEC-POWER
2
GPO2
10
318.33333333333337
20
244.66666666666669
30
0
41
1
42
1
43
1
0
TEXT
8
ELEC-POWER
10
321.0
20
241.33333333333331
30
0
40
2
1
P04
7
STANDARD
41
0.85
0
INSERT
8
ELEC-POWER
2
GPO2
10
358.33333333333337
20
244.66666666666669
30
0
41
1
42
1
43
1
0
TEXT
8
ELEC-POWER
10
361.0
20
241.33333333333331
30
0
40
2
1
P04
7
STANDARD
41
0.85
0
INSERT
8
ELEC-POWER
2
GPO2
10
38.333333333333336
20
244.66666666666669
30
0
41
1
42
1
43
1
0
TEXT
8
ELEC-POWER
10
41.0
20
241.33333333333331
30
0
40
2
1
P05
7
STANDARD
41
0.85
0
INSERT
8
ELEC-POWER
2
GPO2
10
51.66666666666667
20
308.6666666666667
30
0
41
1
42
1
43
1
0
TEXT
8
ELEC-POWER
10
54.333333333333336
20
305.33333333333337
30
0
40
2
1
P05
7
STANDARD
41
0.85
0
INSERT
8
ELEC-POWER
2
GPO2
10
91.66666666666667
20
215.33333333333334
30
0
41
1
42
1
43
1
0
TEXT
8
ELEC-POWER
10
94.33333333333334
20
212.0
30
0
40
2
1
P05
7
STANDARD
41
0.85
0
INSERT
8
ELEC-POWER
2
GPO2
10
225.0
20
215.33333333333334
30
0
41
1
42
1
43
1
0
TEXT
8
ELEC-POWER
10
227.66666666666666
20
212.0
30
0
40
2
1
P05
7
STANDARD
41
0.85
0
INSERT
8
ELEC-POWER
2
GPO2
10
358.33333333333337
20
215.33333333333334
30
0
41
1
42
1
43
1
0
TEXT
8
ELEC-POWER
10
361.0
20
212.0
30
0
40
2
1
P05
7
STANDARD
41
0.85
0
INSERT
8
ELEC-POWER
2
GPO2
10
391.6666666666667
20
308.6666666666667
30
0
41
1
42
1
43
1
0
TEXT
8
ELEC-POWER
10
394.3333333333333
20
305.33333333333337
30
0
40
2
1
P06
7
STANDARD
41
0.85
0
INSERT
8
ELEC-POWER
2
GPO2
10
405.0
20
308.6666666666667
30
0
41
1
42
1
43
1
0
TEXT
8
ELEC-POWER
10
407.6666666666667
20
305.33333333333337
30
0
40
2
1
P06
7
STANDARD
41
0.85
0
INSERT
8
ELEC-POWER
2
GPO2
10
418.33333333333337
20
308.6666666666667
30
0
41
1
42
1
43
1
0
TEXT
8
ELEC-POWER
10
421.0
20
305.33333333333337
30
0
40
2
1
P06
7
STANDARD
41
0.85
0
INSERT
8
ELEC-DEDICATED
2
DED
10
391.6666666666667
20
296.6666666666667
30
0
41
1
42
1
43
1
0
TEXT
8
ELEC-DEDICATED
10
387.6666666666667
20
291.8666666666667
30
0
40
2.15
1
REF01
7
STANDARD
41
0.85
0
INSERT
8
ELEC-DEDICATED
2
DED
10
405.0
20
290.0
30
0
41
1
42
1
43
1
0
TEXT
8
ELEC-DEDICATED
10
401.0
20
285.20000000000005
30
0
40
2.15
1
DW01
7
STANDARD
41
0.85
0
INSERT
8
ELEC-DEDICATED
2
DED
10
418.33333333333337
20
296.6666666666667
30
0
41
1
42
1
43
1
0
TEXT
8
ELEC-DEDICATED
10
414.3333333333333
20
291.8666666666667
30
0
40
2.15
1
MW01
7
STANDARD
41
0.85
0
INSERT
8
ELEC-DEDICATED
2
DED
10
411.6666666666667
20
250.0
30
0
41
1
42
1
43
1
0
TEXT
8
ELEC-DEDICATED
10
407.6666666666667
20
245.20000000000002
30
0
40
2.15
1
WH01
7
STANDARD
41
0.85
0
INSERT
8
ELEC-DEDICATED
2
DED
10
45.0
20
276.6666666666667
30
0
41
1
42
1
43
1
0
TEXT
8
ELEC-DEDICATED
10
41.0
20
271.8666666666667
30
0
40
2.15
1
CP01
7
STANDARD
41
0.85
0
INSERT
8
ELEC-DEDICATED
2
LOAD3
10
171.66666666666669
20
327.33333333333337
30
0
41
1
42
1
43
1
0
TEXT
8
ELEC-DEDICATED
10
167.66666666666666
20
322.53333333333336
30
0
40
2.15
1
AC01
7
STANDARD
41
0.85
0
INSERT
8
ELEC-DEDICATED
2
LOAD3
10
318.33333333333337
20
327.33333333333337
30
0
41
1
42
1
43
1
0
TEXT
8
ELEC-DEDICATED
10
314.3333333333333
20
322.53333333333336
30
0
40
2.15
1
AC02
7
STANDARD
41
0.85
0
LINE
8
ELEC-CABLE
10
38.333333333333336
20
223.33333333333334
30
0
11
40.32976827094475
21
223.33333333333334
31
0
0
LINE
8
ELEC-CABLE
10
42.32620320855615
20
223.33333333333334
30
0
11
44.32263814616756
21
223.33333333333334
31
0
0
LINE
8
ELEC-CABLE
10
46.31907308377897
20
223.33333333333334
30
0
11
48.31550802139038
21
223.33333333333334
31
0
0
LINE
8
ELEC-CABLE
10
50.31194295900178
20
223.33333333333334
30
0
11
52.308377896613194
21
223.33333333333334
31
0
0
LINE
8
ELEC-CABLE
10
54.304812834224606
20
223.33333333333334
30
0
11
56.30124777183601
21
223.33333333333334
31
0
0
LINE
8
ELEC-CABLE
10
58.29768270944742
20
223.33333333333334
30
0
11
60.294117647058826
21
223.33333333333334
31
0
0
LINE
8
ELEC-CABLE
10
62.29055258467024
20
223.33333333333334
30
0
11
64.28698752228165
21
223.33333333333334
31
0
0
LINE
8
ELEC-CABLE
10
66.28342245989305
20
223.33333333333334
30
0
11
68.27985739750446
21
223.33333333333334
31
0
0
LINE
8
ELEC-CABLE
10
70.27629233511587
20
223.33333333333334
30
0
11
72.27272727272728
21
223.33333333333334
31
0
0
LINE
8
ELEC-CABLE
10
74.26916221033869
20
223.33333333333334
30
0
11
76.2655971479501
21
223.33333333333334
31
0
0
LINE
8
ELEC-CABLE
10
78.26203208556151
20
223.33333333333334
30
0
11
80.25846702317291
21
223.33333333333334
31
0
0
LINE
8
ELEC-CABLE
10
82.25490196078431
20
223.33333333333334
30
0
11
84.25133689839572
21
223.33333333333334
31
0
0
LINE
8
ELEC-CABLE
10
86.24777183600713
20
223.33333333333334
30
0
11
88.24420677361854
21
223.33333333333334
31
0
0
LINE
8
ELEC-CABLE
10
90.24064171122996
20
223.33333333333334
30
0
11
92.23707664884137
21
223.33333333333334
31
0
0
LINE
8
ELEC-CABLE
10
94.23351158645278
20
223.33333333333334
30
0
11
96.22994652406419
21
223.33333333333334
31
0
0
LINE
8
ELEC-CABLE
10
98.2263814616756
20
223.33333333333334
30
0
11
100.22281639928698
21
223.33333333333334
31
0
0
LINE
8
ELEC-CABLE
10
102.2192513368984
20
223.33333333333334
30
0
11
104.2156862745098
21
223.33333333333334
31
0
0
LINE
8
ELEC-CABLE
10
106.21212121212122
20
223.33333333333334
30
0
11
108.20855614973263
21
223.33333333333334
31
0
0
LINE
8
ELEC-CABLE
10
110.20499108734404
20
223.33333333333334
30
0
11
112.20142602495545
21
223.33333333333334
31
0
0
LINE
8
ELEC-CABLE
10
114.19786096256686
20
223.33333333333334
30
0
11
116.19429590017828
21
223.33333333333334
31
0
0
LINE
8
ELEC-CABLE
10
118.19073083778969
20
223.33333333333334
30
0
11
120.18716577540107
21
223.33333333333334
31
0
0
LINE
8
ELEC-CABLE
10
122.18360071301248
20
223.33333333333334
30
0
11
124.18003565062389
21
223.33333333333334
31
0
0
LINE
8
ELEC-CABLE
10
126.1764705882353
20
223.33333333333334
30
0
11
128.17290552584672
21
223.33333333333334
31
0
0
LINE
8
ELEC-CABLE
10
130.16934046345813
20
223.33333333333334
30
0
11
132.16577540106954
21
223.33333333333334
31
0
0
LINE
8
ELEC-CABLE
10
134.16221033868092
20
223.33333333333334
30
0
11
136.15864527629236
21
223.33333333333334
31
0
0
LINE
8
ELEC-CABLE
10
138.15508021390374
20
223.33333333333334
30
0
11
140.15151515151518
21
223.33333333333334
31
0
0
LINE
8
ELEC-CABLE
10
142.14795008912657
20
223.33333333333334
30
0
11
144.14438502673798
21
223.33333333333334
31
0
0
LINE
8
ELEC-CABLE
10
146.1408199643494
20
223.33333333333334
30
0
11
148.1372549019608
21
223.33333333333334
31
0
0
LINE
8
ELEC-CABLE
10
150.1336898395722
20
223.33333333333334
30
0
11
152.13012477718362
21
223.33333333333334
31
0
0
LINE
8
ELEC-CABLE
10
154.12655971479504
20
223.33333333333334
30
0
11
156.12299465240642
21
223.33333333333334
31
0
0
LINE
8
ELEC-CABLE
10
158.11942959001786
20
223.33333333333334
30
0
11
160.11586452762924
21
223.33333333333334
31
0
0
LINE
8
ELEC-CABLE
10
162.11229946524065
20
223.33333333333334
30
0
11
164.10873440285206
21
223.33333333333334
31
0
0
LINE
8
ELEC-CABLE
10
166.10516934046348
20
223.33333333333334
30
0
11
168.1016042780749
21
223.33333333333334
31
0
0
LINE
8
ELEC-CABLE
10
170.0980392156863
20
223.33333333333334
30
0
11
172.0944741532977
21
223.33333333333334
31
0
0
LINE
8
ELEC-CABLE
10
174.0909090909091
20
223.33333333333334
30
0
11
176.08734402852053
21
223.33333333333334
31
0
0
LINE
8
ELEC-CABLE
10
178.08377896613192
20
223.33333333333334
30
0
11
180.08021390374333
21
223.33333333333334
31
0
0
LINE
8
ELEC-CABLE
10
182.07664884135474
20
223.33333333333334
30
0
11
184.07308377896615
21
223.33333333333334
31
0
0
LINE
8
ELEC-CABLE
10
186.06951871657756
20
223.33333333333334
30
0
11
188.06595365418897
21
223.33333333333334
31
0
0
LINE
8
ELEC-CABLE
10
190.06238859180039
20
223.33333333333334
30
0
11
192.05882352941177
21
223.33333333333334
31
0
0
LINE
8
ELEC-CABLE
10
194.0552584670232
20
223.33333333333334
30
0
11
196.0516934046346
21
223.33333333333334
31
0
0
LINE
8
ELEC-CABLE
10
198.04812834224603
20
223.33333333333334
30
0
11
200.0445632798574
21
223.33333333333334
31
0
0
LINE
8
ELEC-CABLE
10
202.04099821746883
20
223.33333333333334
30
0
11
204.03743315508024
21
223.33333333333334
31
0
0
LINE
8
ELEC-CABLE
10
206.03386809269165
20
223.33333333333334
30
0
11
208.03030303030306
21
223.33333333333334
31
0
0
LINE
8
ELEC-CABLE
10
210.02673796791447
20
223.33333333333334
30
0
11
212.02317290552588
21
223.33333333333334
31
0
0
LINE
8
ELEC-CABLE
10
214.01960784313727
20
223.33333333333334
30
0
11
216.0160427807487
21
223.33333333333334
31
0
0
LINE
8
ELEC-CABLE
10
218.0124777183601
20
223.33333333333334
30
0
11
220.0089126559715
21
223.33333333333334
31
0
0
LINE
8
ELEC-CABLE
10
222.0053475935829
20
223.33333333333334
30
0
11
224.0017825311943
21
223.33333333333334
31
0
0
LINE
8
ELEC-CABLE
10
225.99821746880573
20
223.33333333333334
30
0
11
227.99465240641715
21
223.33333333333334
31
0
0
LINE
8
ELEC-CABLE
10
229.99108734402853
20
223.33333333333334
30
0
11
231.98752228163994
21
223.33333333333334
31
0
0
LINE
8
ELEC-CABLE
10
233.98395721925138
20
223.33333333333334
30
0
11
235.9803921568628
21
223.33333333333334
31
0
0
LINE
8
ELEC-CABLE
10
237.97682709447417
20
223.33333333333334
30
0
11
239.9732620320856
21
223.33333333333334
31
0
0
LINE
8
ELEC-CABLE
10
241.96969696969703
20
223.33333333333334
30
0
11
243.9661319073084
21
223.33333333333334
31
0
0
LINE
8
ELEC-CABLE
10
245.96256684491982
20
223.33333333333334
30
0
11
247.95900178253123
21
223.33333333333334
31
0
0
LINE
8
ELEC-CABLE
10
249.95543672014261
20
223.33333333333334
30
0
11
251.95187165775405
21
223.33333333333334
31
0
0
LINE
8
ELEC-CABLE
10
253.94830659536547
20
223.33333333333334
30
0
11
255.94474153297685
21
223.33333333333334
31
0
0
LINE
8
ELEC-CABLE
10
257.94117647058823
20
223.33333333333334
30
0
11
259.9376114081997
21
223.33333333333334
31
0
0
LINE
8
ELEC-CABLE
10
261.93404634581105
20
223.33333333333334
30
0
11
263.93048128342247
21
223.33333333333334
31
0
0
LINE
8
ELEC-CABLE
10
265.9269162210339
20
223.33333333333334
30
0
11
267.9233511586453
21
223.33333333333334
31
0
0
LINE
8
ELEC-CABLE
10
269.9197860962567
20
223.33333333333334
30
0
11
271.9162210338681
21
223.33333333333334
31
0
0
LINE
8
ELEC-CABLE
10
273.9126559714795
20
223.33333333333334
30
0
11
275.90909090909093
21
223.33333333333334
31
0
0
LINE
8
ELEC-CABLE
10
277.90552584670235
20
223.33333333333334
30
0
11
279.90196078431376
21
223.33333333333334
31
0
0
LINE
8
ELEC-CABLE
10
281.89839572192517
20
223.33333333333334
30
0
11
283.8948306595366
21
223.33333333333334
31
0
0
LINE
8
ELEC-CABLE
10
285.89126559714794
20
223.33333333333334
30
0
11
287.8877005347594
21
223.33333333333334
31
0
0
LINE
8
ELEC-CABLE
10
289.8841354723708
20
223.33333333333334
30
0
11
291.88057040998217
21
223.33333333333334
31
0
0
LINE
8
ELEC-CABLE
10
293.8770053475936
20
223.33333333333334
30
0
11
295.873440285205
21
223.33333333333334
31
0
0
LINE
8
ELEC-CABLE
10
297.8698752228164
20
223.33333333333334
30
0
11
299.8663101604278
21
223.33333333333334
31
0
0
LINE
8
ELEC-CABLE
10
301.8627450980392
20
223.33333333333334
30
0
11
303.85918003565064
21
223.33333333333334
31
0
0
LINE
8
ELEC-CABLE
10
305.85561497326205
20
223.33333333333334
30
0
11
307.85204991087346
21
223.33333333333334
31
0
0
LINE
8
ELEC-CABLE
10
309.8484848484848
20
223.33333333333334
30
0
11
311.8449197860963
21
223.33333333333334
31
0
0
LINE
8
ELEC-CABLE
10
313.8413547237077
20
223.33333333333334
30
0
11
315.83778966131905
21
223.33333333333334
31
0
0
LINE
8
ELEC-CABLE
10
317.83422459893046
20
223.33333333333334
30
0
11
319.83065953654193
21
223.33333333333334
31
0
0
LINE
8
ELEC-CABLE
10
321.8270944741533
20
223.33333333333334
30
0
11
323.8235294117647
21
223.33333333333334
31
0
0
LINE
8
ELEC-CABLE
10
325.8199643493761
20
223.33333333333334
30
0
11
327.8163992869875
21
223.33333333333334
31
0
0
LINE
8
ELEC-CABLE
10
329.81283422459893
20
223.33333333333334
30
0
11
331.80926916221034
21
223.33333333333334
31
0
0
LINE
8
ELEC-CABLE
10
333.80570409982175
20
223.33333333333334
30
0
11
335.80213903743316
21
223.33333333333334
31
0
0
LINE
8
ELEC-CABLE
10
337.7985739750446
20
223.33333333333334
30
0
11
339.795008912656
21
223.33333333333334
31
0
0
LINE
8
ELEC-CABLE
10
341.7914438502674
20
223.33333333333334
30
0
11
343.7878787878788
21
223.33333333333334
31
0
0
LINE
8
ELEC-CABLE
10
345.78431372549016
20
223.33333333333334
30
0
11
347.78074866310163
21
223.33333333333334
31
0
0
LINE
8
ELEC-CABLE
10
349.77718360071304
20
223.33333333333334
30
0
11
351.7736185383244
21
223.33333333333334
31
0
0
LINE
8
ELEC-CABLE
10
353.7700534759358
20
223.33333333333334
30
0
11
355.7664884135473
21
223.33333333333334
31
0
0
LINE
8
ELEC-CABLE
10
357.7629233511587
20
223.33333333333334
30
0
11
359.75935828877004
21
223.33333333333334
31
0
0
LINE
8
ELEC-CABLE
10
361.75579322638146
20
223.33333333333334
30
0
11
363.7522281639929
21
223.33333333333334
31
0
0
LINE
8
ELEC-CABLE
10
365.7486631016043
20
223.33333333333334
30
0
11
367.7450980392157
21
223.33333333333334
31
0
0
LINE
8
ELEC-CABLE
10
369.7415329768271
20
223.33333333333334
30
0
11
371.7379679144385
21
223.33333333333334
31
0
0
LINE
8
ELEC-CABLE
10
373.7344028520499
20
223.33333333333334
30
0
11
375.73083778966134
21
223.33333333333334
31
0
0
LINE
8
ELEC-CABLE
10
377.72727272727275
20
223.33333333333334
30
0
11
379.72370766488416
21
223.33333333333334
31
0
0
LINE
8
ELEC-CABLE
10
381.72014260249557
20
223.33333333333334
30
0
11
383.716577540107
21
223.33333333333334
31
0
0
LINE
8
ELEC-CABLE
10
385.7130124777184
20
223.33333333333334
30
0
11
387.7094474153298
21
223.33333333333334
31
0
0
LINE
8
ELEC-CABLE
10
389.70588235294116
20
223.33333333333334
30
0
11
391.70231729055257
21
223.33333333333334
31
0
0
LINE
8
ELEC-CABLE
10
393.69875222816404
20
223.33333333333334
30
0
11
395.6951871657754
21
223.33333333333334
31
0
0
LINE
8
ELEC-CABLE
10
397.6916221033868
20
223.33333333333334
30
0
11
399.6880570409983
21
223.33333333333334
31
0
0
LINE
8
ELEC-CABLE
10
401.6844919786096
20
223.33333333333334
30
0
11
403.68092691622104
21
223.33333333333334
31
0
0
LINE
8
ELEC-CABLE
10
405.67736185383245
20
223.33333333333334
30
0
11
407.67379679144386
21
223.33333333333334
31
0
0
LINE
8
ELEC-CABLE
10
409.6702317290552
20
223.33333333333334
30
0
11
411.6666666666667
21
223.33333333333334
31
0
0
LINE
8
ELEC-CABLE
10
30.333333333333336
20
225.33333333333334
30
0
11
30.333333333333336
21
223.33333333333334
31
0
0
LINE
8
ELEC-CABLE
10
30.333333333333336
20
223.33333333333334
30
0
11
32.333333333333336
21
223.33333333333334
31
0
0
LINE
8
ELEC-CABLE
10
34.333333333333336
20
223.33333333333334
30
0
11
36.333333333333336
21
223.33333333333334
31
0
0
LINE
8
ELEC-CABLE
10
185.0
20
223.33333333333334
30
0
11
185.0
21
221.33333333333334
31
0
0
LINE
8
ELEC-CABLE
10
185.0
20
219.33333333333334
30
0
11
185.0
21
217.33333333333334
31
0
0
LINE
8
ELEC-CABLE
10
185.0
20
215.33333333333334
30
0
11
185.0
21
213.33333333333334
31
0
0
LINE
8
ELEC-CABLE
10
185.0
20
211.33333333333334
30
0
11
185.0
21
209.33333333333334
31
0
0
LINE
8
ELEC-CABLE
10
185.0
20
207.33333333333334
30
0
11
185.0
21
205.33333333333334
31
0
0
LINE
8
ELEC-CABLE
10
185.0
20
203.33333333333334
30
0
11
185.0
21
201.33333333333334
31
0
0
LINE
8
ELEC-CABLE
10
185.0
20
199.33333333333334
30
0
11
185.0
21
197.33333333333334
31
0
0
LINE
8
ELEC-CABLE
10
185.0
20
195.33333333333334
30
0
11
185.0
21
193.33333333333334
31
0
0
LINE
8
ELEC-CABLE
10
185.0
20
191.33333333333334
30
0
11
185.0
21
189.33333333333334
31
0
0
LINE
8
ELEC-CABLE
10
185.0
20
187.33333333333334
30
0
11
185.0
21
185.33333333333334
31
0
0
LINE
8
ELEC-CABLE
10
185.0
20
183.33333333333334
30
0
11
185.0
21
181.33333333333334
31
0
0
LINE
8
ELEC-CABLE
10
185.0
20
179.33333333333334
30
0
11
185.0
21
177.33333333333334
31
0
0
LINE
8
ELEC-CABLE
10
185.0
20
175.33333333333334
30
0
11
185.0
21
173.33333333333334
31
0
0
LINE
8
ELEC-CABLE
10
185.0
20
171.33333333333334
30
0
11
185.0
21
169.33333333333334
31
0
0
LINE
8
ELEC-CABLE
10
265.0
20
223.33333333333334
30
0
11
265.0
21
221.33333333333334
31
0
0
LINE
8
ELEC-CABLE
10
265.0
20
219.33333333333334
30
0
11
265.0
21
217.33333333333334
31
0
0
LINE
8
ELEC-CABLE
10
265.0
20
215.33333333333334
30
0
11
265.0
21
213.33333333333334
31
0
0
LINE
8
ELEC-CABLE
10
265.0
20
211.33333333333334
30
0
11
265.0
21
209.33333333333334
31
0
0
LINE
8
ELEC-CABLE
10
265.0
20
207.33333333333334
30
0
11
265.0
21
205.33333333333334
31
0
0
LINE
8
ELEC-CABLE
10
265.0
20
203.33333333333334
30
0
11
265.0
21
201.33333333333334
31
0
0
LINE
8
ELEC-CABLE
10
265.0
20
199.33333333333334
30
0
11
265.0
21
197.33333333333334
31
0
0
LINE
8
ELEC-CABLE
10
265.0
20
195.33333333333334
30
0
11
265.0
21
193.33333333333334
31
0
0
LINE
8
ELEC-CABLE
10
265.0
20
191.33333333333334
30
0
11
265.0
21
189.33333333333334
31
0
0
LINE
8
ELEC-CABLE
10
265.0
20
187.33333333333334
30
0
11
265.0
21
185.33333333333334
31
0
0
LINE
8
ELEC-CABLE
10
265.0
20
183.33333333333334
30
0
11
265.0
21
181.33333333333334
31
0
0
LINE
8
ELEC-CABLE
10
265.0
20
179.33333333333334
30
0
11
265.0
21
177.33333333333334
31
0
0
LINE
8
ELEC-CABLE
10
265.0
20
175.33333333333334
30
0
11
265.0
21
173.33333333333334
31
0
0
LINE
8
ELEC-CABLE
10
265.0
20
171.33333333333334
30
0
11
265.0
21
169.33333333333334
31
0
0
LINE
8
ELEC-CABLE
10
345.0
20
223.33333333333334
30
0
11
345.0
21
221.33333333333334
31
0
0
LINE
8
ELEC-CABLE
10
345.0
20
219.33333333333334
30
0
11
345.0
21
217.33333333333334
31
0
0
LINE
8
ELEC-CABLE
10
345.0
20
215.33333333333334
30
0
11
345.0
21
213.33333333333334
31
0
0
LINE
8
ELEC-CABLE
10
345.0
20
211.33333333333334
30
0
11
345.0
21
209.33333333333334
31
0
0
LINE
8
ELEC-CABLE
10
345.0
20
207.33333333333334
30
0
11
345.0
21
205.33333333333334
31
0
0
LINE
8
ELEC-CABLE
10
345.0
20
203.33333333333334
30
0
11
345.0
21
201.33333333333334
31
0
0
LINE
8
ELEC-CABLE
10
345.0
20
199.33333333333334
30
0
11
345.0
21
197.33333333333334
31
0
0
LINE
8
ELEC-CABLE
10
345.0
20
195.33333333333334
30
0
11
345.0
21
193.33333333333334
31
0
0
LINE
8
ELEC-CABLE
10
345.0
20
191.33333333333334
30
0
11
345.0
21
189.33333333333334
31
0
0
LINE
8
ELEC-CABLE
10
345.0
20
187.33333333333334
30
0
11
345.0
21
185.33333333333334
31
0
0
LINE
8
ELEC-CABLE
10
345.0
20
183.33333333333334
30
0
11
345.0
21
181.33333333333334
31
0
0
LINE
8
ELEC-CABLE
10
345.0
20
179.33333333333334
30
0
11
345.0
21
177.33333333333334
31
0
0
LINE
8
ELEC-CABLE
10
345.0
20
175.33333333333334
30
0
11
345.0
21
173.33333333333334
31
0
0
LINE
8
ELEC-CABLE
10
345.0
20
171.33333333333334
30
0
11
345.0
21
169.33333333333334
31
0
0
LINE
8
ELEC-CABLE
10
198.33333333333334
20
223.33333333333334
30
0
11
198.33333333333334
21
225.30864197530866
31
0
0
LINE
8
ELEC-CABLE
10
198.33333333333334
20
227.28395061728395
30
0
11
198.33333333333334
21
229.25925925925927
31
0
0
LINE
8
ELEC-CABLE
10
198.33333333333334
20
231.23456790123458
30
0
11
198.33333333333334
21
233.2098765432099
31
0
0
LINE
8
ELEC-CABLE
10
198.33333333333334
20
235.1851851851852
30
0
11
198.33333333333334
21
237.1604938271605
31
0
0
LINE
8
ELEC-CABLE
10
198.33333333333334
20
239.13580246913583
30
0
11
198.33333333333334
21
241.11111111111111
31
0
0
LINE
8
ELEC-CABLE
10
198.33333333333334
20
243.08641975308643
30
0
11
198.33333333333334
21
245.06172839506175
31
0
0
LINE
8
ELEC-CABLE
10
198.33333333333334
20
247.03703703703707
30
0
11
198.33333333333334
21
249.01234567901236
31
0
0
LINE
8
ELEC-CABLE
10
198.33333333333334
20
250.98765432098767
30
0
11
198.33333333333334
21
252.962962962963
31
0
0
LINE
8
ELEC-CABLE
10
198.33333333333334
20
254.93827160493828
30
0
11
198.33333333333334
21
256.9135802469136
31
0
0
LINE
8
ELEC-CABLE
10
198.33333333333334
20
258.8888888888889
30
0
11
198.33333333333334
21
260.8641975308642
31
0
0
LINE
8
ELEC-CABLE
10
198.33333333333334
20
262.8395061728395
30
0
11
198.33333333333334
21
264.81481481481484
31
0
0
LINE
8
ELEC-CABLE
10
198.33333333333334
20
266.7901234567901
30
0
11
198.33333333333334
21
268.7654320987655
31
0
0
LINE
8
ELEC-CABLE
10
198.33333333333334
20
270.74074074074076
30
0
11
198.33333333333334
21
272.71604938271605
31
0
0
LINE
8
ELEC-CABLE
10
198.33333333333334
20
274.69135802469134
30
0
11
198.33333333333334
21
276.6666666666667
31
0
0
LINE
8
ELEC-CABLE
10
105.0
20
223.33333333333334
30
0
11
105.0
21
221.42857142857144
31
0
0
LINE
8
ELEC-CABLE
10
105.0
20
219.52380952380955
30
0
11
105.0
21
217.61904761904762
31
0
0
LINE
8
ELEC-CABLE
10
105.0
20
215.71428571428572
30
0
11
105.0
21
213.80952380952382
31
0
0
LINE
8
ELEC-CABLE
10
105.0
20
211.90476190476193
30
0
11
105.0
21
210.0
31
0
0
LINE
8
ELEC-CABLE
10
105.0
20
208.0952380952381
30
0
11
105.0
21
206.1904761904762
31
0
0
LINE
8
ELEC-CABLE
10
105.0
20
204.2857142857143
30
0
11
105.0
21
202.3809523809524
31
0
0
LINE
8
ELEC-CABLE
10
105.0
20
200.47619047619048
30
0
11
105.0
21
198.57142857142858
31
0
0
LINE
8
ELEC-CABLE
10
398.33333333333337
20
223.33333333333334
30
0
11
398.33333333333337
21
225.30864197530866
31
0
0
LINE
8
ELEC-CABLE
10
398.33333333333337
20
227.28395061728395
30
0
11
398.33333333333337
21
229.25925925925927
31
0
0
LINE
8
ELEC-CABLE
10
398.33333333333337
20
231.23456790123458
30
0
11
398.33333333333337
21
233.2098765432099
31
0
0
LINE
8
ELEC-CABLE
10
398.33333333333337
20
235.1851851851852
30
0
11
398.33333333333337
21
237.1604938271605
31
0
0
LINE
8
ELEC-CABLE
10
398.33333333333337
20
239.13580246913583
30
0
11
398.33333333333337
21
241.11111111111111
31
0
0
LINE
8
ELEC-CABLE
10
398.33333333333337
20
243.08641975308643
30
0
11
398.33333333333337
21
245.06172839506175
31
0
0
LINE
8
ELEC-CABLE
10
398.33333333333337
20
247.03703703703707
30
0
11
398.33333333333337
21
249.01234567901236
31
0
0
LINE
8
ELEC-CABLE
10
398.33333333333337
20
250.98765432098767
30
0
11
398.33333333333337
21
252.962962962963
31
0
0
LINE
8
ELEC-CABLE
10
398.33333333333337
20
254.93827160493828
30
0
11
398.33333333333337
21
256.9135802469136
31
0
0
LINE
8
ELEC-CABLE
10
398.33333333333337
20
258.8888888888889
30
0
11
398.33333333333337
21
260.8641975308642
31
0
0
LINE
8
ELEC-CABLE
10
398.33333333333337
20
262.8395061728395
30
0
11
398.33333333333337
21
264.81481481481484
31
0
0
LINE
8
ELEC-CABLE
10
398.33333333333337
20
266.7901234567901
30
0
11
398.33333333333337
21
268.7654320987655
31
0
0
LINE
8
ELEC-CABLE
10
398.33333333333337
20
270.74074074074076
30
0
11
398.33333333333337
21
272.71604938271605
31
0
0
LINE
8
ELEC-CABLE
10
398.33333333333337
20
274.69135802469134
30
0
11
398.33333333333337
21
276.6666666666667
31
0
0
LINE
8
SHEET
10
448
20
360
30
0
11
448
21
55
31
0
0
TEXT
8
ELEC-TEXT
10
457
20
352
30
0
40
3.3
1
DRAWING NOTES
7
STANDARD
41
0.85
0
TEXT
8
ELEC-TEXT
10
457
20
342.0
30
0
40
2.6
1
All circuit tags use floor prefix
7
STANDARD
41
0.85
0
TEXT
8
ELEC-TEXT
10
457
20
336.5
30
0
40
2.6
1
(FF-P01, FF-REF01, etc.).
7
STANDARD
41
0.85
0
TEXT
8
ELEC-TEXT
10
457
20
331.0
30
0
40
2.6
1
Double GPO: two 10 A sockets.
7
STANDARD
41
0.85
0
TEXT
8
ELEC-TEXT
10
457
20
325.5
30
0
40
2.6
1
P01-P03: workstation banks.
7
STANDARD
41
0.85
0
TEXT
8
ELEC-TEXT
10
457
20
320.0
30
0
40
2.6
1
P04: meeting / office outlets.
7
STANDARD
41
0.85
0
TEXT
8
ELEC-TEXT
10
457
20
314.5
30
0
40
2.6
1
P05: reception / copy / cleaning.
7
STANDARD
41
0.85
0
TEXT
8
ELEC-TEXT
10
457
20
309.0
30
0
40
2.6
1
P06: kitchen small appliances.
7
STANDARD
41
0.85
0
TEXT
8
ELEC-TEXT
10
457
20
303.5
30
0
40
2.6
1
GPO circuits: 20 A RCBO,
7
STANDARD
41
0.85
0
TEXT
8
ELEC-TEXT
10
457
20
298.0
30
0
40
2.6
1
4 mm2 Cu + PE provisional.
7
STANDARD
41
0.85
0
TEXT
8
ELEC-TEXT
10
457
20
292.5
30
0
40
2.6
1
Dedicated circuits: see E-501
7
STANDARD
41
0.85
0
TEXT
8
ELEC-TEXT
10
457
20
287.0
30
0
40
2.6
1
and equipment schedule.
7
STANDARD
41
0.85
0
TEXT
8
ELEC-TEXT
10
457
20
281.5
30
0
40
2.6
1
Dashed routes group circuits;
7
STANDARD
41
0.85
0
TEXT
8
ELEC-TEXT
10
457
20
276.0
30
0
40
2.6
1
not individual conductor paths.
7
STANDARD
41
0.85
0
TEXT
8
ELEC-TEXT
10
457
20
270.5
30
0
40
2.6
1
HVAC units on north service
7
STANDARD
41
0.85
0
TEXT
8
ELEC-TEXT
10
457
20
265.0
30
0
40
2.6
1
ledge; local lockable isolators.
7
STANDARD
41
0.85
0
TEXT
8
ELEC-TEXT
10
457
20
259.5
30
0
40
2.6
1
No outlets inside wet zones.
7
STANDARD
41
0.85
0
TEXT
8
ELEC-TEXT
10
457
20
254.0
30
0
40
2.6
1
Final locations need coordination.
7
STANDARD
41
0.85
0
TEXT
8
ELEC-TEXT
10
457
20
233
30
0
40
3.1
1
DEDICATED CIRCUITS
7
STANDARD
41
0.85
0
TEXT
8
ELEC-TEXT
10
457
20
223
30
0
40
2.7
1
FF-REF01  0.25 kW
7
STANDARD
41
0.85
0
TEXT
8
ELEC-TEXT
10
457
20
217
30
0
40
2.2
1
Refrigerator
7
STANDARD
41
0.85
0
TEXT
8
ELEC-TEXT
10
457
20
209
30
0
40
2.7
1
FF-DW01  2.00 kW
7
STANDARD
41
0.85
0
TEXT
8
ELEC-TEXT
10
457
20
203
30
0
40
2.2
1
Dishwasher
7
STANDARD
41
0.85
0
TEXT
8
ELEC-TEXT
10
457
20
195
30
0
40
2.7
1
FF-MW01  1.50 kW
7
STANDARD
41
0.85
0
TEXT
8
ELEC-TEXT
10
457
20
189
30
0
40
2.2
1
Microwave
7
STANDARD
41
0.85
0
TEXT
8
ELEC-TEXT
10
457
20
181
30
0
40
2.7
1
FF-WH01  2.40 kW
7
STANDARD
41
0.85
0
TEXT
8
ELEC-TEXT
10
457
20
175
30
0
40
2.2
1
Storage water heater
7
STANDARD
41
0.85
0
TEXT
8
ELEC-TEXT
10
457
20
167
30
0
40
2.7
1
FF-CP01  1.50 kW
7
STANDARD
41
0.85
0
TEXT
8
ELEC-TEXT
10
457
20
161
30
0
40
2.2
1
Copier
7
STANDARD
41
0.85
0
TEXT
8
ELEC-TEXT
10
457
20
153
30
0
40
2.7
1
FF-AC01  6.00 kW
7
STANDARD
41
0.85
0
TEXT
8
ELEC-TEXT
10
457
20
147
30
0
40
2.2
1
AC-FF-01 packaged HVAC
7
STANDARD
41
0.85
0
TEXT
8
ELEC-TEXT
10
457
20
139
30
0
40
2.7
1
FF-AC02  6.00 kW
7
STANDARD
41
0.85
0
TEXT
8
ELEC-TEXT
10
457
20
133
30
0
40
2.2
1
AC-FF-02 packaged HVAC
7
STANDARD
41
0.85
0
TEXT
8
ELEC-TEXT
10
25
20
101
30
0
40
3
1
ROOM KEY
7
STANDARD
41
0.85
0
TEXT
8
ELEC-TEXT
10
25
20
93
30
0
40
2.45
1
PRT  Print / copy
7
STANDARD
41
0.85
0
TEXT
8
ELEC-TEXT
10
164
20
93
30
0
40
2.45
1
STO  Storage
7
STANDARD
41
0.85
0
TEXT
8
ELEC-TEXT
10
303
20
93
30
0
40
2.45
1
ACC  Accessible WC
7
STANDARD
41
0.85
0
TEXT
8
ELEC-TEXT
10
25
20
87
30
0
40
2.45
1
WC  Toilets
7
STANDARD
41
0.85
0
TEXT
8
ELEC-TEXT
10
164
20
87
30
0
40
2.45
1
CONF  Conference
7
STANDARD
41
0.85
0
TEXT
8
ELEC-TEXT
10
303
20
87
30
0
40
2.45
1
MT1  Small meeting
7
STANDARD
41
0.85
0
TEXT
8
ELEC-TEXT
10
25
20
81
30
0
40
2.45
1
MGR1  Manager 1
7
STANDARD
41
0.85
0
TEXT
8
ELEC-TEXT
10
164
20
81
30
0
40
2.45
1
MGR2  Manager 2
7
STANDARD
41
0.85
0
TEXT
8
ELEC-TEXT
10
303
20
81
30
0
40
2.45
1
KIT  Kitchen / break
7
STANDARD
41
0.85
0
TEXT
8
ELEC-TEXT
10
25
20
75
30
0
40
2.45
1
ST1  Stair 1
7
STANDARD
41
0.85
0
TEXT
8
ELEC-TEXT
10
164
20
75
30
0
40
2.45
1
OPEN  Open office
7
STANDARD
41
0.85
0
TEXT
8
ELEC-TEXT
10
303
20
75
30
0
40
2.45
1
ST2  Stair 2
7
STANDARD
41
0.85
0
LINE
8
SHEET
10
10
20
410
30
0
11
584
21
410
31
0
0
LINE
8
SHEET
10
584
20
410
30
0
11
584
21
10
31
0
0
LINE
8
SHEET
10
584
20
10
30
0
11
10
21
10
31
0
0
LINE
8
SHEET
10
10
20
10
30
0
11
10
21
410
31
0
0
LINE
8
SHEET
10
10
20
372
30
0
11
584
21
372
31
0
0
TEXT
8
ELEC-TEXT
10
20
20
394
30
0
40
6
1
NORTHBANK OFFICE
7
STANDARD
41
0.85
0
TEXT
8
ELEC-TEXT
10
20
20
381
30
0
40
4
1
FIRST FLOOR POWER
7
STANDARD
41
0.85
0
TEXT
8
ELEC-TEXT
10
456
20
395
30
0
40
3
1
ELECTRICAL PORTFOLIO
7
STANDARD
41
0.85
0
TEXT
8
ELEC-TEXT
10
456
20
386
30
0
40
2.8
1
CONCEPT DESIGN  /  REV A
7
STANDARD
41
0.85
0
TEXT
8
ELEC-TEXT
10
456
20
378
30
0
40
2.5
1
NOT FOR CONSTRUCTION
7
STANDARD
41
0.85
0
LINE
8
SHEET
10
10
20
38
30
0
11
584
21
38
31
0
0
LINE
8
SHEET
10
345
20
38
30
0
11
345
21
10
31
0
0
LINE
8
SHEET
10
480
20
38
30
0
11
480
21
10
31
0
0
TEXT
8
ELEC-TEXT
10
18
20
29
30
0
40
3.1
1
Two-Storey Commercial Office Electrical Design
7
STANDARD
41
0.85
0
TEXT
8
ELEC-TEXT
10
18
20
22
30
0
40
2.7
1
Designed by: Electrical Engineering Portfolio Project
7
STANDARD
41
0.85
0
TEXT
8
ELEC-TEXT
10
18
20
15
30
0
40
2.3
1
Educational exercise; not for construction, certification or regulatory approval.
7
STANDARD
41
0.85
0
TEXT
8
ELEC-TEXT
10
353
20
29
30
0
40
2.5
1
E-202  |  First floor power
7
STANDARD
41
0.85
0
TEXT
8
ELEC-TEXT
10
353
20
21
30
0
40
2.5
1
Scale: 1:75 at A2  |  Units: mm
7
STANDARD
41
0.85
0
TEXT
8
ELEC-TEXT
10
488
20
29
30
0
40
3
1
REV A
7
STANDARD
41
0.85
0
TEXT
8
ELEC-TEXT
10
488
20
21
30
0
40
2.7
1
2026-09-29
7
STANDARD
41
0.85
0
TEXT
8
ELEC-TEXT
10
488
20
14
30
0
40
2.3
1
Sheet size: 594 x 420 mm
7
STANDARD
41
0.85
0
ENDSEC
0
EOF
