0
SECTION
2
HEADER
9
$ACADVER
1
AC1009
9
$LUNITS
70
2
9
$LUPREC
70
2
9
$MEASUREMENT
70
1
9
$EXTMIN
10
0
20
0
30
0
9
$EXTMAX
10
594
20
420
30
0
0
ENDSEC
0
SECTION
2
TABLES
0
TABLE
2
LTYPE
70
1
0
LTYPE
2
CONTINUOUS
70
0
3
Continuous
72
65
73
0
40
0
0
ENDTAB
0
TABLE
2
LAYER
70
18
0
LAYER
2
0
70
0
62
7
6
CONTINUOUS
0
LAYER
2
ARCH-WALLS
70
0
62
8
6
CONTINUOUS
0
LAYER
2
ARCH-DOORS
70
0
62
8
6
CONTINUOUS
0
LAYER
2
ARCH-TEXT
70
0
62
8
6
CONTINUOUS
0
LAYER
2
ARCH-FURNITURE
70
0
62
8
6
CONTINUOUS
0
LAYER
2
ELEC-LIGHT
70
0
62
2
6
CONTINUOUS
0
LAYER
2
ELEC-EMERGENCY
70
0
62
3
6
CONTINUOUS
0
LAYER
2
ELEC-SWITCH
70
0
62
6
6
CONTINUOUS
0
LAYER
2
ELEC-POWER
70
0
62
4
6
CONTINUOUS
0
LAYER
2
ELEC-DEDICATED
70
0
62
1
6
CONTINUOUS
0
LAYER
2
ELEC-DB
70
0
62
1
6
CONTINUOUS
0
LAYER
2
ELEC-CABLE
70
0
62
5
6
CONTINUOUS
0
LAYER
2
ELEC-SLD
70
0
62
7
6
CONTINUOUS
0
LAYER
2
ELEC-SYMBOLS
70
0
62
7
6
CONTINUOUS
0
LAYER
2
ELEC-TEXT
70
0
62
7
6
CONTINUOUS
0
LAYER
2
ELEC-LIGHT-TEXT
70
0
62
2
6
CONTINUOUS
0
LAYER
2
ELEC-DIMENSIONS
70
0
62
8
6
CONTINUOUS
0
LAYER
2
SHEET
70
0
62
7
6
CONTINUOUS
0
ENDTAB
0
TABLE
2
STYLE
70
1
0
STYLE
2
STANDARD
70
0
40
0
41
1
50
0
71
0
42
2.5
3
standard
4

0
ENDTAB
0
ENDSEC
0
SECTION
2
BLOCKS
0
ENDSEC
0
SECTION
2
ENTITIES
0
TEXT
8
ELEC-TEXT
10
20
20
356
30
0
40
3.5
1
DB-GF  /  80 A feeder  /  125 A bus
7
STANDARD
41
0.85
0
LINE
8
SHEET
10
20
20
348
30
0
11
248
21
348
31
0
0
LINE
8
SHEET
10
248
20
348
30
0
11
248
21
144.0
31
0
0
LINE
8
SHEET
10
248
20
144.0
30
0
11
20
21
144.0
31
0
0
LINE
8
SHEET
10
20
20
144.0
30
0
11
20
21
348
31
0
0
TEXT
8
ELEC-TEXT
10
22
20
342.22
30
0
40
2.3
1
CCT
7
STANDARD
41
0.85
0
LINE
8
SHEET
10
46
20
348
30
0
11
46
21
144.0
31
0
0
TEXT
8
ELEC-TEXT
10
48
20
342.22
30
0
40
2.3
1
DESTINATION
7
STANDARD
41
0.85
0
LINE
8
SHEET
10
131
20
348
30
0
11
131
21
144.0
31
0
0
TEXT
8
ELEC-TEXT
10
133
20
342.22
30
0
40
2.3
1
PH
7
STANDARD
41
0.85
0
LINE
8
SHEET
10
147
20
348
30
0
11
147
21
144.0
31
0
0
TEXT
8
ELEC-TEXT
10
149
20
342.22
30
0
40
2.3
1
kW
7
STANDARD
41
0.85
0
LINE
8
SHEET
10
171
20
348
30
0
11
171
21
144.0
31
0
0
TEXT
8
ELEC-TEXT
10
173
20
342.22
30
0
40
2.3
1
A
7
STANDARD
41
0.85
0
LINE
8
SHEET
10
195
20
348
30
0
11
195
21
144.0
31
0
0
TEXT
8
ELEC-TEXT
10
197
20
342.22
30
0
40
2.3
1
CB A
7
STANDARD
41
0.85
0
LINE
8
SHEET
10
219
20
348
30
0
11
219
21
144.0
31
0
0
TEXT
8
ELEC-TEXT
10
221
20
342.22
30
0
40
2.3
1
mm2
7
STANDARD
41
0.85
0
LINE
8
SHEET
10
20
20
339.5
30
0
11
248
21
339.5
31
0
0
TEXT
8
ELEC-TEXT
10
22
20
333.72
30
0
40
2.3
1
L01
7
STANDARD
41
0.85
0
TEXT
8
ELEC-TEXT
10
48
20
333.72
30
0
40
2.3
1
Open office west
7
STANDARD
41
0.85
0
TEXT
8
ELEC-TEXT
10
133
20
333.72
30
0
40
2.3
1
A
7
STANDARD
41
0.85
0
TEXT
8
ELEC-TEXT
10
149
20
333.72
30
0
40
2.3
1
0.43
7
STANDARD
41
0.85
0
TEXT
8
ELEC-TEXT
10
173
20
333.72
30
0
40
2.3
1
2.0
7
STANDARD
41
0.85
0
TEXT
8
ELEC-TEXT
10
197
20
333.72
30
0
40
2.3
1
10
7
STANDARD
41
0.85
0
TEXT
8
ELEC-TEXT
10
221
20
333.72
30
0
40
2.3
1
1.5
7
STANDARD
41
0.85
0
LINE
8
SHEET
10
20
20
331.0
30
0
11
248
21
331.0
31
0
0
TEXT
8
ELEC-TEXT
10
22
20
325.22
30
0
40
2.3
1
L02
7
STANDARD
41
0.85
0
TEXT
8
ELEC-TEXT
10
48
20
325.22
30
0
40
2.3
1
Open office east
7
STANDARD
41
0.85
0
TEXT
8
ELEC-TEXT
10
133
20
325.22
30
0
40
2.3
1
A
7
STANDARD
41
0.85
0
TEXT
8
ELEC-TEXT
10
149
20
325.22
30
0
40
2.3
1
0.44
7
STANDARD
41
0.85
0
TEXT
8
ELEC-TEXT
10
173
20
325.22
30
0
40
2.3
1
2.0
7
STANDARD
41
0.85
0
TEXT
8
ELEC-TEXT
10
197
20
325.22
30
0
40
2.3
1
10
7
STANDARD
41
0.85
0
TEXT
8
ELEC-TEXT
10
221
20
325.22
30
0
40
2.3
1
1.5
7
STANDARD
41
0.85
0
LINE
8
SHEET
10
20
20
322.5
30
0
11
248
21
322.5
31
0
0
TEXT
8
ELEC-TEXT
10
22
20
316.72
30
0
40
2.3
1
L03
7
STANDARD
41
0.85
0
TEXT
8
ELEC-TEXT
10
48
20
316.72
30
0
40
2.3
1
Reception / waiting
7
STANDARD
41
0.85
0
TEXT
8
ELEC-TEXT
10
133
20
316.72
30
0
40
2.3
1
A
7
STANDARD
41
0.85
0
TEXT
8
ELEC-TEXT
10
149
20
316.72
30
0
40
2.3
1
0.29
7
STANDARD
41
0.85
0
TEXT
8
ELEC-TEXT
10
173
20
316.72
30
0
40
2.3
1
1.3
7
STANDARD
41
0.85
0
TEXT
8
ELEC-TEXT
10
197
20
316.72
30
0
40
2.3
1
10
7
STANDARD
41
0.85
0
TEXT
8
ELEC-TEXT
10
221
20
316.72
30
0
40
2.3
1
1.5
7
STANDARD
41
0.85
0
LINE
8
SHEET
10
20
20
314.0
30
0
11
248
21
314.0
31
0
0
TEXT
8
ELEC-TEXT
10
22
20
308.22
30
0
40
2.3
1
L04
7
STANDARD
41
0.85
0
TEXT
8
ELEC-TEXT
10
48
20
308.22
30
0
40
2.3
1
Meeting rooms
7
STANDARD
41
0.85
0
TEXT
8
ELEC-TEXT
10
133
20
308.22
30
0
40
2.3
1
C
7
STANDARD
41
0.85
0
TEXT
8
ELEC-TEXT
10
149
20
308.22
30
0
40
2.3
1
0.43
7
STANDARD
41
0.85
0
TEXT
8
ELEC-TEXT
10
173
20
308.22
30
0
40
2.3
1
2.0
7
STANDARD
41
0.85
0
TEXT
8
ELEC-TEXT
10
197
20
308.22
30
0
40
2.3
1
10
7
STANDARD
41
0.85
0
TEXT
8
ELEC-TEXT
10
221
20
308.22
30
0
40
2.3
1
1.5
7
STANDARD
41
0.85
0
LINE
8
SHEET
10
20
20
305.5
30
0
11
248
21
305.5
31
0
0
TEXT
8
ELEC-TEXT
10
22
20
299.72
30
0
40
2.3
1
L05
7
STANDARD
41
0.85
0
TEXT
8
ELEC-TEXT
10
48
20
299.72
30
0
40
2.3
1
Kitchen / toilets
7
STANDARD
41
0.85
0
TEXT
8
ELEC-TEXT
10
133
20
299.72
30
0
40
2.3
1
A
7
STANDARD
41
0.85
0
TEXT
8
ELEC-TEXT
10
149
20
299.72
30
0
40
2.3
1
0.52
7
STANDARD
41
0.85
0
TEXT
8
ELEC-TEXT
10
173
20
299.72
30
0
40
2.3
1
2.4
7
STANDARD
41
0.85
0
TEXT
8
ELEC-TEXT
10
197
20
299.72
30
0
40
2.3
1
10
7
STANDARD
41
0.85
0
TEXT
8
ELEC-TEXT
10
221
20
299.72
30
0
40
2.3
1
1.5
7
STANDARD
41
0.85
0
LINE
8
SHEET
10
20
20
297.0
30
0
11
248
21
297.0
31
0
0
TEXT
8
ELEC-TEXT
10
22
20
291.22
30
0
40
2.3
1
L06
7
STANDARD
41
0.85
0
TEXT
8
ELEC-TEXT
10
48
20
291.22
30
0
40
2.3
1
Service rooms
7
STANDARD
41
0.85
0
TEXT
8
ELEC-TEXT
10
133
20
291.22
30
0
40
2.3
1
A
7
STANDARD
41
0.85
0
TEXT
8
ELEC-TEXT
10
149
20
291.22
30
0
40
2.3
1
0.19
7
STANDARD
41
0.85
0
TEXT
8
ELEC-TEXT
10
173
20
291.22
30
0
40
2.3
1
0.9
7
STANDARD
41
0.85
0
TEXT
8
ELEC-TEXT
10
197
20
291.22
30
0
40
2.3
1
10
7
STANDARD
41
0.85
0
TEXT
8
ELEC-TEXT
10
221
20
291.22
30
0
40
2.3
1
1.5
7
STANDARD
41
0.85
0
LINE
8
SHEET
10
20
20
288.5
30
0
11
248
21
288.5
31
0
0
TEXT
8
ELEC-TEXT
10
22
20
282.72
30
0
40
2.3
1
L07
7
STANDARD
41
0.85
0
TEXT
8
ELEC-TEXT
10
48
20
282.72
30
0
40
2.3
1
Corridor
7
STANDARD
41
0.85
0
TEXT
8
ELEC-TEXT
10
133
20
282.72
30
0
40
2.3
1
B
7
STANDARD
41
0.85
0
TEXT
8
ELEC-TEXT
10
149
20
282.72
30
0
40
2.3
1
0.26
7
STANDARD
41
0.85
0
TEXT
8
ELEC-TEXT
10
173
20
282.72
30
0
40
2.3
1
1.2
7
STANDARD
41
0.85
0
TEXT
8
ELEC-TEXT
10
197
20
282.72
30
0
40
2.3
1
10
7
STANDARD
41
0.85
0
TEXT
8
ELEC-TEXT
10
221
20
282.72
30
0
40
2.3
1
1.5
7
STANDARD
41
0.85
0
LINE
8
SHEET
10
20
20
280.0
30
0
11
248
21
280.0
31
0
0
TEXT
8
ELEC-TEXT
10
22
20
274.22
30
0
40
2.3
1
L08
7
STANDARD
41
0.85
0
TEXT
8
ELEC-TEXT
10
48
20
274.22
30
0
40
2.3
1
Both stairs
7
STANDARD
41
0.85
0
TEXT
8
ELEC-TEXT
10
133
20
274.22
30
0
40
2.3
1
B
7
STANDARD
41
0.85
0
TEXT
8
ELEC-TEXT
10
149
20
274.22
30
0
40
2.3
1
0.17
7
STANDARD
41
0.85
0
TEXT
8
ELEC-TEXT
10
173
20
274.22
30
0
40
2.3
1
0.8
7
STANDARD
41
0.85
0
TEXT
8
ELEC-TEXT
10
197
20
274.22
30
0
40
2.3
1
10
7
STANDARD
41
0.85
0
TEXT
8
ELEC-TEXT
10
221
20
274.22
30
0
40
2.3
1
1.5
7
STANDARD
41
0.85
0
LINE
8
SHEET
10
20
20
271.5
30
0
11
248
21
271.5
31
0
0
TEXT
8
ELEC-TEXT
10
22
20
265.72
30
0
40
2.3
1
P01
7
STANDARD
41
0.85
0
TEXT
8
ELEC-TEXT
10
48
20
265.72
30
0
40
2.3
1
Desk bank west
7
STANDARD
41
0.85
0
TEXT
8
ELEC-TEXT
10
133
20
265.72
30
0
40
2.3
1
B
7
STANDARD
41
0.85
0
TEXT
8
ELEC-TEXT
10
149
20
265.72
30
0
40
2.3
1
2.40
7
STANDARD
41
0.85
0
TEXT
8
ELEC-TEXT
10
173
20
265.72
30
0
40
2.3
1
11.0
7
STANDARD
41
0.85
0
TEXT
8
ELEC-TEXT
10
197
20
265.72
30
0
40
2.3
1
20
7
STANDARD
41
0.85
0
TEXT
8
ELEC-TEXT
10
221
20
265.72
30
0
40
2.3
1
4
7
STANDARD
41
0.85
0
LINE
8
SHEET
10
20
20
263.0
30
0
11
248
21
263.0
31
0
0
TEXT
8
ELEC-TEXT
10
22
20
257.22
30
0
40
2.3
1
P02
7
STANDARD
41
0.85
0
TEXT
8
ELEC-TEXT
10
48
20
257.22
30
0
40
2.3
1
Desk bank centre
7
STANDARD
41
0.85
0
TEXT
8
ELEC-TEXT
10
133
20
257.22
30
0
40
2.3
1
C
7
STANDARD
41
0.85
0
TEXT
8
ELEC-TEXT
10
149
20
257.22
30
0
40
2.3
1
2.40
7
STANDARD
41
0.85
0
TEXT
8
ELEC-TEXT
10
173
20
257.22
30
0
40
2.3
1
11.0
7
STANDARD
41
0.85
0
TEXT
8
ELEC-TEXT
10
197
20
257.22
30
0
40
2.3
1
20
7
STANDARD
41
0.85
0
TEXT
8
ELEC-TEXT
10
221
20
257.22
30
0
40
2.3
1
4
7
STANDARD
41
0.85
0
LINE
8
SHEET
10
20
20
254.5
30
0
11
248
21
254.5
31
0
0
TEXT
8
ELEC-TEXT
10
22
20
248.72
30
0
40
2.3
1
P03
7
STANDARD
41
0.85
0
TEXT
8
ELEC-TEXT
10
48
20
248.72
30
0
40
2.3
1
Desk bank east
7
STANDARD
41
0.85
0
TEXT
8
ELEC-TEXT
10
133
20
248.72
30
0
40
2.3
1
B
7
STANDARD
41
0.85
0
TEXT
8
ELEC-TEXT
10
149
20
248.72
30
0
40
2.3
1
2.40
7
STANDARD
41
0.85
0
TEXT
8
ELEC-TEXT
10
173
20
248.72
30
0
40
2.3
1
11.0
7
STANDARD
41
0.85
0
TEXT
8
ELEC-TEXT
10
197
20
248.72
30
0
40
2.3
1
20
7
STANDARD
41
0.85
0
TEXT
8
ELEC-TEXT
10
221
20
248.72
30
0
40
2.3
1
4
7
STANDARD
41
0.85
0
LINE
8
SHEET
10
20
20
246.0
30
0
11
248
21
246.0
31
0
0
TEXT
8
ELEC-TEXT
10
22
20
240.22
30
0
40
2.3
1
P04
7
STANDARD
41
0.85
0
TEXT
8
ELEC-TEXT
10
48
20
240.22
30
0
40
2.3
1
Meeting / offices
7
STANDARD
41
0.85
0
TEXT
8
ELEC-TEXT
10
133
20
240.22
30
0
40
2.3
1
B
7
STANDARD
41
0.85
0
TEXT
8
ELEC-TEXT
10
149
20
240.22
30
0
40
2.3
1
1.80
7
STANDARD
41
0.85
0
TEXT
8
ELEC-TEXT
10
173
20
240.22
30
0
40
2.3
1
8.2
7
STANDARD
41
0.85
0
TEXT
8
ELEC-TEXT
10
197
20
240.22
30
0
40
2.3
1
20
7
STANDARD
41
0.85
0
TEXT
8
ELEC-TEXT
10
221
20
240.22
30
0
40
2.3
1
4
7
STANDARD
41
0.85
0
LINE
8
SHEET
10
20
20
237.5
30
0
11
248
21
237.5
31
0
0
TEXT
8
ELEC-TEXT
10
22
20
231.72
30
0
40
2.3
1
P05
7
STANDARD
41
0.85
0
TEXT
8
ELEC-TEXT
10
48
20
231.72
30
0
40
2.3
1
Reception / cleaning
7
STANDARD
41
0.85
0
TEXT
8
ELEC-TEXT
10
133
20
231.72
30
0
40
2.3
1
A
7
STANDARD
41
0.85
0
TEXT
8
ELEC-TEXT
10
149
20
231.72
30
0
40
2.3
1
1.80
7
STANDARD
41
0.85
0
TEXT
8
ELEC-TEXT
10
173
20
231.72
30
0
40
2.3
1
8.2
7
STANDARD
41
0.85
0
TEXT
8
ELEC-TEXT
10
197
20
231.72
30
0
40
2.3
1
20
7
STANDARD
41
0.85
0
TEXT
8
ELEC-TEXT
10
221
20
231.72
30
0
40
2.3
1
4
7
STANDARD
41
0.85
0
LINE
8
SHEET
10
20
20
229.0
30
0
11
248
21
229.0
31
0
0
TEXT
8
ELEC-TEXT
10
22
20
223.22
30
0
40
2.3
1
P06
7
STANDARD
41
0.85
0
TEXT
8
ELEC-TEXT
10
48
20
223.22
30
0
40
2.3
1
Kitchen small power
7
STANDARD
41
0.85
0
TEXT
8
ELEC-TEXT
10
133
20
223.22
30
0
40
2.3
1
A
7
STANDARD
41
0.85
0
TEXT
8
ELEC-TEXT
10
149
20
223.22
30
0
40
2.3
1
3.00
7
STANDARD
41
0.85
0
TEXT
8
ELEC-TEXT
10
173
20
223.22
30
0
40
2.3
1
13.7
7
STANDARD
41
0.85
0
TEXT
8
ELEC-TEXT
10
197
20
223.22
30
0
40
2.3
1
20
7
STANDARD
41
0.85
0
TEXT
8
ELEC-TEXT
10
221
20
223.22
30
0
40
2.3
1
4
7
STANDARD
41
0.85
0
LINE
8
SHEET
10
20
20
220.5
30
0
11
248
21
220.5
31
0
0
TEXT
8
ELEC-TEXT
10
22
20
214.72
30
0
40
2.3
1
REF01
7
STANDARD
41
0.85
0
TEXT
8
ELEC-TEXT
10
48
20
214.72
30
0
40
2.3
1
Refrigerator
7
STANDARD
41
0.85
0
TEXT
8
ELEC-TEXT
10
133
20
214.72
30
0
40
2.3
1
C
7
STANDARD
41
0.85
0
TEXT
8
ELEC-TEXT
10
149
20
214.72
30
0
40
2.3
1
0.25
7
STANDARD
41
0.85
0
TEXT
8
ELEC-TEXT
10
173
20
214.72
30
0
40
2.3
1
1.2
7
STANDARD
41
0.85
0
TEXT
8
ELEC-TEXT
10
197
20
214.72
30
0
40
2.3
1
10
7
STANDARD
41
0.85
0
TEXT
8
ELEC-TEXT
10
221
20
214.72
30
0
40
2.3
1
2.5
7
STANDARD
41
0.85
0
LINE
8
SHEET
10
20
20
212.0
30
0
11
248
21
212.0
31
0
0
TEXT
8
ELEC-TEXT
10
22
20
206.22
30
0
40
2.3
1
DW01
7
STANDARD
41
0.85
0
TEXT
8
ELEC-TEXT
10
48
20
206.22
30
0
40
2.3
1
Dishwasher
7
STANDARD
41
0.85
0
TEXT
8
ELEC-TEXT
10
133
20
206.22
30
0
40
2.3
1
C
7
STANDARD
41
0.85
0
TEXT
8
ELEC-TEXT
10
149
20
206.22
30
0
40
2.3
1
2.00
7
STANDARD
41
0.85
0
TEXT
8
ELEC-TEXT
10
173
20
206.22
30
0
40
2.3
1
8.7
7
STANDARD
41
0.85
0
TEXT
8
ELEC-TEXT
10
197
20
206.22
30
0
40
2.3
1
16
7
STANDARD
41
0.85
0
TEXT
8
ELEC-TEXT
10
221
20
206.22
30
0
40
2.3
1
2.5
7
STANDARD
41
0.85
0
LINE
8
SHEET
10
20
20
203.5
30
0
11
248
21
203.5
31
0
0
TEXT
8
ELEC-TEXT
10
22
20
197.72
30
0
40
2.3
1
MW01
7
STANDARD
41
0.85
0
TEXT
8
ELEC-TEXT
10
48
20
197.72
30
0
40
2.3
1
Microwave
7
STANDARD
41
0.85
0
TEXT
8
ELEC-TEXT
10
133
20
197.72
30
0
40
2.3
1
C
7
STANDARD
41
0.85
0
TEXT
8
ELEC-TEXT
10
149
20
197.72
30
0
40
2.3
1
1.50
7
STANDARD
41
0.85
0
TEXT
8
ELEC-TEXT
10
173
20
197.72
30
0
40
2.3
1
6.9
7
STANDARD
41
0.85
0
TEXT
8
ELEC-TEXT
10
197
20
197.72
30
0
40
2.3
1
16
7
STANDARD
41
0.85
0
TEXT
8
ELEC-TEXT
10
221
20
197.72
30
0
40
2.3
1
2.5
7
STANDARD
41
0.85
0
LINE
8
SHEET
10
20
20
195.0
30
0
11
248
21
195.0
31
0
0
TEXT
8
ELEC-TEXT
10
22
20
189.22
30
0
40
2.3
1
WH01
7
STANDARD
41
0.85
0
TEXT
8
ELEC-TEXT
10
48
20
189.22
30
0
40
2.3
1
Storage water heater
7
STANDARD
41
0.85
0
TEXT
8
ELEC-TEXT
10
133
20
189.22
30
0
40
2.3
1
C
7
STANDARD
41
0.85
0
TEXT
8
ELEC-TEXT
10
149
20
189.22
30
0
40
2.3
1
2.40
7
STANDARD
41
0.85
0
TEXT
8
ELEC-TEXT
10
173
20
189.22
30
0
40
2.3
1
10.4
7
STANDARD
41
0.85
0
TEXT
8
ELEC-TEXT
10
197
20
189.22
30
0
40
2.3
1
16
7
STANDARD
41
0.85
0
TEXT
8
ELEC-TEXT
10
221
20
189.22
30
0
40
2.3
1
2.5
7
STANDARD
41
0.85
0
LINE
8
SHEET
10
20
20
186.5
30
0
11
248
21
186.5
31
0
0
TEXT
8
ELEC-TEXT
10
22
20
180.72
30
0
40
2.3
1
CP01
7
STANDARD
41
0.85
0
TEXT
8
ELEC-TEXT
10
48
20
180.72
30
0
40
2.3
1
Copier
7
STANDARD
41
0.85
0
TEXT
8
ELEC-TEXT
10
133
20
180.72
30
0
40
2.3
1
B
7
STANDARD
41
0.85
0
TEXT
8
ELEC-TEXT
10
149
20
180.72
30
0
40
2.3
1
1.50
7
STANDARD
41
0.85
0
TEXT
8
ELEC-TEXT
10
173
20
180.72
30
0
40
2.3
1
6.9
7
STANDARD
41
0.85
0
TEXT
8
ELEC-TEXT
10
197
20
180.72
30
0
40
2.3
1
16
7
STANDARD
41
0.85
0
TEXT
8
ELEC-TEXT
10
221
20
180.72
30
0
40
2.3
1
2.5
7
STANDARD
41
0.85
0
LINE
8
SHEET
10
20
20
178.0
30
0
11
248
21
178.0
31
0
0
TEXT
8
ELEC-TEXT
10
22
20
172.22
30
0
40
2.3
1
UPS01
7
STANDARD
41
0.85
0
TEXT
8
ELEC-TEXT
10
48
20
172.22
30
0
40
2.3
1
UPS-01 input / server ra
7
STANDARD
41
0.85
0
TEXT
8
ELEC-TEXT
10
133
20
172.22
30
0
40
2.3
1
A
7
STANDARD
41
0.85
0
TEXT
8
ELEC-TEXT
10
149
20
172.22
30
0
40
2.3
1
2.20
7
STANDARD
41
0.85
0
TEXT
8
ELEC-TEXT
10
173
20
172.22
30
0
40
2.3
1
10.1
7
STANDARD
41
0.85
0
TEXT
8
ELEC-TEXT
10
197
20
172.22
30
0
40
2.3
1
16
7
STANDARD
41
0.85
0
TEXT
8
ELEC-TEXT
10
221
20
172.22
30
0
40
2.3
1
2.5
7
STANDARD
41
0.85
0
LINE
8
SHEET
10
20
20
169.5
30
0
11
248
21
169.5
31
0
0
TEXT
8
ELEC-TEXT
10
22
20
163.72000000000003
30
0
40
2.3
1
COM01
7
STANDARD
41
0.85
0
TEXT
8
ELEC-TEXT
10
48
20
163.72000000000003
30
0
40
2.3
1
Comms equipment non-UPS
7
STANDARD
41
0.85
0
TEXT
8
ELEC-TEXT
10
133
20
163.72000000000003
30
0
40
2.3
1
B
7
STANDARD
41
0.85
0
TEXT
8
ELEC-TEXT
10
149
20
163.72000000000003
30
0
40
2.3
1
0.40
7
STANDARD
41
0.85
0
TEXT
8
ELEC-TEXT
10
173
20
163.72000000000003
30
0
40
2.3
1
1.8
7
STANDARD
41
0.85
0
TEXT
8
ELEC-TEXT
10
197
20
163.72000000000003
30
0
40
2.3
1
10
7
STANDARD
41
0.85
0
TEXT
8
ELEC-TEXT
10
221
20
163.72000000000003
30
0
40
2.3
1
2.5
7
STANDARD
41
0.85
0
LINE
8
SHEET
10
20
20
161.0
30
0
11
248
21
161.0
31
0
0
TEXT
8
ELEC-TEXT
10
22
20
155.22000000000003
30
0
40
2.3
1
AC01
7
STANDARD
41
0.85
0
TEXT
8
ELEC-TEXT
10
48
20
155.22000000000003
30
0
40
2.3
1
AC-GF-01 packaged HVAC
7
STANDARD
41
0.85
0
TEXT
8
ELEC-TEXT
10
133
20
155.22000000000003
30
0
40
2.3
1
ABC
7
STANDARD
41
0.85
0
TEXT
8
ELEC-TEXT
10
149
20
155.22000000000003
30
0
40
2.3
1
6.00
7
STANDARD
41
0.85
0
TEXT
8
ELEC-TEXT
10
173
20
155.22000000000003
30
0
40
2.3
1
9.6
7
STANDARD
41
0.85
0
TEXT
8
ELEC-TEXT
10
197
20
155.22000000000003
30
0
40
2.3
1
16
7
STANDARD
41
0.85
0
TEXT
8
ELEC-TEXT
10
221
20
155.22000000000003
30
0
40
2.3
1
4
7
STANDARD
41
0.85
0
LINE
8
SHEET
10
20
20
152.5
30
0
11
248
21
152.5
31
0
0
TEXT
8
ELEC-TEXT
10
22
20
146.72000000000003
30
0
40
2.3
1
AC02
7
STANDARD
41
0.85
0
TEXT
8
ELEC-TEXT
10
48
20
146.72000000000003
30
0
40
2.3
1
AC-GF-02 packaged HVAC
7
STANDARD
41
0.85
0
TEXT
8
ELEC-TEXT
10
133
20
146.72000000000003
30
0
40
2.3
1
ABC
7
STANDARD
41
0.85
0
TEXT
8
ELEC-TEXT
10
149
20
146.72000000000003
30
0
40
2.3
1
6.00
7
STANDARD
41
0.85
0
TEXT
8
ELEC-TEXT
10
173
20
146.72000000000003
30
0
40
2.3
1
9.6
7
STANDARD
41
0.85
0
TEXT
8
ELEC-TEXT
10
197
20
146.72000000000003
30
0
40
2.3
1
16
7
STANDARD
41
0.85
0
TEXT
8
ELEC-TEXT
10
221
20
146.72000000000003
30
0
40
2.3
1
4
7
STANDARD
41
0.85
0
TEXT
8
ELEC-TEXT
10
20
20
134.0
30
0
40
2.6
1
Connected 38.79 kW / demand 30.72 kW
7
STANDARD
41
0.85
0
TEXT
8
ELEC-TEXT
10
20
20
128.0
30
0
40
2.6
1
Connected phase A / B / C: 59.9 / 60.1 / 59.4 A
7
STANDARD
41
0.85
0
TEXT
8
ELEC-TEXT
10
20
20
122.0
30
0
40
2.6
1
Demand phase A / B / C: 49.2 / 43.4 / 49.7 A
7
STANDARD
41
0.85
0
TEXT
8
ELEC-TEXT
10
20
20
116.0
30
0
40
2.6
1
Feeder headroom to highest demand phase: 30.3 A
7
STANDARD
41
0.85
0
TEXT
8
ELEC-TEXT
10
20
20
110.0
30
0
40
2.6
1
Reserve >= 20% physical ways after device module count.
7
STANDARD
41
0.85
0
TEXT
8
ELEC-TEXT
10
306
20
356
30
0
40
3.5
1
DB-FF  /  80 A feeder  /  125 A bus
7
STANDARD
41
0.85
0
LINE
8
SHEET
10
306
20
348
30
0
11
534
21
348
31
0
0
LINE
8
SHEET
10
534
20
348
30
0
11
534
21
161.0
31
0
0
LINE
8
SHEET
10
534
20
161.0
30
0
11
306
21
161.0
31
0
0
LINE
8
SHEET
10
306
20
161.0
30
0
11
306
21
348
31
0
0
TEXT
8
ELEC-TEXT
10
308
20
342.22
30
0
40
2.3
1
CCT
7
STANDARD
41
0.85
0
LINE
8
SHEET
10
332
20
348
30
0
11
332
21
161.0
31
0
0
TEXT
8
ELEC-TEXT
10
334
20
342.22
30
0
40
2.3
1
DESTINATION
7
STANDARD
41
0.85
0
LINE
8
SHEET
10
417
20
348
30
0
11
417
21
161.0
31
0
0
TEXT
8
ELEC-TEXT
10
419
20
342.22
30
0
40
2.3
1
PH
7
STANDARD
41
0.85
0
LINE
8
SHEET
10
433
20
348
30
0
11
433
21
161.0
31
0
0
TEXT
8
ELEC-TEXT
10
435
20
342.22
30
0
40
2.3
1
kW
7
STANDARD
41
0.85
0
LINE
8
SHEET
10
457
20
348
30
0
11
457
21
161.0
31
0
0
TEXT
8
ELEC-TEXT
10
459
20
342.22
30
0
40
2.3
1
A
7
STANDARD
41
0.85
0
LINE
8
SHEET
10
481
20
348
30
0
11
481
21
161.0
31
0
0
TEXT
8
ELEC-TEXT
10
483
20
342.22
30
0
40
2.3
1
CB A
7
STANDARD
41
0.85
0
LINE
8
SHEET
10
505
20
348
30
0
11
505
21
161.0
31
0
0
TEXT
8
ELEC-TEXT
10
507
20
342.22
30
0
40
2.3
1
mm2
7
STANDARD
41
0.85
0
LINE
8
SHEET
10
306
20
339.5
30
0
11
534
21
339.5
31
0
0
TEXT
8
ELEC-TEXT
10
308
20
333.72
30
0
40
2.3
1
L01
7
STANDARD
41
0.85
0
TEXT
8
ELEC-TEXT
10
334
20
333.72
30
0
40
2.3
1
Open office west
7
STANDARD
41
0.85
0
TEXT
8
ELEC-TEXT
10
419
20
333.72
30
0
40
2.3
1
C
7
STANDARD
41
0.85
0
TEXT
8
ELEC-TEXT
10
435
20
333.72
30
0
40
2.3
1
0.55
7
STANDARD
41
0.85
0
TEXT
8
ELEC-TEXT
10
459
20
333.72
30
0
40
2.3
1
2.5
7
STANDARD
41
0.85
0
TEXT
8
ELEC-TEXT
10
483
20
333.72
30
0
40
2.3
1
10
7
STANDARD
41
0.85
0
TEXT
8
ELEC-TEXT
10
507
20
333.72
30
0
40
2.3
1
1.5
7
STANDARD
41
0.85
0
LINE
8
SHEET
10
306
20
331.0
30
0
11
534
21
331.0
31
0
0
TEXT
8
ELEC-TEXT
10
308
20
325.22
30
0
40
2.3
1
L02
7
STANDARD
41
0.85
0
TEXT
8
ELEC-TEXT
10
334
20
325.22
30
0
40
2.3
1
Open office east
7
STANDARD
41
0.85
0
TEXT
8
ELEC-TEXT
10
419
20
325.22
30
0
40
2.3
1
B
7
STANDARD
41
0.85
0
TEXT
8
ELEC-TEXT
10
435
20
325.22
30
0
40
2.3
1
0.65
7
STANDARD
41
0.85
0
TEXT
8
ELEC-TEXT
10
459
20
325.22
30
0
40
2.3
1
3.0
7
STANDARD
41
0.85
0
TEXT
8
ELEC-TEXT
10
483
20
325.22
30
0
40
2.3
1
10
7
STANDARD
41
0.85
0
TEXT
8
ELEC-TEXT
10
507
20
325.22
30
0
40
2.3
1
1.5
7
STANDARD
41
0.85
0
LINE
8
SHEET
10
306
20
322.5
30
0
11
534
21
322.5
31
0
0
TEXT
8
ELEC-TEXT
10
308
20
316.72
30
0
40
2.3
1
L03
7
STANDARD
41
0.85
0
TEXT
8
ELEC-TEXT
10
334
20
316.72
30
0
40
2.3
1
Conference / meeting
7
STANDARD
41
0.85
0
TEXT
8
ELEC-TEXT
10
419
20
316.72
30
0
40
2.3
1
B
7
STANDARD
41
0.85
0
TEXT
8
ELEC-TEXT
10
435
20
316.72
30
0
40
2.3
1
0.54
7
STANDARD
41
0.85
0
TEXT
8
ELEC-TEXT
10
459
20
316.72
30
0
40
2.3
1
2.5
7
STANDARD
41
0.85
0
TEXT
8
ELEC-TEXT
10
483
20
316.72
30
0
40
2.3
1
10
7
STANDARD
41
0.85
0
TEXT
8
ELEC-TEXT
10
507
20
316.72
30
0
40
2.3
1
1.5
7
STANDARD
41
0.85
0
LINE
8
SHEET
10
306
20
314.0
30
0
11
534
21
314.0
31
0
0
TEXT
8
ELEC-TEXT
10
308
20
308.22
30
0
40
2.3
1
L04
7
STANDARD
41
0.85
0
TEXT
8
ELEC-TEXT
10
334
20
308.22
30
0
40
2.3
1
Manager offices
7
STANDARD
41
0.85
0
TEXT
8
ELEC-TEXT
10
419
20
308.22
30
0
40
2.3
1
C
7
STANDARD
41
0.85
0
TEXT
8
ELEC-TEXT
10
435
20
308.22
30
0
40
2.3
1
0.29
7
STANDARD
41
0.85
0
TEXT
8
ELEC-TEXT
10
459
20
308.22
30
0
40
2.3
1
1.3
7
STANDARD
41
0.85
0
TEXT
8
ELEC-TEXT
10
483
20
308.22
30
0
40
2.3
1
10
7
STANDARD
41
0.85
0
TEXT
8
ELEC-TEXT
10
507
20
308.22
30
0
40
2.3
1
1.5
7
STANDARD
41
0.85
0
LINE
8
SHEET
10
306
20
305.5
30
0
11
534
21
305.5
31
0
0
TEXT
8
ELEC-TEXT
10
308
20
299.72
30
0
40
2.3
1
L05
7
STANDARD
41
0.85
0
TEXT
8
ELEC-TEXT
10
334
20
299.72
30
0
40
2.3
1
Kitchen / toilets
7
STANDARD
41
0.85
0
TEXT
8
ELEC-TEXT
10
419
20
299.72
30
0
40
2.3
1
C
7
STANDARD
41
0.85
0
TEXT
8
ELEC-TEXT
10
435
20
299.72
30
0
40
2.3
1
0.25
7
STANDARD
41
0.85
0
TEXT
8
ELEC-TEXT
10
459
20
299.72
30
0
40
2.3
1
1.2
7
STANDARD
41
0.85
0
TEXT
8
ELEC-TEXT
10
483
20
299.72
30
0
40
2.3
1
10
7
STANDARD
41
0.85
0
TEXT
8
ELEC-TEXT
10
507
20
299.72
30
0
40
2.3
1
1.5
7
STANDARD
41
0.85
0
LINE
8
SHEET
10
306
20
297.0
30
0
11
534
21
297.0
31
0
0
TEXT
8
ELEC-TEXT
10
308
20
291.22
30
0
40
2.3
1
L06
7
STANDARD
41
0.85
0
TEXT
8
ELEC-TEXT
10
334
20
291.22
30
0
40
2.3
1
Service rooms
7
STANDARD
41
0.85
0
TEXT
8
ELEC-TEXT
10
419
20
291.22
30
0
40
2.3
1
B
7
STANDARD
41
0.85
0
TEXT
8
ELEC-TEXT
10
435
20
291.22
30
0
40
2.3
1
0.16
7
STANDARD
41
0.85
0
TEXT
8
ELEC-TEXT
10
459
20
291.22
30
0
40
2.3
1
0.7
7
STANDARD
41
0.85
0
TEXT
8
ELEC-TEXT
10
483
20
291.22
30
0
40
2.3
1
10
7
STANDARD
41
0.85
0
TEXT
8
ELEC-TEXT
10
507
20
291.22
30
0
40
2.3
1
1.5
7
STANDARD
41
0.85
0
LINE
8
SHEET
10
306
20
288.5
30
0
11
534
21
288.5
31
0
0
TEXT
8
ELEC-TEXT
10
308
20
282.72
30
0
40
2.3
1
L07
7
STANDARD
41
0.85
0
TEXT
8
ELEC-TEXT
10
334
20
282.72
30
0
40
2.3
1
Corridor
7
STANDARD
41
0.85
0
TEXT
8
ELEC-TEXT
10
419
20
282.72
30
0
40
2.3
1
C
7
STANDARD
41
0.85
0
TEXT
8
ELEC-TEXT
10
435
20
282.72
30
0
40
2.3
1
0.26
7
STANDARD
41
0.85
0
TEXT
8
ELEC-TEXT
10
459
20
282.72
30
0
40
2.3
1
1.2
7
STANDARD
41
0.85
0
TEXT
8
ELEC-TEXT
10
483
20
282.72
30
0
40
2.3
1
10
7
STANDARD
41
0.85
0
TEXT
8
ELEC-TEXT
10
507
20
282.72
30
0
40
2.3
1
1.5
7
STANDARD
41
0.85
0
LINE
8
SHEET
10
306
20
280.0
30
0
11
534
21
280.0
31
0
0
TEXT
8
ELEC-TEXT
10
308
20
274.22
30
0
40
2.3
1
L08
7
STANDARD
41
0.85
0
TEXT
8
ELEC-TEXT
10
334
20
274.22
30
0
40
2.3
1
Both stairs
7
STANDARD
41
0.85
0
TEXT
8
ELEC-TEXT
10
419
20
274.22
30
0
40
2.3
1
A
7
STANDARD
41
0.85
0
TEXT
8
ELEC-TEXT
10
435
20
274.22
30
0
40
2.3
1
0.16
7
STANDARD
41
0.85
0
TEXT
8
ELEC-TEXT
10
459
20
274.22
30
0
40
2.3
1
0.7
7
STANDARD
41
0.85
0
TEXT
8
ELEC-TEXT
10
483
20
274.22
30
0
40
2.3
1
10
7
STANDARD
41
0.85
0
TEXT
8
ELEC-TEXT
10
507
20
274.22
30
0
40
2.3
1
1.5
7
STANDARD
41
0.85
0
LINE
8
SHEET
10
306
20
271.5
30
0
11
534
21
271.5
31
0
0
TEXT
8
ELEC-TEXT
10
308
20
265.72
30
0
40
2.3
1
P01
7
STANDARD
41
0.85
0
TEXT
8
ELEC-TEXT
10
334
20
265.72
30
0
40
2.3
1
Desk bank west
7
STANDARD
41
0.85
0
TEXT
8
ELEC-TEXT
10
419
20
265.72
30
0
40
2.3
1
C
7
STANDARD
41
0.85
0
TEXT
8
ELEC-TEXT
10
435
20
265.72
30
0
40
2.3
1
2.40
7
STANDARD
41
0.85
0
TEXT
8
ELEC-TEXT
10
459
20
265.72
30
0
40
2.3
1
11.0
7
STANDARD
41
0.85
0
TEXT
8
ELEC-TEXT
10
483
20
265.72
30
0
40
2.3
1
20
7
STANDARD
41
0.85
0
TEXT
8
ELEC-TEXT
10
507
20
265.72
30
0
40
2.3
1
4
7
STANDARD
41
0.85
0
LINE
8
SHEET
10
306
20
263.0
30
0
11
534
21
263.0
31
0
0
TEXT
8
ELEC-TEXT
10
308
20
257.22
30
0
40
2.3
1
P02
7
STANDARD
41
0.85
0
TEXT
8
ELEC-TEXT
10
334
20
257.22
30
0
40
2.3
1
Desk bank centre
7
STANDARD
41
0.85
0
TEXT
8
ELEC-TEXT
10
419
20
257.22
30
0
40
2.3
1
B
7
STANDARD
41
0.85
0
TEXT
8
ELEC-TEXT
10
435
20
257.22
30
0
40
2.3
1
2.40
7
STANDARD
41
0.85
0
TEXT
8
ELEC-TEXT
10
459
20
257.22
30
0
40
2.3
1
11.0
7
STANDARD
41
0.85
0
TEXT
8
ELEC-TEXT
10
483
20
257.22
30
0
40
2.3
1
20
7
STANDARD
41
0.85
0
TEXT
8
ELEC-TEXT
10
507
20
257.22
30
0
40
2.3
1
4
7
STANDARD
41
0.85
0
LINE
8
SHEET
10
306
20
254.5
30
0
11
534
21
254.5
31
0
0
TEXT
8
ELEC-TEXT
10
308
20
248.72
30
0
40
2.3
1
P03
7
STANDARD
41
0.85
0
TEXT
8
ELEC-TEXT
10
334
20
248.72
30
0
40
2.3
1
Desk bank east
7
STANDARD
41
0.85
0
TEXT
8
ELEC-TEXT
10
419
20
248.72
30
0
40
2.3
1
C
7
STANDARD
41
0.85
0
TEXT
8
ELEC-TEXT
10
435
20
248.72
30
0
40
2.3
1
2.40
7
STANDARD
41
0.85
0
TEXT
8
ELEC-TEXT
10
459
20
248.72
30
0
40
2.3
1
11.0
7
STANDARD
41
0.85
0
TEXT
8
ELEC-TEXT
10
483
20
248.72
30
0
40
2.3
1
20
7
STANDARD
41
0.85
0
TEXT
8
ELEC-TEXT
10
507
20
248.72
30
0
40
2.3
1
4
7
STANDARD
41
0.85
0
LINE
8
SHEET
10
306
20
246.0
30
0
11
534
21
246.0
31
0
0
TEXT
8
ELEC-TEXT
10
308
20
240.22
30
0
40
2.3
1
P04
7
STANDARD
41
0.85
0
TEXT
8
ELEC-TEXT
10
334
20
240.22
30
0
40
2.3
1
Meeting / offices
7
STANDARD
41
0.85
0
TEXT
8
ELEC-TEXT
10
419
20
240.22
30
0
40
2.3
1
B
7
STANDARD
41
0.85
0
TEXT
8
ELEC-TEXT
10
435
20
240.22
30
0
40
2.3
1
1.80
7
STANDARD
41
0.85
0
TEXT
8
ELEC-TEXT
10
459
20
240.22
30
0
40
2.3
1
8.2
7
STANDARD
41
0.85
0
TEXT
8
ELEC-TEXT
10
483
20
240.22
30
0
40
2.3
1
20
7
STANDARD
41
0.85
0
TEXT
8
ELEC-TEXT
10
507
20
240.22
30
0
40
2.3
1
4
7
STANDARD
41
0.85
0
LINE
8
SHEET
10
306
20
237.5
30
0
11
534
21
237.5
31
0
0
TEXT
8
ELEC-TEXT
10
308
20
231.72
30
0
40
2.3
1
P05
7
STANDARD
41
0.85
0
TEXT
8
ELEC-TEXT
10
334
20
231.72
30
0
40
2.3
1
Print / cleaning
7
STANDARD
41
0.85
0
TEXT
8
ELEC-TEXT
10
419
20
231.72
30
0
40
2.3
1
C
7
STANDARD
41
0.85
0
TEXT
8
ELEC-TEXT
10
435
20
231.72
30
0
40
2.3
1
1.80
7
STANDARD
41
0.85
0
TEXT
8
ELEC-TEXT
10
459
20
231.72
30
0
40
2.3
1
8.2
7
STANDARD
41
0.85
0
TEXT
8
ELEC-TEXT
10
483
20
231.72
30
0
40
2.3
1
20
7
STANDARD
41
0.85
0
TEXT
8
ELEC-TEXT
10
507
20
231.72
30
0
40
2.3
1
4
7
STANDARD
41
0.85
0
LINE
8
SHEET
10
306
20
229.0
30
0
11
534
21
229.0
31
0
0
TEXT
8
ELEC-TEXT
10
308
20
223.22
30
0
40
2.3
1
P06
7
STANDARD
41
0.85
0
TEXT
8
ELEC-TEXT
10
334
20
223.22
30
0
40
2.3
1
Kitchen small power
7
STANDARD
41
0.85
0
TEXT
8
ELEC-TEXT
10
419
20
223.22
30
0
40
2.3
1
A
7
STANDARD
41
0.85
0
TEXT
8
ELEC-TEXT
10
435
20
223.22
30
0
40
2.3
1
3.00
7
STANDARD
41
0.85
0
TEXT
8
ELEC-TEXT
10
459
20
223.22
30
0
40
2.3
1
13.7
7
STANDARD
41
0.85
0
TEXT
8
ELEC-TEXT
10
483
20
223.22
30
0
40
2.3
1
20
7
STANDARD
41
0.85
0
TEXT
8
ELEC-TEXT
10
507
20
223.22
30
0
40
2.3
1
4
7
STANDARD
41
0.85
0
LINE
8
SHEET
10
306
20
220.5
30
0
11
534
21
220.5
31
0
0
TEXT
8
ELEC-TEXT
10
308
20
214.72
30
0
40
2.3
1
REF01
7
STANDARD
41
0.85
0
TEXT
8
ELEC-TEXT
10
334
20
214.72
30
0
40
2.3
1
Refrigerator
7
STANDARD
41
0.85
0
TEXT
8
ELEC-TEXT
10
419
20
214.72
30
0
40
2.3
1
B
7
STANDARD
41
0.85
0
TEXT
8
ELEC-TEXT
10
435
20
214.72
30
0
40
2.3
1
0.25
7
STANDARD
41
0.85
0
TEXT
8
ELEC-TEXT
10
459
20
214.72
30
0
40
2.3
1
1.2
7
STANDARD
41
0.85
0
TEXT
8
ELEC-TEXT
10
483
20
214.72
30
0
40
2.3
1
10
7
STANDARD
41
0.85
0
TEXT
8
ELEC-TEXT
10
507
20
214.72
30
0
40
2.3
1
2.5
7
STANDARD
41
0.85
0
LINE
8
SHEET
10
306
20
212.0
30
0
11
534
21
212.0
31
0
0
TEXT
8
ELEC-TEXT
10
308
20
206.22
30
0
40
2.3
1
DW01
7
STANDARD
41
0.85
0
TEXT
8
ELEC-TEXT
10
334
20
206.22
30
0
40
2.3
1
Dishwasher
7
STANDARD
41
0.85
0
TEXT
8
ELEC-TEXT
10
419
20
206.22
30
0
40
2.3
1
A
7
STANDARD
41
0.85
0
TEXT
8
ELEC-TEXT
10
435
20
206.22
30
0
40
2.3
1
2.00
7
STANDARD
41
0.85
0
TEXT
8
ELEC-TEXT
10
459
20
206.22
30
0
40
2.3
1
8.7
7
STANDARD
41
0.85
0
TEXT
8
ELEC-TEXT
10
483
20
206.22
30
0
40
2.3
1
16
7
STANDARD
41
0.85
0
TEXT
8
ELEC-TEXT
10
507
20
206.22
30
0
40
2.3
1
2.5
7
STANDARD
41
0.85
0
LINE
8
SHEET
10
306
20
203.5
30
0
11
534
21
203.5
31
0
0
TEXT
8
ELEC-TEXT
10
308
20
197.72
30
0
40
2.3
1
MW01
7
STANDARD
41
0.85
0
TEXT
8
ELEC-TEXT
10
334
20
197.72
30
0
40
2.3
1
Microwave
7
STANDARD
41
0.85
0
TEXT
8
ELEC-TEXT
10
419
20
197.72
30
0
40
2.3
1
A
7
STANDARD
41
0.85
0
TEXT
8
ELEC-TEXT
10
435
20
197.72
30
0
40
2.3
1
1.50
7
STANDARD
41
0.85
0
TEXT
8
ELEC-TEXT
10
459
20
197.72
30
0
40
2.3
1
6.9
7
STANDARD
41
0.85
0
TEXT
8
ELEC-TEXT
10
483
20
197.72
30
0
40
2.3
1
16
7
STANDARD
41
0.85
0
TEXT
8
ELEC-TEXT
10
507
20
197.72
30
0
40
2.3
1
2.5
7
STANDARD
41
0.85
0
LINE
8
SHEET
10
306
20
195.0
30
0
11
534
21
195.0
31
0
0
TEXT
8
ELEC-TEXT
10
308
20
189.22
30
0
40
2.3
1
WH01
7
STANDARD
41
0.85
0
TEXT
8
ELEC-TEXT
10
334
20
189.22
30
0
40
2.3
1
Storage water heater
7
STANDARD
41
0.85
0
TEXT
8
ELEC-TEXT
10
419
20
189.22
30
0
40
2.3
1
B
7
STANDARD
41
0.85
0
TEXT
8
ELEC-TEXT
10
435
20
189.22
30
0
40
2.3
1
2.40
7
STANDARD
41
0.85
0
TEXT
8
ELEC-TEXT
10
459
20
189.22
30
0
40
2.3
1
10.4
7
STANDARD
41
0.85
0
TEXT
8
ELEC-TEXT
10
483
20
189.22
30
0
40
2.3
1
16
7
STANDARD
41
0.85
0
TEXT
8
ELEC-TEXT
10
507
20
189.22
30
0
40
2.3
1
2.5
7
STANDARD
41
0.85
0
LINE
8
SHEET
10
306
20
186.5
30
0
11
534
21
186.5
31
0
0
TEXT
8
ELEC-TEXT
10
308
20
180.72
30
0
40
2.3
1
CP01
7
STANDARD
41
0.85
0
TEXT
8
ELEC-TEXT
10
334
20
180.72
30
0
40
2.3
1
Copier
7
STANDARD
41
0.85
0
TEXT
8
ELEC-TEXT
10
419
20
180.72
30
0
40
2.3
1
A
7
STANDARD
41
0.85
0
TEXT
8
ELEC-TEXT
10
435
20
180.72
30
0
40
2.3
1
1.50
7
STANDARD
41
0.85
0
TEXT
8
ELEC-TEXT
10
459
20
180.72
30
0
40
2.3
1
6.9
7
STANDARD
41
0.85
0
TEXT
8
ELEC-TEXT
10
483
20
180.72
30
0
40
2.3
1
16
7
STANDARD
41
0.85
0
TEXT
8
ELEC-TEXT
10
507
20
180.72
30
0
40
2.3
1
2.5
7
STANDARD
41
0.85
0
LINE
8
SHEET
10
306
20
178.0
30
0
11
534
21
178.0
31
0
0
TEXT
8
ELEC-TEXT
10
308
20
172.22
30
0
40
2.3
1
AC01
7
STANDARD
41
0.85
0
TEXT
8
ELEC-TEXT
10
334
20
172.22
30
0
40
2.3
1
AC-FF-01 packaged HVAC
7
STANDARD
41
0.85
0
TEXT
8
ELEC-TEXT
10
419
20
172.22
30
0
40
2.3
1
ABC
7
STANDARD
41
0.85
0
TEXT
8
ELEC-TEXT
10
435
20
172.22
30
0
40
2.3
1
6.00
7
STANDARD
41
0.85
0
TEXT
8
ELEC-TEXT
10
459
20
172.22
30
0
40
2.3
1
9.6
7
STANDARD
41
0.85
0
TEXT
8
ELEC-TEXT
10
483
20
172.22
30
0
40
2.3
1
16
7
STANDARD
41
0.85
0
TEXT
8
ELEC-TEXT
10
507
20
172.22
30
0
40
2.3
1
4
7
STANDARD
41
0.85
0
LINE
8
SHEET
10
306
20
169.5
30
0
11
534
21
169.5
31
0
0
TEXT
8
ELEC-TEXT
10
308
20
163.72000000000003
30
0
40
2.3
1
AC02
7
STANDARD
41
0.85
0
TEXT
8
ELEC-TEXT
10
334
20
163.72000000000003
30
0
40
2.3
1
AC-FF-02 packaged HVAC
7
STANDARD
41
0.85
0
TEXT
8
ELEC-TEXT
10
419
20
163.72000000000003
30
0
40
2.3
1
ABC
7
STANDARD
41
0.85
0
TEXT
8
ELEC-TEXT
10
435
20
163.72000000000003
30
0
40
2.3
1
6.00
7
STANDARD
41
0.85
0
TEXT
8
ELEC-TEXT
10
459
20
163.72000000000003
30
0
40
2.3
1
9.6
7
STANDARD
41
0.85
0
TEXT
8
ELEC-TEXT
10
483
20
163.72000000000003
30
0
40
2.3
1
16
7
STANDARD
41
0.85
0
TEXT
8
ELEC-TEXT
10
507
20
163.72000000000003
30
0
40
2.3
1
4
7
STANDARD
41
0.85
0
TEXT
8
ELEC-TEXT
10
306
20
151.0
30
0
40
2.6
1
Connected 36.31 kW / demand 28.25 kW
7
STANDARD
41
0.85
0
TEXT
8
ELEC-TEXT
10
306
20
145.0
30
0
40
2.6
1
Connected phase A / B / C: 56.1 / 56.3 / 55.6 A
7
STANDARD
41
0.85
0
TEXT
8
ELEC-TEXT
10
306
20
139.0
30
0
40
2.6
1
Demand phase A / B / C: 42.9 / 46.4 / 41.6 A
7
STANDARD
41
0.85
0
TEXT
8
ELEC-TEXT
10
306
20
133.0
30
0
40
2.6
1
Feeder headroom to highest demand phase: 33.6 A
7
STANDARD
41
0.85
0
TEXT
8
ELEC-TEXT
10
306
20
127.0
30
0
40
2.6
1
Reserve >= 20% physical ways after device module count.
7
STANDARD
41
0.85
0
TEXT
8
ELEC-TEXT
10
20
20
63
30
0
40
2.6
1
Circuit prefixes: left GF-, right FF-. Current is connected design current; ABC is per-phase current for three-phase equipment.
7
STANDARD
41
0.85
0
TEXT
8
ELEC-TEXT
10
20
20
56
30
0
40
2.6
1
Sizes are active/neutral Cu conductor areas; PE and complete cable construction are in the cable schedule. CB = proposed protective-device rating.
7
STANDARD
41
0.85
0
TEXT
8
ELEC-TEXT
10
20
20
49
30
0
40
2.6
1
Full descriptions, destinations, protective-device type, cable lengths and design notes are supplied in schedules/DB-GF.csv and DB-FF.csv.
7
STANDARD
41
0.85
0
LINE
8
SHEET
10
10
20
410
30
0
11
584
21
410
31
0
0
LINE
8
SHEET
10
584
20
410
30
0
11
584
21
10
31
0
0
LINE
8
SHEET
10
584
20
10
30
0
11
10
21
10
31
0
0
LINE
8
SHEET
10
10
20
10
30
0
11
10
21
410
31
0
0
LINE
8
SHEET
10
10
20
372
30
0
11
584
21
372
31
0
0
TEXT
8
ELEC-TEXT
10
20
20
394
30
0
40
6
1
NORTHBANK OFFICE
7
STANDARD
41
0.85
0
TEXT
8
ELEC-TEXT
10
20
20
381
30
0
40
4
1
DISTRIBUTION BOARD SCHEDULES
7
STANDARD
41
0.85
0
TEXT
8
ELEC-TEXT
10
456
20
395
30
0
40
3
1
ELECTRICAL PORTFOLIO
7
STANDARD
41
0.85
0
TEXT
8
ELEC-TEXT
10
456
20
386
30
0
40
2.8
1
CONCEPT DESIGN  /  REV A
7
STANDARD
41
0.85
0
TEXT
8
ELEC-TEXT
10
456
20
378
30
0
40
2.5
1
NOT FOR CONSTRUCTION
7
STANDARD
41
0.85
0
LINE
8
SHEET
10
10
20
38
30
0
11
584
21
38
31
0
0
LINE
8
SHEET
10
345
20
38
30
0
11
345
21
10
31
0
0
LINE
8
SHEET
10
480
20
38
30
0
11
480
21
10
31
0
0
TEXT
8
ELEC-TEXT
10
18
20
29
30
0
40
3.1
1
Two-Storey Commercial Office Electrical Design
7
STANDARD
41
0.85
0
TEXT
8
ELEC-TEXT
10
18
20
22
30
0
40
2.7
1
Designed by: Electrical Engineering Portfolio Project
7
STANDARD
41
0.85
0
TEXT
8
ELEC-TEXT
10
18
20
15
30
0
40
2.3
1
Educational exercise; not for construction, certification or regulatory approval.
7
STANDARD
41
0.85
0
TEXT
8
ELEC-TEXT
10
353
20
29
30
0
40
2.5
1
E-501  |  Distribution board schedules
7
STANDARD
41
0.85
0
TEXT
8
ELEC-TEXT
10
353
20
21
30
0
40
2.5
1
Scale: NTS at A2  |  Units: mm
7
STANDARD
41
0.85
0
TEXT
8
ELEC-TEXT
10
488
20
29
30
0
40
3
1
REV A
7
STANDARD
41
0.85
0
TEXT
8
ELEC-TEXT
10
488
20
21
30
0
40
2.7
1
2026-09-29
7
STANDARD
41
0.85
0
TEXT
8
ELEC-TEXT
10
488
20
14
30
0
40
2.3
1
Sheet size: 594 x 420 mm
7
STANDARD
41
0.85
0
ENDSEC
0
EOF
