0
SECTION
2
HEADER
9
$ACADVER
1
AC1009
9
$LUNITS
70
2
9
$LUPREC
70
2
9
$MEASUREMENT
70
1
9
$EXTMIN
10
0
20
0
30
0
9
$EXTMAX
10
594
20
420
30
0
0
ENDSEC
0
SECTION
2
TABLES
0
TABLE
2
LTYPE
70
1
0
LTYPE
2
CONTINUOUS
70
0
3
Continuous
72
65
73
0
40
0
0
ENDTAB
0
TABLE
2
LAYER
70
18
0
LAYER
2
0
70
0
62
7
6
CONTINUOUS
0
LAYER
2
ARCH-WALLS
70
0
62
8
6
CONTINUOUS
0
LAYER
2
ARCH-DOORS
70
0
62
8
6
CONTINUOUS
0
LAYER
2
ARCH-TEXT
70
0
62
8
6
CONTINUOUS
0
LAYER
2
ARCH-FURNITURE
70
0
62
8
6
CONTINUOUS
0
LAYER
2
ELEC-LIGHT
70
0
62
2
6
CONTINUOUS
0
LAYER
2
ELEC-EMERGENCY
70
0
62
3
6
CONTINUOUS
0
LAYER
2
ELEC-SWITCH
70
0
62
6
6
CONTINUOUS
0
LAYER
2
ELEC-POWER
70
0
62
4
6
CONTINUOUS
0
LAYER
2
ELEC-DEDICATED
70
0
62
1
6
CONTINUOUS
0
LAYER
2
ELEC-DB
70
0
62
1
6
CONTINUOUS
0
LAYER
2
ELEC-CABLE
70
0
62
5
6
CONTINUOUS
0
LAYER
2
ELEC-SLD
70
0
62
7
6
CONTINUOUS
0
LAYER
2
ELEC-SYMBOLS
70
0
62
7
6
CONTINUOUS
0
LAYER
2
ELEC-TEXT
70
0
62
7
6
CONTINUOUS
0
LAYER
2
ELEC-LIGHT-TEXT
70
0
62
2
6
CONTINUOUS
0
LAYER
2
ELEC-DIMENSIONS
70
0
62
8
6
CONTINUOUS
0
LAYER
2
SHEET
70
0
62
7
6
CONTINUOUS
0
ENDTAB
0
TABLE
2
STYLE
70
1
0
STYLE
2
STANDARD
70
0
40
0
41
1
50
0
71
0
42
2.5
3
standard
4

0
ENDTAB
0
ENDSEC
0
SECTION
2
BLOCKS
0
BLOCK
8
0
2
DB
70
0
10
0
20
0
30
0
3
DB
1

0
LINE
8
0
10
-4
20
3
30
0
11
4
21
3
31
0
0
LINE
8
0
10
4
20
3
30
0
11
4
21
-3
31
0
0
LINE
8
0
10
4
20
-3
30
0
11
-4
21
-3
31
0
0
LINE
8
0
10
-4
20
-3
30
0
11
-4
21
3
31
0
0
LINE
8
0
10
-4
20
3
30
0
11
4
21
-3
31
0
0
ENDBLK
8
0
0
BLOCK
8
0
2
MSB
70
0
10
0
20
0
30
0
3
MSB
1

0
LINE
8
0
10
-4
20
3
30
0
11
4
21
3
31
0
0
LINE
8
0
10
4
20
3
30
0
11
4
21
-3
31
0
0
LINE
8
0
10
4
20
-3
30
0
11
-4
21
-3
31
0
0
LINE
8
0
10
-4
20
-3
30
0
11
-4
21
3
31
0
0
LINE
8
0
10
-4
20
3
30
0
11
4
21
-3
31
0
0
LINE
8
0
10
-5
20
4
30
0
11
5
21
4
31
0
0
LINE
8
0
10
5
20
4
30
0
11
5
21
-4
31
0
0
LINE
8
0
10
5
20
-4
30
0
11
-5
21
-4
31
0
0
LINE
8
0
10
-5
20
-4
30
0
11
-5
21
4
31
0
0
ENDBLK
8
0
0
BLOCK
8
0
2
DED
70
0
10
0
20
0
30
0
3
DED
1

0
CIRCLE
8
0
10
0
20
0
30
0
40
1.8
0
LINE
8
0
10
-2.5
20
2.5
30
0
11
2.5
21
2.5
31
0
0
LINE
8
0
10
-0.6
20
1
30
0
11
-0.6
21
-1
31
0
0
LINE
8
0
10
0.6
20
1
30
0
11
0.6
21
-1
31
0
0
LINE
8
0
10
-3
20
3.5
30
0
11
3
21
3.5
31
0
0
LINE
8
0
10
3
20
3.5
30
0
11
3
21
-2.5
31
0
0
LINE
8
0
10
3
20
-2.5
30
0
11
-3
21
-2.5
31
0
0
LINE
8
0
10
-3
20
-2.5
30
0
11
-3
21
3.5
31
0
0
ENDBLK
8
0
0
BLOCK
8
0
2
LOAD3
70
0
10
0
20
0
30
0
3
LOAD3
1

0
LINE
8
0
10
-4
20
3
30
0
11
4
21
3
31
0
0
LINE
8
0
10
4
20
3
30
0
11
4
21
-3
31
0
0
LINE
8
0
10
4
20
-3
30
0
11
-4
21
-3
31
0
0
LINE
8
0
10
-4
20
-3
30
0
11
-4
21
3
31
0
0
TEXT
8
0
10
-2.8
20
-1
30
0
40
2
1
3~
7
STANDARD
41
0.85
0
ENDBLK
8
0
0
BLOCK
8
0
2
JUNC
70
0
10
0
20
0
30
0
3
JUNC
1

0
CIRCLE
8
0
10
0
20
0
30
0
40
0.7
0
ENDBLK
8
0
0
ENDSEC
0
SECTION
2
ENTITIES
0
LINE
8
ARCH-WALLS
10
25.0
20
199.0
30
0
11
25.0
21
311.0
31
0
0
LINE
8
ARCH-WALLS
10
265.0
20
199.0
30
0
11
265.0
21
311.0
31
0
0
LINE
8
ARCH-WALLS
10
25.0
20
311.0
30
0
11
265.0
21
311.0
31
0
0
LINE
8
ARCH-WALLS
10
25.0
20
199.0
30
0
11
37.0
21
199.0
31
0
0
LINE
8
ARCH-DOORS
10
37.0
20
199.0
30
0
11
37.0
21
191.0
31
0
0
LINE
8
ARCH-DOORS
10
45.0
20
199.0
30
0
11
44.901506724761106
21
197.74852427967815
31
0
0
LINE
8
ARCH-DOORS
10
44.901506724761106
20
197.74852427967815
30
0
11
44.60845213036123
21
196.52786404500043
31
0
0
LINE
8
ARCH-DOORS
10
44.60845213036123
20
196.52786404500043
30
0
11
44.128052193506946
21
195.36807600208363
31
0
0
LINE
8
ARCH-DOORS
10
44.128052193506946
20
195.36807600208363
30
0
11
43.47213595499958
21
194.2977179816602
31
0
0
LINE
8
ARCH-DOORS
10
43.47213595499958
20
194.2977179816602
30
0
11
42.65685424949238
21
193.34314575050763
31
0
0
LINE
8
ARCH-DOORS
10
42.65685424949238
20
193.34314575050763
30
0
11
41.70228201833979
21
192.52786404500043
31
0
0
LINE
8
ARCH-DOORS
10
41.70228201833979
20
192.52786404500043
30
0
11
40.631923997916374
21
191.87194780649307
31
0
0
LINE
8
ARCH-DOORS
10
40.631923997916374
20
191.87194780649307
30
0
11
39.47213595499958
21
191.39154786963877
31
0
0
LINE
8
ARCH-DOORS
10
39.47213595499958
20
191.39154786963877
30
0
11
38.25147572032185
21
191.0984932752389
31
0
0
LINE
8
ARCH-DOORS
10
38.25147572032185
20
191.0984932752389
30
0
11
37.0
21
191.0
31
0
0
LINE
8
ARCH-WALLS
10
45.0
20
199.0
30
0
11
76.2
21
199.0
31
0
0
LINE
8
ARCH-DOORS
10
76.2
20
199.0
30
0
11
76.2
21
189.4
31
0
0
LINE
8
ARCH-DOORS
10
85.8
20
199.0
30
0
11
85.68180806971333
21
197.4982291356138
31
0
0
LINE
8
ARCH-DOORS
10
85.68180806971333
20
197.4982291356138
30
0
11
85.33014255643347
21
196.0334368540005
31
0
0
LINE
8
ARCH-DOORS
10
85.33014255643347
20
196.0334368540005
30
0
11
84.75366263220833
21
194.64169120250034
31
0
0
LINE
8
ARCH-DOORS
10
84.75366263220833
20
194.64169120250034
30
0
11
83.96656314599949
21
193.35726157799226
31
0
0
LINE
8
ARCH-DOORS
10
83.96656314599949
20
193.35726157799226
30
0
11
82.98822509939086
21
192.21177490060916
31
0
0
LINE
8
ARCH-DOORS
10
82.98822509939086
20
192.21177490060916
30
0
11
81.84273842200774
21
191.2334368540005
31
0
0
LINE
8
ARCH-DOORS
10
81.84273842200774
20
191.2334368540005
30
0
11
80.55830879749965
21
190.44633736779167
31
0
0
LINE
8
ARCH-DOORS
10
80.55830879749965
20
190.44633736779167
30
0
11
79.1665631459995
21
189.86985744356653
31
0
0
LINE
8
ARCH-DOORS
10
79.1665631459995
20
189.86985744356653
30
0
11
77.70177086438622
21
189.5181919302867
31
0
0
LINE
8
ARCH-DOORS
10
77.70177086438622
20
189.5181919302867
30
0
11
76.2
21
189.4
31
0
0
LINE
8
ARCH-WALLS
10
85.8
20
199.0
30
0
11
245.0
21
199.0
31
0
0
LINE
8
ARCH-DOORS
10
245.0
20
199.0
30
0
11
245.0
21
191.0
31
0
0
LINE
8
ARCH-DOORS
10
253.0
20
199.0
30
0
11
252.9015067247611
21
197.74852427967815
31
0
0
LINE
8
ARCH-DOORS
10
252.9015067247611
20
197.74852427967815
30
0
11
252.60845213036123
21
196.52786404500043
31
0
0
LINE
8
ARCH-DOORS
10
252.60845213036123
20
196.52786404500043
30
0
11
252.12805219350693
21
195.36807600208363
31
0
0
LINE
8
ARCH-DOORS
10
252.12805219350693
20
195.36807600208363
30
0
11
251.47213595499957
21
194.2977179816602
31
0
0
LINE
8
ARCH-DOORS
10
251.47213595499957
20
194.2977179816602
30
0
11
250.65685424949237
21
193.34314575050763
31
0
0
LINE
8
ARCH-DOORS
10
250.65685424949237
20
193.34314575050763
30
0
11
249.7022820183398
21
192.52786404500043
31
0
0
LINE
8
ARCH-DOORS
10
249.7022820183398
20
192.52786404500043
30
0
11
248.63192399791637
21
191.87194780649307
31
0
0
LINE
8
ARCH-DOORS
10
248.63192399791637
20
191.87194780649307
30
0
11
247.47213595499957
21
191.39154786963877
31
0
0
LINE
8
ARCH-DOORS
10
247.47213595499957
20
191.39154786963877
30
0
11
246.25147572032185
21
191.0984932752389
31
0
0
LINE
8
ARCH-DOORS
10
246.25147572032185
20
191.0984932752389
30
0
11
245.0
21
191.0
31
0
0
LINE
8
ARCH-WALLS
10
253.0
20
199.0
30
0
11
265.0
21
199.0
31
0
0
LINE
8
ARCH-WALLS
10
25.0
20
263.0
30
0
11
33.4
21
263.0
31
0
0
LINE
8
ARCH-WALLS
10
40.6
20
263.0
30
0
11
49.0
21
263.0
31
0
0
LINE
8
ARCH-DOORS
10
33.4
20
263.0
30
0
11
33.4
21
270.2
31
0
0
LINE
8
ARCH-DOORS
10
40.6
20
263.0
30
0
11
40.511356052284995
21
264.12632814828964
31
0
0
LINE
8
ARCH-DOORS
10
40.511356052284995
20
264.12632814828964
30
0
11
40.24760691732511
21
265.2249223594996
31
0
0
LINE
8
ARCH-DOORS
10
40.24760691732511
20
265.2249223594996
30
0
11
39.81524697415625
21
266.26873159812476
31
0
0
LINE
8
ARCH-DOORS
10
39.81524697415625
20
266.26873159812476
30
0
11
39.22492235949962
21
267.2320538165058
31
0
0
LINE
8
ARCH-DOORS
10
39.22492235949962
20
267.2320538165058
30
0
11
38.491168824543145
21
268.09116882454316
31
0
0
LINE
8
ARCH-DOORS
10
38.491168824543145
20
268.09116882454316
30
0
11
37.6320538165058
21
268.8249223594996
31
0
0
LINE
8
ARCH-DOORS
10
37.6320538165058
20
268.8249223594996
30
0
11
36.66873159812474
21
269.4152469741563
31
0
0
LINE
8
ARCH-DOORS
10
36.66873159812474
20
269.4152469741563
30
0
11
35.62492235949962
21
269.8476069173251
31
0
0
LINE
8
ARCH-DOORS
10
35.62492235949962
20
269.8476069173251
30
0
11
34.526328148289664
21
270.111356052285
31
0
0
LINE
8
ARCH-DOORS
10
34.526328148289664
20
270.111356052285
30
0
11
33.4
21
270.2
31
0
0
LINE
8
ARCH-WALLS
10
49.0
20
263.0
30
0
11
57.4
21
263.0
31
0
0
LINE
8
ARCH-WALLS
10
64.6
20
263.0
30
0
11
73.0
21
263.0
31
0
0
LINE
8
ARCH-DOORS
10
57.4
20
263.0
30
0
11
57.4
21
270.2
31
0
0
LINE
8
ARCH-DOORS
10
64.6
20
263.0
30
0
11
64.51135605228498
21
264.12632814828964
31
0
0
LINE
8
ARCH-DOORS
10
64.51135605228498
20
264.12632814828964
30
0
11
64.2476069173251
21
265.2249223594996
31
0
0
LINE
8
ARCH-DOORS
10
64.2476069173251
20
265.2249223594996
30
0
11
63.815246974156246
21
266.26873159812476
31
0
0
LINE
8
ARCH-DOORS
10
63.815246974156246
20
266.26873159812476
30
0
11
63.22492235949962
21
267.2320538165058
31
0
0
LINE
8
ARCH-DOORS
10
63.22492235949962
20
267.2320538165058
30
0
11
62.49116882454314
21
268.09116882454316
31
0
0
LINE
8
ARCH-DOORS
10
62.49116882454314
20
268.09116882454316
30
0
11
61.6320538165058
21
268.8249223594996
31
0
0
LINE
8
ARCH-DOORS
10
61.6320538165058
20
268.8249223594996
30
0
11
60.66873159812474
21
269.4152469741563
31
0
0
LINE
8
ARCH-DOORS
10
60.66873159812474
20
269.4152469741563
30
0
11
59.62492235949962
21
269.8476069173251
31
0
0
LINE
8
ARCH-DOORS
10
59.62492235949962
20
269.8476069173251
30
0
11
58.526328148289664
21
270.111356052285
31
0
0
LINE
8
ARCH-DOORS
10
58.526328148289664
20
270.111356052285
30
0
11
57.4
21
270.2
31
0
0
LINE
8
ARCH-WALLS
10
49.0
20
263.0
30
0
11
49.0
21
311.0
31
0
0
LINE
8
ARCH-WALLS
10
73.0
20
263.0
30
0
11
77.4
21
263.0
31
0
0
LINE
8
ARCH-WALLS
10
84.6
20
263.0
30
0
11
89.0
21
263.0
31
0
0
LINE
8
ARCH-DOORS
10
77.4
20
263.0
30
0
11
77.4
21
270.2
31
0
0
LINE
8
ARCH-DOORS
10
84.6
20
263.0
30
0
11
84.51135605228498
21
264.12632814828964
31
0
0
LINE
8
ARCH-DOORS
10
84.51135605228498
20
264.12632814828964
30
0
11
84.2476069173251
21
265.2249223594996
31
0
0
LINE
8
ARCH-DOORS
10
84.2476069173251
20
265.2249223594996
30
0
11
83.81524697415625
21
266.26873159812476
31
0
0
LINE
8
ARCH-DOORS
10
83.81524697415625
20
266.26873159812476
30
0
11
83.22492235949963
21
267.2320538165058
31
0
0
LINE
8
ARCH-DOORS
10
83.22492235949963
20
267.2320538165058
30
0
11
82.49116882454314
21
268.09116882454316
31
0
0
LINE
8
ARCH-DOORS
10
82.49116882454314
20
268.09116882454316
30
0
11
81.6320538165058
21
268.8249223594996
31
0
0
LINE
8
ARCH-DOORS
10
81.6320538165058
20
268.8249223594996
30
0
11
80.66873159812474
21
269.4152469741563
31
0
0
LINE
8
ARCH-DOORS
10
80.66873159812474
20
269.4152469741563
30
0
11
79.62492235949962
21
269.8476069173251
31
0
0
LINE
8
ARCH-DOORS
10
79.62492235949962
20
269.8476069173251
30
0
11
78.52632814828966
21
270.111356052285
31
0
0
LINE
8
ARCH-DOORS
10
78.52632814828966
20
270.111356052285
30
0
11
77.4
21
270.2
31
0
0
LINE
8
ARCH-WALLS
10
73.0
20
263.0
30
0
11
73.0
21
311.0
31
0
0
LINE
8
ARCH-WALLS
10
89.0
20
263.0
30
0
11
93.4
21
263.0
31
0
0
LINE
8
ARCH-WALLS
10
100.60000000000001
20
263.0
30
0
11
105.0
21
263.0
31
0
0
LINE
8
ARCH-DOORS
10
93.4
20
263.0
30
0
11
93.4
21
270.2
31
0
0
LINE
8
ARCH-DOORS
10
100.60000000000001
20
263.0
30
0
11
100.511356052285
21
264.12632814828964
31
0
0
LINE
8
ARCH-DOORS
10
100.511356052285
20
264.12632814828964
30
0
11
100.24760691732511
21
265.2249223594996
31
0
0
LINE
8
ARCH-DOORS
10
100.24760691732511
20
265.2249223594996
30
0
11
99.81524697415625
21
266.26873159812476
31
0
0
LINE
8
ARCH-DOORS
10
99.81524697415625
20
266.26873159812476
30
0
11
99.22492235949963
21
267.2320538165058
31
0
0
LINE
8
ARCH-DOORS
10
99.22492235949963
20
267.2320538165058
30
0
11
98.49116882454315
21
268.09116882454316
31
0
0
LINE
8
ARCH-DOORS
10
98.49116882454315
20
268.09116882454316
30
0
11
97.63205381650582
21
268.8249223594996
31
0
0
LINE
8
ARCH-DOORS
10
97.63205381650582
20
268.8249223594996
30
0
11
96.66873159812474
21
269.4152469741563
31
0
0
LINE
8
ARCH-DOORS
10
96.66873159812474
20
269.4152469741563
30
0
11
95.62492235949962
21
269.8476069173251
31
0
0
LINE
8
ARCH-DOORS
10
95.62492235949962
20
269.8476069173251
30
0
11
94.52632814828966
21
270.111356052285
31
0
0
LINE
8
ARCH-DOORS
10
94.52632814828966
20
270.111356052285
30
0
11
93.4
21
270.2
31
0
0
LINE
8
ARCH-WALLS
10
89.0
20
263.0
30
0
11
89.0
21
311.0
31
0
0
LINE
8
ARCH-WALLS
10
105.0
20
263.0
30
0
11
117.4
21
263.0
31
0
0
LINE
8
ARCH-WALLS
10
124.60000000000001
20
263.0
30
0
11
137.0
21
263.0
31
0
0
LINE
8
ARCH-DOORS
10
117.4
20
263.0
30
0
11
117.4
21
270.2
31
0
0
LINE
8
ARCH-DOORS
10
124.60000000000001
20
263.0
30
0
11
124.511356052285
21
264.12632814828964
31
0
0
LINE
8
ARCH-DOORS
10
124.511356052285
20
264.12632814828964
30
0
11
124.24760691732511
21
265.2249223594996
31
0
0
LINE
8
ARCH-DOORS
10
124.24760691732511
20
265.2249223594996
30
0
11
123.81524697415625
21
266.26873159812476
31
0
0
LINE
8
ARCH-DOORS
10
123.81524697415625
20
266.26873159812476
30
0
11
123.22492235949963
21
267.2320538165058
31
0
0
LINE
8
ARCH-DOORS
10
123.22492235949963
20
267.2320538165058
30
0
11
122.49116882454315
21
268.09116882454316
31
0
0
LINE
8
ARCH-DOORS
10
122.49116882454315
20
268.09116882454316
30
0
11
121.63205381650582
21
268.8249223594996
31
0
0
LINE
8
ARCH-DOORS
10
121.63205381650582
20
268.8249223594996
30
0
11
120.66873159812474
21
269.4152469741563
31
0
0
LINE
8
ARCH-DOORS
10
120.66873159812474
20
269.4152469741563
30
0
11
119.62492235949962
21
269.8476069173251
31
0
0
LINE
8
ARCH-DOORS
10
119.62492235949962
20
269.8476069173251
30
0
11
118.52632814828966
21
270.111356052285
31
0
0
LINE
8
ARCH-DOORS
10
118.52632814828966
20
270.111356052285
30
0
11
117.4
21
270.2
31
0
0
LINE
8
ARCH-WALLS
10
105.0
20
263.0
30
0
11
105.0
21
311.0
31
0
0
LINE
8
ARCH-WALLS
10
137.0
20
263.0
30
0
11
149.4
21
263.0
31
0
0
LINE
8
ARCH-WALLS
10
156.6
20
263.0
30
0
11
169.0
21
263.0
31
0
0
LINE
8
ARCH-DOORS
10
149.4
20
263.0
30
0
11
149.4
21
270.2
31
0
0
LINE
8
ARCH-DOORS
10
156.6
20
263.0
30
0
11
156.511356052285
21
264.12632814828964
31
0
0
LINE
8
ARCH-DOORS
10
156.511356052285
20
264.12632814828964
30
0
11
156.2476069173251
21
265.2249223594996
31
0
0
LINE
8
ARCH-DOORS
10
156.2476069173251
20
265.2249223594996
30
0
11
155.81524697415625
21
266.26873159812476
31
0
0
LINE
8
ARCH-DOORS
10
155.81524697415625
20
266.26873159812476
30
0
11
155.22492235949963
21
267.2320538165058
31
0
0
LINE
8
ARCH-DOORS
10
155.22492235949963
20
267.2320538165058
30
0
11
154.49116882454314
21
268.09116882454316
31
0
0
LINE
8
ARCH-DOORS
10
154.49116882454314
20
268.09116882454316
30
0
11
153.63205381650582
21
268.8249223594996
31
0
0
LINE
8
ARCH-DOORS
10
153.63205381650582
20
268.8249223594996
30
0
11
152.66873159812474
21
269.4152469741563
31
0
0
LINE
8
ARCH-DOORS
10
152.66873159812474
20
269.4152469741563
30
0
11
151.62492235949964
21
269.8476069173251
31
0
0
LINE
8
ARCH-DOORS
10
151.62492235949964
20
269.8476069173251
30
0
11
150.52632814828968
21
270.111356052285
31
0
0
LINE
8
ARCH-DOORS
10
150.52632814828968
20
270.111356052285
30
0
11
149.4
21
270.2
31
0
0
LINE
8
ARCH-WALLS
10
137.0
20
263.0
30
0
11
137.0
21
311.0
31
0
0
LINE
8
ARCH-WALLS
10
169.0
20
263.0
30
0
11
189.4
21
263.0
31
0
0
LINE
8
ARCH-WALLS
10
196.6
20
263.0
30
0
11
217.0
21
263.0
31
0
0
LINE
8
ARCH-DOORS
10
189.4
20
263.0
30
0
11
189.4
21
270.2
31
0
0
LINE
8
ARCH-DOORS
10
196.6
20
263.0
30
0
11
196.511356052285
21
264.12632814828964
31
0
0
LINE
8
ARCH-DOORS
10
196.511356052285
20
264.12632814828964
30
0
11
196.2476069173251
21
265.2249223594996
31
0
0
LINE
8
ARCH-DOORS
10
196.2476069173251
20
265.2249223594996
30
0
11
195.81524697415625
21
266.26873159812476
31
0
0
LINE
8
ARCH-DOORS
10
195.81524697415625
20
266.26873159812476
30
0
11
195.22492235949963
21
267.2320538165058
31
0
0
LINE
8
ARCH-DOORS
10
195.22492235949963
20
267.2320538165058
30
0
11
194.49116882454314
21
268.09116882454316
31
0
0
LINE
8
ARCH-DOORS
10
194.49116882454314
20
268.09116882454316
30
0
11
193.63205381650582
21
268.8249223594996
31
0
0
LINE
8
ARCH-DOORS
10
193.63205381650582
20
268.8249223594996
30
0
11
192.66873159812474
21
269.4152469741563
31
0
0
LINE
8
ARCH-DOORS
10
192.66873159812474
20
269.4152469741563
30
0
11
191.62492235949964
21
269.8476069173251
31
0
0
LINE
8
ARCH-DOORS
10
191.62492235949964
20
269.8476069173251
30
0
11
190.52632814828968
21
270.111356052285
31
0
0
LINE
8
ARCH-DOORS
10
190.52632814828968
20
270.111356052285
30
0
11
189.4
21
270.2
31
0
0
LINE
8
ARCH-WALLS
10
169.0
20
263.0
30
0
11
169.0
21
311.0
31
0
0
LINE
8
ARCH-WALLS
10
217.0
20
263.0
30
0
11
225.4
21
263.0
31
0
0
LINE
8
ARCH-WALLS
10
232.6
20
263.0
30
0
11
241.0
21
263.0
31
0
0
LINE
8
ARCH-DOORS
10
225.4
20
263.0
30
0
11
225.4
21
270.2
31
0
0
LINE
8
ARCH-DOORS
10
232.6
20
263.0
30
0
11
232.511356052285
21
264.12632814828964
31
0
0
LINE
8
ARCH-DOORS
10
232.511356052285
20
264.12632814828964
30
0
11
232.2476069173251
21
265.2249223594996
31
0
0
LINE
8
ARCH-DOORS
10
232.2476069173251
20
265.2249223594996
30
0
11
231.81524697415625
21
266.26873159812476
31
0
0
LINE
8
ARCH-DOORS
10
231.81524697415625
20
266.26873159812476
30
0
11
231.22492235949963
21
267.2320538165058
31
0
0
LINE
8
ARCH-DOORS
10
231.22492235949963
20
267.2320538165058
30
0
11
230.49116882454314
21
268.09116882454316
31
0
0
LINE
8
ARCH-DOORS
10
230.49116882454314
20
268.09116882454316
30
0
11
229.63205381650582
21
268.8249223594996
31
0
0
LINE
8
ARCH-DOORS
10
229.63205381650582
20
268.8249223594996
30
0
11
228.66873159812474
21
269.4152469741563
31
0
0
LINE
8
ARCH-DOORS
10
228.66873159812474
20
269.4152469741563
30
0
11
227.62492235949964
21
269.8476069173251
31
0
0
LINE
8
ARCH-DOORS
10
227.62492235949964
20
269.8476069173251
30
0
11
226.52632814828968
21
270.111356052285
31
0
0
LINE
8
ARCH-DOORS
10
226.52632814828968
20
270.111356052285
30
0
11
225.4
21
270.2
31
0
0
LINE
8
ARCH-WALLS
10
217.0
20
263.0
30
0
11
217.0
21
311.0
31
0
0
LINE
8
ARCH-WALLS
10
241.0
20
263.0
30
0
11
249.4
21
263.0
31
0
0
LINE
8
ARCH-WALLS
10
256.6
20
263.0
30
0
11
265.0
21
263.0
31
0
0
LINE
8
ARCH-DOORS
10
249.4
20
263.0
30
0
11
249.4
21
270.2
31
0
0
LINE
8
ARCH-DOORS
10
256.6
20
263.0
30
0
11
256.511356052285
21
264.12632814828964
31
0
0
LINE
8
ARCH-DOORS
10
256.511356052285
20
264.12632814828964
30
0
11
256.24760691732513
21
265.2249223594996
31
0
0
LINE
8
ARCH-DOORS
10
256.24760691732513
20
265.2249223594996
30
0
11
255.81524697415625
21
266.26873159812476
31
0
0
LINE
8
ARCH-DOORS
10
255.81524697415625
20
266.26873159812476
30
0
11
255.22492235949963
21
267.2320538165058
31
0
0
LINE
8
ARCH-DOORS
10
255.22492235949963
20
267.2320538165058
30
0
11
254.49116882454314
21
268.09116882454316
31
0
0
LINE
8
ARCH-DOORS
10
254.49116882454314
20
268.09116882454316
30
0
11
253.63205381650582
21
268.8249223594996
31
0
0
LINE
8
ARCH-DOORS
10
253.63205381650582
20
268.8249223594996
30
0
11
252.66873159812474
21
269.4152469741563
31
0
0
LINE
8
ARCH-DOORS
10
252.66873159812474
20
269.4152469741563
30
0
11
251.62492235949964
21
269.8476069173251
31
0
0
LINE
8
ARCH-DOORS
10
251.62492235949964
20
269.8476069173251
30
0
11
250.52632814828968
21
270.111356052285
31
0
0
LINE
8
ARCH-DOORS
10
250.52632814828968
20
270.111356052285
30
0
11
249.4
21
270.2
31
0
0
LINE
8
ARCH-WALLS
10
241.0
20
263.0
30
0
11
241.0
21
311.0
31
0
0
LINE
8
ARCH-WALLS
10
25.0
20
247.0
30
0
11
37.4
21
247.0
31
0
0
LINE
8
ARCH-DOORS
10
37.4
20
247.0
30
0
11
37.4
21
239.8
31
0
0
LINE
8
ARCH-DOORS
10
44.6
20
247.0
30
0
11
44.511356052284995
21
245.87367185171036
31
0
0
LINE
8
ARCH-DOORS
10
44.511356052284995
20
245.87367185171036
30
0
11
44.24760691732511
21
244.77507764050037
31
0
0
LINE
8
ARCH-DOORS
10
44.24760691732511
20
244.77507764050037
30
0
11
43.81524697415625
21
243.73126840187527
31
0
0
LINE
8
ARCH-DOORS
10
43.81524697415625
20
243.73126840187527
30
0
11
43.22492235949962
21
242.7679461834942
31
0
0
LINE
8
ARCH-DOORS
10
43.22492235949962
20
242.7679461834942
30
0
11
42.491168824543145
21
241.90883117545684
31
0
0
LINE
8
ARCH-DOORS
10
42.491168824543145
20
241.90883117545684
30
0
11
41.63205381650581
21
241.17507764050038
31
0
0
LINE
8
ARCH-DOORS
10
41.63205381650581
20
241.17507764050038
30
0
11
40.66873159812474
21
240.58475302584375
31
0
0
LINE
8
ARCH-DOORS
10
40.66873159812474
20
240.58475302584375
30
0
11
39.62492235949962
21
240.1523930826749
31
0
0
LINE
8
ARCH-DOORS
10
39.62492235949962
20
240.1523930826749
30
0
11
38.526328148289664
21
239.88864394771502
31
0
0
LINE
8
ARCH-DOORS
10
38.526328148289664
20
239.88864394771502
30
0
11
37.4
21
239.8
31
0
0
LINE
8
ARCH-WALLS
10
44.6
20
247.0
30
0
11
77.4
21
247.0
31
0
0
LINE
8
ARCH-DOORS
10
77.4
20
247.0
30
0
11
77.4
21
239.8
31
0
0
LINE
8
ARCH-DOORS
10
84.6
20
247.0
30
0
11
84.511356052285
21
245.87367185171033
31
0
0
LINE
8
ARCH-DOORS
10
84.511356052285
20
245.87367185171033
30
0
11
84.2476069173251
21
244.77507764050037
31
0
0
LINE
8
ARCH-DOORS
10
84.2476069173251
20
244.77507764050037
30
0
11
83.81524697415625
21
243.73126840187527
31
0
0
LINE
8
ARCH-DOORS
10
83.81524697415625
20
243.73126840187527
30
0
11
83.22492235949963
21
242.7679461834942
31
0
0
LINE
8
ARCH-DOORS
10
83.22492235949963
20
242.7679461834942
30
0
11
82.49116882454314
21
241.90883117545684
31
0
0
LINE
8
ARCH-DOORS
10
82.49116882454314
20
241.90883117545684
30
0
11
81.63205381650582
21
241.17507764050038
31
0
0
LINE
8
ARCH-DOORS
10
81.63205381650582
20
241.17507764050038
30
0
11
80.66873159812474
21
240.58475302584375
31
0
0
LINE
8
ARCH-DOORS
10
80.66873159812474
20
240.58475302584375
30
0
11
79.62492235949962
21
240.1523930826749
31
0
0
LINE
8
ARCH-DOORS
10
79.62492235949962
20
240.1523930826749
30
0
11
78.52632814828966
21
239.888643947715
31
0
0
LINE
8
ARCH-DOORS
10
78.52632814828966
20
239.888643947715
30
0
11
77.4
21
239.8
31
0
0
LINE
8
ARCH-WALLS
10
84.6
20
247.0
30
0
11
113.8
21
247.0
31
0
0
LINE
8
ARCH-DOORS
10
113.8
20
247.0
30
0
11
113.8
21
232.6
31
0
0
LINE
8
ARCH-DOORS
10
128.2
20
247.0
30
0
11
128.02271210457
21
244.74734370342068
31
0
0
LINE
8
ARCH-DOORS
10
128.02271210457
20
244.74734370342068
30
0
11
127.49521383465022
21
242.55015528100074
31
0
0
LINE
8
ARCH-DOORS
10
127.49521383465022
20
242.55015528100074
30
0
11
126.6304939483125
21
240.46253680375054
31
0
0
LINE
8
ARCH-DOORS
10
126.6304939483125
20
240.46253680375054
30
0
11
125.44984471899924
21
238.53589236698838
31
0
0
LINE
8
ARCH-DOORS
10
125.44984471899924
20
238.53589236698838
30
0
11
123.98233764908629
21
236.8176623509137
31
0
0
LINE
8
ARCH-DOORS
10
123.98233764908629
20
236.8176623509137
30
0
11
122.26410763301162
21
235.35015528100075
31
0
0
LINE
8
ARCH-DOORS
10
122.26410763301162
20
235.35015528100075
30
0
11
120.33746319624947
21
234.1695060516875
31
0
0
LINE
8
ARCH-DOORS
10
120.33746319624947
20
234.1695060516875
30
0
11
118.24984471899924
21
233.30478616534978
31
0
0
LINE
8
ARCH-DOORS
10
118.24984471899924
20
233.30478616534978
30
0
11
116.05265629657933
21
232.77728789543
31
0
0
LINE
8
ARCH-DOORS
10
116.05265629657933
20
232.77728789543
30
0
11
113.8
21
232.6
31
0
0
LINE
8
ARCH-WALLS
10
128.2
20
247.0
30
0
11
245.4
21
247.0
31
0
0
LINE
8
ARCH-DOORS
10
245.4
20
247.0
30
0
11
245.4
21
239.8
31
0
0
LINE
8
ARCH-DOORS
10
252.6
20
247.0
30
0
11
252.51135605228498
21
245.87367185171036
31
0
0
LINE
8
ARCH-DOORS
10
252.51135605228498
20
245.87367185171036
30
0
11
252.2476069173251
21
244.7750776405004
31
0
0
LINE
8
ARCH-DOORS
10
252.2476069173251
20
244.7750776405004
30
0
11
251.81524697415625
21
243.73126840187527
31
0
0
LINE
8
ARCH-DOORS
10
251.81524697415625
20
243.73126840187527
30
0
11
251.22492235949963
21
242.7679461834942
31
0
0
LINE
8
ARCH-DOORS
10
251.22492235949963
20
242.7679461834942
30
0
11
250.49116882454314
21
241.90883117545687
31
0
0
LINE
8
ARCH-DOORS
10
250.49116882454314
20
241.90883117545687
30
0
11
249.63205381650582
21
241.17507764050038
31
0
0
LINE
8
ARCH-DOORS
10
249.63205381650582
20
241.17507764050038
30
0
11
248.66873159812474
21
240.58475302584375
31
0
0
LINE
8
ARCH-DOORS
10
248.66873159812474
20
240.58475302584375
30
0
11
247.62492235949964
21
240.1523930826749
31
0
0
LINE
8
ARCH-DOORS
10
247.62492235949964
20
240.1523930826749
30
0
11
246.52632814828968
21
239.88864394771502
31
0
0
LINE
8
ARCH-DOORS
10
246.52632814828968
20
239.88864394771502
30
0
11
245.4
21
239.8
31
0
0
LINE
8
ARCH-WALLS
10
252.6
20
247.0
30
0
11
265.0
21
247.0
31
0
0
LINE
8
ARCH-WALLS
10
57.0
20
199.0
30
0
11
57.0
21
247.0
31
0
0
LINE
8
ARCH-WALLS
10
233.0
20
199.0
30
0
11
233.0
21
247.0
31
0
0
LINE
8
ARCH-WALLS
10
105.0
20
199.0
30
0
11
105.0
21
247.0
31
0
0
LINE
8
ARCH-FURNITURE
10
29.0
20
207.0
30
0
11
53.0
21
207.0
31
0
0
LINE
8
ARCH-FURNITURE
10
29.0
20
209.56
30
0
11
53.0
21
209.56
31
0
0
LINE
8
ARCH-FURNITURE
10
29.0
20
212.12
30
0
11
53.0
21
212.12
31
0
0
LINE
8
ARCH-FURNITURE
10
29.0
20
214.68
30
0
11
53.0
21
214.68
31
0
0
LINE
8
ARCH-FURNITURE
10
29.0
20
217.24
30
0
11
53.0
21
217.24
31
0
0
LINE
8
ARCH-FURNITURE
10
29.0
20
219.8
30
0
11
53.0
21
219.8
31
0
0
LINE
8
ARCH-FURNITURE
10
29.0
20
222.36
30
0
11
53.0
21
222.36
31
0
0
LINE
8
ARCH-FURNITURE
10
29.0
20
224.92000000000002
30
0
11
53.0
21
224.92000000000002
31
0
0
LINE
8
ARCH-FURNITURE
10
29.0
20
227.48
30
0
11
53.0
21
227.48
31
0
0
LINE
8
ARCH-FURNITURE
10
29.0
20
230.04
30
0
11
53.0
21
230.04
31
0
0
LINE
8
ARCH-FURNITURE
10
29.0
20
232.6
30
0
11
53.0
21
232.6
31
0
0
LINE
8
ARCH-FURNITURE
10
29.0
20
235.16
30
0
11
53.0
21
235.16
31
0
0
LINE
8
ARCH-DOORS
10
41.0
20
207.0
30
0
11
41.0
21
237.4
31
0
0
LINE
8
ARCH-DOORS
10
41.0
20
237.4
30
0
11
41.95885107720841
21
235.64483487621925
31
0
0
LINE
8
ARCH-DOORS
10
41.0
20
237.4
30
0
11
40.04114892279159
21
235.64483487621925
31
0
0
TEXT
8
ARCH-TEXT
10
29.0
20
203.0
30
0
40
2
1
UP
7
STANDARD
41
0.85
0
LINE
8
ARCH-FURNITURE
10
237.0
20
207.0
30
0
11
261.0
21
207.0
31
0
0
LINE
8
ARCH-FURNITURE
10
237.0
20
209.56
30
0
11
261.0
21
209.56
31
0
0
LINE
8
ARCH-FURNITURE
10
237.0
20
212.12
30
0
11
261.0
21
212.12
31
0
0
LINE
8
ARCH-FURNITURE
10
237.0
20
214.68
30
0
11
261.0
21
214.68
31
0
0
LINE
8
ARCH-FURNITURE
10
237.0
20
217.24
30
0
11
261.0
21
217.24
31
0
0
LINE
8
ARCH-FURNITURE
10
237.0
20
219.8
30
0
11
261.0
21
219.8
31
0
0
LINE
8
ARCH-FURNITURE
10
237.0
20
222.36
30
0
11
261.0
21
222.36
31
0
0
LINE
8
ARCH-FURNITURE
10
237.0
20
224.92000000000002
30
0
11
261.0
21
224.92000000000002
31
0
0
LINE
8
ARCH-FURNITURE
10
237.0
20
227.48
30
0
11
261.0
21
227.48
31
0
0
LINE
8
ARCH-FURNITURE
10
237.0
20
230.04
30
0
11
261.0
21
230.04
31
0
0
LINE
8
ARCH-FURNITURE
10
237.0
20
232.6
30
0
11
261.0
21
232.6
31
0
0
LINE
8
ARCH-FURNITURE
10
237.0
20
235.16
30
0
11
261.0
21
235.16
31
0
0
LINE
8
ARCH-DOORS
10
249.0
20
207.0
30
0
11
249.0
21
237.4
31
0
0
LINE
8
ARCH-DOORS
10
249.0
20
237.4
30
0
11
249.9588510772084
21
235.64483487621925
31
0
0
LINE
8
ARCH-DOORS
10
249.0
20
237.4
30
0
11
248.0411489227916
21
235.64483487621925
31
0
0
TEXT
8
ARCH-TEXT
10
237.0
20
203.0
30
0
40
2
1
UP
7
STANDARD
41
0.85
0
TEXT
8
ARCH-TEXT
10
26.44
20
308.6
30
0
40
2.1
1
ELEC
7
STANDARD
41
0.85
0
TEXT
8
ARCH-TEXT
10
50.44
20
308.6
30
0
40
2.1
1
COM
7
STANDARD
41
0.85
0
TEXT
8
ARCH-TEXT
10
74.44
20
308.6
30
0
40
2.1
1
STO
7
STANDARD
41
0.85
0
TEXT
8
ARCH-TEXT
10
90.44
20
308.6
30
0
40
2.1
1
ACC
7
STANDARD
41
0.85
0
TEXT
8
ARCH-TEXT
10
106.44
20
308.6
30
0
40
2.1
1
MT1
7
STANDARD
41
0.85
0
TEXT
8
ARCH-TEXT
10
138.44
20
308.6
30
0
40
2.1
1
MT2
7
STANDARD
41
0.85
0
TEXT
8
ARCH-TEXT
10
170.44
20
308.6
30
0
40
2.1
1
KIT
7
STANDARD
41
0.85
0
TEXT
8
ARCH-TEXT
10
218.44
20
308.6
30
0
40
2.1
1
M WC
7
STANDARD
41
0.85
0
TEXT
8
ARCH-TEXT
10
242.44
20
308.6
30
0
40
2.1
1
F WC
7
STANDARD
41
0.85
0
TEXT
8
ARCH-TEXT
10
26.44
20
244.6
30
0
40
2.1
1
ST1
7
STANDARD
41
0.85
0
TEXT
8
ARCH-TEXT
10
58.44
20
220.6
30
0
40
2.1
1
REC
7
STANDARD
41
0.85
0
TEXT
8
ARCH-TEXT
10
58.44
20
244.6
30
0
40
2.1
1
WAIT
7
STANDARD
41
0.85
0
TEXT
8
ARCH-TEXT
10
106.44
20
244.6
30
0
40
2.1
1
OPEN
7
STANDARD
41
0.85
0
TEXT
8
ARCH-TEXT
10
234.44
20
244.6
30
0
40
2.1
1
ST2
7
STANDARD
41
0.85
0
TEXT
8
ARCH-TEXT
10
27.4
20
261.4
30
0
40
2.1
1
CORRIDOR - 2.0 m wide
7
STANDARD
41
0.85
0
LINE
8
ELEC-DIMENSIONS
10
25.0
20
325.4
30
0
11
265.0
21
325.4
31
0
0
TEXT
8
ELEC-DIMENSIONS
10
137.0
20
327.4
30
0
40
2.6
1
30 000
7
STANDARD
41
0.85
0
LINE
8
ELEC-DIMENSIONS
10
25.0
20
312.6
30
0
11
25.0
21
327.8
31
0
0
LINE
8
ELEC-DIMENSIONS
10
265.0
20
312.6
30
0
11
265.0
21
327.8
31
0
0
TEXT
8
ELEC-TEXT
10
23
20
190
30
0
40
3
1
GF  /  420 m2  /  1:125 at A2
7
STANDARD
41
0.85
0
INSERT
8
ELEC-DB
2
DB
10
28.6
20
276.6
30
0
41
1
42
1
43
1
0
TEXT
8
ELEC-DB
10
31.8
20
273.4
30
0
40
2.4
1
DB-GF
7
STANDARD
41
0.85
0
INSERT
8
ELEC-DB
2
MSB
10
33.0
20
295.0
30
0
41
1
42
1
43
1
0
TEXT
8
ELEC-DB
10
36.2
20
291.8
30
0
40
2.4
1
MSB
7
STANDARD
41
0.85
0
LINE
8
ELEC-CABLE
10
33.0
20
255.0
30
0
11
35.0
21
255.0
31
0
0
LINE
8
ELEC-CABLE
10
37.0
20
255.0
30
0
11
39.0
21
255.0
31
0
0
LINE
8
ELEC-CABLE
10
41.0
20
255.0
30
0
11
43.0
21
255.0
31
0
0
LINE
8
ELEC-CABLE
10
45.0
20
255.0
30
0
11
47.0
21
255.0
31
0
0
LINE
8
ELEC-CABLE
10
49.0
20
255.0
30
0
11
51.0
21
255.0
31
0
0
LINE
8
ELEC-CABLE
10
53.0
20
255.0
30
0
11
55.0
21
255.0
31
0
0
LINE
8
ELEC-CABLE
10
57.0
20
255.0
30
0
11
59.0
21
255.0
31
0
0
LINE
8
ELEC-CABLE
10
61.0
20
255.0
30
0
11
63.0
21
255.0
31
0
0
LINE
8
ELEC-CABLE
10
65.0
20
255.0
30
0
11
67.0
21
255.0
31
0
0
LINE
8
ELEC-CABLE
10
69.0
20
255.0
30
0
11
71.0
21
255.0
31
0
0
LINE
8
ELEC-CABLE
10
73.0
20
255.0
30
0
11
75.0
21
255.0
31
0
0
LINE
8
ELEC-CABLE
10
77.0
20
255.0
30
0
11
79.0
21
255.0
31
0
0
LINE
8
ELEC-CABLE
10
81.0
20
255.0
30
0
11
83.0
21
255.0
31
0
0
LINE
8
ELEC-CABLE
10
85.0
20
255.0
30
0
11
87.0
21
255.0
31
0
0
LINE
8
ELEC-CABLE
10
89.0
20
255.0
30
0
11
91.0
21
255.0
31
0
0
LINE
8
ELEC-CABLE
10
93.0
20
255.0
30
0
11
95.0
21
255.0
31
0
0
LINE
8
ELEC-CABLE
10
97.0
20
255.0
30
0
11
99.0
21
255.0
31
0
0
LINE
8
ELEC-CABLE
10
101.0
20
255.0
30
0
11
103.0
21
255.0
31
0
0
LINE
8
ELEC-CABLE
10
105.0
20
255.0
30
0
11
107.0
21
255.0
31
0
0
LINE
8
ELEC-CABLE
10
109.0
20
255.0
30
0
11
111.0
21
255.0
31
0
0
LINE
8
ELEC-CABLE
10
113.0
20
255.0
30
0
11
115.0
21
255.0
31
0
0
LINE
8
ELEC-CABLE
10
117.0
20
255.0
30
0
11
119.0
21
255.0
31
0
0
LINE
8
ELEC-CABLE
10
121.0
20
255.0
30
0
11
123.0
21
255.0
31
0
0
LINE
8
ELEC-CABLE
10
125.0
20
255.0
30
0
11
127.0
21
255.0
31
0
0
LINE
8
ELEC-CABLE
10
129.0
20
255.0
30
0
11
131.0
21
255.0
31
0
0
LINE
8
ELEC-CABLE
10
133.0
20
255.0
30
0
11
135.0
21
255.0
31
0
0
LINE
8
ELEC-CABLE
10
137.0
20
255.0
30
0
11
139.0
21
255.0
31
0
0
LINE
8
ELEC-CABLE
10
141.0
20
255.0
30
0
11
143.0
21
255.0
31
0
0
LINE
8
ELEC-CABLE
10
145.0
20
255.0
30
0
11
147.0
21
255.0
31
0
0
LINE
8
ELEC-CABLE
10
149.0
20
255.0
30
0
11
151.0
21
255.0
31
0
0
LINE
8
ELEC-CABLE
10
153.0
20
255.0
30
0
11
155.0
21
255.0
31
0
0
LINE
8
ELEC-CABLE
10
157.0
20
255.0
30
0
11
159.0
21
255.0
31
0
0
LINE
8
ELEC-CABLE
10
161.0
20
255.0
30
0
11
163.0
21
255.0
31
0
0
LINE
8
ELEC-CABLE
10
165.0
20
255.0
30
0
11
167.0
21
255.0
31
0
0
LINE
8
ELEC-CABLE
10
169.0
20
255.0
30
0
11
171.0
21
255.0
31
0
0
LINE
8
ELEC-CABLE
10
173.0
20
255.0
30
0
11
175.0
21
255.0
31
0
0
LINE
8
ELEC-CABLE
10
177.0
20
255.0
30
0
11
179.0
21
255.0
31
0
0
LINE
8
ELEC-CABLE
10
181.0
20
255.0
30
0
11
183.0
21
255.0
31
0
0
LINE
8
ELEC-CABLE
10
185.0
20
255.0
30
0
11
187.0
21
255.0
31
0
0
LINE
8
ELEC-CABLE
10
189.0
20
255.0
30
0
11
191.0
21
255.0
31
0
0
LINE
8
ELEC-CABLE
10
193.0
20
255.0
30
0
11
195.0
21
255.0
31
0
0
LINE
8
ELEC-CABLE
10
197.0
20
255.0
30
0
11
199.0
21
255.0
31
0
0
LINE
8
ELEC-CABLE
10
201.0
20
255.0
30
0
11
203.0
21
255.0
31
0
0
LINE
8
ELEC-CABLE
10
205.0
20
255.0
30
0
11
207.0
21
255.0
31
0
0
LINE
8
ELEC-CABLE
10
209.0
20
255.0
30
0
11
211.0
21
255.0
31
0
0
LINE
8
ELEC-CABLE
10
213.0
20
255.0
30
0
11
215.0
21
255.0
31
0
0
LINE
8
ELEC-CABLE
10
217.0
20
255.0
30
0
11
219.0
21
255.0
31
0
0
LINE
8
ELEC-CABLE
10
221.0
20
255.0
30
0
11
223.0
21
255.0
31
0
0
LINE
8
ELEC-CABLE
10
225.0
20
255.0
30
0
11
227.0
21
255.0
31
0
0
LINE
8
ELEC-CABLE
10
229.0
20
255.0
30
0
11
231.0
21
255.0
31
0
0
LINE
8
ELEC-CABLE
10
233.0
20
255.0
30
0
11
235.0
21
255.0
31
0
0
LINE
8
ELEC-CABLE
10
237.0
20
255.0
30
0
11
239.0
21
255.0
31
0
0
LINE
8
ELEC-CABLE
10
241.0
20
255.0
30
0
11
243.0
21
255.0
31
0
0
LINE
8
ELEC-CABLE
10
245.0
20
255.0
30
0
11
247.0
21
255.0
31
0
0
LINE
8
ELEC-CABLE
10
249.0
20
255.0
30
0
11
251.0
21
255.0
31
0
0
LINE
8
ELEC-CABLE
10
253.0
20
255.0
30
0
11
255.0
21
255.0
31
0
0
TEXT
8
ELEC-CABLE
10
105.0
20
259.0
30
0
40
2.4
1
TR-GF 150 x 50 tray (concept)
7
STANDARD
41
0.85
0
LINE
8
ELEC-CABLE
10
41.0
20
255.0
30
0
11
41.0
21
257.0
31
0
0
LINE
8
ELEC-CABLE
10
41.0
20
259.0
30
0
11
41.0
21
261.0
31
0
0
LINE
8
ELEC-CABLE
10
41.0
20
263.0
30
0
11
41.0
21
265.0
31
0
0
LINE
8
ELEC-CABLE
10
41.0
20
267.0
30
0
11
41.0
21
269.0
31
0
0
LINE
8
ELEC-CABLE
10
41.0
20
271.0
30
0
11
41.0
21
273.0
31
0
0
LINE
8
ELEC-CABLE
10
41.0
20
275.0
30
0
11
41.0
21
277.0
31
0
0
LINE
8
ELEC-CABLE
10
41.0
20
279.0
30
0
11
41.0
21
281.0
31
0
0
LINE
8
ELEC-CABLE
10
41.0
20
283.0
30
0
11
41.0
21
285.0
31
0
0
LINE
8
ELEC-CABLE
10
41.0
20
287.0
30
0
11
41.0
21
289.0
31
0
0
LINE
8
ELEC-CABLE
10
41.0
20
291.0
30
0
11
41.0
21
293.0
31
0
0
LINE
8
ELEC-CABLE
10
65.0
20
255.0
30
0
11
65.0
21
257.0
31
0
0
LINE
8
ELEC-CABLE
10
65.0
20
259.0
30
0
11
65.0
21
261.0
31
0
0
LINE
8
ELEC-CABLE
10
65.0
20
263.0
30
0
11
65.0
21
265.0
31
0
0
LINE
8
ELEC-CABLE
10
65.0
20
267.0
30
0
11
65.0
21
269.0
31
0
0
LINE
8
ELEC-CABLE
10
65.0
20
271.0
30
0
11
65.0
21
273.0
31
0
0
LINE
8
ELEC-CABLE
10
65.0
20
275.0
30
0
11
65.0
21
277.0
31
0
0
LINE
8
ELEC-CABLE
10
65.0
20
279.0
30
0
11
65.0
21
281.0
31
0
0
LINE
8
ELEC-CABLE
10
65.0
20
283.0
30
0
11
65.0
21
285.0
31
0
0
LINE
8
ELEC-CABLE
10
121.0
20
255.0
30
0
11
121.0
21
257.0
31
0
0
LINE
8
ELEC-CABLE
10
121.0
20
259.0
30
0
11
121.0
21
261.0
31
0
0
LINE
8
ELEC-CABLE
10
121.0
20
263.0
30
0
11
121.0
21
265.0
31
0
0
LINE
8
ELEC-CABLE
10
121.0
20
267.0
30
0
11
121.0
21
269.0
31
0
0
LINE
8
ELEC-CABLE
10
121.0
20
271.0
30
0
11
121.0
21
273.0
31
0
0
LINE
8
ELEC-CABLE
10
121.0
20
275.0
30
0
11
121.0
21
277.0
31
0
0
LINE
8
ELEC-CABLE
10
121.0
20
279.0
30
0
11
121.0
21
281.0
31
0
0
LINE
8
ELEC-CABLE
10
121.0
20
283.0
30
0
11
121.0
21
285.0
31
0
0
LINE
8
ELEC-CABLE
10
153.0
20
255.0
30
0
11
153.0
21
257.0
31
0
0
LINE
8
ELEC-CABLE
10
153.0
20
259.0
30
0
11
153.0
21
261.0
31
0
0
LINE
8
ELEC-CABLE
10
153.0
20
263.0
30
0
11
153.0
21
265.0
31
0
0
LINE
8
ELEC-CABLE
10
153.0
20
267.0
30
0
11
153.0
21
269.0
31
0
0
LINE
8
ELEC-CABLE
10
153.0
20
271.0
30
0
11
153.0
21
273.0
31
0
0
LINE
8
ELEC-CABLE
10
153.0
20
275.0
30
0
11
153.0
21
277.0
31
0
0
LINE
8
ELEC-CABLE
10
153.0
20
279.0
30
0
11
153.0
21
281.0
31
0
0
LINE
8
ELEC-CABLE
10
153.0
20
283.0
30
0
11
153.0
21
285.0
31
0
0
LINE
8
ELEC-CABLE
10
201.0
20
255.0
30
0
11
201.0
21
257.0
31
0
0
LINE
8
ELEC-CABLE
10
201.0
20
259.0
30
0
11
201.0
21
261.0
31
0
0
LINE
8
ELEC-CABLE
10
201.0
20
263.0
30
0
11
201.0
21
265.0
31
0
0
LINE
8
ELEC-CABLE
10
201.0
20
267.0
30
0
11
201.0
21
269.0
31
0
0
LINE
8
ELEC-CABLE
10
201.0
20
271.0
30
0
11
201.0
21
273.0
31
0
0
LINE
8
ELEC-CABLE
10
201.0
20
275.0
30
0
11
201.0
21
277.0
31
0
0
LINE
8
ELEC-CABLE
10
201.0
20
279.0
30
0
11
201.0
21
281.0
31
0
0
LINE
8
ELEC-CABLE
10
201.0
20
283.0
30
0
11
201.0
21
285.0
31
0
0
LINE
8
ELEC-CABLE
10
249.0
20
255.0
30
0
11
249.0
21
257.0
31
0
0
LINE
8
ELEC-CABLE
10
249.0
20
259.0
30
0
11
249.0
21
261.0
31
0
0
LINE
8
ELEC-CABLE
10
249.0
20
263.0
30
0
11
249.0
21
265.0
31
0
0
LINE
8
ELEC-CABLE
10
249.0
20
267.0
30
0
11
249.0
21
269.0
31
0
0
LINE
8
ELEC-CABLE
10
249.0
20
271.0
30
0
11
249.0
21
273.0
31
0
0
LINE
8
ELEC-CABLE
10
249.0
20
275.0
30
0
11
249.0
21
277.0
31
0
0
LINE
8
ELEC-CABLE
10
249.0
20
279.0
30
0
11
249.0
21
281.0
31
0
0
LINE
8
ELEC-CABLE
10
249.0
20
283.0
30
0
11
249.0
21
285.0
31
0
0
LINE
8
ELEC-CABLE
10
121.0
20
255.0
30
0
11
121.0
21
253.0
31
0
0
LINE
8
ELEC-CABLE
10
121.0
20
251.0
30
0
11
121.0
21
249.0
31
0
0
LINE
8
ELEC-CABLE
10
121.0
20
247.0
30
0
11
121.0
21
245.0
31
0
0
LINE
8
ELEC-CABLE
10
121.0
20
243.0
30
0
11
121.0
21
241.0
31
0
0
LINE
8
ELEC-CABLE
10
121.0
20
239.0
30
0
11
121.0
21
237.0
31
0
0
LINE
8
ELEC-CABLE
10
121.0
20
235.0
30
0
11
121.0
21
233.0
31
0
0
LINE
8
ELEC-CABLE
10
121.0
20
231.0
30
0
11
121.0
21
229.0
31
0
0
LINE
8
ELEC-CABLE
10
121.0
20
227.0
30
0
11
121.0
21
225.0
31
0
0
LINE
8
ELEC-CABLE
10
185.0
20
255.0
30
0
11
185.0
21
253.0
31
0
0
LINE
8
ELEC-CABLE
10
185.0
20
251.0
30
0
11
185.0
21
249.0
31
0
0
LINE
8
ELEC-CABLE
10
185.0
20
247.0
30
0
11
185.0
21
245.0
31
0
0
LINE
8
ELEC-CABLE
10
185.0
20
243.0
30
0
11
185.0
21
241.0
31
0
0
LINE
8
ELEC-CABLE
10
185.0
20
239.0
30
0
11
185.0
21
237.0
31
0
0
LINE
8
ELEC-CABLE
10
185.0
20
235.0
30
0
11
185.0
21
233.0
31
0
0
LINE
8
ELEC-CABLE
10
185.0
20
231.0
30
0
11
185.0
21
229.0
31
0
0
LINE
8
ELEC-CABLE
10
185.0
20
227.0
30
0
11
185.0
21
225.0
31
0
0
INSERT
8
ELEC-DEDICATED
2
DED
10
177.0
20
299.0
30
0
41
0.7
42
0.7
43
0.7
0
LINE
8
ELEC-CABLE
10
177.0
20
255.0
30
0
11
177.0
21
257.0
31
0
0
LINE
8
ELEC-CABLE
10
177.0
20
259.0
30
0
11
177.0
21
261.0
31
0
0
LINE
8
ELEC-CABLE
10
177.0
20
263.0
30
0
11
177.0
21
265.0
31
0
0
LINE
8
ELEC-CABLE
10
177.0
20
267.0
30
0
11
177.0
21
269.0
31
0
0
LINE
8
ELEC-CABLE
10
177.0
20
271.0
30
0
11
177.0
21
273.0
31
0
0
LINE
8
ELEC-CABLE
10
177.0
20
275.0
30
0
11
177.0
21
277.0
31
0
0
LINE
8
ELEC-CABLE
10
177.0
20
279.0
30
0
11
177.0
21
281.0
31
0
0
LINE
8
ELEC-CABLE
10
177.0
20
283.0
30
0
11
177.0
21
285.0
31
0
0
LINE
8
ELEC-CABLE
10
177.0
20
287.0
30
0
11
177.0
21
289.0
31
0
0
LINE
8
ELEC-CABLE
10
177.0
20
291.0
30
0
11
177.0
21
293.0
31
0
0
LINE
8
ELEC-CABLE
10
177.0
20
295.0
30
0
11
177.0
21
297.0
31
0
0
INSERT
8
ELEC-DEDICATED
2
DED
10
193.0
20
295.0
30
0
41
0.7
42
0.7
43
0.7
0
LINE
8
ELEC-CABLE
10
193.0
20
255.0
30
0
11
193.0
21
257.0
31
0
0
LINE
8
ELEC-CABLE
10
193.0
20
259.0
30
0
11
193.0
21
261.0
31
0
0
LINE
8
ELEC-CABLE
10
193.0
20
263.0
30
0
11
193.0
21
265.0
31
0
0
LINE
8
ELEC-CABLE
10
193.0
20
267.0
30
0
11
193.0
21
269.0
31
0
0
LINE
8
ELEC-CABLE
10
193.0
20
271.0
30
0
11
193.0
21
273.0
31
0
0
LINE
8
ELEC-CABLE
10
193.0
20
275.0
30
0
11
193.0
21
277.0
31
0
0
LINE
8
ELEC-CABLE
10
193.0
20
279.0
30
0
11
193.0
21
281.0
31
0
0
LINE
8
ELEC-CABLE
10
193.0
20
283.0
30
0
11
193.0
21
285.0
31
0
0
LINE
8
ELEC-CABLE
10
193.0
20
287.0
30
0
11
193.0
21
289.0
31
0
0
LINE
8
ELEC-CABLE
10
193.0
20
291.0
30
0
11
193.0
21
293.0
31
0
0
INSERT
8
ELEC-DEDICATED
2
DED
10
209.0
20
299.0
30
0
41
0.7
42
0.7
43
0.7
0
LINE
8
ELEC-CABLE
10
209.0
20
255.0
30
0
11
209.0
21
257.0
31
0
0
LINE
8
ELEC-CABLE
10
209.0
20
259.0
30
0
11
209.0
21
261.0
31
0
0
LINE
8
ELEC-CABLE
10
209.0
20
263.0
30
0
11
209.0
21
265.0
31
0
0
LINE
8
ELEC-CABLE
10
209.0
20
267.0
30
0
11
209.0
21
269.0
31
0
0
LINE
8
ELEC-CABLE
10
209.0
20
271.0
30
0
11
209.0
21
273.0
31
0
0
LINE
8
ELEC-CABLE
10
209.0
20
275.0
30
0
11
209.0
21
277.0
31
0
0
LINE
8
ELEC-CABLE
10
209.0
20
279.0
30
0
11
209.0
21
281.0
31
0
0
LINE
8
ELEC-CABLE
10
209.0
20
283.0
30
0
11
209.0
21
285.0
31
0
0
LINE
8
ELEC-CABLE
10
209.0
20
287.0
30
0
11
209.0
21
289.0
31
0
0
LINE
8
ELEC-CABLE
10
209.0
20
291.0
30
0
11
209.0
21
293.0
31
0
0
LINE
8
ELEC-CABLE
10
209.0
20
295.0
30
0
11
209.0
21
297.0
31
0
0
INSERT
8
ELEC-DEDICATED
2
DED
10
209.0
20
271.0
30
0
41
0.7
42
0.7
43
0.7
0
LINE
8
ELEC-CABLE
10
209.0
20
255.0
30
0
11
209.0
21
257.0
31
0
0
LINE
8
ELEC-CABLE
10
209.0
20
259.0
30
0
11
209.0
21
261.0
31
0
0
LINE
8
ELEC-CABLE
10
209.0
20
263.0
30
0
11
209.0
21
265.0
31
0
0
LINE
8
ELEC-CABLE
10
209.0
20
267.0
30
0
11
209.0
21
269.0
31
0
0
INSERT
8
ELEC-DEDICATED
2
DED
10
97.0
20
239.0
30
0
41
0.7
42
0.7
43
0.7
0
LINE
8
ELEC-CABLE
10
97.0
20
255.0
30
0
11
97.0
21
253.0
31
0
0
LINE
8
ELEC-CABLE
10
97.0
20
251.0
30
0
11
97.0
21
249.0
31
0
0
LINE
8
ELEC-CABLE
10
97.0
20
247.0
30
0
11
97.0
21
245.0
31
0
0
LINE
8
ELEC-CABLE
10
97.0
20
243.0
30
0
11
97.0
21
241.0
31
0
0
INSERT
8
ELEC-DEDICATED
2
DED
10
61.0
20
287.0
30
0
41
0.7
42
0.7
43
0.7
0
LINE
8
ELEC-CABLE
10
61.0
20
255.0
30
0
11
61.0
21
257.0
31
0
0
LINE
8
ELEC-CABLE
10
61.0
20
259.0
30
0
11
61.0
21
261.0
31
0
0
LINE
8
ELEC-CABLE
10
61.0
20
263.0
30
0
11
61.0
21
265.0
31
0
0
LINE
8
ELEC-CABLE
10
61.0
20
267.0
30
0
11
61.0
21
269.0
31
0
0
LINE
8
ELEC-CABLE
10
61.0
20
271.0
30
0
11
61.0
21
273.0
31
0
0
LINE
8
ELEC-CABLE
10
61.0
20
275.0
30
0
11
61.0
21
277.0
31
0
0
LINE
8
ELEC-CABLE
10
61.0
20
279.0
30
0
11
61.0
21
281.0
31
0
0
LINE
8
ELEC-CABLE
10
61.0
20
283.0
30
0
11
61.0
21
285.0
31
0
0
INSERT
8
ELEC-DEDICATED
2
DED
10
69.0
20
275.0
30
0
41
0.7
42
0.7
43
0.7
0
LINE
8
ELEC-CABLE
10
69.0
20
255.0
30
0
11
69.0
21
257.0
31
0
0
LINE
8
ELEC-CABLE
10
69.0
20
259.0
30
0
11
69.0
21
261.0
31
0
0
LINE
8
ELEC-CABLE
10
69.0
20
263.0
30
0
11
69.0
21
265.0
31
0
0
LINE
8
ELEC-CABLE
10
69.0
20
267.0
30
0
11
69.0
21
269.0
31
0
0
LINE
8
ELEC-CABLE
10
69.0
20
271.0
30
0
11
69.0
21
273.0
31
0
0
INSERT
8
ELEC-DEDICATED
2
LOAD3
10
113.0
20
317.4
30
0
41
0.7
42
0.7
43
0.7
0
LINE
8
ELEC-CABLE
10
113.0
20
255.0
30
0
11
113.0
21
256.95
31
0
0
LINE
8
ELEC-CABLE
10
113.0
20
258.9
30
0
11
113.0
21
260.85
31
0
0
LINE
8
ELEC-CABLE
10
113.0
20
262.8
30
0
11
113.0
21
264.75
31
0
0
LINE
8
ELEC-CABLE
10
113.0
20
266.7
30
0
11
113.0
21
268.65
31
0
0
LINE
8
ELEC-CABLE
10
113.0
20
270.6
30
0
11
113.0
21
272.55
31
0
0
LINE
8
ELEC-CABLE
10
113.0
20
274.5
30
0
11
113.0
21
276.45
31
0
0
LINE
8
ELEC-CABLE
10
113.0
20
278.4
30
0
11
113.0
21
280.35
31
0
0
LINE
8
ELEC-CABLE
10
113.0
20
282.3
30
0
11
113.0
21
284.25
31
0
0
LINE
8
ELEC-CABLE
10
113.0
20
286.2
30
0
11
113.0
21
288.15
31
0
0
LINE
8
ELEC-CABLE
10
113.0
20
290.1
30
0
11
113.0
21
292.05
31
0
0
LINE
8
ELEC-CABLE
10
113.0
20
294.0
30
0
11
113.0
21
295.95
31
0
0
LINE
8
ELEC-CABLE
10
113.0
20
297.9
30
0
11
113.0
21
299.85
31
0
0
LINE
8
ELEC-CABLE
10
113.0
20
301.8
30
0
11
113.0
21
303.75
31
0
0
LINE
8
ELEC-CABLE
10
113.0
20
305.7
30
0
11
113.0
21
307.65
31
0
0
LINE
8
ELEC-CABLE
10
113.0
20
309.6
30
0
11
113.0
21
311.55
31
0
0
LINE
8
ELEC-CABLE
10
113.0
20
313.5
30
0
11
113.0
21
315.45
31
0
0
INSERT
8
ELEC-DEDICATED
2
LOAD3
10
201.0
20
317.4
30
0
41
0.7
42
0.7
43
0.7
0
LINE
8
ELEC-CABLE
10
201.0
20
255.0
30
0
11
201.0
21
256.95
31
0
0
LINE
8
ELEC-CABLE
10
201.0
20
258.9
30
0
11
201.0
21
260.85
31
0
0
LINE
8
ELEC-CABLE
10
201.0
20
262.8
30
0
11
201.0
21
264.75
31
0
0
LINE
8
ELEC-CABLE
10
201.0
20
266.7
30
0
11
201.0
21
268.65
31
0
0
LINE
8
ELEC-CABLE
10
201.0
20
270.6
30
0
11
201.0
21
272.55
31
0
0
LINE
8
ELEC-CABLE
10
201.0
20
274.5
30
0
11
201.0
21
276.45
31
0
0
LINE
8
ELEC-CABLE
10
201.0
20
278.4
30
0
11
201.0
21
280.35
31
0
0
LINE
8
ELEC-CABLE
10
201.0
20
282.3
30
0
11
201.0
21
284.25
31
0
0
LINE
8
ELEC-CABLE
10
201.0
20
286.2
30
0
11
201.0
21
288.15
31
0
0
LINE
8
ELEC-CABLE
10
201.0
20
290.1
30
0
11
201.0
21
292.05
31
0
0
LINE
8
ELEC-CABLE
10
201.0
20
294.0
30
0
11
201.0
21
295.95
31
0
0
LINE
8
ELEC-CABLE
10
201.0
20
297.9
30
0
11
201.0
21
299.85
31
0
0
LINE
8
ELEC-CABLE
10
201.0
20
301.8
30
0
11
201.0
21
303.75
31
0
0
LINE
8
ELEC-CABLE
10
201.0
20
305.7
30
0
11
201.0
21
307.65
31
0
0
LINE
8
ELEC-CABLE
10
201.0
20
309.6
30
0
11
201.0
21
311.55
31
0
0
LINE
8
ELEC-CABLE
10
201.0
20
313.5
30
0
11
201.0
21
315.45
31
0
0
INSERT
8
ELEC-CABLE
2
JUNC
10
33.0
20
255.0
30
0
41
1
42
1
43
1
0
TEXT
8
ELEC-CABLE
10
37.0
20
249.4
30
0
40
2.5
1
R1 RISER
7
STANDARD
41
0.85
0
LINE
8
ELEC-CABLE
10
33.0
20
295.0
30
0
11
28.6
21
295.0
31
0
0
LINE
8
ELEC-CABLE
10
28.6
20
295.0
30
0
11
28.6
21
276.6
31
0
0
TEXT
8
ELEC-TEXT
10
36.2
20
283.0
30
0
40
2.5
1
C-GF
7
STANDARD
41
0.85
0
LINE
8
ELEC-CABLE
10
33.0
20
295.0
30
0
11
33.0
21
255.0
31
0
0
LINE
8
ELEC-CABLE
10
28.6
20
276.6
30
0
11
28.6
21
274.6363636363636
31
0
0
LINE
8
ELEC-CABLE
10
28.6
20
272.67272727272723
30
0
11
28.6
21
270.70909090909095
31
0
0
LINE
8
ELEC-CABLE
10
28.6
20
268.74545454545455
30
0
11
28.6
21
266.78181818181815
31
0
0
LINE
8
ELEC-CABLE
10
28.6
20
264.8181818181818
30
0
11
28.6
21
262.8545454545455
31
0
0
LINE
8
ELEC-CABLE
10
28.6
20
260.8909090909091
30
0
11
28.6
21
258.92727272727274
31
0
0
LINE
8
ELEC-CABLE
10
28.6
20
256.9636363636364
30
0
11
28.6
21
255.0
31
0
0
LINE
8
ELEC-CABLE
10
28.6
20
255.0
30
0
11
30.066666666666666
21
255.0
31
0
0
LINE
8
ELEC-CABLE
10
31.533333333333335
20
255.0
30
0
11
33.0
21
255.0
31
0
0
LINE
8
ARCH-WALLS
10
315.0
20
199.0
30
0
11
315.0
21
311.0
31
0
0
LINE
8
ARCH-WALLS
10
555.0
20
199.0
30
0
11
555.0
21
311.0
31
0
0
LINE
8
ARCH-WALLS
10
315.0
20
311.0
30
0
11
555.0
21
311.0
31
0
0
LINE
8
ARCH-WALLS
10
315.0
20
199.0
30
0
11
555.0
21
199.0
31
0
0
LINE
8
ARCH-WALLS
10
315.0
20
263.0
30
0
11
323.4
21
263.0
31
0
0
LINE
8
ARCH-WALLS
10
330.6
20
263.0
30
0
11
339.0
21
263.0
31
0
0
LINE
8
ARCH-DOORS
10
323.4
20
263.0
30
0
11
323.4
21
270.2
31
0
0
LINE
8
ARCH-DOORS
10
330.6
20
263.0
30
0
11
330.511356052285
21
264.12632814828964
31
0
0
LINE
8
ARCH-DOORS
10
330.511356052285
20
264.12632814828964
30
0
11
330.24760691732513
21
265.2249223594996
31
0
0
LINE
8
ARCH-DOORS
10
330.24760691732513
20
265.2249223594996
30
0
11
329.81524697415625
21
266.26873159812476
31
0
0
LINE
8
ARCH-DOORS
10
329.81524697415625
20
266.26873159812476
30
0
11
329.2249223594996
21
267.2320538165058
31
0
0
LINE
8
ARCH-DOORS
10
329.2249223594996
20
267.2320538165058
30
0
11
328.49116882454314
21
268.09116882454316
31
0
0
LINE
8
ARCH-DOORS
10
328.49116882454314
20
268.09116882454316
30
0
11
327.6320538165058
21
268.8249223594996
31
0
0
LINE
8
ARCH-DOORS
10
327.6320538165058
20
268.8249223594996
30
0
11
326.66873159812474
21
269.4152469741563
31
0
0
LINE
8
ARCH-DOORS
10
326.66873159812474
20
269.4152469741563
30
0
11
325.62492235949964
21
269.8476069173251
31
0
0
LINE
8
ARCH-DOORS
10
325.62492235949964
20
269.8476069173251
30
0
11
324.5263281482897
21
270.111356052285
31
0
0
LINE
8
ARCH-DOORS
10
324.5263281482897
20
270.111356052285
30
0
11
323.4
21
270.2
31
0
0
LINE
8
ARCH-WALLS
10
339.0
20
263.0
30
0
11
343.4
21
263.0
31
0
0
LINE
8
ARCH-WALLS
10
350.6
20
263.0
30
0
11
355.0
21
263.0
31
0
0
LINE
8
ARCH-DOORS
10
343.4
20
263.0
30
0
11
343.4
21
270.2
31
0
0
LINE
8
ARCH-DOORS
10
350.6
20
263.0
30
0
11
350.511356052285
21
264.12632814828964
31
0
0
LINE
8
ARCH-DOORS
10
350.511356052285
20
264.12632814828964
30
0
11
350.24760691732513
21
265.2249223594996
31
0
0
LINE
8
ARCH-DOORS
10
350.24760691732513
20
265.2249223594996
30
0
11
349.81524697415625
21
266.26873159812476
31
0
0
LINE
8
ARCH-DOORS
10
349.81524697415625
20
266.26873159812476
30
0
11
349.2249223594996
21
267.2320538165058
31
0
0
LINE
8
ARCH-DOORS
10
349.2249223594996
20
267.2320538165058
30
0
11
348.49116882454314
21
268.09116882454316
31
0
0
LINE
8
ARCH-DOORS
10
348.49116882454314
20
268.09116882454316
30
0
11
347.6320538165058
21
268.8249223594996
31
0
0
LINE
8
ARCH-DOORS
10
347.6320538165058
20
268.8249223594996
30
0
11
346.66873159812474
21
269.4152469741563
31
0
0
LINE
8
ARCH-DOORS
10
346.66873159812474
20
269.4152469741563
30
0
11
345.62492235949964
21
269.8476069173251
31
0
0
LINE
8
ARCH-DOORS
10
345.62492235949964
20
269.8476069173251
30
0
11
344.5263281482897
21
270.111356052285
31
0
0
LINE
8
ARCH-DOORS
10
344.5263281482897
20
270.111356052285
30
0
11
343.4
21
270.2
31
0
0
LINE
8
ARCH-WALLS
10
339.0
20
263.0
30
0
11
339.0
21
311.0
31
0
0
LINE
8
ARCH-WALLS
10
355.0
20
263.0
30
0
11
363.4
21
263.0
31
0
0
LINE
8
ARCH-WALLS
10
370.6
20
263.0
30
0
11
379.0
21
263.0
31
0
0
LINE
8
ARCH-DOORS
10
363.4
20
263.0
30
0
11
363.4
21
270.2
31
0
0
LINE
8
ARCH-DOORS
10
370.6
20
263.0
30
0
11
370.511356052285
21
264.12632814828964
31
0
0
LINE
8
ARCH-DOORS
10
370.511356052285
20
264.12632814828964
30
0
11
370.24760691732513
21
265.2249223594996
31
0
0
LINE
8
ARCH-DOORS
10
370.24760691732513
20
265.2249223594996
30
0
11
369.81524697415625
21
266.26873159812476
31
0
0
LINE
8
ARCH-DOORS
10
369.81524697415625
20
266.26873159812476
30
0
11
369.2249223594996
21
267.2320538165058
31
0
0
LINE
8
ARCH-DOORS
10
369.2249223594996
20
267.2320538165058
30
0
11
368.49116882454314
21
268.09116882454316
31
0
0
LINE
8
ARCH-DOORS
10
368.49116882454314
20
268.09116882454316
30
0
11
367.6320538165058
21
268.8249223594996
31
0
0
LINE
8
ARCH-DOORS
10
367.6320538165058
20
268.8249223594996
30
0
11
366.66873159812474
21
269.4152469741563
31
0
0
LINE
8
ARCH-DOORS
10
366.66873159812474
20
269.4152469741563
30
0
11
365.62492235949964
21
269.8476069173251
31
0
0
LINE
8
ARCH-DOORS
10
365.62492235949964
20
269.8476069173251
30
0
11
364.5263281482897
21
270.111356052285
31
0
0
LINE
8
ARCH-DOORS
10
364.5263281482897
20
270.111356052285
30
0
11
363.4
21
270.2
31
0
0
LINE
8
ARCH-WALLS
10
355.0
20
263.0
30
0
11
355.0
21
311.0
31
0
0
LINE
8
ARCH-WALLS
10
379.0
20
263.0
30
0
11
387.4
21
263.0
31
0
0
LINE
8
ARCH-WALLS
10
394.6
20
263.0
30
0
11
403.0
21
263.0
31
0
0
LINE
8
ARCH-DOORS
10
387.4
20
263.0
30
0
11
387.4
21
270.2
31
0
0
LINE
8
ARCH-DOORS
10
394.6
20
263.0
30
0
11
394.511356052285
21
264.12632814828964
31
0
0
LINE
8
ARCH-DOORS
10
394.511356052285
20
264.12632814828964
30
0
11
394.24760691732513
21
265.2249223594996
31
0
0
LINE
8
ARCH-DOORS
10
394.24760691732513
20
265.2249223594996
30
0
11
393.81524697415625
21
266.26873159812476
31
0
0
LINE
8
ARCH-DOORS
10
393.81524697415625
20
266.26873159812476
30
0
11
393.2249223594996
21
267.2320538165058
31
0
0
LINE
8
ARCH-DOORS
10
393.2249223594996
20
267.2320538165058
30
0
11
392.49116882454314
21
268.09116882454316
31
0
0
LINE
8
ARCH-DOORS
10
392.49116882454314
20
268.09116882454316
30
0
11
391.63205381650585
21
268.8249223594996
31
0
0
LINE
8
ARCH-DOORS
10
391.63205381650585
20
268.8249223594996
30
0
11
390.66873159812474
21
269.4152469741563
31
0
0
LINE
8
ARCH-DOORS
10
390.66873159812474
20
269.4152469741563
30
0
11
389.62492235949964
21
269.8476069173251
31
0
0
LINE
8
ARCH-DOORS
10
389.62492235949964
20
269.8476069173251
30
0
11
388.5263281482897
21
270.111356052285
31
0
0
LINE
8
ARCH-DOORS
10
388.5263281482897
20
270.111356052285
30
0
11
387.4
21
270.2
31
0
0
LINE
8
ARCH-WALLS
10
379.0
20
263.0
30
0
11
379.0
21
311.0
31
0
0
LINE
8
ARCH-WALLS
10
403.0
20
263.0
30
0
11
423.4
21
263.0
31
0
0
LINE
8
ARCH-WALLS
10
430.6
20
263.0
30
0
11
451.0
21
263.0
31
0
0
LINE
8
ARCH-DOORS
10
423.4
20
263.0
30
0
11
423.4
21
270.2
31
0
0
LINE
8
ARCH-DOORS
10
430.6
20
263.0
30
0
11
430.511356052285
21
264.12632814828964
31
0
0
LINE
8
ARCH-DOORS
10
430.511356052285
20
264.12632814828964
30
0
11
430.24760691732513
21
265.2249223594996
31
0
0
LINE
8
ARCH-DOORS
10
430.24760691732513
20
265.2249223594996
30
0
11
429.81524697415625
21
266.26873159812476
31
0
0
LINE
8
ARCH-DOORS
10
429.81524697415625
20
266.26873159812476
30
0
11
429.2249223594996
21
267.2320538165058
31
0
0
LINE
8
ARCH-DOORS
10
429.2249223594996
20
267.2320538165058
30
0
11
428.49116882454314
21
268.09116882454316
31
0
0
LINE
8
ARCH-DOORS
10
428.49116882454314
20
268.09116882454316
30
0
11
427.63205381650585
21
268.8249223594996
31
0
0
LINE
8
ARCH-DOORS
10
427.63205381650585
20
268.8249223594996
30
0
11
426.66873159812474
21
269.4152469741563
31
0
0
LINE
8
ARCH-DOORS
10
426.66873159812474
20
269.4152469741563
30
0
11
425.62492235949964
21
269.8476069173251
31
0
0
LINE
8
ARCH-DOORS
10
425.62492235949964
20
269.8476069173251
30
0
11
424.5263281482897
21
270.111356052285
31
0
0
LINE
8
ARCH-DOORS
10
424.5263281482897
20
270.111356052285
30
0
11
423.4
21
270.2
31
0
0
LINE
8
ARCH-WALLS
10
403.0
20
263.0
30
0
11
403.0
21
311.0
31
0
0
LINE
8
ARCH-WALLS
10
451.0
20
263.0
30
0
11
463.4
21
263.0
31
0
0
LINE
8
ARCH-WALLS
10
470.6
20
263.0
30
0
11
483.0
21
263.0
31
0
0
LINE
8
ARCH-DOORS
10
463.4
20
263.0
30
0
11
463.4
21
270.2
31
0
0
LINE
8
ARCH-DOORS
10
470.6
20
263.0
30
0
11
470.511356052285
21
264.12632814828964
31
0
0
LINE
8
ARCH-DOORS
10
470.511356052285
20
264.12632814828964
30
0
11
470.24760691732513
21
265.2249223594996
31
0
0
LINE
8
ARCH-DOORS
10
470.24760691732513
20
265.2249223594996
30
0
11
469.81524697415625
21
266.26873159812476
31
0
0
LINE
8
ARCH-DOORS
10
469.81524697415625
20
266.26873159812476
30
0
11
469.2249223594996
21
267.2320538165058
31
0
0
LINE
8
ARCH-DOORS
10
469.2249223594996
20
267.2320538165058
30
0
11
468.49116882454314
21
268.09116882454316
31
0
0
LINE
8
ARCH-DOORS
10
468.49116882454314
20
268.09116882454316
30
0
11
467.63205381650585
21
268.8249223594996
31
0
0
LINE
8
ARCH-DOORS
10
467.63205381650585
20
268.8249223594996
30
0
11
466.66873159812474
21
269.4152469741563
31
0
0
LINE
8
ARCH-DOORS
10
466.66873159812474
20
269.4152469741563
30
0
11
465.62492235949964
21
269.8476069173251
31
0
0
LINE
8
ARCH-DOORS
10
465.62492235949964
20
269.8476069173251
30
0
11
464.5263281482897
21
270.111356052285
31
0
0
LINE
8
ARCH-DOORS
10
464.5263281482897
20
270.111356052285
30
0
11
463.4
21
270.2
31
0
0
LINE
8
ARCH-WALLS
10
451.0
20
263.0
30
0
11
451.0
21
311.0
31
0
0
LINE
8
ARCH-WALLS
10
483.0
20
263.0
30
0
11
491.4
21
263.0
31
0
0
LINE
8
ARCH-WALLS
10
498.6
20
263.0
30
0
11
507.0
21
263.0
31
0
0
LINE
8
ARCH-DOORS
10
491.4
20
263.0
30
0
11
491.4
21
270.2
31
0
0
LINE
8
ARCH-DOORS
10
498.6
20
263.0
30
0
11
498.511356052285
21
264.12632814828964
31
0
0
LINE
8
ARCH-DOORS
10
498.511356052285
20
264.12632814828964
30
0
11
498.24760691732513
21
265.2249223594996
31
0
0
LINE
8
ARCH-DOORS
10
498.24760691732513
20
265.2249223594996
30
0
11
497.81524697415625
21
266.26873159812476
31
0
0
LINE
8
ARCH-DOORS
10
497.81524697415625
20
266.26873159812476
30
0
11
497.2249223594996
21
267.2320538165058
31
0
0
LINE
8
ARCH-DOORS
10
497.2249223594996
20
267.2320538165058
30
0
11
496.49116882454314
21
268.09116882454316
31
0
0
LINE
8
ARCH-DOORS
10
496.49116882454314
20
268.09116882454316
30
0
11
495.63205381650585
21
268.8249223594996
31
0
0
LINE
8
ARCH-DOORS
10
495.63205381650585
20
268.8249223594996
30
0
11
494.66873159812474
21
269.4152469741563
31
0
0
LINE
8
ARCH-DOORS
10
494.66873159812474
20
269.4152469741563
30
0
11
493.62492235949964
21
269.8476069173251
31
0
0
LINE
8
ARCH-DOORS
10
493.62492235949964
20
269.8476069173251
30
0
11
492.5263281482897
21
270.111356052285
31
0
0
LINE
8
ARCH-DOORS
10
492.5263281482897
20
270.111356052285
30
0
11
491.4
21
270.2
31
0
0
LINE
8
ARCH-WALLS
10
483.0
20
263.0
30
0
11
483.0
21
311.0
31
0
0
LINE
8
ARCH-WALLS
10
507.0
20
263.0
30
0
11
515.4
21
263.0
31
0
0
LINE
8
ARCH-WALLS
10
522.6
20
263.0
30
0
11
531.0
21
263.0
31
0
0
LINE
8
ARCH-DOORS
10
515.4
20
263.0
30
0
11
515.4
21
270.2
31
0
0
LINE
8
ARCH-DOORS
10
522.6
20
263.0
30
0
11
522.511356052285
21
264.12632814828964
31
0
0
LINE
8
ARCH-DOORS
10
522.511356052285
20
264.12632814828964
30
0
11
522.2476069173251
21
265.2249223594996
31
0
0
LINE
8
ARCH-DOORS
10
522.2476069173251
20
265.2249223594996
30
0
11
521.8152469741563
21
266.26873159812476
31
0
0
LINE
8
ARCH-DOORS
10
521.8152469741563
20
266.26873159812476
30
0
11
521.2249223594996
21
267.2320538165058
31
0
0
LINE
8
ARCH-DOORS
10
521.2249223594996
20
267.2320538165058
30
0
11
520.4911688245431
21
268.09116882454316
31
0
0
LINE
8
ARCH-DOORS
10
520.4911688245431
20
268.09116882454316
30
0
11
519.6320538165058
21
268.8249223594996
31
0
0
LINE
8
ARCH-DOORS
10
519.6320538165058
20
268.8249223594996
30
0
11
518.6687315981247
21
269.4152469741563
31
0
0
LINE
8
ARCH-DOORS
10
518.6687315981247
20
269.4152469741563
30
0
11
517.6249223594996
21
269.8476069173251
31
0
0
LINE
8
ARCH-DOORS
10
517.6249223594996
20
269.8476069173251
30
0
11
516.5263281482896
21
270.111356052285
31
0
0
LINE
8
ARCH-DOORS
10
516.5263281482896
20
270.111356052285
30
0
11
515.4
21
270.2
31
0
0
LINE
8
ARCH-WALLS
10
507.0
20
263.0
30
0
11
507.0
21
311.0
31
0
0
LINE
8
ARCH-WALLS
10
531.0
20
263.0
30
0
11
539.4
21
263.0
31
0
0
LINE
8
ARCH-WALLS
10
546.6
20
263.0
30
0
11
555.0
21
263.0
31
0
0
LINE
8
ARCH-DOORS
10
539.4
20
263.0
30
0
11
539.4
21
270.2
31
0
0
LINE
8
ARCH-DOORS
10
546.6
20
263.0
30
0
11
546.511356052285
21
264.12632814828964
31
0
0
LINE
8
ARCH-DOORS
10
546.511356052285
20
264.12632814828964
30
0
11
546.2476069173251
21
265.2249223594996
31
0
0
LINE
8
ARCH-DOORS
10
546.2476069173251
20
265.2249223594996
30
0
11
545.8152469741563
21
266.26873159812476
31
0
0
LINE
8
ARCH-DOORS
10
545.8152469741563
20
266.26873159812476
30
0
11
545.2249223594996
21
267.2320538165058
31
0
0
LINE
8
ARCH-DOORS
10
545.2249223594996
20
267.2320538165058
30
0
11
544.4911688245431
21
268.09116882454316
31
0
0
LINE
8
ARCH-DOORS
10
544.4911688245431
20
268.09116882454316
30
0
11
543.6320538165058
21
268.8249223594996
31
0
0
LINE
8
ARCH-DOORS
10
543.6320538165058
20
268.8249223594996
30
0
11
542.6687315981247
21
269.4152469741563
31
0
0
LINE
8
ARCH-DOORS
10
542.6687315981247
20
269.4152469741563
30
0
11
541.6249223594996
21
269.8476069173251
31
0
0
LINE
8
ARCH-DOORS
10
541.6249223594996
20
269.8476069173251
30
0
11
540.5263281482896
21
270.111356052285
31
0
0
LINE
8
ARCH-DOORS
10
540.5263281482896
20
270.111356052285
30
0
11
539.4
21
270.2
31
0
0
LINE
8
ARCH-WALLS
10
531.0
20
263.0
30
0
11
531.0
21
311.0
31
0
0
LINE
8
ARCH-WALLS
10
315.0
20
247.0
30
0
11
327.4
21
247.0
31
0
0
LINE
8
ARCH-DOORS
10
327.4
20
247.0
30
0
11
327.4
21
239.8
31
0
0
LINE
8
ARCH-DOORS
10
334.6
20
247.0
30
0
11
334.511356052285
21
245.87367185171036
31
0
0
LINE
8
ARCH-DOORS
10
334.511356052285
20
245.87367185171036
30
0
11
334.24760691732513
21
244.77507764050037
31
0
0
LINE
8
ARCH-DOORS
10
334.24760691732513
20
244.77507764050037
30
0
11
333.81524697415625
21
243.73126840187527
31
0
0
LINE
8
ARCH-DOORS
10
333.81524697415625
20
243.73126840187527
30
0
11
333.2249223594996
21
242.7679461834942
31
0
0
LINE
8
ARCH-DOORS
10
333.2249223594996
20
242.7679461834942
30
0
11
332.49116882454314
21
241.90883117545684
31
0
0
LINE
8
ARCH-DOORS
10
332.49116882454314
20
241.90883117545684
30
0
11
331.6320538165058
21
241.17507764050038
31
0
0
LINE
8
ARCH-DOORS
10
331.6320538165058
20
241.17507764050038
30
0
11
330.66873159812474
21
240.58475302584375
31
0
0
LINE
8
ARCH-DOORS
10
330.66873159812474
20
240.58475302584375
30
0
11
329.62492235949964
21
240.1523930826749
31
0
0
LINE
8
ARCH-DOORS
10
329.62492235949964
20
240.1523930826749
30
0
11
328.5263281482897
21
239.88864394771502
31
0
0
LINE
8
ARCH-DOORS
10
328.5263281482897
20
239.88864394771502
30
0
11
327.4
21
239.8
31
0
0
LINE
8
ARCH-WALLS
10
334.6
20
247.0
30
0
11
371.8
21
247.0
31
0
0
LINE
8
ARCH-DOORS
10
371.8
20
247.0
30
0
11
371.8
21
232.6
31
0
0
LINE
8
ARCH-DOORS
10
386.2
20
247.0
30
0
11
386.02271210457
21
244.74734370342068
31
0
0
LINE
8
ARCH-DOORS
10
386.02271210457
20
244.74734370342068
30
0
11
385.4952138346502
21
242.55015528100074
31
0
0
LINE
8
ARCH-DOORS
10
385.4952138346502
20
242.55015528100074
30
0
11
384.6304939483125
21
240.46253680375054
31
0
0
LINE
8
ARCH-DOORS
10
384.6304939483125
20
240.46253680375054
30
0
11
383.44984471899926
21
238.53589236698838
31
0
0
LINE
8
ARCH-DOORS
10
383.44984471899926
20
238.53589236698838
30
0
11
381.9823376490863
21
236.8176623509137
31
0
0
LINE
8
ARCH-DOORS
10
381.9823376490863
20
236.8176623509137
30
0
11
380.26410763301163
21
235.35015528100075
31
0
0
LINE
8
ARCH-DOORS
10
380.26410763301163
20
235.35015528100075
30
0
11
378.3374631962495
21
234.1695060516875
31
0
0
LINE
8
ARCH-DOORS
10
378.3374631962495
20
234.1695060516875
30
0
11
376.24984471899927
21
233.30478616534978
31
0
0
LINE
8
ARCH-DOORS
10
376.24984471899927
20
233.30478616534978
30
0
11
374.0526562965793
21
232.77728789543
31
0
0
LINE
8
ARCH-DOORS
10
374.0526562965793
20
232.77728789543
30
0
11
371.8
21
232.6
31
0
0
LINE
8
ARCH-WALLS
10
386.2
20
247.0
30
0
11
491.8
21
247.0
31
0
0
LINE
8
ARCH-DOORS
10
491.8
20
247.0
30
0
11
491.8
21
232.60000000000002
31
0
0
LINE
8
ARCH-DOORS
10
506.2
20
247.0
30
0
11
506.02271210456996
21
244.74734370342068
31
0
0
LINE
8
ARCH-DOORS
10
506.02271210456996
20
244.74734370342068
30
0
11
505.4952138346502
21
242.55015528100077
31
0
0
LINE
8
ARCH-DOORS
10
505.4952138346502
20
242.55015528100077
30
0
11
504.6304939483125
21
240.46253680375054
31
0
0
LINE
8
ARCH-DOORS
10
504.6304939483125
20
240.46253680375054
30
0
11
503.4498447189992
21
238.5358923669884
31
0
0
LINE
8
ARCH-DOORS
10
503.4498447189992
20
238.5358923669884
30
0
11
501.9823376490863
21
236.81766235091374
31
0
0
LINE
8
ARCH-DOORS
10
501.9823376490863
20
236.81766235091374
30
0
11
500.2641076330116
21
235.35015528100078
31
0
0
LINE
8
ARCH-DOORS
10
500.2641076330116
20
235.35015528100078
30
0
11
498.3374631962495
21
234.1695060516875
31
0
0
LINE
8
ARCH-DOORS
10
498.3374631962495
20
234.1695060516875
30
0
11
496.24984471899927
21
233.3047861653498
31
0
0
LINE
8
ARCH-DOORS
10
496.24984471899927
20
233.3047861653498
30
0
11
494.05265629657936
21
232.77728789543005
31
0
0
LINE
8
ARCH-DOORS
10
494.05265629657936
20
232.77728789543005
30
0
11
491.8
21
232.60000000000002
31
0
0
LINE
8
ARCH-WALLS
10
506.2
20
247.0
30
0
11
535.4
21
247.0
31
0
0
LINE
8
ARCH-DOORS
10
535.4
20
247.0
30
0
11
535.4
21
239.8
31
0
0
LINE
8
ARCH-DOORS
10
542.6
20
247.0
30
0
11
542.511356052285
21
245.87367185171036
31
0
0
LINE
8
ARCH-DOORS
10
542.511356052285
20
245.87367185171036
30
0
11
542.2476069173251
21
244.7750776405004
31
0
0
LINE
8
ARCH-DOORS
10
542.2476069173251
20
244.7750776405004
30
0
11
541.8152469741563
21
243.73126840187527
31
0
0
LINE
8
ARCH-DOORS
10
541.8152469741563
20
243.73126840187527
30
0
11
541.2249223594996
21
242.7679461834942
31
0
0
LINE
8
ARCH-DOORS
10
541.2249223594996
20
242.7679461834942
30
0
11
540.4911688245431
21
241.90883117545687
31
0
0
LINE
8
ARCH-DOORS
10
540.4911688245431
20
241.90883117545687
30
0
11
539.6320538165058
21
241.17507764050038
31
0
0
LINE
8
ARCH-DOORS
10
539.6320538165058
20
241.17507764050038
30
0
11
538.6687315981247
21
240.58475302584375
31
0
0
LINE
8
ARCH-DOORS
10
538.6687315981247
20
240.58475302584375
30
0
11
537.6249223594996
21
240.1523930826749
31
0
0
LINE
8
ARCH-DOORS
10
537.6249223594996
20
240.1523930826749
30
0
11
536.5263281482896
21
239.88864394771502
31
0
0
LINE
8
ARCH-DOORS
10
536.5263281482896
20
239.88864394771502
30
0
11
535.4
21
239.8
31
0
0
LINE
8
ARCH-WALLS
10
542.6
20
247.0
30
0
11
555.0
21
247.0
31
0
0
LINE
8
ARCH-WALLS
10
347.0
20
199.0
30
0
11
347.0
21
247.0
31
0
0
LINE
8
ARCH-WALLS
10
523.0
20
199.0
30
0
11
523.0
21
247.0
31
0
0
LINE
8
ARCH-FURNITURE
10
319.0
20
207.0
30
0
11
343.0
21
207.0
31
0
0
LINE
8
ARCH-FURNITURE
10
319.0
20
209.56
30
0
11
343.0
21
209.56
31
0
0
LINE
8
ARCH-FURNITURE
10
319.0
20
212.12
30
0
11
343.0
21
212.12
31
0
0
LINE
8
ARCH-FURNITURE
10
319.0
20
214.68
30
0
11
343.0
21
214.68
31
0
0
LINE
8
ARCH-FURNITURE
10
319.0
20
217.24
30
0
11
343.0
21
217.24
31
0
0
LINE
8
ARCH-FURNITURE
10
319.0
20
219.8
30
0
11
343.0
21
219.8
31
0
0
LINE
8
ARCH-FURNITURE
10
319.0
20
222.36
30
0
11
343.0
21
222.36
31
0
0
LINE
8
ARCH-FURNITURE
10
319.0
20
224.92000000000002
30
0
11
343.0
21
224.92000000000002
31
0
0
LINE
8
ARCH-FURNITURE
10
319.0
20
227.48
30
0
11
343.0
21
227.48
31
0
0
LINE
8
ARCH-FURNITURE
10
319.0
20
230.04
30
0
11
343.0
21
230.04
31
0
0
LINE
8
ARCH-FURNITURE
10
319.0
20
232.6
30
0
11
343.0
21
232.6
31
0
0
LINE
8
ARCH-FURNITURE
10
319.0
20
235.16
30
0
11
343.0
21
235.16
31
0
0
LINE
8
ARCH-DOORS
10
331.0
20
207.0
30
0
11
331.0
21
237.4
31
0
0
LINE
8
ARCH-DOORS
10
331.0
20
237.4
30
0
11
331.9588510772084
21
235.64483487621925
31
0
0
LINE
8
ARCH-DOORS
10
331.0
20
237.4
30
0
11
330.0411489227916
21
235.64483487621925
31
0
0
TEXT
8
ARCH-TEXT
10
319.0
20
203.0
30
0
40
2
1
DOWN
7
STANDARD
41
0.85
0
LINE
8
ARCH-FURNITURE
10
527.0
20
207.0
30
0
11
551.0
21
207.0
31
0
0
LINE
8
ARCH-FURNITURE
10
527.0
20
209.56
30
0
11
551.0
21
209.56
31
0
0
LINE
8
ARCH-FURNITURE
10
527.0
20
212.12
30
0
11
551.0
21
212.12
31
0
0
LINE
8
ARCH-FURNITURE
10
527.0
20
214.68
30
0
11
551.0
21
214.68
31
0
0
LINE
8
ARCH-FURNITURE
10
527.0
20
217.24
30
0
11
551.0
21
217.24
31
0
0
LINE
8
ARCH-FURNITURE
10
527.0
20
219.8
30
0
11
551.0
21
219.8
31
0
0
LINE
8
ARCH-FURNITURE
10
527.0
20
222.36
30
0
11
551.0
21
222.36
31
0
0
LINE
8
ARCH-FURNITURE
10
527.0
20
224.92000000000002
30
0
11
551.0
21
224.92000000000002
31
0
0
LINE
8
ARCH-FURNITURE
10
527.0
20
227.48
30
0
11
551.0
21
227.48
31
0
0
LINE
8
ARCH-FURNITURE
10
527.0
20
230.04
30
0
11
551.0
21
230.04
31
0
0
LINE
8
ARCH-FURNITURE
10
527.0
20
232.6
30
0
11
551.0
21
232.6
31
0
0
LINE
8
ARCH-FURNITURE
10
527.0
20
235.16
30
0
11
551.0
21
235.16
31
0
0
LINE
8
ARCH-DOORS
10
539.0
20
207.0
30
0
11
539.0
21
237.4
31
0
0
LINE
8
ARCH-DOORS
10
539.0
20
237.4
30
0
11
539.9588510772084
21
235.64483487621925
31
0
0
LINE
8
ARCH-DOORS
10
539.0
20
237.4
30
0
11
538.0411489227916
21
235.64483487621925
31
0
0
TEXT
8
ARCH-TEXT
10
527.0
20
203.0
30
0
40
2
1
DOWN
7
STANDARD
41
0.85
0
TEXT
8
ARCH-TEXT
10
316.44
20
308.6
30
0
40
2.1
1
PRT
7
STANDARD
41
0.85
0
TEXT
8
ARCH-TEXT
10
340.44
20
308.6
30
0
40
2.1
1
STO
7
STANDARD
41
0.85
0
TEXT
8
ARCH-TEXT
10
356.44
20
308.6
30
0
40
2.1
1
ACC
7
STANDARD
41
0.85
0
TEXT
8
ARCH-TEXT
10
380.44
20
308.6
30
0
40
2.1
1
WC
7
STANDARD
41
0.85
0
TEXT
8
ARCH-TEXT
10
404.44
20
308.6
30
0
40
2.1
1
CONF
7
STANDARD
41
0.85
0
TEXT
8
ARCH-TEXT
10
452.44
20
308.6
30
0
40
2.1
1
MT1
7
STANDARD
41
0.85
0
TEXT
8
ARCH-TEXT
10
484.44
20
308.6
30
0
40
2.1
1
MGR1
7
STANDARD
41
0.85
0
TEXT
8
ARCH-TEXT
10
508.44
20
308.6
30
0
40
2.1
1
MGR2
7
STANDARD
41
0.85
0
TEXT
8
ARCH-TEXT
10
532.44
20
308.6
30
0
40
2.1
1
KIT
7
STANDARD
41
0.85
0
TEXT
8
ARCH-TEXT
10
316.44
20
244.6
30
0
40
2.1
1
ST1
7
STANDARD
41
0.85
0
TEXT
8
ARCH-TEXT
10
348.44
20
244.6
30
0
40
2.1
1
OPEN
7
STANDARD
41
0.85
0
TEXT
8
ARCH-TEXT
10
524.44
20
244.6
30
0
40
2.1
1
ST2
7
STANDARD
41
0.85
0
TEXT
8
ARCH-TEXT
10
317.4
20
261.4
30
0
40
2.1
1
CORRIDOR - 2.0 m wide
7
STANDARD
41
0.85
0
LINE
8
ELEC-DIMENSIONS
10
315.0
20
325.4
30
0
11
555.0
21
325.4
31
0
0
TEXT
8
ELEC-DIMENSIONS
10
427.0
20
327.4
30
0
40
2.6
1
30 000
7
STANDARD
41
0.85
0
LINE
8
ELEC-DIMENSIONS
10
315.0
20
312.6
30
0
11
315.0
21
327.8
31
0
0
LINE
8
ELEC-DIMENSIONS
10
555.0
20
312.6
30
0
11
555.0
21
327.8
31
0
0
TEXT
8
ELEC-TEXT
10
313
20
190
30
0
40
3
1
FF  /  420 m2  /  1:125 at A2
7
STANDARD
41
0.85
0
INSERT
8
ELEC-DB
2
DB
10
318.2
20
256.2
30
0
41
1
42
1
43
1
0
TEXT
8
ELEC-DB
10
321.4
20
253.0
30
0
40
2.4
1
DB-FF
7
STANDARD
41
0.85
0
LINE
8
ELEC-CABLE
10
323.0
20
255.0
30
0
11
325.0
21
255.0
31
0
0
LINE
8
ELEC-CABLE
10
327.0
20
255.0
30
0
11
329.0
21
255.0
31
0
0
LINE
8
ELEC-CABLE
10
331.0
20
255.0
30
0
11
333.0
21
255.0
31
0
0
LINE
8
ELEC-CABLE
10
335.0
20
255.0
30
0
11
337.0
21
255.0
31
0
0
LINE
8
ELEC-CABLE
10
339.0
20
255.0
30
0
11
341.0
21
255.0
31
0
0
LINE
8
ELEC-CABLE
10
343.0
20
255.0
30
0
11
345.0
21
255.0
31
0
0
LINE
8
ELEC-CABLE
10
347.0
20
255.0
30
0
11
349.0
21
255.0
31
0
0
LINE
8
ELEC-CABLE
10
351.0
20
255.0
30
0
11
353.0
21
255.0
31
0
0
LINE
8
ELEC-CABLE
10
355.0
20
255.0
30
0
11
357.0
21
255.0
31
0
0
LINE
8
ELEC-CABLE
10
359.0
20
255.0
30
0
11
361.0
21
255.0
31
0
0
LINE
8
ELEC-CABLE
10
363.0
20
255.0
30
0
11
365.0
21
255.0
31
0
0
LINE
8
ELEC-CABLE
10
367.0
20
255.0
30
0
11
369.0
21
255.0
31
0
0
LINE
8
ELEC-CABLE
10
371.0
20
255.0
30
0
11
373.0
21
255.0
31
0
0
LINE
8
ELEC-CABLE
10
375.0
20
255.0
30
0
11
377.0
21
255.0
31
0
0
LINE
8
ELEC-CABLE
10
379.0
20
255.0
30
0
11
381.0
21
255.0
31
0
0
LINE
8
ELEC-CABLE
10
383.0
20
255.0
30
0
11
385.0
21
255.0
31
0
0
LINE
8
ELEC-CABLE
10
387.0
20
255.0
30
0
11
389.0
21
255.0
31
0
0
LINE
8
ELEC-CABLE
10
391.0
20
255.0
30
0
11
393.0
21
255.0
31
0
0
LINE
8
ELEC-CABLE
10
395.0
20
255.0
30
0
11
397.0
21
255.0
31
0
0
LINE
8
ELEC-CABLE
10
399.0
20
255.0
30
0
11
401.0
21
255.0
31
0
0
LINE
8
ELEC-CABLE
10
403.0
20
255.0
30
0
11
405.0
21
255.0
31
0
0
LINE
8
ELEC-CABLE
10
407.0
20
255.0
30
0
11
409.0
21
255.0
31
0
0
LINE
8
ELEC-CABLE
10
411.0
20
255.0
30
0
11
413.0
21
255.0
31
0
0
LINE
8
ELEC-CABLE
10
415.0
20
255.0
30
0
11
417.0
21
255.0
31
0
0
LINE
8
ELEC-CABLE
10
419.0
20
255.0
30
0
11
421.0
21
255.0
31
0
0
LINE
8
ELEC-CABLE
10
423.0
20
255.0
30
0
11
425.0
21
255.0
31
0
0
LINE
8
ELEC-CABLE
10
427.0
20
255.0
30
0
11
429.0
21
255.0
31
0
0
LINE
8
ELEC-CABLE
10
431.0
20
255.0
30
0
11
433.0
21
255.0
31
0
0
LINE
8
ELEC-CABLE
10
435.0
20
255.0
30
0
11
437.0
21
255.0
31
0
0
LINE
8
ELEC-CABLE
10
439.0
20
255.0
30
0
11
441.0
21
255.0
31
0
0
LINE
8
ELEC-CABLE
10
443.0
20
255.0
30
0
11
445.0
21
255.0
31
0
0
LINE
8
ELEC-CABLE
10
447.0
20
255.0
30
0
11
449.0
21
255.0
31
0
0
LINE
8
ELEC-CABLE
10
451.0
20
255.0
30
0
11
453.0
21
255.0
31
0
0
LINE
8
ELEC-CABLE
10
455.0
20
255.0
30
0
11
457.0
21
255.0
31
0
0
LINE
8
ELEC-CABLE
10
459.0
20
255.0
30
0
11
461.0
21
255.0
31
0
0
LINE
8
ELEC-CABLE
10
463.0
20
255.0
30
0
11
465.0
21
255.0
31
0
0
LINE
8
ELEC-CABLE
10
467.0
20
255.0
30
0
11
469.0
21
255.0
31
0
0
LINE
8
ELEC-CABLE
10
471.0
20
255.0
30
0
11
473.0
21
255.0
31
0
0
LINE
8
ELEC-CABLE
10
475.0
20
255.0
30
0
11
477.0
21
255.0
31
0
0
LINE
8
ELEC-CABLE
10
479.0
20
255.0
30
0
11
481.0
21
255.0
31
0
0
LINE
8
ELEC-CABLE
10
483.0
20
255.0
30
0
11
485.0
21
255.0
31
0
0
LINE
8
ELEC-CABLE
10
487.0
20
255.0
30
0
11
489.0
21
255.0
31
0
0
LINE
8
ELEC-CABLE
10
491.0
20
255.0
30
0
11
493.0
21
255.0
31
0
0
LINE
8
ELEC-CABLE
10
495.0
20
255.0
30
0
11
497.0
21
255.0
31
0
0
LINE
8
ELEC-CABLE
10
499.0
20
255.0
30
0
11
501.0
21
255.0
31
0
0
LINE
8
ELEC-CABLE
10
503.0
20
255.0
30
0
11
505.0
21
255.0
31
0
0
LINE
8
ELEC-CABLE
10
507.0
20
255.0
30
0
11
509.0
21
255.0
31
0
0
LINE
8
ELEC-CABLE
10
511.0
20
255.0
30
0
11
513.0
21
255.0
31
0
0
LINE
8
ELEC-CABLE
10
515.0
20
255.0
30
0
11
517.0
21
255.0
31
0
0
LINE
8
ELEC-CABLE
10
519.0
20
255.0
30
0
11
521.0
21
255.0
31
0
0
LINE
8
ELEC-CABLE
10
523.0
20
255.0
30
0
11
525.0
21
255.0
31
0
0
LINE
8
ELEC-CABLE
10
527.0
20
255.0
30
0
11
529.0
21
255.0
31
0
0
LINE
8
ELEC-CABLE
10
531.0
20
255.0
30
0
11
533.0
21
255.0
31
0
0
LINE
8
ELEC-CABLE
10
535.0
20
255.0
30
0
11
537.0
21
255.0
31
0
0
LINE
8
ELEC-CABLE
10
539.0
20
255.0
30
0
11
541.0
21
255.0
31
0
0
LINE
8
ELEC-CABLE
10
543.0
20
255.0
30
0
11
545.0
21
255.0
31
0
0
TEXT
8
ELEC-CABLE
10
395.0
20
259.0
30
0
40
2.4
1
TR-FF 150 x 50 tray (concept)
7
STANDARD
41
0.85
0
LINE
8
ELEC-CABLE
10
331.0
20
255.0
30
0
11
331.0
21
257.0
31
0
0
LINE
8
ELEC-CABLE
10
331.0
20
259.0
30
0
11
331.0
21
261.0
31
0
0
LINE
8
ELEC-CABLE
10
331.0
20
263.0
30
0
11
331.0
21
265.0
31
0
0
LINE
8
ELEC-CABLE
10
331.0
20
267.0
30
0
11
331.0
21
269.0
31
0
0
LINE
8
ELEC-CABLE
10
331.0
20
271.0
30
0
11
331.0
21
273.0
31
0
0
LINE
8
ELEC-CABLE
10
331.0
20
275.0
30
0
11
331.0
21
277.0
31
0
0
LINE
8
ELEC-CABLE
10
331.0
20
279.0
30
0
11
331.0
21
281.0
31
0
0
LINE
8
ELEC-CABLE
10
331.0
20
283.0
30
0
11
331.0
21
285.0
31
0
0
LINE
8
ELEC-CABLE
10
331.0
20
287.0
30
0
11
331.0
21
289.0
31
0
0
LINE
8
ELEC-CABLE
10
331.0
20
291.0
30
0
11
331.0
21
293.0
31
0
0
LINE
8
ELEC-CABLE
10
355.0
20
255.0
30
0
11
355.0
21
257.0
31
0
0
LINE
8
ELEC-CABLE
10
355.0
20
259.0
30
0
11
355.0
21
261.0
31
0
0
LINE
8
ELEC-CABLE
10
355.0
20
263.0
30
0
11
355.0
21
265.0
31
0
0
LINE
8
ELEC-CABLE
10
355.0
20
267.0
30
0
11
355.0
21
269.0
31
0
0
LINE
8
ELEC-CABLE
10
355.0
20
271.0
30
0
11
355.0
21
273.0
31
0
0
LINE
8
ELEC-CABLE
10
355.0
20
275.0
30
0
11
355.0
21
277.0
31
0
0
LINE
8
ELEC-CABLE
10
355.0
20
279.0
30
0
11
355.0
21
281.0
31
0
0
LINE
8
ELEC-CABLE
10
355.0
20
283.0
30
0
11
355.0
21
285.0
31
0
0
LINE
8
ELEC-CABLE
10
411.0
20
255.0
30
0
11
411.0
21
257.0
31
0
0
LINE
8
ELEC-CABLE
10
411.0
20
259.0
30
0
11
411.0
21
261.0
31
0
0
LINE
8
ELEC-CABLE
10
411.0
20
263.0
30
0
11
411.0
21
265.0
31
0
0
LINE
8
ELEC-CABLE
10
411.0
20
267.0
30
0
11
411.0
21
269.0
31
0
0
LINE
8
ELEC-CABLE
10
411.0
20
271.0
30
0
11
411.0
21
273.0
31
0
0
LINE
8
ELEC-CABLE
10
411.0
20
275.0
30
0
11
411.0
21
277.0
31
0
0
LINE
8
ELEC-CABLE
10
411.0
20
279.0
30
0
11
411.0
21
281.0
31
0
0
LINE
8
ELEC-CABLE
10
411.0
20
283.0
30
0
11
411.0
21
285.0
31
0
0
LINE
8
ELEC-CABLE
10
443.0
20
255.0
30
0
11
443.0
21
257.0
31
0
0
LINE
8
ELEC-CABLE
10
443.0
20
259.0
30
0
11
443.0
21
261.0
31
0
0
LINE
8
ELEC-CABLE
10
443.0
20
263.0
30
0
11
443.0
21
265.0
31
0
0
LINE
8
ELEC-CABLE
10
443.0
20
267.0
30
0
11
443.0
21
269.0
31
0
0
LINE
8
ELEC-CABLE
10
443.0
20
271.0
30
0
11
443.0
21
273.0
31
0
0
LINE
8
ELEC-CABLE
10
443.0
20
275.0
30
0
11
443.0
21
277.0
31
0
0
LINE
8
ELEC-CABLE
10
443.0
20
279.0
30
0
11
443.0
21
281.0
31
0
0
LINE
8
ELEC-CABLE
10
443.0
20
283.0
30
0
11
443.0
21
285.0
31
0
0
LINE
8
ELEC-CABLE
10
491.0
20
255.0
30
0
11
491.0
21
257.0
31
0
0
LINE
8
ELEC-CABLE
10
491.0
20
259.0
30
0
11
491.0
21
261.0
31
0
0
LINE
8
ELEC-CABLE
10
491.0
20
263.0
30
0
11
491.0
21
265.0
31
0
0
LINE
8
ELEC-CABLE
10
491.0
20
267.0
30
0
11
491.0
21
269.0
31
0
0
LINE
8
ELEC-CABLE
10
491.0
20
271.0
30
0
11
491.0
21
273.0
31
0
0
LINE
8
ELEC-CABLE
10
491.0
20
275.0
30
0
11
491.0
21
277.0
31
0
0
LINE
8
ELEC-CABLE
10
491.0
20
279.0
30
0
11
491.0
21
281.0
31
0
0
LINE
8
ELEC-CABLE
10
491.0
20
283.0
30
0
11
491.0
21
285.0
31
0
0
LINE
8
ELEC-CABLE
10
539.0
20
255.0
30
0
11
539.0
21
257.0
31
0
0
LINE
8
ELEC-CABLE
10
539.0
20
259.0
30
0
11
539.0
21
261.0
31
0
0
LINE
8
ELEC-CABLE
10
539.0
20
263.0
30
0
11
539.0
21
265.0
31
0
0
LINE
8
ELEC-CABLE
10
539.0
20
267.0
30
0
11
539.0
21
269.0
31
0
0
LINE
8
ELEC-CABLE
10
539.0
20
271.0
30
0
11
539.0
21
273.0
31
0
0
LINE
8
ELEC-CABLE
10
539.0
20
275.0
30
0
11
539.0
21
277.0
31
0
0
LINE
8
ELEC-CABLE
10
539.0
20
279.0
30
0
11
539.0
21
281.0
31
0
0
LINE
8
ELEC-CABLE
10
539.0
20
283.0
30
0
11
539.0
21
285.0
31
0
0
LINE
8
ELEC-CABLE
10
411.0
20
255.0
30
0
11
411.0
21
253.0
31
0
0
LINE
8
ELEC-CABLE
10
411.0
20
251.0
30
0
11
411.0
21
249.0
31
0
0
LINE
8
ELEC-CABLE
10
411.0
20
247.0
30
0
11
411.0
21
245.0
31
0
0
LINE
8
ELEC-CABLE
10
411.0
20
243.0
30
0
11
411.0
21
241.0
31
0
0
LINE
8
ELEC-CABLE
10
411.0
20
239.0
30
0
11
411.0
21
237.0
31
0
0
LINE
8
ELEC-CABLE
10
411.0
20
235.0
30
0
11
411.0
21
233.0
31
0
0
LINE
8
ELEC-CABLE
10
411.0
20
231.0
30
0
11
411.0
21
229.0
31
0
0
LINE
8
ELEC-CABLE
10
411.0
20
227.0
30
0
11
411.0
21
225.0
31
0
0
LINE
8
ELEC-CABLE
10
475.0
20
255.0
30
0
11
475.0
21
253.0
31
0
0
LINE
8
ELEC-CABLE
10
475.0
20
251.0
30
0
11
475.0
21
249.0
31
0
0
LINE
8
ELEC-CABLE
10
475.0
20
247.0
30
0
11
475.0
21
245.0
31
0
0
LINE
8
ELEC-CABLE
10
475.0
20
243.0
30
0
11
475.0
21
241.0
31
0
0
LINE
8
ELEC-CABLE
10
475.0
20
239.0
30
0
11
475.0
21
237.0
31
0
0
LINE
8
ELEC-CABLE
10
475.0
20
235.0
30
0
11
475.0
21
233.0
31
0
0
LINE
8
ELEC-CABLE
10
475.0
20
231.0
30
0
11
475.0
21
229.0
31
0
0
LINE
8
ELEC-CABLE
10
475.0
20
227.0
30
0
11
475.0
21
225.0
31
0
0
INSERT
8
ELEC-DEDICATED
2
DED
10
535.0
20
299.0
30
0
41
0.7
42
0.7
43
0.7
0
LINE
8
ELEC-CABLE
10
535.0
20
255.0
30
0
11
535.0
21
257.0
31
0
0
LINE
8
ELEC-CABLE
10
535.0
20
259.0
30
0
11
535.0
21
261.0
31
0
0
LINE
8
ELEC-CABLE
10
535.0
20
263.0
30
0
11
535.0
21
265.0
31
0
0
LINE
8
ELEC-CABLE
10
535.0
20
267.0
30
0
11
535.0
21
269.0
31
0
0
LINE
8
ELEC-CABLE
10
535.0
20
271.0
30
0
11
535.0
21
273.0
31
0
0
LINE
8
ELEC-CABLE
10
535.0
20
275.0
30
0
11
535.0
21
277.0
31
0
0
LINE
8
ELEC-CABLE
10
535.0
20
279.0
30
0
11
535.0
21
281.0
31
0
0
LINE
8
ELEC-CABLE
10
535.0
20
283.0
30
0
11
535.0
21
285.0
31
0
0
LINE
8
ELEC-CABLE
10
535.0
20
287.0
30
0
11
535.0
21
289.0
31
0
0
LINE
8
ELEC-CABLE
10
535.0
20
291.0
30
0
11
535.0
21
293.0
31
0
0
LINE
8
ELEC-CABLE
10
535.0
20
295.0
30
0
11
535.0
21
297.0
31
0
0
INSERT
8
ELEC-DEDICATED
2
DED
10
543.0
20
295.0
30
0
41
0.7
42
0.7
43
0.7
0
LINE
8
ELEC-CABLE
10
543.0
20
255.0
30
0
11
543.0
21
257.0
31
0
0
LINE
8
ELEC-CABLE
10
543.0
20
259.0
30
0
11
543.0
21
261.0
31
0
0
LINE
8
ELEC-CABLE
10
543.0
20
263.0
30
0
11
543.0
21
265.0
31
0
0
LINE
8
ELEC-CABLE
10
543.0
20
267.0
30
0
11
543.0
21
269.0
31
0
0
LINE
8
ELEC-CABLE
10
543.0
20
271.0
30
0
11
543.0
21
273.0
31
0
0
LINE
8
ELEC-CABLE
10
543.0
20
275.0
30
0
11
543.0
21
277.0
31
0
0
LINE
8
ELEC-CABLE
10
543.0
20
279.0
30
0
11
543.0
21
281.0
31
0
0
LINE
8
ELEC-CABLE
10
543.0
20
283.0
30
0
11
543.0
21
285.0
31
0
0
LINE
8
ELEC-CABLE
10
543.0
20
287.0
30
0
11
543.0
21
289.0
31
0
0
LINE
8
ELEC-CABLE
10
543.0
20
291.0
30
0
11
543.0
21
293.0
31
0
0
INSERT
8
ELEC-DEDICATED
2
DED
10
551.0
20
299.0
30
0
41
0.7
42
0.7
43
0.7
0
LINE
8
ELEC-CABLE
10
551.0
20
255.0
30
0
11
551.0
21
257.0
31
0
0
LINE
8
ELEC-CABLE
10
551.0
20
259.0
30
0
11
551.0
21
261.0
31
0
0
LINE
8
ELEC-CABLE
10
551.0
20
263.0
30
0
11
551.0
21
265.0
31
0
0
LINE
8
ELEC-CABLE
10
551.0
20
267.0
30
0
11
551.0
21
269.0
31
0
0
LINE
8
ELEC-CABLE
10
551.0
20
271.0
30
0
11
551.0
21
273.0
31
0
0
LINE
8
ELEC-CABLE
10
551.0
20
275.0
30
0
11
551.0
21
277.0
31
0
0
LINE
8
ELEC-CABLE
10
551.0
20
279.0
30
0
11
551.0
21
281.0
31
0
0
LINE
8
ELEC-CABLE
10
551.0
20
283.0
30
0
11
551.0
21
285.0
31
0
0
LINE
8
ELEC-CABLE
10
551.0
20
287.0
30
0
11
551.0
21
289.0
31
0
0
LINE
8
ELEC-CABLE
10
551.0
20
291.0
30
0
11
551.0
21
293.0
31
0
0
LINE
8
ELEC-CABLE
10
551.0
20
295.0
30
0
11
551.0
21
297.0
31
0
0
INSERT
8
ELEC-DEDICATED
2
DED
10
547.0
20
271.0
30
0
41
0.7
42
0.7
43
0.7
0
LINE
8
ELEC-CABLE
10
547.0
20
255.0
30
0
11
547.0
21
257.0
31
0
0
LINE
8
ELEC-CABLE
10
547.0
20
259.0
30
0
11
547.0
21
261.0
31
0
0
LINE
8
ELEC-CABLE
10
547.0
20
263.0
30
0
11
547.0
21
265.0
31
0
0
LINE
8
ELEC-CABLE
10
547.0
20
267.0
30
0
11
547.0
21
269.0
31
0
0
INSERT
8
ELEC-DEDICATED
2
DED
10
327.0
20
287.0
30
0
41
0.7
42
0.7
43
0.7
0
LINE
8
ELEC-CABLE
10
327.0
20
255.0
30
0
11
327.0
21
257.0
31
0
0
LINE
8
ELEC-CABLE
10
327.0
20
259.0
30
0
11
327.0
21
261.0
31
0
0
LINE
8
ELEC-CABLE
10
327.0
20
263.0
30
0
11
327.0
21
265.0
31
0
0
LINE
8
ELEC-CABLE
10
327.0
20
267.0
30
0
11
327.0
21
269.0
31
0
0
LINE
8
ELEC-CABLE
10
327.0
20
271.0
30
0
11
327.0
21
273.0
31
0
0
LINE
8
ELEC-CABLE
10
327.0
20
275.0
30
0
11
327.0
21
277.0
31
0
0
LINE
8
ELEC-CABLE
10
327.0
20
279.0
30
0
11
327.0
21
281.0
31
0
0
LINE
8
ELEC-CABLE
10
327.0
20
283.0
30
0
11
327.0
21
285.0
31
0
0
INSERT
8
ELEC-DEDICATED
2
LOAD3
10
403.0
20
317.4
30
0
41
0.7
42
0.7
43
0.7
0
LINE
8
ELEC-CABLE
10
403.0
20
255.0
30
0
11
403.0
21
256.95
31
0
0
LINE
8
ELEC-CABLE
10
403.0
20
258.9
30
0
11
403.0
21
260.85
31
0
0
LINE
8
ELEC-CABLE
10
403.0
20
262.8
30
0
11
403.0
21
264.75
31
0
0
LINE
8
ELEC-CABLE
10
403.0
20
266.7
30
0
11
403.0
21
268.65
31
0
0
LINE
8
ELEC-CABLE
10
403.0
20
270.6
30
0
11
403.0
21
272.55
31
0
0
LINE
8
ELEC-CABLE
10
403.0
20
274.5
30
0
11
403.0
21
276.45
31
0
0
LINE
8
ELEC-CABLE
10
403.0
20
278.4
30
0
11
403.0
21
280.35
31
0
0
LINE
8
ELEC-CABLE
10
403.0
20
282.3
30
0
11
403.0
21
284.25
31
0
0
LINE
8
ELEC-CABLE
10
403.0
20
286.2
30
0
11
403.0
21
288.15
31
0
0
LINE
8
ELEC-CABLE
10
403.0
20
290.1
30
0
11
403.0
21
292.05
31
0
0
LINE
8
ELEC-CABLE
10
403.0
20
294.0
30
0
11
403.0
21
295.95
31
0
0
LINE
8
ELEC-CABLE
10
403.0
20
297.9
30
0
11
403.0
21
299.85
31
0
0
LINE
8
ELEC-CABLE
10
403.0
20
301.8
30
0
11
403.0
21
303.75
31
0
0
LINE
8
ELEC-CABLE
10
403.0
20
305.7
30
0
11
403.0
21
307.65
31
0
0
LINE
8
ELEC-CABLE
10
403.0
20
309.6
30
0
11
403.0
21
311.55
31
0
0
LINE
8
ELEC-CABLE
10
403.0
20
313.5
30
0
11
403.0
21
315.45
31
0
0
INSERT
8
ELEC-DEDICATED
2
LOAD3
10
491.0
20
317.4
30
0
41
0.7
42
0.7
43
0.7
0
LINE
8
ELEC-CABLE
10
491.0
20
255.0
30
0
11
491.0
21
256.95
31
0
0
LINE
8
ELEC-CABLE
10
491.0
20
258.9
30
0
11
491.0
21
260.85
31
0
0
LINE
8
ELEC-CABLE
10
491.0
20
262.8
30
0
11
491.0
21
264.75
31
0
0
LINE
8
ELEC-CABLE
10
491.0
20
266.7
30
0
11
491.0
21
268.65
31
0
0
LINE
8
ELEC-CABLE
10
491.0
20
270.6
30
0
11
491.0
21
272.55
31
0
0
LINE
8
ELEC-CABLE
10
491.0
20
274.5
30
0
11
491.0
21
276.45
31
0
0
LINE
8
ELEC-CABLE
10
491.0
20
278.4
30
0
11
491.0
21
280.35
31
0
0
LINE
8
ELEC-CABLE
10
491.0
20
282.3
30
0
11
491.0
21
284.25
31
0
0
LINE
8
ELEC-CABLE
10
491.0
20
286.2
30
0
11
491.0
21
288.15
31
0
0
LINE
8
ELEC-CABLE
10
491.0
20
290.1
30
0
11
491.0
21
292.05
31
0
0
LINE
8
ELEC-CABLE
10
491.0
20
294.0
30
0
11
491.0
21
295.95
31
0
0
LINE
8
ELEC-CABLE
10
491.0
20
297.9
30
0
11
491.0
21
299.85
31
0
0
LINE
8
ELEC-CABLE
10
491.0
20
301.8
30
0
11
491.0
21
303.75
31
0
0
LINE
8
ELEC-CABLE
10
491.0
20
305.7
30
0
11
491.0
21
307.65
31
0
0
LINE
8
ELEC-CABLE
10
491.0
20
309.6
30
0
11
491.0
21
311.55
31
0
0
LINE
8
ELEC-CABLE
10
491.0
20
313.5
30
0
11
491.0
21
315.45
31
0
0
INSERT
8
ELEC-CABLE
2
JUNC
10
323.0
20
255.0
30
0
41
1
42
1
43
1
0
TEXT
8
ELEC-CABLE
10
327.0
20
249.4
30
0
40
2.5
1
R1 RISER
7
STANDARD
41
0.85
0
LINE
8
ELEC-CABLE
10
318.2
20
256.2
30
0
11
323.0
21
255.0
31
0
0
TEXT
8
ELEC-TEXT
10
25
20
165
30
0
40
3.5
1
VERTICAL RISER R1 - NOT TO SCALE
7
STANDARD
41
0.85
0
LINE
8
ARCH-WALLS
10
25
20
134
30
0
11
260
21
134
31
0
0
LINE
8
ARCH-WALLS
10
25
20
90
30
0
11
260
21
90
31
0
0
TEXT
8
ELEC-TEXT
10
25
20
138
30
0
40
2.7
1
FIRST FLOOR +3.6 m
7
STANDARD
41
0.85
0
TEXT
8
ELEC-TEXT
10
25
20
94
30
0
40
2.7
1
GROUND FLOOR +0.0 m
7
STANDARD
41
0.85
0
LINE
8
ELEC-DB
10
70
20
115
30
0
11
100
21
115
31
0
0
LINE
8
ELEC-DB
10
100
20
115
30
0
11
100
21
103
31
0
0
LINE
8
ELEC-DB
10
100
20
103
30
0
11
70
21
103
31
0
0
LINE
8
ELEC-DB
10
70
20
103
30
0
11
70
21
115
31
0
0
TEXT
8
ELEC-TEXT
10
75
20
107
30
0
40
3
1
MSB
7
STANDARD
41
0.85
0
LINE
8
ELEC-DB
10
165
20
115
30
0
11
197
21
115
31
0
0
LINE
8
ELEC-DB
10
197
20
115
30
0
11
197
21
103
31
0
0
LINE
8
ELEC-DB
10
197
20
103
30
0
11
165
21
103
31
0
0
LINE
8
ELEC-DB
10
165
20
103
30
0
11
165
21
115
31
0
0
TEXT
8
ELEC-TEXT
10
168
20
107
30
0
40
2.7
1
DB-GF
7
STANDARD
41
0.85
0
LINE
8
ELEC-DB
10
165
20
156
30
0
11
197
21
156
31
0
0
LINE
8
ELEC-DB
10
197
20
156
30
0
11
197
21
144
31
0
0
LINE
8
ELEC-DB
10
197
20
144
30
0
11
165
21
144
31
0
0
LINE
8
ELEC-DB
10
165
20
144
30
0
11
165
21
156
31
0
0
TEXT
8
ELEC-TEXT
10
168
20
148
30
0
40
2.7
1
DB-FF
7
STANDARD
41
0.85
0
LINE
8
ELEC-CABLE
10
100
20
109
30
0
11
165
21
109
31
0
0
TEXT
8
ELEC-TEXT
10
113
20
113
30
0
40
2.5
1
C-GF 12 m
7
STANDARD
41
0.85
0
LINE
8
ELEC-CABLE
10
85
20
115
30
0
11
85
21
150
31
0
0
LINE
8
ELEC-CABLE
10
85
20
150
30
0
11
165
21
150
31
0
0
TEXT
8
ELEC-TEXT
10
94
20
154
30
0
40
2.5
1
C-FF 25 m
7
STANDARD
41
0.85
0
TEXT
8
ELEC-TEXT
10
290
20
163
30
0
40
2.65
1
Both feeders originate at MSB; DB-FF is not fed through DB-GF.
7
STANDARD
41
0.85
0
TEXT
8
ELEC-TEXT
10
290
20
155
30
0
40
2.65
1
C-M: 4C 70 + 35 PE Cu, 20 m assumed underground/service route.
7
STANDARD
41
0.85
0
TEXT
8
ELEC-TEXT
10
290
20
147
30
0
40
2.65
1
C-GF / C-FF: 4C 25 + 16 PE Cu, tray / riser concept.
7
STANDARD
41
0.85
0
TEXT
8
ELEC-TEXT
10
290
20
139
30
0
40
2.65
1
All lengths include routing and termination allowance; verify on site.
7
STANDARD
41
0.85
0
TEXT
8
ELEC-TEXT
10
290
20
131
30
0
40
2.65
1
Tray dimensions are spatial allowances, not fill-capacity calculations.
7
STANDARD
41
0.85
0
TEXT
8
ELEC-TEXT
10
290
20
123
30
0
40
2.65
1
Branch conduits segregate power from ICT/data; avoid wet-service zones.
7
STANDARD
41
0.85
0
TEXT
8
ELEC-TEXT
10
290
20
115
30
0
40
2.65
1
Provide suitable supports, bend radii, fire-stopping and access.
7
STANDARD
41
0.85
0
TEXT
8
ELEC-TEXT
10
290
20
107
30
0
40
2.65
1
No fire-rated circuit claim. Coordinate penetration systems and riser.
7
STANDARD
41
0.85
0
TEXT
8
ELEC-TEXT
10
290
20
99
30
0
40
2.65
1
Final circuits have individual neutrals and PE; no shared neutrals.
7
STANDARD
41
0.85
0
TEXT
8
ELEC-TEXT
10
290
20
91
30
0
40
2.65
1
Typical final lengths: lighting 35-45 m; GPO 45 m; equipment 20-45 m.
7
STANDARD
41
0.85
0
LINE
8
SHEET
10
10
20
410
30
0
11
584
21
410
31
0
0
LINE
8
SHEET
10
584
20
410
30
0
11
584
21
10
31
0
0
LINE
8
SHEET
10
584
20
10
30
0
11
10
21
10
31
0
0
LINE
8
SHEET
10
10
20
10
30
0
11
10
21
410
31
0
0
LINE
8
SHEET
10
10
20
372
30
0
11
584
21
372
31
0
0
TEXT
8
ELEC-TEXT
10
20
20
394
30
0
40
6
1
NORTHBANK OFFICE
7
STANDARD
41
0.85
0
TEXT
8
ELEC-TEXT
10
20
20
381
30
0
40
4
1
CABLE ROUTING AND RISER
7
STANDARD
41
0.85
0
TEXT
8
ELEC-TEXT
10
456
20
395
30
0
40
3
1
ELECTRICAL PORTFOLIO
7
STANDARD
41
0.85
0
TEXT
8
ELEC-TEXT
10
456
20
386
30
0
40
2.8
1
CONCEPT DESIGN  /  REV A
7
STANDARD
41
0.85
0
TEXT
8
ELEC-TEXT
10
456
20
378
30
0
40
2.5
1
NOT FOR CONSTRUCTION
7
STANDARD
41
0.85
0
LINE
8
SHEET
10
10
20
38
30
0
11
584
21
38
31
0
0
LINE
8
SHEET
10
345
20
38
30
0
11
345
21
10
31
0
0
LINE
8
SHEET
10
480
20
38
30
0
11
480
21
10
31
0
0
TEXT
8
ELEC-TEXT
10
18
20
29
30
0
40
3.1
1
Two-Storey Commercial Office Electrical Design
7
STANDARD
41
0.85
0
TEXT
8
ELEC-TEXT
10
18
20
22
30
0
40
2.7
1
Designed by: Electrical Engineering Portfolio Project
7
STANDARD
41
0.85
0
TEXT
8
ELEC-TEXT
10
18
20
15
30
0
40
2.3
1
Educational exercise; not for construction, certification or regulatory approval.
7
STANDARD
41
0.85
0
TEXT
8
ELEC-TEXT
10
353
20
29
30
0
40
2.5
1
E-601  |  Cable routing and riser
7
STANDARD
41
0.85
0
TEXT
8
ELEC-TEXT
10
353
20
21
30
0
40
2.5
1
Scale: 1:125 / NTS at A2  |  Units: mm
7
STANDARD
41
0.85
0
TEXT
8
ELEC-TEXT
10
488
20
29
30
0
40
3
1
REV A
7
STANDARD
41
0.85
0
TEXT
8
ELEC-TEXT
10
488
20
21
30
0
40
2.7
1
2026-09-29
7
STANDARD
41
0.85
0
TEXT
8
ELEC-TEXT
10
488
20
14
30
0
40
2.3
1
Sheet size: 594 x 420 mm
7
STANDARD
41
0.85
0
ENDSEC
0
EOF
